<svg width="214" height="457" fill="none" xmlns="http://www.w3.org/2000/svg"><mask id="a" fill="#fff"><path d="M23.556 404.826l.809-.086.71-.921.026-.768.584.478 1.168.375.45.828 1.077-.051.611.435.827-.034-.782-1.963.018-1.152.306-.273-.261-.298-.225-1.895-.601-.785.044-.486-1.05-.572-.665-.87-.18-.785-1.923-2.654-.063-1.928.459-1.63.637-.802 1.95-.913 1.869-1.612 1.689-2.663 3.153-.878 1.742-1.05 1.743-2.031.566-1.134.602-.188.98-2.312 1.015-.478 2.317 1.288.054.427 1.339.213 2.82-.256.54 1.229 1.482.461.602.861-2.363 2.202.216.802.763-1.408 1.59-.93.153.273.153-.222.557.077.809 1.425.673.409-.368.871.719 1.8.197-.597-.494-.913.512-1.459-.53-1.144-.135-1.066.998-2.603 1.545.376 1.168 1.553 3.575.964 2.66 1.834.484.069 1.132-.47 1.878 1.306 1.698-.683 4.68 3.592 1.797-.239 2.147.188.332-.29-.79-1.263.638-1.083 2.129-1.809 1.455-.111.917.29 1.212-.111 1.716.324.45 1.272-.153 3.438.36 2.193.134 5.495 3.62-.674.557 1.706 1.842 3.541.754.896 1.24.555.854.06-1.07 4.718-2.55-.887-1.977-.333-1.033 1.911-1.51-.435-1.617.145-.628 1.852-2.48.077.072.972-.297.674-1.877-.426-.099-1.442-1.85-.307-2.291.298-1.519-.179-4.294.324-1.186 1.033-.871.025-1.886-.512-1.519.359-1.77 1.041.944 2.03.79.819.935.461 1.24-.034 1.077.683 1.16.187 2.218 1.656 1.608 1.587.333.682-.108 1.255-.98 1.245 1.06 2.33 2.893 1.664.495.64-.692 1.228-1.078 1.041-1.545.93 1.096 3.038-.225 4.138 1.177-.008.17 1.689 1.42.034.323-1.544 1.86-.154 2.201.205.009-1.246-.548-.768.907-3.242 1.806-.068.71-1.408 5.534.887-1.815 8.243-.431.111-1.222 5.998 3 .836-1.715 5.504-1.195-.214-.89.58-.997-.008-1.626 1.101-.89.904-.287 1.698-2.398-.401-.081-1.348-.341-.307-2.66-.691-.62.383-1.284-.196.072.495-.405.478-.422 1.527-1.662-.059-.467-.393.35-.768-.341-.196-.853.085-.98-.879-.925.802-1.976.128-1.743-.938.44-1.655-3.36-.436-.512 3.703-6.261-.605-.495-.572.162-.23-.215-.316-.89-.043-1.716.666-.108.717-.71.179-.817.896-.108.648-.871.222-1.312-.538-.826 1.127-1.006-1.255-.872-.58-.602.154-.44.734-.377-.018-.647.547-1.536-.828-.377-.691-.477.512-1.284-.973-.378 1.024-.844-.41-.242-.571-1.366.921.296.853-.557.743-1.033.58-1.257-.077-1.69-1.28-.745.342-1.123-.504-.368.06-.431.904-.989-.153-1.096.537-.871-.281-.647-.76-.844-.025-.764.81-1.815-.256-.35.547-1.42-.291-.691-.486-1.042.068-.674-1.169-1.159-.367.126-1.254-.216-.401-.566.742-.943-.486.36-1.433-.342-.794-.737-.145-.395-.418.144-.538-1.465-2.465.135-1.502.063-1.801.862-.964.036-.273-.512-.503.63-1.51-.037-.93-.656-.495.063-.674-.727-1.698-.279-.273-.871.136-.575-.674-.063-.529.458-.026.494-1.51-.09-2.261-.736-1.101-.638-.23-1.824.307-2.866-1.664-1.985-2.705-.18-1.527.809-1.007.08-.495-.79.35-.215-.213.53-.666-.1-.443-.682-.666-.08-1.101-1.842-2.465 1.212.179.512-.316 1.114.299 1.644-2.236-.503-1.723.171-.529.539.52.422.068.17-.213.567.41.476-.273.216.315 1.419.086.458.989 1.105.282 1.051-.393.17-.938.414-.273.54.205.709-.128 1.186-1.442-.476-1.937-.71-.888.485-.955.521-.265-.781-.188-.081-.256.808-.085-.539-.384-1.087-.239.36-1.083-1.133.222-.458.725.117.324-.305-.341-.566-.026-.961.58-1.456-.972-2.56-4.122-1.105-.187-.225-1.476.369.068-.656-.563-.162-.922.377-.205.45.512.35-.025.224-.418 1.034-.512.143-2.731 1.132-.264 2.435.981 1.95.99.125.887.368.469 1.914 1.272 1.913.034-.206.7-.548.051-.198.358-.386-.29-.872.444-.053.529.736.674-.8.836.127.469.242-.102.036-.666.62-.136.099-.93.458-.009.557-.435 1.096.085-.62-.819.233-.23.944.546 2.11.503 1.313.999 1.23.307 1.761 1.485zm84.985-112.339l.324-.052.62.504 1.042 1.638.027.597.503.128-.009-.298.287-.017-.009.861.413.367-.341.154.18.725-.539.666.161.529-.772.887.206.939.566.605-.754.222-.71-1.868-.952-.606-.018-.939-.548-.58-.153-.921-.557-.512-.746.23-.53-.239-.134.222-.971-1.425.495-1.015h.548l.359-.401.539.128.314-.376.692.359.467-.512zm15.686-40.24l.224.649 1.051.546 1.842-.171.71.307.224.879.782.043-.189 1.118.351-.683 2.389.427.557.341.809 1.314-.108.964-2.228.811-2.039.187-.387.299 3.073-.094.79.444-.673.708-1.249-.017-2.444.998-.476-.239-.961.35 1.276.222.485-.247.539.324 1.949-.725.395.281-.296.708.099 1.221-.71 1.484-.602.145-.593-.546-.099.461-.242-.41-.332-.034-.189.137.422.222-1.051.435-1.482-.913.584.495-.62.443.799-.076 1.644.494.521 1.843-1.23-.042-.521-.615.269 1.767-.144-.367-.224.119.126 1.348-.342.043.018.367-.602-.213.072-.376-.449-.307-1.635-.486-.647.17.871-.059 1.429.733.171.273-.333.06.764.393.117.896-1.204.52-.234-.188-.332.222-.979-.119.988.281.251-.179.539.461.333-.367.117 1.519-.899 1.501.306.325-.539-.094 1.015.213-.126.512.467.282.458 1.109-.844.734-.378 1.186-.386.23.755.188-.467.682.036.768-.297-.008.548.973-.907-.299.027.444-.863.324.315.153.656-.358.907.034.458.597.243 2.748.206.196-.206.307.467.683.108 1.169.521.836-.045.469.79.922.171 1.084.494.614 1.725 4.496 1.159 1.093 1.563 2.201 1.626 1.553.665 1.135 1.94 1.246.836.051 1.096 1.501.018.231-.369-.094-.17.691-.396.248.189.281-.62.597.207.47-2.758-1.383-.099.461-.809-.162-.17-.444-.395-.128.431.777.7.341.809.273.566-.205.934.845.045.376-1.276-.214-.88-.563-.431.085-.252-.367-.862-.273-.719-.785-.287.12.656.657-.45.008-.467-.699-.09-1.084.575-.034-.521-.418-1.141.683-.799-.743-.216.333.827.623-.782-.145-.153.247.899.598-.476.315.943.179.341-.187-.602-.171-.027-.358.566.042.584.615-.395.136.036.256.431-.008.71.751-.431.008.027-.273-.351-.145-.844.384-1.878-1.579-.467-.136.252.324-.396.145-1.266-.725.386.503-.135.188 1.141.879v.486l-.485-.358-.386.205-.369-.64-.188.23-.548-.188-.89-1.297-.682-.409-.288-.751-.521.546.97 1.365-.296.256-.162-.486-.898-.649-.036.436-.315.059.647.982-.26.034-.054.46-.503.086-.036.452-.755-.478-.629-.964-.476-.051-.233-.376-.351.162-.754-1.075-.081-.341.278-.23-1.042-.717-.665-.171.297.632-.512.384-.979-.905-.207.256.494.538-.368-.111-.261.247-.79-.384.063.316-.71-.162-.566-.87-.189.349-.278-.392-.539.094-1.249-.819-.297.051.36.358-.162.222-1.32-1.476.359.128 1.123-.478.692.094.601-1.084-1.554-2.175.926-.154.26-.367 1.581 1.246-.341-1.084-.602-.802.422.205.153-.333.458-.043.683-.904-.216-.742-.512 1.109-.557-.299-.099-.358-.287.026.018.981-.629-.359.027-.537-.305.136-.692-.273-.333-.495-1.185-2.167.026-1.015-.449-1.229.629-.35.09-.725.431-.648-.314-.299-.521.282-1.078 1.757.063.674-.396-.529-.512.188-.081-.538-.458-.315-.072.426.647.845-.503.623-1.222-1.152-1.123-2.884.225-.273-.494-1.254-.306.034.189 1.834-.278.572-.557-.273.368 1.664-.854-.981-.359-1.673-.027.708-.206.359-.243-.043-.117.444.746 1.109-.782-.196-.503.358-.961-.213-.27.17-.88-1.083-.907-.41-.342-.819.045-.81-.934-3.388.943-5.23 1.384-1.058.467-.743.548.965.781.239.378-.077.575-.683.593 1.425.413.12.386-.41-.189-1.468.261-.401.413.162-.548-1.134.44.034.378-.359-.404-.059-.243-.794 1.249.683-.279-.939.234.205.449-.248.117-.52-.935-.572-.036-.375.611.145.566.64-.287-.7.26-.623-.404-.486.71-.691-.252-.179-.44.281.099-.606 1.123-.477-.153-.367.665-.563-.413-.342.467-.315.925-.128.872.529.224-.231-.862-.495-1.078-.008-1.267.964-.368-.102.79-1.263-.179-.231-.45.325-.323-.342.512-.35.386.171.45-.418-.387-.478-.215.512-1.599-.247-.701-1.041-.395-.128 1.105-2.722 2.299-1.229 2.031.819 1.356.026-1.033-.631-.018-.256-.638-.035-.683-.418-.134-.392.269-1.143.44.034.18-.248.53.469.431.009.162-.41-.575-.196-.764-1.015.135-.35-.242-.196.26-.384-.108-.435 1.599-1.988.288-.12.557.273.844-.904 1.294-.581.395.427.459-.316-.126.538.188.111 1.141.077.387-.589.718-.196.638.546.18-.154-.656-.682.27-.811.817-.691.584.085.611-.742.988-.478 1.851 1.109zm35.611-60.623l.305.025.081-1.1.35-.487 1.591-.256.592-1.16-.161-.734-1.105.145-.342-.367.584-1.203-.26-1.194 1.105-.888.26.111-.17.333 1.599-.538 1.114.077.503-.682.826.733.728-.452.234.7 1.994.324.368-.239.548.077-.063 1.86.521-.077.369.461.359-1.271.485.452.315-.512-.144-.384.359.06-.126-.376.261-.426.521.46-.135.666.405-.12.323.274-.108.29.656.264.512-.725.449-.068.818-.905 1.689-.708-.279-.316 1.159-.674.44.179.845-.273.736.777.414.102.673-.529.171-.478.755-.469.629.299.35-1.178.602.598.611.034.521.409-.656-1.083.431-1.212.557.171.18-.265-.243-.316.117-.469.764-.503.943.059.314.794.737-.35.027-.52.701-.214.233-1.373.575-.478.539-.051.431.597 2.094 1.024.368-.051.377-.367-.593-.956-.081-.998-1.006-1.4.387-1.408.673-.895.53-.273.486.238.871-1.245.557-.069.629-1.237.763-.537.62-.077.324-.7 1.437-.461.045-.648.683-.606.952.444 2.228-1.732 2.47-.29 1.258.239.566.733.638-.162.377.35.665-.043.44 1.204.53-.299.252.682 1.159.896-.387 1.331.459.743.736.111-.126 1.459.827.725-1.401 1.877-.333 1.988.647.521-1.015 1.143-1.042 2.287-.98.452.189.461-.817 1.374-.827.546.054.452.656.401-.144.367-.692.23-.521-.188-1.105.47-2.452 1.757-.755.282-2.425 2.142-.674.034-1.635.699-1.527 1.4-.566.111-.539-.325-.009.487-1.114.81-1.114.163-2.498 1.015-.153.409-2.084 1.169-.26.751-.387-.068-.682.427-.818-.154-.054.29-.988.179-.746.649-1.796.751-1.447.128-.97.989-.737.094-.574 1.169-.261-.341.413-.674-.593-.307.072-.632-.377-.315-.18 1.134-.709.649-.27.691-.647.239-.278.469-.656.043-.018.222-1.006-.546-.279.861-1.195 1.238-1.581.409-1.437 1.041-.341.529-.45.094.297-.341-.234-.29-.494.239-.934-.035-1.168 2.04-.207.836-.072-1.254-.404.068-.359 1.186.171.708-.405.248.045.503-.413.051-.332.828-.495.333-.35-.504.153-1.962-.53-.128-.216.495.324.247-.593.657-.494 1.485-.557.546-.683.222-.063.418-.827.222-.242.426.198.538-.351.256.342.307-.504 1.484-.628-.11-.288-.888.144-.862-.602-.042-.162.631-.341.009.207.23-.62.205.359.333-.153.827-1.248.674.161-.196-.359-.503-.198.64-.907-.453-.306.248.719.708.782.299 2.362-.18.432.82-.602 1.476-.333.187-1.85-.102-.378-.392.45 1.612.602.248-.144.964-.97.571-1.087.12-1.51-.495-.521.23-.395-.93-.656-.699-.305-.009.862 1.186-.099.495.989.273.188.708.458.214.216 1.442-.476.298-.162.478-1.033-.017-1.779-2.415-.611-.094-.332-.349-.18-.939-.485.222.279 1.152 1.006 1.399-.71-.145-.153.23.162.7-.503 1.254.252.666-.369.87.342.256.116.657-.422.06-1.644-.623-.763-1.041-.827-.213-2.039-1.408-.261.734.997.699.557.035 1.15 2.295-.269.606.512 1.092-.351.614.602.998-.602.265.656.444-.97.179-.198-.239-.08.401.61-.009.153.393-.961-.196-.288.273.504.179-.099.819-.836-.922-.907-.162.44 1.161 1.267.256.027.478-.315-.333-.727-.051-.207.187.198.401-.153.495-.35-.179.233-.478-.153-.333-1.141-.588-.053.52.628.632-.116 1.032.62 1.075-.674.043-.045.452-1.518-.521-.89-.853-.485-.111-.44-1.604-1.096-1.672-.467.409.79 2.04-.35.187-.746-.298-1.105.162.414.281.763-.136.845.324.233-.162 2.246 3.55-.189.307-.152-.196-.584.315.781.376.171 2.116-.557.725-.871.503-.467-1.51-.674-.802-3.423-.853-1.177.102-.548-.819-.701.179 1.105.871 1.016-.026 1.895.879.683-.034.575.605-.126.333.755.316.682 2.466-.071.759-.611.512-.998.188-.035.665-1.231-.366-1.285-.692-1.024-1.988-1.177-.904-1.32-.401 1.742.981.62.674-.135.521.935.921-1.105.324 1.123.017 2.111 2.125.036.759-.566.461-.09.572-1.491 2.295-.593-1.331-.548.196.314.811.252-.043-.557 1.161.135.401-.396.102-2.084-.691-1.491-.017-.342-.58-.018-1.622-1.365-1.757-.314-1.169-.315-.282.458 1.476.737.913-.054 2.261-1.312-.887-2.174.213-.691-.435-.477-.921-.934-.657-1.096-.367-1.275.461-.782.733-.494-.076-1.132 1.288-.943.324-.171-.486-.692-.077-.162-.503.638-.819.917.017.476-.965 1.015-.657.036-.392-1.231.819-.674-.64 1.123-1.689 1.977-1.101.269-.58 1.186-.128 1.339-.922.889.009.108-.333.368-.068-.117-.213-.503.383-1.626.06-.647.615-.332-.393.449-.648-1.051.665-.925-.213-2.219 2.048-.764-.444-.431.358-.611-.358.063-.418-.377-.162-.36-.777-1.15-.836-.296-.58.278-.939.234.521 1.267.051.952-1.109-.207-.282.225-.392 1.15-1.221.808-.477 1.447-.205.539-.555 1.069.376.26.734 1.042.093-1.096-.52.306-.256-.341-.7-1.788-.554.063-.521 2.767-3.02.305.273.629-.384 1.204.862 1.41.051.359.307-.161.239.71-.137.449.307.036.393.521.008.79.717 1.5-.153.117-.188-.548-.094-.781.23-1.114-.742-.09-.281.71-.299.386-.939-.503.768-.485.103-.449-.384-1.088-.248.144-.29-.413-.759-.62-.043-.224-.341-.827-.307-1.141-.128-.323-.504.377-.691.584-.367.135.845 2.246-.691.395.699.377-.264.09-.452-.566-.794-.512.248-.269-.888-.441.196-1.284-.281.404-1.382.764.119.997-.648 1.689.034 1.392-.512.252-.359-.953-.247.333-.375-.18-.547-1.267-.17-.844.452-.099-.589-.898-.332.341-.948-.063-.878 1.527-1.306.36.341.332-.093-.153.375.315.222.53-.051.117-.418 1.626-.504.754-.563v.341l1.357 1.075 1.168-.025.17-.418.647.076.189-.204-.512-.632-.719.529-.952-.017-.44-1.066-.36-.222-.35.205.045-.538.692-.316-.207-.324-.916.205-.378-.324-.844.094-.476.29-.306-.128-.251.315-.476-.034-.539-.546.027-.495.844-.879 2.201-1.271.611.256.835-.794.683-.025.252-.299-.827-.418-.593.026-.467.648-.548.231.315-.666-.548.12.009-.231.934-.793-.521-.905-1.77.615-.53.708-.773.059.126-1.331.386-.819-.835-.614-.422.222.332-1.528.53-.861.926-.572.062.614.872-.298-.216.477.297.308.799-.529.944 2.849.395-.46.602-.162-.081-1.212.701-.546.368-1.024.602-.136.413-1.016-.548-.623-.701-.034-.134-.64 1.545-1.63.485-.247 1.446.478.8-.256-.108.537 1.231.802 1.994-.127-.126-.794-.826.009-.171-.623.189-.871-.467-.827-.459.017-.125-1.067.314-.486 1.635-.666.584-.554.827-.197.161.163.809-.657-.144-1.007-1.114.367-.44-.333-.18.153-.072-.332.674-.854.162.248.584-.35.422.111 2.722-1.399-.036-.888-.566.077.557-.623.611-.145-.171-.546.962-1.092.467-.171 1.302.367.405-.759 1.078-.086-.153-1.075.979-.153 1.402.606.655-.657 1.043-.146v-.554l.26-.231 1.105.094.773-.298.296-.461-.198-.256-.583-.538-.863-.111-.162-.486 1.231-1.229 1.608-.725.737.282 1.15-.009-.952.99-.782 1.391-.665.452.279.102.134.564.485-.299.638.247.297-.281zm-4.905-119.097l.314.043-.045.23-.997.563-.88 1.365-1.258.009-.341.76-.701.127-.359-.887-.764-.427-.243-.452-1.41-1.152-.898-.179.143-.444 2.318-1.86 1.878-.76 1.275.206.899.469 1.069 2.389zm-56.21-1.843l.412.068-.664 2.364 1.176 1.237-.071.435.368.572-.27.281-1.832.162-2.273-.7-1.33.137-.952-.392-.108-.768-.826.538-1.07-.077-.206-.342.225-.503 1.293-.939.54.256.242.691.296-.05.79-.734.81-2.006 1.545-.972.188-1.11 1.033.734.01.435.673.683zm-5.84-2.756l-1.33.068-.242.947.368 1.45-.647.59-.503-.06-.539-.316-.18-1.22-1.751-1.75-.225-.741.512-.785 1.554-1.187 1.536-.477 1.078.332.701.956.045 1.05-.584.605.207.538zm32.817-6.69l.584.043.242.307-.359 1.724-.925.478-.539.785-1.033.367-.997-1.144.071-.213.252-.162.665.256.054-.717.817-.239-.719-.913.782-.657.916-.554.189.64zm10.143-1.262l.143.623.926.622.206.478-.566 3.02.62.88-.773.742-.053 2.193.233.444-.404 1.322-.225.222-1.132-.103-.485.163-.054.34-1.626-.639-1.823.29-2.471-1.11 1.995-3.233-.647-1.783.081-.982-.755-1.698.728-.64 1.841-.503 1.033.128.575.777.414.017.26-.256.072-1.28 1.887-.034zm-23.286-1.05l.278.435-.323 1.007 3.638 3.96-.952 1.56-.566-.776-.719.342-.287.426-.063 1.562-.512.4-.467-.025-.665-.614-3.611-.043-2.138-1.314-.935-1.314-.108-.99.656-.392 1.806.12.395-1.025 1.069-.17.378-1.255-.863-.332-.117-.273 1.123-1.22.71-.384.854.537.736-.623.683.401zm8.498 1.033h-.512l-.152-.47 2.075-1.254-.692 1.45-.719.274zm21.714-4.6l.512.453.907-.085 4.223 1.92.772 1.083.566.333.988 1.98-.278.417-2.219-.034-1.698-.614-.252.896-.952-.103-.763.88-1.177.64-.387 1.433 1.096-.035 1.069.555.243.41-.476.887.207 1.075-2.767-.648-.243.256.665 1.51-.234.964-1.24-.29-1.329-.862-.404-.554-1.537-.717-.619-5.845.26-1.143-.467-.802-.072-1.101-1.312-1.758 2.022-.426.458-.376 1.222.333.314-.452 2.902-.18zm-22.863 3.695l-.53-.324.188-1.579.773-1.126.242-.87.638.316.755 1.698-.449 1.28-1.617.605zm-1.034-4.36l.737.111.386.597-.027.307-.916.649-.332 1.348-.485-.077-1.105-.99-1.339-.238.018-1.792.476-.845-.898-1.621.539-1.28.871.017 1.465.529-.009.614-.557.256-.378.7 1.626.503.234.495-.494.564.188.153zm22.738-4.718l.458.093.566-.375.171.572-1.213 3.089-.844.076-.333-.426-.521.196-.251.444-1.779-1.425-.216-1.05.422-.085.315-.538 2.416-.554.405-.444.404.427zm-28.963.093l.179 2.517.836 1.374-.782 1.656-.79-.615-.647-1.152.269-1.868.432-.657-1.689-1.127.718-.324-.116-.725.206-.128.647.264.737.785zm19.899-5.375l2.614 1.706.745 1.596-.646 1.817-1.213.692-1.042-.111-.971.64-.359-.205-.207-1.033-1.715.965-2.758-.649-.405-.392 1.177-2.048-.332-.307-1.608.375-.225-.17.494-.683 1.644-.452.449-.828.755-.427 3.603-.486zM75.679 41.81l1.815 1.468 1.14-.453.378.137.629-.435 1.401.725.638.87.099 1.041-.98.307.01.376.808.512.369.887-.189.614.71.342.395.554-.629 1.28-.323.077-.422-.333-.513.111-.18-.742-.35-.222-1.006.205-.736-.196-.818-.956.108-1.834-.863.29-.152-1.63-.611-.452-.665.034-.746.631.468.922-.953-.401-.215.213.107.845.432.17.09 1.152-1.833-.426.018 1.544.323.205.054.572.521.4L74 51.299l-.853-.077-.997-.622-1.312 1.365-.306 1.407-1.078-.145-.62-.46-.467.682.324 1.408-.665-.375-.7.12.053 1.433-.647.563h-.71l-.943-.444.477-2.201-.18-1.442-.925.06-.548.563-.504-.376-.386.06-.377 1.16-.548.205-.899-1.519-.934-.563-1.455-.273-.53-.665-.503-.197.844-.819 1.545-.17.387-.453 1.347-.571 3.791-.555 1.572-.904.827-.888-.09-.29 2.776-.913.764-1.194 1.383-.59-.557-1.015.18-.878.97.153.71-.708 1.464.64zm93.25.324l.503 2.33-.036 2.355-.224 1.663-.539.41-.36.879-.053.836.278.512-1.267 1.032-1.401.282-.44 1.86.35 1.357-.728.477-1.464.274.773.238-.836 2.09-.71.282-.431.547-2.048-.572-1.312-.623-.53-.99-1.051-1.075-1.051.256.09.452-.314.359-.513.017-2.506 1.476-1.042-2.602-.584-.35-.611-.862.845-1.314-.548-.887.125-1.92-.305-.444.629-.316-.261-.674.378-2.141.494-1.067.808-.82-.494-1.236.018-.214.386.205-.143-.546.907-.768.701-.068 1.239-.691 1.438.657-.674.503-1.276.162v.307l1.851-.383.809.801 1.617-.776.494.35v-.316l.449-.307 1.356-.23 1.366-.717.79.41 1.6-1.835 2.829.154.629 1.211zm-43.984-.486l.243.307.853.188 1.15 1.075.97.145 1.016 1.11-3.818 1.313-1.447-.222-1.195 1.075-.512-.076-1.141-.913.135-1.297-.251-.35-1.339-.162-1.276.4-1.491-1.074-.081-.81.71-.965 1.195-.555.296-.042.611.503.854-.631 1.024-.094.359.188-.242.75.224.154.692-.265.332-1.032.719-.077.674.162.665.64.071.555zm23.007-1.126l.854 1.885-.413 2.39-1.411.144-1.455 1.263-1.132-.23-.898-.913-.629.145-1.375-.777-.188-.896 1.123-.35 1.122-1.979.845-.452 2.704-.504.853.274zm-50.937.674l-.988.631-1.033.137.296.511-.27.205-1.31.086-.135.4.781-.068v.273l-.988.717-.018.47-.44-.103-.8.666.45.102.538.776.521.154 1.402-1.698.503.691.521-1.169.737-.247.43.845.729.025v-.819l.916-.555 1.491 1.52.045.656.62.043 1.33 1.032-.126.41-2.444 2.653-1.527.504-.216 1.28-.934 1.433-1.347.666-3.63.332-1.383.94-1.024.392h-.97l-.198.614.844.981.09 1.928-.36.7-.332.017-.476.572-.575.213-1.105-.162-1.482-.75-1.105.119-.548-.52-.629.349.18 1.536-.62.222-.602-.12-.557.495.027 1.476.467-.367.494.265 1.339-.188.449.538-.17.682.403.401-.952.862.764.572.638.128.305.828-.53.4-.818-.05-.09.392.243.247-.647-.025-1.23-.674-.297-.82-.575-.23-.395.836.512 1.587-1.042 1.698-.548-1.433-.907-.162-.98.734-.027.366.324.171-.144.572-1.967.588-.306-1.075 1.285-2.926 1.096-.325.853-.759-2.093-.145.135-.452.862-.418.01-.683-.836-.18-.782.555-.683-.136-.17.435-.521-.35-.135.427-.746-.094-.152.248.646.853-.071.341-.836-.145-.835.947-.485-.008-1.105-.939.404-1.229-1.698-2.244.072-1.152 1.195-.7.62-1.057 1.158-.512.674.597-.314 1.783.305.128.836-.469.566-.026.323.939.907-.47.333.444 1.797-.127-1.043-.734-.08-.384 1.49-.034.145-.197-2.453-.588-.575-.512-.404-.956 1.069-.427 1.23.282.827-.478 1.545.649.018-.555-.943-.708.314-.598-.224-.281L77 55.837l-2.336.623-.575-.358 2.3-1.613 1.14-1.152.791-.367.62.487 1.051-.794 1.042.103-.036.341.53.248-.152.844.26.154.467-.23.54.912.826-.17-.117-1.28h.907l1.007.358.368-.256.117-.418-.26-.614.422-.487-.117-.93.674-.315.26.153.314-.298-.96-1.255.96-.537.656.247.27-.153.718-.837-.314-.4.251-.47h-.44l.225-.58-.216-.512-2.506.81-.01-.759.818-1.194-.278-.137-.548.563-.413-.145-.216.828-.296.077-.557-.888 1.069-.589.161-.622-.332-.265-.755.085 2.21-1.518.692-.069.36-.622.853-.564 1.024-2.252 2.641-1.52.611.572.827.196-.342.46-1.365.29-1.635.965.494-.009-.135.41.566.051.234.785.601-.179.252-.768 2.273-.802 1.752-2.082.916 3.114-.144.692zm47.362-8.67l.359.043.36.777 1.563 1.109.485.82-.764 1.603-.045.922-.673.4-1.258-.17-1.752-2.688-.916-.75-.378-.717.09-.307.836-.401v.426l.521-.145.162-1.288 1.41.367zm-21.938-.127l.278.128.539-.273.557.87.8.136 1.374 2.185 1.321-.17 2.219-.76 1.473.605.503.888 2.076 1.092.449 1.561.71.623.377.982 1.455.98 1.213.265 1.797.888.62 1.109.79.7.054.64-1.482 2.141-2.588 1.178-.467-.043-.62-.555-.44-1.638-1.338-.776-.045-.691-.378-.598-1.877-.503-1.087-.614-.44-.06-.548.333-1.087-.768-.827-.99.593-.7-.252-.324-1.158-.145-1.222-1.126-.449-1.494-.584-.05-.243.69-1.338-.085-1.285-.93.431-.52-.449-.692-.386-.145-1.006.47-.791-.512-.198-1.365 1.393-1.332-.252-.247-.045-.845.369-.563.718.009.773 1.04zm9.828-.273l2.084-.035.593.367.952 1.272 1.752-.12.566.53 1.312.204.278.18-.143.682.907.742.772 1.365.584.094.548.785.881-.128.97.81.09.444-1.581 1.067-.413.58-.432.094.108.742-.799.794-2.076-.606-1.284-1.024-.072-1.715-.71-.785-1.105-.571-.683-.982.036-.913-.853-1.271-1.77-.76-2.327-1.68-.422-.606.476-.589.593.751 1.168.282zm30.248-1.135l2.075.179 1.141.597-.036.341-.719.495.396 1.494-.351 1.22-2.102 3.19-.683.65-2.075.605-2.318-.597-.709-.614-.225-.726-1.222-.588-.521-.76 1.366-.879.494-.947.773-.742 1.149-.376.773-.904 2.794-1.638zm-66.973-2.97l.323.572 1.15.614.252 1.417-.719 1.024-.8.256-.161.495.341.665h-1.015l-.871.452-.45.99-.43-.691.628-.947.063-.606-.35-.46.108-1.016-.513-.708-.035-.52 1.015-.47.053-.282-.368-.136.207-.273 1.572-.376zm89.073-.102l1.392.239.665.563.71-.043 1.32 1.63.584 1.28.162.52-.261.086.764 2.705-1.455 1.442.682.162.18 1.322.413.555-.314 1.706-2.534 4.241-1.078.563-2.254 1.886-.935.264-.853-.136-2.534 1.032-.215-.068.045-.512-3.576 1.963-.817-.103.009-.828-1.698-2.832-1.527-1.374-.09-.947 1.859-2.38 1.797-1.613.647-1.314.934-.632.728-.247 3.333.145.916-.495.503-1.536-.422-2.346.566-2.193-.135-.546 1.06-1.314 1.429-.845zM141.7 26.58l.862.546.297.93-.692-.068-.494.691-.539 2.116-.413.53-.494-.111-.171.307-.988.094-1.249-.154-1.626-1.314-.854-.375.477-.837 1.518-.588.808-.854 3.558-.913zm17.06-2.141l.26.7-1.23.87-1.42-.998-1.545-.385-.683-.767 1.24-.7 1.473.12 1.321.426.584.734zm-25.172-5.342l.952.444.323.674 1.024-.273 1.86 1.69.638-.256.656 1.8.835-.205.225-.785.431.785 1.41.853-1.787.692-.755-.12-1.069.606-.844.153-2.875 2.466-.252.615-1.635 1.024-1.087-.214.422-1.408-.916-.571-2.183 1.109-2.165-.572-.225-.435.387-.853-.063-1.024-.207-.205-.629.18-.161-.35.655-1.255-.485-.69 1.258-.863.189.256-.198.546.548.325 1.006-.052 1.303 1.024.449-.281.476.17.422.794 1.573.52.386-.128-.755-1.424-.71-.598.54-1.459-.818-2.227 1.851-.478zm15.218-.58l.566.12.719-.23.242.213-.521.247-.063.606.539.47.719 2.183-.045.419-.584.657-1.833.605-2.156-.896-.718-1.228.314-1.16 1.339-1.477.79-.597.692.068zm-8.687-5.802l1.123.435-.135 1.203.521.256.072.657.925.58.854-.127 1.105.443 1.239 1.621.207.751-.198.649-1.617 1.152-1.096.247-1.895-.256-.647-.648-.979-.308-.405-.98-.664-.564-.333.256-.638-.239-.521.23-.413-.418-1.419-.085-.279-.222-.108-1.425.701-.187-.054-1.698.575-.436 1.545.453.638-.512.351.153.431-.819 1.114-.162zm36.096-6.194l1.554.264.89.52.673.692.503 1.39-.575 1.639-.925.955-.916.461-1.842-.401-1.195.068-1.392-.571-.719-.623-.269-1.613-1.761-.247-.89-.726.504-.938.871-.427 1.59.06 1.123-.46-.036.486-.422.145-.117.35 3.351-1.024zM149.327.214l1.204.452.593.973-.09 1.237-.377.512.26 1.067-.683 1.032-2.416.393-.243.307-.737-.359-1.248.154-.512.657-.467.034-.908.785-.458.017-1.114-1.11-.072-1.407.638-.913-.979-1.826 1.949-.973 1.384.197L147.755.24l1.572-.026z"/></mask><path d="M23.556 404.826l.809-.086.71-.921.026-.768.584.478 1.168.375.45.828 1.077-.051.611.435.827-.034-.782-1.963.018-1.152.306-.273-.261-.298-.225-1.895-.601-.785.044-.486-1.05-.572-.665-.87-.18-.785-1.923-2.654-.063-1.928.459-1.63.637-.802 1.95-.913 1.869-1.612 1.689-2.663 3.153-.878 1.742-1.05 1.743-2.031.566-1.134.602-.188.98-2.312 1.015-.478 2.317 1.288.054.427 1.339.213 2.82-.256.54 1.229 1.482.461.602.861-2.363 2.202.216.802.763-1.408 1.59-.93.153.273.153-.222.557.077.809 1.425.673.409-.368.871.719 1.8.197-.597-.494-.913.512-1.459-.53-1.144-.135-1.066.998-2.603 1.545.376 1.168 1.553 3.575.964 2.66 1.834.484.069 1.132-.47 1.878 1.306 1.698-.683 4.68 3.592 1.797-.239 2.147.188.332-.29-.79-1.263.638-1.083 2.129-1.809 1.455-.111.917.29 1.212-.111 1.716.324.45 1.272-.153 3.438.36 2.193.134 5.495 3.62-.674.557 1.706 1.842 3.541.754.896 1.24.555.854.06-1.07 4.718-2.55-.887-1.977-.333-1.033 1.911-1.51-.435-1.617.145-.628 1.852-2.48.077.072.972-.297.674-1.877-.426-.099-1.442-1.85-.307-2.291.298-1.519-.179-4.294.324-1.186 1.033-.871.025-1.886-.512-1.519.359-1.77 1.041.944 2.03.79.819.935.461 1.24-.034 1.077.683 1.16.187 2.218 1.656 1.608 1.587.333.682-.108 1.255-.98 1.245 1.06 2.33 2.893 1.664.495.64-.692 1.228-1.078 1.041-1.545.93 1.096 3.038-.225 4.138 1.177-.008.17 1.689 1.42.034.323-1.544 1.86-.154 2.201.205.009-1.246-.548-.768.907-3.242 1.806-.068.71-1.408 5.534.887-1.815 8.243-.431.111-1.222 5.998 3 .836-1.715 5.504-1.195-.214-.89.58-.997-.008-1.626 1.101-.89.904-.287 1.698-2.398-.401-.081-1.348-.341-.307-2.66-.691-.62.383-1.284-.196.072.495-.405.478-.422 1.527-1.662-.059-.467-.393.35-.768-.341-.196-.853.085-.98-.879-.925.802-1.976.128-1.743-.938.44-1.655-3.36-.436-.512 3.703-6.261-.605-.495-.572.162-.23-.215-.316-.89-.043-1.716.666-.108.717-.71.179-.817.896-.108.648-.871.222-1.312-.538-.826 1.127-1.006-1.255-.872-.58-.602.154-.44.734-.377-.018-.647.547-1.536-.828-.377-.691-.477.512-1.284-.973-.378 1.024-.844-.41-.242-.571-1.366.921.296.853-.557.743-1.033.58-1.257-.077-1.69-1.28-.745.342-1.123-.504-.368.06-.431.904-.989-.153-1.096.537-.871-.281-.647-.76-.844-.025-.764.81-1.815-.256-.35.547-1.42-.291-.691-.486-1.042.068-.674-1.169-1.159-.367.126-1.254-.216-.401-.566.742-.943-.486.36-1.433-.342-.794-.737-.145-.395-.418.144-.538-1.465-2.465.135-1.502.063-1.801.862-.964.036-.273-.512-.503.63-1.51-.037-.93-.656-.495.063-.674-.727-1.698-.279-.273-.871.136-.575-.674-.063-.529.458-.026.494-1.51-.09-2.261-.736-1.101-.638-.23-1.824.307-2.866-1.664-1.985-2.705-.18-1.527.809-1.007.08-.495-.79.35-.215-.213.53-.666-.1-.443-.682-.666-.08-1.101-1.842-2.465 1.212.179.512-.316 1.114.299 1.644-2.236-.503-1.723.171-.529.539.52.422.068.17-.213.567.41.476-.273.216.315 1.419.086.458.989 1.105.282 1.051-.393.17-.938.414-.273.54.205.709-.128 1.186-1.442-.476-1.937-.71-.888.485-.955.521-.265-.781-.188-.081-.256.808-.085-.539-.384-1.087-.239.36-1.083-1.133.222-.458.725.117.324-.305-.341-.566-.026-.961.58-1.456-.972-2.56-4.122-1.105-.187-.225-1.476.369.068-.656-.563-.162-.922.377-.205.45.512.35-.025.224-.418 1.034-.512.143-2.731 1.132-.264 2.435.981 1.95.99.125.887.368.469 1.914 1.272 1.913.034-.206.7-.548.051-.198.358-.386-.29-.872.444-.053.529.736.674-.8.836.127.469.242-.102.036-.666.62-.136.099-.93.458-.009.557-.435 1.096.085-.62-.819.233-.23.944.546 2.11.503 1.313.999 1.23.307 1.761 1.485zm84.985-112.339l.324-.052.62.504 1.042 1.638.027.597.503.128-.009-.298.287-.017-.009.861.413.367-.341.154.18.725-.539.666.161.529-.772.887.206.939.566.605-.754.222-.71-1.868-.952-.606-.018-.939-.548-.58-.153-.921-.557-.512-.746.23-.53-.239-.134.222-.971-1.425.495-1.015h.548l.359-.401.539.128.314-.376.692.359.467-.512zm15.686-40.24l.224.649 1.051.546 1.842-.171.71.307.224.879.782.043-.189 1.118.351-.683 2.389.427.557.341.809 1.314-.108.964-2.228.811-2.039.187-.387.299 3.073-.094.79.444-.673.708-1.249-.017-2.444.998-.476-.239-.961.35 1.276.222.485-.247.539.324 1.949-.725.395.281-.296.708.099 1.221-.71 1.484-.602.145-.593-.546-.099.461-.242-.41-.332-.034-.189.137.422.222-1.051.435-1.482-.913.584.495-.62.443.799-.076 1.644.494.521 1.843-1.23-.042-.521-.615.269 1.767-.144-.367-.224.119.126 1.348-.342.043.018.367-.602-.213.072-.376-.449-.307-1.635-.486-.647.17.871-.059 1.429.733.171.273-.333.06.764.393.117.896-1.204.52-.234-.188-.332.222-.979-.119.988.281.251-.179.539.461.333-.367.117 1.519-.899 1.501.306.325-.539-.094 1.015.213-.126.512.467.282.458 1.109-.844.734-.378 1.186-.386.23.755.188-.467.682.036.768-.297-.008.548.973-.907-.299.027.444-.863.324.315.153.656-.358.907.034.458.597.243 2.748.206.196-.206.307.467.683.108 1.169.521.836-.045.469.79.922.171 1.084.494.614 1.725 4.496 1.159 1.093 1.563 2.201 1.626 1.553.665 1.135 1.94 1.246.836.051 1.096 1.501.018.231-.369-.094-.17.691-.396.248.189.281-.62.597.207.47-2.758-1.383-.099.461-.809-.162-.17-.444-.395-.128.431.777.7.341.809.273.566-.205.934.845.045.376-1.276-.214-.88-.563-.431.085-.252-.367-.862-.273-.719-.785-.287.12.656.657-.45.008-.467-.699-.09-1.084.575-.034-.521-.418-1.141.683-.799-.743-.216.333.827.623-.782-.145-.153.247.899.598-.476.315.943.179.341-.187-.602-.171-.027-.358.566.042.584.615-.395.136.036.256.431-.008.71.751-.431.008.027-.273-.351-.145-.844.384-1.878-1.579-.467-.136.252.324-.396.145-1.266-.725.386.503-.135.188 1.141.879v.486l-.485-.358-.386.205-.369-.64-.188.23-.548-.188-.89-1.297-.682-.409-.288-.751-.521.546.97 1.365-.296.256-.162-.486-.898-.649-.036.436-.315.059.647.982-.26.034-.054.46-.503.086-.036.452-.755-.478-.629-.964-.476-.051-.233-.376-.351.162-.754-1.075-.081-.341.278-.23-1.042-.717-.665-.171.297.632-.512.384-.979-.905-.207.256.494.538-.368-.111-.261.247-.79-.384.063.316-.71-.162-.566-.87-.189.349-.278-.392-.539.094-1.249-.819-.297.051.36.358-.162.222-1.32-1.476.359.128 1.123-.478.692.094.601-1.084-1.554-2.175.926-.154.26-.367 1.581 1.246-.341-1.084-.602-.802.422.205.153-.333.458-.043.683-.904-.216-.742-.512 1.109-.557-.299-.099-.358-.287.026.018.981-.629-.359.027-.537-.305.136-.692-.273-.333-.495-1.185-2.167.026-1.015-.449-1.229.629-.35.09-.725.431-.648-.314-.299-.521.282-1.078 1.757.063.674-.396-.529-.512.188-.081-.538-.458-.315-.072.426.647.845-.503.623-1.222-1.152-1.123-2.884.225-.273-.494-1.254-.306.034.189 1.834-.278.572-.557-.273.368 1.664-.854-.981-.359-1.673-.027.708-.206.359-.243-.043-.117.444.746 1.109-.782-.196-.503.358-.961-.213-.27.17-.88-1.083-.907-.41-.342-.819.045-.81-.934-3.388.943-5.23 1.384-1.058.467-.743.548.965.781.239.378-.077.575-.683.593 1.425.413.12.386-.41-.189-1.468.261-.401.413.162-.548-1.134.44.034.378-.359-.404-.059-.243-.794 1.249.683-.279-.939.234.205.449-.248.117-.52-.935-.572-.036-.375.611.145.566.64-.287-.7.26-.623-.404-.486.71-.691-.252-.179-.44.281.099-.606 1.123-.477-.153-.367.665-.563-.413-.342.467-.315.925-.128.872.529.224-.231-.862-.495-1.078-.008-1.267.964-.368-.102.79-1.263-.179-.231-.45.325-.323-.342.512-.35.386.171.45-.418-.387-.478-.215.512-1.599-.247-.701-1.041-.395-.128 1.105-2.722 2.299-1.229 2.031.819 1.356.026-1.033-.631-.018-.256-.638-.035-.683-.418-.134-.392.269-1.143.44.034.18-.248.53.469.431.009.162-.41-.575-.196-.764-1.015.135-.35-.242-.196.26-.384-.108-.435 1.599-1.988.288-.12.557.273.844-.904 1.294-.581.395.427.459-.316-.126.538.188.111 1.141.077.387-.589.718-.196.638.546.18-.154-.656-.682.27-.811.817-.691.584.085.611-.742.988-.478 1.851 1.109zm35.611-60.623l.305.025.081-1.1.35-.487 1.591-.256.592-1.16-.161-.734-1.105.145-.342-.367.584-1.203-.26-1.194 1.105-.888.26.111-.17.333 1.599-.538 1.114.077.503-.682.826.733.728-.452.234.7 1.994.324.368-.239.548.077-.063 1.86.521-.077.369.461.359-1.271.485.452.315-.512-.144-.384.359.06-.126-.376.261-.426.521.46-.135.666.405-.12.323.274-.108.29.656.264.512-.725.449-.068.818-.905 1.689-.708-.279-.316 1.159-.674.44.179.845-.273.736.777.414.102.673-.529.171-.478.755-.469.629.299.35-1.178.602.598.611.034.521.409-.656-1.083.431-1.212.557.171.18-.265-.243-.316.117-.469.764-.503.943.059.314.794.737-.35.027-.52.701-.214.233-1.373.575-.478.539-.051.431.597 2.094 1.024.368-.051.377-.367-.593-.956-.081-.998-1.006-1.4.387-1.408.673-.895.53-.273.486.238.871-1.245.557-.069.629-1.237.763-.537.62-.077.324-.7 1.437-.461.045-.648.683-.606.952.444 2.228-1.732 2.47-.29 1.258.239.566.733.638-.162.377.35.665-.043.44 1.204.53-.299.252.682 1.159.896-.387 1.331.459.743.736.111-.126 1.459.827.725-1.401 1.877-.333 1.988.647.521-1.015 1.143-1.042 2.287-.98.452.189.461-.817 1.374-.827.546.054.452.656.401-.144.367-.692.23-.521-.188-1.105.47-2.452 1.757-.755.282-2.425 2.142-.674.034-1.635.699-1.527 1.4-.566.111-.539-.325-.009.487-1.114.81-1.114.163-2.498 1.015-.153.409-2.084 1.169-.26.751-.387-.068-.682.427-.818-.154-.054.29-.988.179-.746.649-1.796.751-1.447.128-.97.989-.737.094-.574 1.169-.261-.341.413-.674-.593-.307.072-.632-.377-.315-.18 1.134-.709.649-.27.691-.647.239-.278.469-.656.043-.018.222-1.006-.546-.279.861-1.195 1.238-1.581.409-1.437 1.041-.341.529-.45.094.297-.341-.234-.29-.494.239-.934-.035-1.168 2.04-.207.836-.072-1.254-.404.068-.359 1.186.171.708-.405.248.045.503-.413.051-.332.828-.495.333-.35-.504.153-1.962-.53-.128-.216.495.324.247-.593.657-.494 1.485-.557.546-.683.222-.063.418-.827.222-.242.426.198.538-.351.256.342.307-.504 1.484-.628-.11-.288-.888.144-.862-.602-.042-.162.631-.341.009.207.23-.62.205.359.333-.153.827-1.248.674.161-.196-.359-.503-.198.64-.907-.453-.306.248.719.708.782.299 2.362-.18.432.82-.602 1.476-.333.187-1.85-.102-.378-.392.45 1.612.602.248-.144.964-.97.571-1.087.12-1.51-.495-.521.23-.395-.93-.656-.699-.305-.009.862 1.186-.099.495.989.273.188.708.458.214.216 1.442-.476.298-.162.478-1.033-.017-1.779-2.415-.611-.094-.332-.349-.18-.939-.485.222.279 1.152 1.006 1.399-.71-.145-.153.23.162.7-.503 1.254.252.666-.369.87.342.256.116.657-.422.06-1.644-.623-.763-1.041-.827-.213-2.039-1.408-.261.734.997.699.557.035 1.15 2.295-.269.606.512 1.092-.351.614.602.998-.602.265.656.444-.97.179-.198-.239-.08.401.61-.009.153.393-.961-.196-.288.273.504.179-.099.819-.836-.922-.907-.162.44 1.161 1.267.256.027.478-.315-.333-.727-.051-.207.187.198.401-.153.495-.35-.179.233-.478-.153-.333-1.141-.588-.053.52.628.632-.116 1.032.62 1.075-.674.043-.045.452-1.518-.521-.89-.853-.485-.111-.44-1.604-1.096-1.672-.467.409.79 2.04-.35.187-.746-.298-1.105.162.414.281.763-.136.845.324.233-.162 2.246 3.55-.189.307-.152-.196-.584.315.781.376.171 2.116-.557.725-.871.503-.467-1.51-.674-.802-3.423-.853-1.177.102-.548-.819-.701.179 1.105.871 1.016-.026 1.895.879.683-.034.575.605-.126.333.755.316.682 2.466-.071.759-.611.512-.998.188-.035.665-1.231-.366-1.285-.692-1.024-1.988-1.177-.904-1.32-.401 1.742.981.62.674-.135.521.935.921-1.105.324 1.123.017 2.111 2.125.036.759-.566.461-.09.572-1.491 2.295-.593-1.331-.548.196.314.811.252-.043-.557 1.161.135.401-.396.102-2.084-.691-1.491-.017-.342-.58-.018-1.622-1.365-1.757-.314-1.169-.315-.282.458 1.476.737.913-.054 2.261-1.312-.887-2.174.213-.691-.435-.477-.921-.934-.657-1.096-.367-1.275.461-.782.733-.494-.076-1.132 1.288-.943.324-.171-.486-.692-.077-.162-.503.638-.819.917.017.476-.965 1.015-.657.036-.392-1.231.819-.674-.64 1.123-1.689 1.977-1.101.269-.58 1.186-.128 1.339-.922.889.009.108-.333.368-.068-.117-.213-.503.383-1.626.06-.647.615-.332-.393.449-.648-1.051.665-.925-.213-2.219 2.048-.764-.444-.431.358-.611-.358.063-.418-.377-.162-.36-.777-1.15-.836-.296-.58.278-.939.234.521 1.267.051.952-1.109-.207-.282.225-.392 1.15-1.221.808-.477 1.447-.205.539-.555 1.069.376.26.734 1.042.093-1.096-.52.306-.256-.341-.7-1.788-.554.063-.521 2.767-3.02.305.273.629-.384 1.204.862 1.41.051.359.307-.161.239.71-.137.449.307.036.393.521.008.79.717 1.5-.153.117-.188-.548-.094-.781.23-1.114-.742-.09-.281.71-.299.386-.939-.503.768-.485.103-.449-.384-1.088-.248.144-.29-.413-.759-.62-.043-.224-.341-.827-.307-1.141-.128-.323-.504.377-.691.584-.367.135.845 2.246-.691.395.699.377-.264.09-.452-.566-.794-.512.248-.269-.888-.441.196-1.284-.281.404-1.382.764.119.997-.648 1.689.034 1.392-.512.252-.359-.953-.247.333-.375-.18-.547-1.267-.17-.844.452-.099-.589-.898-.332.341-.948-.063-.878 1.527-1.306.36.341.332-.093-.153.375.315.222.53-.051.117-.418 1.626-.504.754-.563v.341l1.357 1.075 1.168-.025.17-.418.647.076.189-.204-.512-.632-.719.529-.952-.017-.44-1.066-.36-.222-.35.205.045-.538.692-.316-.207-.324-.916.205-.378-.324-.844.094-.476.29-.306-.128-.251.315-.476-.034-.539-.546.027-.495.844-.879 2.201-1.271.611.256.835-.794.683-.025.252-.299-.827-.418-.593.026-.467.648-.548.231.315-.666-.548.12.009-.231.934-.793-.521-.905-1.77.615-.53.708-.773.059.126-1.331.386-.819-.835-.614-.422.222.332-1.528.53-.861.926-.572.062.614.872-.298-.216.477.297.308.799-.529.944 2.849.395-.46.602-.162-.081-1.212.701-.546.368-1.024.602-.136.413-1.016-.548-.623-.701-.034-.134-.64 1.545-1.63.485-.247 1.446.478.8-.256-.108.537 1.231.802 1.994-.127-.126-.794-.826.009-.171-.623.189-.871-.467-.827-.459.017-.125-1.067.314-.486 1.635-.666.584-.554.827-.197.161.163.809-.657-.144-1.007-1.114.367-.44-.333-.18.153-.072-.332.674-.854.162.248.584-.35.422.111 2.722-1.399-.036-.888-.566.077.557-.623.611-.145-.171-.546.962-1.092.467-.171 1.302.367.405-.759 1.078-.086-.153-1.075.979-.153 1.402.606.655-.657 1.043-.146v-.554l.26-.231 1.105.094.773-.298.296-.461-.198-.256-.583-.538-.863-.111-.162-.486 1.231-1.229 1.608-.725.737.282 1.15-.009-.952.99-.782 1.391-.665.452.279.102.134.564.485-.299.638.247.297-.281zm-4.905-119.097l.314.043-.045.23-.997.563-.88 1.365-1.258.009-.341.76-.701.127-.359-.887-.764-.427-.243-.452-1.41-1.152-.898-.179.143-.444 2.318-1.86 1.878-.76 1.275.206.899.469 1.069 2.389zm-56.21-1.843l.412.068-.664 2.364 1.176 1.237-.071.435.368.572-.27.281-1.832.162-2.273-.7-1.33.137-.952-.392-.108-.768-.826.538-1.07-.077-.206-.342.225-.503 1.293-.939.54.256.242.691.296-.05.79-.734.81-2.006 1.545-.972.188-1.11 1.033.734.01.435.673.683zm-5.84-2.756l-1.33.068-.242.947.368 1.45-.647.59-.503-.06-.539-.316-.18-1.22-1.751-1.75-.225-.741.512-.785 1.554-1.187 1.536-.477 1.078.332.701.956.045 1.05-.584.605.207.538zm32.817-6.69l.584.043.242.307-.359 1.724-.925.478-.539.785-1.033.367-.997-1.144.071-.213.252-.162.665.256.054-.717.817-.239-.719-.913.782-.657.916-.554.189.64zm10.143-1.262l.143.623.926.622.206.478-.566 3.02.62.88-.773.742-.053 2.193.233.444-.404 1.322-.225.222-1.132-.103-.485.163-.054.34-1.626-.639-1.823.29-2.471-1.11 1.995-3.233-.647-1.783.081-.982-.755-1.698.728-.64 1.841-.503 1.033.128.575.777.414.017.26-.256.072-1.28 1.887-.034zm-23.286-1.05l.278.435-.323 1.007 3.638 3.96-.952 1.56-.566-.776-.719.342-.287.426-.063 1.562-.512.4-.467-.025-.665-.614-3.611-.043-2.138-1.314-.935-1.314-.108-.99.656-.392 1.806.12.395-1.025 1.069-.17.378-1.255-.863-.332-.117-.273 1.123-1.22.71-.384.854.537.736-.623.683.401zm8.498 1.033h-.512l-.152-.47 2.075-1.254-.692 1.45-.719.274zm21.714-4.6l.512.453.907-.085 4.223 1.92.772 1.083.566.333.988 1.98-.278.417-2.219-.034-1.698-.614-.252.896-.952-.103-.763.88-1.177.64-.387 1.433 1.096-.035 1.069.555.243.41-.476.887.207 1.075-2.767-.648-.243.256.665 1.51-.234.964-1.24-.29-1.329-.862-.404-.554-1.537-.717-.619-5.845.26-1.143-.467-.802-.072-1.101-1.312-1.758 2.022-.426.458-.376 1.222.333.314-.452 2.902-.18zm-22.863 3.695l-.53-.324.188-1.579.773-1.126.242-.87.638.316.755 1.698-.449 1.28-1.617.605zm-1.034-4.36l.737.111.386.597-.027.307-.916.649-.332 1.348-.485-.077-1.105-.99-1.339-.238.018-1.792.476-.845-.898-1.621.539-1.28.871.017 1.465.529-.009.614-.557.256-.378.7 1.626.503.234.495-.494.564.188.153zm22.738-4.718l.458.093.566-.375.171.572-1.213 3.089-.844.076-.333-.426-.521.196-.251.444-1.779-1.425-.216-1.05.422-.085.315-.538 2.416-.554.405-.444.404.427zm-28.963.093l.179 2.517.836 1.374-.782 1.656-.79-.615-.647-1.152.269-1.868.432-.657-1.689-1.127.718-.324-.116-.725.206-.128.647.264.737.785zm19.899-5.375l2.614 1.706.745 1.596-.646 1.817-1.213.692-1.042-.111-.971.64-.359-.205-.207-1.033-1.715.965-2.758-.649-.405-.392 1.177-2.048-.332-.307-1.608.375-.225-.17.494-.683 1.644-.452.449-.828.755-.427 3.603-.486zM75.679 41.81l1.815 1.468 1.14-.453.378.137.629-.435 1.401.725.638.87.099 1.041-.98.307.01.376.808.512.369.887-.189.614.71.342.395.554-.629 1.28-.323.077-.422-.333-.513.111-.18-.742-.35-.222-1.006.205-.736-.196-.818-.956.108-1.834-.863.29-.152-1.63-.611-.452-.665.034-.746.631.468.922-.953-.401-.215.213.107.845.432.17.09 1.152-1.833-.426.018 1.544.323.205.054.572.521.4L74 51.299l-.853-.077-.997-.622-1.312 1.365-.306 1.407-1.078-.145-.62-.46-.467.682.324 1.408-.665-.375-.7.12.053 1.433-.647.563h-.71l-.943-.444.477-2.201-.18-1.442-.925.06-.548.563-.504-.376-.386.06-.377 1.16-.548.205-.899-1.519-.934-.563-1.455-.273-.53-.665-.503-.197.844-.819 1.545-.17.387-.453 1.347-.571 3.791-.555 1.572-.904.827-.888-.09-.29 2.776-.913.764-1.194 1.383-.59-.557-1.015.18-.878.97.153.71-.708 1.464.64zm93.25.324l.503 2.33-.036 2.355-.224 1.663-.539.41-.36.879-.053.836.278.512-1.267 1.032-1.401.282-.44 1.86.35 1.357-.728.477-1.464.274.773.238-.836 2.09-.71.282-.431.547-2.048-.572-1.312-.623-.53-.99-1.051-1.075-1.051.256.09.452-.314.359-.513.017-2.506 1.476-1.042-2.602-.584-.35-.611-.862.845-1.314-.548-.887.125-1.92-.305-.444.629-.316-.261-.674.378-2.141.494-1.067.808-.82-.494-1.236.018-.214.386.205-.143-.546.907-.768.701-.068 1.239-.691 1.438.657-.674.503-1.276.162v.307l1.851-.383.809.801 1.617-.776.494.35v-.316l.449-.307 1.356-.23 1.366-.717.79.41 1.6-1.835 2.829.154.629 1.211zm-43.984-.486l.243.307.853.188 1.15 1.075.97.145 1.016 1.11-3.818 1.313-1.447-.222-1.195 1.075-.512-.076-1.141-.913.135-1.297-.251-.35-1.339-.162-1.276.4-1.491-1.074-.081-.81.71-.965 1.195-.555.296-.042.611.503.854-.631 1.024-.094.359.188-.242.75.224.154.692-.265.332-1.032.719-.077.674.162.665.64.071.555zm23.007-1.126l.854 1.885-.413 2.39-1.411.144-1.455 1.263-1.132-.23-.898-.913-.629.145-1.375-.777-.188-.896 1.123-.35 1.122-1.979.845-.452 2.704-.504.853.274zm-50.937.674l-.988.631-1.033.137.296.511-.27.205-1.31.086-.135.4.781-.068v.273l-.988.717-.018.47-.44-.103-.8.666.45.102.538.776.521.154 1.402-1.698.503.691.521-1.169.737-.247.43.845.729.025v-.819l.916-.555 1.491 1.52.045.656.62.043 1.33 1.032-.126.41-2.444 2.653-1.527.504-.216 1.28-.934 1.433-1.347.666-3.63.332-1.383.94-1.024.392h-.97l-.198.614.844.981.09 1.928-.36.7-.332.017-.476.572-.575.213-1.105-.162-1.482-.75-1.105.119-.548-.52-.629.349.18 1.536-.62.222-.602-.12-.557.495.027 1.476.467-.367.494.265 1.339-.188.449.538-.17.682.403.401-.952.862.764.572.638.128.305.828-.53.4-.818-.05-.09.392.243.247-.647-.025-1.23-.674-.297-.82-.575-.23-.395.836.512 1.587-1.042 1.698-.548-1.433-.907-.162-.98.734-.027.366.324.171-.144.572-1.967.588-.306-1.075 1.285-2.926 1.096-.325.853-.759-2.093-.145.135-.452.862-.418.01-.683-.836-.18-.782.555-.683-.136-.17.435-.521-.35-.135.427-.746-.094-.152.248.646.853-.071.341-.836-.145-.835.947-.485-.008-1.105-.939.404-1.229-1.698-2.244.072-1.152 1.195-.7.62-1.057 1.158-.512.674.597-.314 1.783.305.128.836-.469.566-.026.323.939.907-.47.333.444 1.797-.127-1.043-.734-.08-.384 1.49-.034.145-.197-2.453-.588-.575-.512-.404-.956 1.069-.427 1.23.282.827-.478 1.545.649.018-.555-.943-.708.314-.598-.224-.281L77 55.837l-2.336.623-.575-.358 2.3-1.613 1.14-1.152.791-.367.62.487 1.051-.794 1.042.103-.036.341.53.248-.152.844.26.154.467-.23.54.912.826-.17-.117-1.28h.907l1.007.358.368-.256.117-.418-.26-.614.422-.487-.117-.93.674-.315.26.153.314-.298-.96-1.255.96-.537.656.247.27-.153.718-.837-.314-.4.251-.47h-.44l.225-.58-.216-.512-2.506.81-.01-.759.818-1.194-.278-.137-.548.563-.413-.145-.216.828-.296.077-.557-.888 1.069-.589.161-.622-.332-.265-.755.085 2.21-1.518.692-.069.36-.622.853-.564 1.024-2.252 2.641-1.52.611.572.827.196-.342.46-1.365.29-1.635.965.494-.009-.135.41.566.051.234.785.601-.179.252-.768 2.273-.802 1.752-2.082.916 3.114-.144.692zm47.362-8.67l.359.043.36.777 1.563 1.109.485.82-.764 1.603-.045.922-.673.4-1.258-.17-1.752-2.688-.916-.75-.378-.717.09-.307.836-.401v.426l.521-.145.162-1.288 1.41.367zm-21.938-.127l.278.128.539-.273.557.87.8.136 1.374 2.185 1.321-.17 2.219-.76 1.473.605.503.888 2.076 1.092.449 1.561.71.623.377.982 1.455.98 1.213.265 1.797.888.62 1.109.79.7.054.64-1.482 2.141-2.588 1.178-.467-.043-.62-.555-.44-1.638-1.338-.776-.045-.691-.378-.598-1.877-.503-1.087-.614-.44-.06-.548.333-1.087-.768-.827-.99.593-.7-.252-.324-1.158-.145-1.222-1.126-.449-1.494-.584-.05-.243.69-1.338-.085-1.285-.93.431-.52-.449-.692-.386-.145-1.006.47-.791-.512-.198-1.365 1.393-1.332-.252-.247-.045-.845.369-.563.718.009.773 1.04zm9.828-.273l2.084-.035.593.367.952 1.272 1.752-.12.566.53 1.312.204.278.18-.143.682.907.742.772 1.365.584.094.548.785.881-.128.97.81.09.444-1.581 1.067-.413.58-.432.094.108.742-.799.794-2.076-.606-1.284-1.024-.072-1.715-.71-.785-1.105-.571-.683-.982.036-.913-.853-1.271-1.77-.76-2.327-1.68-.422-.606.476-.589.593.751 1.168.282zm30.248-1.135l2.075.179 1.141.597-.036.341-.719.495.396 1.494-.351 1.22-2.102 3.19-.683.65-2.075.605-2.318-.597-.709-.614-.225-.726-1.222-.588-.521-.76 1.366-.879.494-.947.773-.742 1.149-.376.773-.904 2.794-1.638zm-66.973-2.97l.323.572 1.15.614.252 1.417-.719 1.024-.8.256-.161.495.341.665h-1.015l-.871.452-.45.99-.43-.691.628-.947.063-.606-.35-.46.108-1.016-.513-.708-.035-.52 1.015-.47.053-.282-.368-.136.207-.273 1.572-.376zm89.073-.102l1.392.239.665.563.71-.043 1.32 1.63.584 1.28.162.52-.261.086.764 2.705-1.455 1.442.682.162.18 1.322.413.555-.314 1.706-2.534 4.241-1.078.563-2.254 1.886-.935.264-.853-.136-2.534 1.032-.215-.068.045-.512-3.576 1.963-.817-.103.009-.828-1.698-2.832-1.527-1.374-.09-.947 1.859-2.38 1.797-1.613.647-1.314.934-.632.728-.247 3.333.145.916-.495.503-1.536-.422-2.346.566-2.193-.135-.546 1.06-1.314 1.429-.845zM141.7 26.58l.862.546.297.93-.692-.068-.494.691-.539 2.116-.413.53-.494-.111-.171.307-.988.094-1.249-.154-1.626-1.314-.854-.375.477-.837 1.518-.588.808-.854 3.558-.913zm17.06-2.141l.26.7-1.23.87-1.42-.998-1.545-.385-.683-.767 1.24-.7 1.473.12 1.321.426.584.734zm-25.172-5.342l.952.444.323.674 1.024-.273 1.86 1.69.638-.256.656 1.8.835-.205.225-.785.431.785 1.41.853-1.787.692-.755-.12-1.069.606-.844.153-2.875 2.466-.252.615-1.635 1.024-1.087-.214.422-1.408-.916-.571-2.183 1.109-2.165-.572-.225-.435.387-.853-.063-1.024-.207-.205-.629.18-.161-.35.655-1.255-.485-.69 1.258-.863.189.256-.198.546.548.325 1.006-.052 1.303 1.024.449-.281.476.17.422.794 1.573.52.386-.128-.755-1.424-.71-.598.54-1.459-.818-2.227 1.851-.478zm15.218-.58l.566.12.719-.23.242.213-.521.247-.063.606.539.47.719 2.183-.045.419-.584.657-1.833.605-2.156-.896-.718-1.228.314-1.16 1.339-1.477.79-.597.692.068zm-8.687-5.802l1.123.435-.135 1.203.521.256.072.657.925.58.854-.127 1.105.443 1.239 1.621.207.751-.198.649-1.617 1.152-1.096.247-1.895-.256-.647-.648-.979-.308-.405-.98-.664-.564-.333.256-.638-.239-.521.23-.413-.418-1.419-.085-.279-.222-.108-1.425.701-.187-.054-1.698.575-.436 1.545.453.638-.512.351.153.431-.819 1.114-.162zm36.096-6.194l1.554.264.89.52.673.692.503 1.39-.575 1.639-.925.955-.916.461-1.842-.401-1.195.068-1.392-.571-.719-.623-.269-1.613-1.761-.247-.89-.726.504-.938.871-.427 1.59.06 1.123-.46-.036.486-.422.145-.117.35 3.351-1.024zM149.327.214l1.204.452.593.973-.09 1.237-.377.512.26 1.067-.683 1.032-2.416.393-.243.307-.737-.359-1.248.154-.512.657-.467.034-.908.785-.458.017-1.114-1.11-.072-1.407.638-.913-.979-1.826 1.949-.973 1.384.197L147.755.24l1.572-.026z" stroke="#31313B" stroke-width=".4" mask="url(#a)"/></svg>