<svg width="60" height="39" fill="none" xmlns="http://www.w3.org/2000/svg"><mask id="a" fill="#fff"><path d="M46.737.822l.36-.128.314.23 1.284 2.09.818-.144 1.581.827.314.666.584.23.081.307 1.258.572.494 1.459.548.256.548 1.647.629.486.386.913 2.516.299-.01.827-.359.785-1.266.572-.144.324.45.64 1.993 1.579.126 1.083-.512.487-.018.682.288.93.602-.042.206.281.01.709-.737-.487-.593.094-1.707 1.229.305.802-.224 1.297.34.256.064 1.484-1.842.034-.52.939-1.995-.418-1.536.256.296 1.587-.638.299-.215.913-1.653 1.27.143.607-1.626.64-1.32.136-.836.546-1.033.077-1.868 1.374-1.627.213-.35 1.519-.314-.324-.746.307.108.597.718-.077.602.572 1.95.341-.17.785.844.478-.683.512.072.452-.467.299-.324-.137-2.165.692-.584-.777-.108-.597-.97-.99-2.641-1.05-.952-.093-.288.213-.629-.47-.116.453-.737.708-1.554-.256-.17 1.024-1.052.7-1.725-.197-.773.359-.997-.589-.8-.11-.44.084-.197.393-2.012.102.17-.69-.413-.658-.144-.921-2.12.358.53-1.98-.125-.563-.477.299-.943-.648-1.428-.504-.387.99-1.168.008.18 2.253-1.734.657-.045.717h-.655l-.081.725-5.911-11.655-4.618-8.03-3.692-5.614.287-.665.27.102.134-.273-.116-.47.655-.162-.664-.375-.018-.734.925-.05.467-.487.036.76.728.545 1.931-.46.315-1.076.341-.239 1.51-.281.448.256.207-.384.386.264.602-.085.53-.41.656.35.62-.247.764-.52.125-.504 1.42-.427.162-.64 1.419-.827-.18-.427.396-.281.296-.12.26.46.378-.11 1.069-.82.764-.076-.135-.478.449-.41 1.554-.443-.242-.708.485-.495.359.034.233.964.836.785.207.82.637-.095.45.427 1.078-.034.745.717.027.964 1.69.043-.064.546-.665.41.44 1.083 2.256.46.341.171-.198.52 1.267.88.638.127.674-.23-.198-.247.809-.76-.126-.41.566-.733-.117-.58 2.372-2.21.557-.282.844.086.252.75.512.197.593-.623-.09-.888 2.048-.298.97.162 1.842-.905.89.23.269.317 1.267-1.52 1.86-.853 1.13-.212.036-.247z"/></mask><path d="M46.737.822l.36-.128.314.23 1.284 2.09.818-.144 1.581.827.314.666.584.23.081.307 1.258.572.494 1.459.548.256.548 1.647.629.486.386.913 2.516.299-.01.827-.359.785-1.266.572-.144.324.45.64 1.993 1.579.126 1.083-.512.487-.018.682.288.93.602-.042.206.281.01.709-.737-.487-.593.094-1.707 1.229.305.802-.224 1.297.34.256.064 1.484-1.842.034-.52.939-1.995-.418-1.536.256.296 1.587-.638.299-.215.913-1.653 1.27.143.607-1.626.64-1.32.136-.836.546-1.033.077-1.868 1.374-1.627.213-.35 1.519-.314-.324-.746.307.108.597.718-.077.602.572 1.95.341-.17.785.844.478-.683.512.072.452-.467.299-.324-.137-2.165.692-.584-.777-.108-.597-.97-.99-2.641-1.05-.952-.093-.288.213-.629-.47-.116.453-.737.708-1.554-.256-.17 1.024-1.052.7-1.725-.197-.773.359-.997-.589-.8-.11-.44.084-.197.393-2.012.102.17-.69-.413-.658-.144-.921-2.12.358.53-1.98-.125-.563-.477.299-.943-.648-1.428-.504-.387.99-1.168.008.18 2.253-1.734.657-.045.717h-.655l-.081.725-5.911-11.655-4.618-8.03-3.692-5.614.287-.665.27.102.134-.273-.116-.47.655-.162-.664-.375-.018-.734.925-.05.467-.487.036.76.728.545 1.931-.46.315-1.076.341-.239 1.51-.281.448.256.207-.384.386.264.602-.085.53-.41.656.35.62-.247.764-.52.125-.504 1.42-.427.162-.64 1.419-.827-.18-.427.396-.281.296-.12.26.46.378-.11 1.069-.82.764-.076-.135-.478.449-.41 1.554-.443-.242-.708.485-.495.359.034.233.964.836.785.207.82.637-.095.45.427 1.078-.034.745.717.027.964 1.69.043-.064.546-.665.41.44 1.083 2.256.46.341.171-.198.52 1.267.88.638.127.674-.23-.198-.247.809-.76-.126-.41.566-.733-.117-.58 2.372-2.21.557-.282.844.086.252.75.512.197.593-.623-.09-.888 2.048-.298.97.162 1.842-.905.89.23.269.317 1.267-1.52 1.86-.853 1.13-.212.036-.247z" stroke="#31313B" stroke-width=".4" mask="url(#a)"/></svg>