<svg width="28" height="32" fill="none" xmlns="http://www.w3.org/2000/svg"><mask id="a" fill="#fff"><path d="M10.717 2.7l-.593 1.595 2.839.998 1.123 1.203-.063.896.718.24-1.23.716.934 1.485-.296.196.377.495 1.302.768.198-1.263 1.806.64 2.345-.162.844.768 1.276 2.21 1.464.17.809 2.944 1.751 2.858-.593.657-.727.077-.315-.034-.61-.742-.486-.026-.449.367-.206.674.413.11.09.325.52-.008 1.195 1.186 2.103.938.512.649-.369.392.189.376-.952 1.015.18.307-.432.58-.162-.153-.332.35-.584.008.144 1.033-.97-1.98-.306.026.62 1.22-.09.58.45.384-.1.358-.359-.025-1.186-1.212.171.7-.736.12.08.614-.665-.222-.979 1.604-1.132-.444-.71.222-.664.606-1.024-1.34-.566.162-.189.512.773.862-.198.222-.413-.393.386.947-.413.069-.602-.512.467-.794-1.284-.213-1.15.418-1.94-.043.835-1.1 1.545-3.123-.207-.359-1.797.376-.278-.188-.036-.921-.278-.376-.737-.051-.908-.503 1.204-1.093 1.258-.076.063-.947.368-.555 1.087-.452.252-.768-.908-1.229-.7-.068-.459-.896-.502-.18-2.13-3.736.746-.905.827-.358.233-.376-.997-.281-1.779 1.86-2.318-1.775-1.743-2.073.09-1.485-.602-.196-.592.222-1.609-1.22-.808-.794-.827-.248-.35-.546 1.051-1.595 1.312.23-.054-.375-.746-.17V3.33l2.075-.205L6.108 1.99 7.384.498 8.606.55l.808.41 1.285.845.17.529-.152.366z"/></mask><path d="M10.717 2.7l-.593 1.595 2.839.998 1.123 1.203-.063.896.718.24-1.23.716.934 1.485-.296.196.377.495 1.302.768.198-1.263 1.806.64 2.345-.162.844.768 1.276 2.21 1.464.17.809 2.944 1.751 2.858-.593.657-.727.077-.315-.034-.61-.742-.486-.026-.449.367-.206.674.413.11.09.325.52-.008 1.195 1.186 2.103.938.512.649-.369.392.189.376-.952 1.015.18.307-.432.58-.162-.153-.332.35-.584.008.144 1.033-.97-1.98-.306.026.62 1.22-.09.58.45.384-.1.358-.359-.025-1.186-1.212.171.7-.736.12.08.614-.665-.222-.979 1.604-1.132-.444-.71.222-.664.606-1.024-1.34-.566.162-.189.512.773.862-.198.222-.413-.393.386.947-.413.069-.602-.512.467-.794-1.284-.213-1.15.418-1.94-.043.835-1.1 1.545-3.123-.207-.359-1.797.376-.278-.188-.036-.921-.278-.376-.737-.051-.908-.503 1.204-1.093 1.258-.076.063-.947.368-.555 1.087-.452.252-.768-.908-1.229-.7-.068-.459-.896-.502-.18-2.13-3.736.746-.905.827-.358.233-.376-.997-.281-1.779 1.86-2.318-1.775-1.743-2.073.09-1.485-.602-.196-.592.222-1.609-1.22-.808-.794-.827-.248-.35-.546 1.051-1.595 1.312.23-.054-.375-.746-.17V3.33l2.075-.205L6.108 1.99 7.384.498 8.606.55l.808.41 1.285.845.17.529-.152.366z" stroke="#31313B" stroke-width=".4" mask="url(#a)"/></svg>