<svg width="15" height="13" fill="none" xmlns="http://www.w3.org/2000/svg"><path d="M9.676 3.807l-.503-.342.248-.247.042-.043-.017-.057-.144-.478-.015-.05-.05-.016-.453-.146.164-.385.055-.13-.141-.01-1.054-.065-.56-.466-.111-.093-.047.138-.558 1.65-.97.293-1.673-.328-.015-.003-.014.001-.973.1-1.189-.47-.578-.582-.023-.023-.032-.005-.706-.112-.143-.272.29-.357.362.302.035.03.046-.008.682-.114.894.528.027.015.03-.001 1.482-.086h.018l.016-.008 1.814-.776.012-.005.01-.007L6.87.47l.99.16.57.5.015.014.019.006.997.341.038.013.037-.017.705-.33.967.056 1.25.99 1.965 4.189-.388.142-.792-2.076-.008-.022-.019-.017-.44-.392-.032-.03-.044.005-.629.06-.063.006-.021.06-.476 1.313-.014.04.017.037.908 1.916-.525 1.42-.01.03.007.03.415 1.542-.323 1.018-.822.663L8.96 10.85l-.026-.016-.03.002-1.29.083-.384-.315.453-.2.083-.036-.028-.086-.124-.373.4-.17.107-.044-.06-.1-.462-.762.425-.18.86 1.132.051.067.075-.039.961-.503.056-.03-.002-.062-.036-1.067-.004-.099-.098.002-.336.008-.276-.486-.03-.053-.06.003-.407.015-.256-.25.213-.623.01-.031-.01-.032-.34-1.064.465-.418.034-.031-.001-.046-.017-.574.796-.499.13-.081-.126-.086z" stroke="#31313B" stroke-width=".2"/></svg>