<svg width="99" height="84" fill="none" xmlns="http://www.w3.org/2000/svg"><mask id="a" fill="#fff"><path d="M1.24 1.765l2.022-.179L5.122.4 6.99.076l.387.179 1.32-.137 3.53.649.351.341.234.981.395.214.036.955 1.51.282.71-.265 1.212.077 3.216 2.859.602.042.512-.307.36-.836 1.257 1.28 1.222.537 1.069.29 2.632-.093.835.503 1.788 2.799.988.614.297 1.271.467.316 1.168-.051.045.316 1.644.529.925-.427 1.698.11 1.375 1.187 1.06-.282 1.392.444.45.282.116 1.134.566.128.737-.12 1.213.265 1.212-.776.216.333 1.276.281.449-.75.754-.248 1.635.043.575 1.092 1.168-.256.557-.973.53-.077.62.615.674-.282.728.154.386-.307.647.153 1.455.853.44.564.88.025.773.538.62-.18.629.24 1.006-.862-.692-1.067.773-.384.548.06.386-.359.593.128.458-.332.683.136.404-.23 1.204.307.377-.265.423.069.43.537.63-.256.763.23.512-.46 2.696-.196 1.688.776.782.341 1.033.026 3.171-.495.117.418 2.327-.273 1.347-.58 1.043.154.503 1.075.575.4-.27.658.252.384 1.626.896-.207.34-1.105.137-.817 1.468-1.258.307-.018.956-.315.469-1.697.41-.728 1.288-.647.162-.386.606-1.213.427-.162.435-1.159.179-.27.623-.88.435-.008.947-.773 2.287-.35.17-.764-.196-1.339.606-.467.75-.683.393-.377 1.715-.8.862.647.333.944-.111.485.546.746.043.655.69.89-.417 1.015.478.781-.154.62.444.45 2.15-.207.478.692 1.408-.854 1.382.44.153 1.339-.529.916.086.144.307-.368.341.296.546.602.17.62-.29.126-.545 1.554-.393.647.248 1.832-.17.611.204.557-.18.341-.614.53-.187.333.247.467-.333-.099-.93 1.186-.734.836-.008.359-.597.629.136.494.666.89-.137.538.478.566-.06 1.734-.964.988.017.54-.64 2.622 1.954-.17.333-.916-.034-.153.273.584.418.332.717-.332.682.152.717-1.518 2.108.315 1.143-.18.691.404.18.144.511-.826.964.287.41-.18.725-3.333-.435-.52-.392-.764-.077-3.791-1.545-.432.563.512 1.135-.43.444.125.529.98 1.084-.109.554-1.221.81-2.165-.127-.656.341-2.183 1.92-.17.99-.414.443-2.462.837-.44-.094-1.096.537-1.374-.085-.315 1.058.566 1.348-.188.657-.845-.034-.638 1.041-.988.29-.853 2.116-1.141.597.386.896-.98 1.613.046.444.278.213.764-.52.422-.01.539.803.027.529-.629.7-.072.443.422.282.468-.273.584.094.44.341.404-.205.162.905.71.213.53 1.007-.593.81.467.325.009.802.377.512-.243.802.18.264-.826 1.084.673 1.11.01 1.663-.378 1.16-.404.12-1.07-.068-.475.247-.917 1.323-.296.912-1.105.154-1.15.657-.27.418-.332.085-.593-.452-1.294.325-1.94-1.588-.063-.554-.45-.213.019-.444-.656-.282-.189-.75-1.05-.12-.198-1.135-.315-.188-.566.009-.278.75-.863-.451-.781.435-.584-.913-1.572-.265.161-1.007-.305-.05-.126.255-1.114-.358-.988.136-.845.828-.134-.222-1.06-.179-.737-.683-.296.35-.584-.085-.764-.725-.296-1.075-.575-.128-.297-.419.144-.861-.323-.87.646-1.323.045-.657-1.266-.52-.414-.453.153-.93-.45-.503.459-1.016-.503-.998.09-.58-.396-.29-.781-1.51-1.222-1.204-.153-1.271.486-1.28-.647.094.188.648-.395-.119-.144-.648.62-.205.01-.418-.818-.41.278-.964-1.015-.674.386-.367-.072-.794-.43-.136-1.258-2.133-.108-.785.458-.111.26-.87-1.662-.854.908-.776-.719-.222.099-.887-.548-.734-.45.034.037-.7-.8-.648-.413.188-.207-.265-.018-.495.575-.196-.117-.631.459-.248-.414-.333-.52.359-.872-1.357-1.033.393-.099-.53.422-.255.1-.461-.81-.913-.215-.111-.458.341-.288-.554-2.192-.982-1.32.248-.279.802-.27-.384-.709-.17-.117-.41-1.76-.282-1.195-1.519-.845.222-1.662-1.45-1.15-.035-.593-.597-.341.538.018-.504-.306-.068-.09.563-.206-.358-1.276-.299-.691.58-.638-.085-1.32.597-2.705.12-.62-.58-.503.35-.647-.035-.557.478-.305-1.152-.341-.205-.045-2.747-.953-1.596-.278-.145-.17.342-.657-.93.063-.82.62-.793-.467-1.817.27-.478.583-.359.234.546.431.009 1.186-.538.09-.41-.7-.366-.351-.546-.431-.981.215-.828-.207-.46-.763.153-.413.41-.063-.479.251-.955 1.564-1.579v-1.314l.574-.529-.826-.187.467-1.92-.135-.828-.386-.793-.997-.76-.45.034-.34.99-.495.35-1.159-.247-.395-.52.216-.555-.459-1.485.19-.905-.351-.426.018-1.255-.297-.4-2.398-.069-.405.478-.512.017-.494.53-.593-.01-.503.385-.566.076-.44-.452-1.15.444-.224-.214-.1-2.687.782-.726 1.806-.264.198-.324-.872-.435.01-.59-.648-.23.162-.742-2.165-.427-.108-.486-1.006-.734.063-.495.368-.247-.117-.282L.29 3.463l-.072-.358 1.087-1.007-.063-.333z"/></mask><path d="M1.24 1.765l2.022-.179L5.122.4 6.99.076l.387.179 1.32-.137 3.53.649.351.341.234.981.395.214.036.955 1.51.282.71-.265 1.212.077 3.216 2.859.602.042.512-.307.36-.836 1.257 1.28 1.222.537 1.069.29 2.632-.093.835.503 1.788 2.799.988.614.297 1.271.467.316 1.168-.051.045.316 1.644.529.925-.427 1.698.11 1.375 1.187 1.06-.282 1.392.444.45.282.116 1.134.566.128.737-.12 1.213.265 1.212-.776.216.333 1.276.281.449-.75.754-.248 1.635.043.575 1.092 1.168-.256.557-.973.53-.077.62.615.674-.282.728.154.386-.307.647.153 1.455.853.44.564.88.025.773.538.62-.18.629.24 1.006-.862-.692-1.067.773-.384.548.06.386-.359.593.128.458-.332.683.136.404-.23 1.204.307.377-.265.423.069.43.537.63-.256.763.23.512-.46 2.696-.196 1.688.776.782.341 1.033.026 3.171-.495.117.418 2.327-.273 1.347-.58 1.043.154.503 1.075.575.4-.27.658.252.384 1.626.896-.207.34-1.105.137-.817 1.468-1.258.307-.018.956-.315.469-1.697.41-.728 1.288-.647.162-.386.606-1.213.427-.162.435-1.159.179-.27.623-.88.435-.008.947-.773 2.287-.35.17-.764-.196-1.339.606-.467.75-.683.393-.377 1.715-.8.862.647.333.944-.111.485.546.746.043.655.69.89-.417 1.015.478.781-.154.62.444.45 2.15-.207.478.692 1.408-.854 1.382.44.153 1.339-.529.916.086.144.307-.368.341.296.546.602.17.62-.29.126-.545 1.554-.393.647.248 1.832-.17.611.204.557-.18.341-.614.53-.187.333.247.467-.333-.099-.93 1.186-.734.836-.008.359-.597.629.136.494.666.89-.137.538.478.566-.06 1.734-.964.988.017.54-.64 2.622 1.954-.17.333-.916-.034-.153.273.584.418.332.717-.332.682.152.717-1.518 2.108.315 1.143-.18.691.404.18.144.511-.826.964.287.41-.18.725-3.333-.435-.52-.392-.764-.077-3.791-1.545-.432.563.512 1.135-.43.444.125.529.98 1.084-.109.554-1.221.81-2.165-.127-.656.341-2.183 1.92-.17.99-.414.443-2.462.837-.44-.094-1.096.537-1.374-.085-.315 1.058.566 1.348-.188.657-.845-.034-.638 1.041-.988.29-.853 2.116-1.141.597.386.896-.98 1.613.046.444.278.213.764-.52.422-.01.539.803.027.529-.629.7-.072.443.422.282.468-.273.584.094.44.341.404-.205.162.905.71.213.53 1.007-.593.81.467.325.009.802.377.512-.243.802.18.264-.826 1.084.673 1.11.01 1.663-.378 1.16-.404.12-1.07-.068-.475.247-.917 1.323-.296.912-1.105.154-1.15.657-.27.418-.332.085-.593-.452-1.294.325-1.94-1.588-.063-.554-.45-.213.019-.444-.656-.282-.189-.75-1.05-.12-.198-1.135-.315-.188-.566.009-.278.75-.863-.451-.781.435-.584-.913-1.572-.265.161-1.007-.305-.05-.126.255-1.114-.358-.988.136-.845.828-.134-.222-1.06-.179-.737-.683-.296.35-.584-.085-.764-.725-.296-1.075-.575-.128-.297-.419.144-.861-.323-.87.646-1.323.045-.657-1.266-.52-.414-.453.153-.93-.45-.503.459-1.016-.503-.998.09-.58-.396-.29-.781-1.51-1.222-1.204-.153-1.271.486-1.28-.647.094.188.648-.395-.119-.144-.648.62-.205.01-.418-.818-.41.278-.964-1.015-.674.386-.367-.072-.794-.43-.136-1.258-2.133-.108-.785.458-.111.26-.87-1.662-.854.908-.776-.719-.222.099-.887-.548-.734-.45.034.037-.7-.8-.648-.413.188-.207-.265-.018-.495.575-.196-.117-.631.459-.248-.414-.333-.52.359-.872-1.357-1.033.393-.099-.53.422-.255.1-.461-.81-.913-.215-.111-.458.341-.288-.554-2.192-.982-1.32.248-.279.802-.27-.384-.709-.17-.117-.41-1.76-.282-1.195-1.519-.845.222-1.662-1.45-1.15-.035-.593-.597-.341.538.018-.504-.306-.068-.09.563-.206-.358-1.276-.299-.691.58-.638-.085-1.32.597-2.705.12-.62-.58-.503.35-.647-.035-.557.478-.305-1.152-.341-.205-.045-2.747-.953-1.596-.278-.145-.17.342-.657-.93.063-.82.62-.793-.467-1.817.27-.478.583-.359.234.546.431.009 1.186-.538.09-.41-.7-.366-.351-.546-.431-.981.215-.828-.207-.46-.763.153-.413.41-.063-.479.251-.955 1.564-1.579v-1.314l.574-.529-.826-.187.467-1.92-.135-.828-.386-.793-.997-.76-.45.034-.34.99-.495.35-1.159-.247-.395-.52.216-.555-.459-1.485.19-.905-.351-.426.018-1.255-.297-.4-2.398-.069-.405.478-.512.017-.494.53-.593-.01-.503.385-.566.076-.44-.452-1.15.444-.224-.214-.1-2.687.782-.726 1.806-.264.198-.324-.872-.435.01-.59-.648-.23.162-.742-2.165-.427-.108-.486-1.006-.734.063-.495.368-.247-.117-.282L.29 3.463l-.072-.358 1.087-1.007-.063-.333z" stroke="#31313B" stroke-width=".4" mask="url(#a)"/></svg>