<svg width="27" height="23" fill="none" xmlns="http://www.w3.org/2000/svg"><mask id="a" fill="#fff"><path d="M15.72.986l1.015-.137.871.504.746 1.245.323-.128.252.299 1.212-.358.18.452.952.665v.418l.665.393.144 2.474.61.444h.603l1.06.478.862-.111.7.802.082 1.152-.315.213 1.114.572-.107.691-.692.008.018.555-.746.222-.323-.503-.1.477-.628-.094.08.521-.673.213.54.939.278-.307.422.452.467-.06-.207.435.297.461-.216.299-.404-.128.27.529-.243.332.44.367-1.204.922-.027.58.36-.085.413.418-.925 1.459-.234.128-.512-.282-.332.222.27.572-.244.657-1.293-.043-.8.58-.161.828.745.239-.557.649-.17-.145-.306.273.072-.487-.252.026-.547-.794-.396-.11-.063-.828.288-.53-.324-.588-.781-.538-.126-.546-.512-.017-.08-.537-.684.025-1.383.615.126-.564-.79-.102-.405.213-.961-.366-.117.366-.62.342-.18-.128-.925.733-.189-.298-1.24.196-.817-.734-1.123-.187-.18.281.243.649-.431.17.206.905-.404.529-.566.341-.323-.12-.566.461-.899-.068.108-.537-.916-.12-.17-.845-.648-.102.171-.785-.728-.324.198-1.016-.252-.375.171-.444-.242-.128.197-.435.18.18.207-.29-.593-.385-.378-.981.36-.145.206-.725-.467-.53.063-.324-.809-.4-.296-.769-.764-.605.45.06.18-.547.34-.094-.134-.35.314-.7.899.035.413-.41.781.265.486.887.548.034.116.3 1.905-.103.09-.316.548-.085.18-.435.601-.163.521-.802-.125-.221.575.06.601-.496.324.052.045-.58.296-.086-.224-.154.629-.332.368.23.027-.742.314-.401-.135-.393.98-.768.467-.802.395.103.135-.947.36.238.305-.332-.476-.572.485-1.015.503.426.305-.29-.18-.29.566-.247z"/></mask><path d="M15.72.986l1.015-.137.871.504.746 1.245.323-.128.252.299 1.212-.358.18.452.952.665v.418l.665.393.144 2.474.61.444h.603l1.06.478.862-.111.7.802.082 1.152-.315.213 1.114.572-.107.691-.692.008.018.555-.746.222-.323-.503-.1.477-.628-.094.08.521-.673.213.54.939.278-.307.422.452.467-.06-.207.435.297.461-.216.299-.404-.128.27.529-.243.332.44.367-1.204.922-.027.58.36-.085.413.418-.925 1.459-.234.128-.512-.282-.332.222.27.572-.244.657-1.293-.043-.8.58-.161.828.745.239-.557.649-.17-.145-.306.273.072-.487-.252.026-.547-.794-.396-.11-.063-.828.288-.53-.324-.588-.781-.538-.126-.546-.512-.017-.08-.537-.684.025-1.383.615.126-.564-.79-.102-.405.213-.961-.366-.117.366-.62.342-.18-.128-.925.733-.189-.298-1.24.196-.817-.734-1.123-.187-.18.281.243.649-.431.17.206.905-.404.529-.566.341-.323-.12-.566.461-.899-.068.108-.537-.916-.12-.17-.845-.648-.102.171-.785-.728-.324.198-1.016-.252-.375.171-.444-.242-.128.197-.435.18.18.207-.29-.593-.385-.378-.981.36-.145.206-.725-.467-.53.063-.324-.809-.4-.296-.769-.764-.605.45.06.18-.547.34-.094-.134-.35.314-.7.899.035.413-.41.781.265.486.887.548.034.116.3 1.905-.103.09-.316.548-.085.18-.435.601-.163.521-.802-.125-.221.575.06.601-.496.324.052.045-.58.296-.086-.224-.154.629-.332.368.23.027-.742.314-.401-.135-.393.98-.768.467-.802.395.103.135-.947.36.238.305-.332-.476-.572.485-1.015.503.426.305-.29-.18-.29.566-.247z" stroke="#31313B" stroke-width=".4" mask="url(#a)"/></svg>