<svg width="119" height="76" fill="none" xmlns="http://www.w3.org/2000/svg"><mask id="a" fill="#fff"><path d="M3.714 45.958l.26-.81.773-.546-.009-.546 1.59-.214 1.554-.93.054-1.032 1.536.145.279-.657.79-.23.584 1.33.036 1.4.53.828L13.721 46l.818 1.126 3.18 1.869 1.492 1.433.53 1.22.997.427 1.069.947.71-.41 1.177.3.718-.205.916.375.153 1.024.422.17 1.267 1.69 1.788.794.62 1.578-.126 1.075.26.905.567.511h2.129l.934.657v2.492l.665-.17.512-.513.961-.196.413-.47 1.258-.136.575-.35.386.24.431-.436-.017-1.22.512-.887 4.32-2.287 7.331-8.132 6.765-3.83 3.477-3.26 2.632-7.509.233-4.914.405-.512-.467.017.512-1.118.44-.341-.063-2.116.242-.717-.188-1.271.404-1.784-.548-.341-.09-.384-.072-1.758.378-.571-.153-.734.44-.307.962-3.268.664-.205 1.123.136.342-.511-1.132-.649-.468.034-.844-2.15-.916-.341-.854-.965.97-1.45.063-.555-.341-.204.18-.282 1.527-.205 1.006-.93.773.043 1.787-.674 1.303.256 1.132-.93.233-1.306.602-.768 2.444.453 1.222.955 1.087-.333.575.24 1.087-.112.871.47 1.195-1.067-.054-.52.575-1.041.961-.802.431.17 1.276 2.048.342.077.359-.418 1.123.153.835.777 1.375.23 1.105-1.177.539.051.072 1.561 1.213 1.135 2.326.768 2.102-.384 1.294.666.243.631.763.145.36-.085.233-.708.908-.888 1.922.282.566-.435 1.428-.017.36-.299.359-1.186 1.276-1.826.009-1.177 3.548-.06 1.177-1.186 1.896-.103.889 1.041-.773.282-2.344 1.903-1.042.913.188 1.587-1.051 1.015 1.465.75.305.982.314.213.081.376-.539.145-.009.683.926 2.073-.378 1.655.548 1.144-.179 1.416.458 1.297.215 3.055 1.438.469 1.473-.094 1.339 1.886 1.32.87.809 2.184-.539 1.895-.36.247.009.614-.646.802-1.114.128-.279.256-1.383-.128-4.6 1.289-.701 1.263-1.509.793-2.372 2.005-1.536.555-.781 1.382h-.935l-.188.333-2.183.708-.89 1.015.01 2.1.619.571.009.81 1.024.752.476-.052.126.623-.422.401.242.256 1.007.154-.207 1.28-.279.136-.098 1.058-1.087 1.45-1.878.513-1.338 1.519-2.848.29-1.276 1.024-2.084-.111-.54.221-.718 1.016-1.383-.282-.27-.35-.602.154-2.803 3.37-3.737 1.391-.458.785-.835.563-.198.913-.988.708-1.573-.17-.386-.7-2.497-.077-1.042.512-1.105 1.127-2.48.75-1.15-.563-.08-.367-2.21.12-.755-.495-.072.87-.297.188-.34-.162-.19 1.11-.539.946 1.141.853-.691.598-.953.23-.305 2.509-.853.426-.153.444.656.64 1.536.495.52.691.926.094-.314.7-.953-.24-.988.64-.718.12-.827.7-.53-.077-.503 1.143-1.195.751.144.802-.315.265-.727-.035-1.168-.162-.467-.435-.36.282-.8-.265-1.158-1.928-1.348-.947-1.221-.248-1.86.495-1.204-.529-.287-.58-2.812-.196-1.438-.452-.539.042-1.194.785-1.042-.051-2.372.81-1.186.078-.773.503-.368.631-1.078.308-1.653-.521-.862.665-1.483-.733-.772.136-.602-1.007-2.004-.068-.583-.614-1.177-.487-.72-.99-.816-.178-.656-.47-.054-.478.413-.861-.854-.982.27-1.203-.467-1.032-.279-1.869.396-.572-.836-.69-2.183-.666-.557.094-.512-.478-.638.017-.655.392-.88-.861-.63.034-4.042-2.04-3.36-.034-1.716-1.459-2.614-.597-.315-.58-1.446-.512-.378-.512-.116-.922-.89.086-.215-.205.117-.648-1.096.145v-1.57l1.078-1.05.098-.845.656-.614.207-1.212-.485.077-.171-.222.207-.802.718-.443.584.512.638.145.08-.598z"/></mask><path d="M3.714 45.958l.26-.81.773-.546-.009-.546 1.59-.214 1.554-.93.054-1.032 1.536.145.279-.657.79-.23.584 1.33.036 1.4.53.828L13.721 46l.818 1.126 3.18 1.869 1.492 1.433.53 1.22.997.427 1.069.947.71-.41 1.177.3.718-.205.916.375.153 1.024.422.17 1.267 1.69 1.788.794.62 1.578-.126 1.075.26.905.567.511h2.129l.934.657v2.492l.665-.17.512-.513.961-.196.413-.47 1.258-.136.575-.35.386.24.431-.436-.017-1.22.512-.887 4.32-2.287 7.331-8.132 6.765-3.83 3.477-3.26 2.632-7.509.233-4.914.405-.512-.467.017.512-1.118.44-.341-.063-2.116.242-.717-.188-1.271.404-1.784-.548-.341-.09-.384-.072-1.758.378-.571-.153-.734.44-.307.962-3.268.664-.205 1.123.136.342-.511-1.132-.649-.468.034-.844-2.15-.916-.341-.854-.965.97-1.45.063-.555-.341-.204.18-.282 1.527-.205 1.006-.93.773.043 1.787-.674 1.303.256 1.132-.93.233-1.306.602-.768 2.444.453 1.222.955 1.087-.333.575.24 1.087-.112.871.47 1.195-1.067-.054-.52.575-1.041.961-.802.431.17 1.276 2.048.342.077.359-.418 1.123.153.835.777 1.375.23 1.105-1.177.539.051.072 1.561 1.213 1.135 2.326.768 2.102-.384 1.294.666.243.631.763.145.36-.085.233-.708.908-.888 1.922.282.566-.435 1.428-.017.36-.299.359-1.186 1.276-1.826.009-1.177 3.548-.06 1.177-1.186 1.896-.103.889 1.041-.773.282-2.344 1.903-1.042.913.188 1.587-1.051 1.015 1.465.75.305.982.314.213.081.376-.539.145-.009.683.926 2.073-.378 1.655.548 1.144-.179 1.416.458 1.297.215 3.055 1.438.469 1.473-.094 1.339 1.886 1.32.87.809 2.184-.539 1.895-.36.247.009.614-.646.802-1.114.128-.279.256-1.383-.128-4.6 1.289-.701 1.263-1.509.793-2.372 2.005-1.536.555-.781 1.382h-.935l-.188.333-2.183.708-.89 1.015.01 2.1.619.571.009.81 1.024.752.476-.052.126.623-.422.401.242.256 1.007.154-.207 1.28-.279.136-.098 1.058-1.087 1.45-1.878.513-1.338 1.519-2.848.29-1.276 1.024-2.084-.111-.54.221-.718 1.016-1.383-.282-.27-.35-.602.154-2.803 3.37-3.737 1.391-.458.785-.835.563-.198.913-.988.708-1.573-.17-.386-.7-2.497-.077-1.042.512-1.105 1.127-2.48.75-1.15-.563-.08-.367-2.21.12-.755-.495-.072.87-.297.188-.34-.162-.19 1.11-.539.946 1.141.853-.691.598-.953.23-.305 2.509-.853.426-.153.444.656.64 1.536.495.52.691.926.094-.314.7-.953-.24-.988.64-.718.12-.827.7-.53-.077-.503 1.143-1.195.751.144.802-.315.265-.727-.035-1.168-.162-.467-.435-.36.282-.8-.265-1.158-1.928-1.348-.947-1.221-.248-1.86.495-1.204-.529-.287-.58-2.812-.196-1.438-.452-.539.042-1.194.785-1.042-.051-2.372.81-1.186.078-.773.503-.368.631-1.078.308-1.653-.521-.862.665-1.483-.733-.772.136-.602-1.007-2.004-.068-.583-.614-1.177-.487-.72-.99-.816-.178-.656-.47-.054-.478.413-.861-.854-.982.27-1.203-.467-1.032-.279-1.869.396-.572-.836-.69-2.183-.666-.557.094-.512-.478-.638.017-.655.392-.88-.861-.63.034-4.042-2.04-3.36-.034-1.716-1.459-2.614-.597-.315-.58-1.446-.512-.378-.512-.116-.922-.89.086-.215-.205.117-.648-1.096.145v-1.57l1.078-1.05.098-.845.656-.614.207-1.212-.485.077-.171-.222.207-.802.718-.443.584.512.638.145.08-.598z" stroke="#31313B" stroke-width=".4" mask="url(#a)"/></svg>