<svg width="27" height="16" fill="none" xmlns="http://www.w3.org/2000/svg"><mask id="a" fill="#fff"><path d="M.623 3.96l.61.128.315.58.898-.144.54-.393.556.247.432-.7.494-.119.153-.443-.396-.205.566-.606.54.563.853-.298.593.4 1.698.35 1.257-1.006 1.626-.265.647-.981 1.339-.282.422-.315 1.347-.086.98.23.871-.563.683-.05 2.156 1.433 1.14.298.18.367-.036.478-.574.333.08.674 1.42.452.844-.7.593.504-.152.691.476.478-.225.264-.656-.213-.18.802.674.35-.099.444.522.64.476-.026.413.597.98.35-.109.307-.602-.025.261.588-.476.59.52.852-.206.47.396 1.646.754.666.063.495-.539 1.357-.404.264-.36-.546-.323.41-1.024.315-.216-.588-1.168-.402-.386-.853-.153.376-1.033-.086-.17-.298-.468.11-.422-.938-.898.094-.063.7.234.264-1.24.495.09-.316-.845-.99-1.015-.34-.692-.769-.036-1.228-.413.06-.647-.521.018-.794-.485.248-.476-.094-1.087.682-1.985.137-1.276 1.015-.566-.273.144-.418-.243.137-.638-.461-.925.393-.225-.623-.808-.862-.521-.145-1.545.136-.611.862-.692-.008-.314-1.016-.459-.145-.637-1.032.036-.649.548-.188-.081-.912L.65 5.326l.063-.52-.396-.154.018-.658.288-.034z"/></mask><path d="M.623 3.96l.61.128.315.58.898-.144.54-.393.556.247.432-.7.494-.119.153-.443-.396-.205.566-.606.54.563.853-.298.593.4 1.698.35 1.257-1.006 1.626-.265.647-.981 1.339-.282.422-.315 1.347-.086.98.23.871-.563.683-.05 2.156 1.433 1.14.298.18.367-.036.478-.574.333.08.674 1.42.452.844-.7.593.504-.152.691.476.478-.225.264-.656-.213-.18.802.674.35-.099.444.522.64.476-.026.413.597.98.35-.109.307-.602-.025.261.588-.476.59.52.852-.206.47.396 1.646.754.666.063.495-.539 1.357-.404.264-.36-.546-.323.41-1.024.315-.216-.588-1.168-.402-.386-.853-.153.376-1.033-.086-.17-.298-.468.11-.422-.938-.898.094-.063.7.234.264-1.24.495.09-.316-.845-.99-1.015-.34-.692-.769-.036-1.228-.413.06-.647-.521.018-.794-.485.248-.476-.094-1.087.682-1.985.137-1.276 1.015-.566-.273.144-.418-.243.137-.638-.461-.925.393-.225-.623-.808-.862-.521-.145-1.545.136-.611.862-.692-.008-.314-1.016-.459-.145-.637-1.032.036-.649.548-.188-.081-.912L.65 5.326l.063-.52-.396-.154.018-.658.288-.034z" stroke="#31313B" stroke-width=".4" mask="url(#a)"/></svg>