<svg width="45" height="53" fill="none" xmlns="http://www.w3.org/2000/svg"><mask id="a" fill="#fff"><path d="M9.088 2.687L10.489.63l.584.18.314.776.665.162.638.58 1.446-.452 1.105.64.593-.18.8-.724 1.41-.419.44.086 1.186 2.107.387.222 1.033-.29.898-.725.602-.034 2.38 2.96h.567l1.608-.81.117-.46 1.24-1.23.134.58.638.726-.252.555.405.4.97-.409.593.034.952.657.404.068.773-.469.907.12.27.298 1.58-.836 1.645 1.024.692.12.682-.811.512-.282.405.214.952-.222.305.426-.045.307-.96.7.17 1.024-.665 1.314 1.213.734-.189.444.18.964.61-.205.603.512.916.034-.98 1.357-1.985.273-.251.341.17.589-.808.742-.386.154-.989-.478-.682.486.036.393-.665.665.97.393.377.87-.79.742-.728.282-.52-.922-.351.137-.35-.282-.998-1.442-.62.59-.152.844-.899 1.288-.278-.094.503-.802-.288-1.203.584-.896-.224-.503-3.234-.666-1.824.99-.898 1.74.96 1.076-.637 1.271 3.522 2.645.233.777.97 1.109.44.128.54-.128 1.096-1.041 1.159-.29 1.392.708.557-.034.503-.922 1.94-.682.548.29.459-.102 1.311-1.238.557-1.134.548-.197.476-.64.396.64.988-.153-.279.682.35.7-.78 1.852-.782.674.323.665-.539.742.809.598-.324 1.655-.961-.35-1.743.18-.719 1.689-.655.555-.926.179-.278 2.645-.575.964.368.58.045.973-.045 1.484-.36.282.495.546.135 1.092.359.546-.853.965-.162 2.508-.26.538.637.98-.323.581.305.478-.099.29.477 1.092-.396.53-.53-.154-.404.273-.243 1.288.566.572-.718 2.5-.521.529-.89.102-1.006.546-.368-.06-.638-.785-1.393-.375-.584.085-.278-.307-.395.086-.764 1.535-1.051-.281-.09.845-1.096.674-1.015-1.255-.88-.529-.35.205.323 1.007-.35.444-.585-.094.252-.922-1.132-1.732.593-.844-.71-1.443-1.195-1.151-.278.008-.485.768-.63-.623 1.061-.99.252-.69-.135-1.016-.521-.657.368-.674-.198-.188-.458.324-1.5-.98-.278 1.083-1.456 1.877-1.806-.512-.458-1.809-.673-.538-.486.12-.287-.299.225-.495.53.128.323-.324-.252-.188-.161-1.04-1.096.324-.503-.324-.027-.632-.737-1.075-.45-2.125-.305-.238-1.464.298-.746-1.212-1.176-.511-.72.076-1.05-.844-1.51-2.219L4.13 30l-.917-1.851-.638-.691.225-.7-.35-1.493.35-1.937.26-.973 1.06-1.68-.215-1.059.548-.947-.27-.384-.826.034-.629-.921-.97-.768-.773-.23.26-.555 1.546-.589.7.017.953-1.169 1.428-.742.342-1.033.404-.4-.063-.7 1.231-1.067-.036-.87-.808-.401.143-.196-.476-.282-.467-.998-.952-.427.341-.614 1.617-1.067.638-1.288 1.204-.606.099-.725z"/></mask><path d="M9.088 2.687L10.489.63l.584.18.314.776.665.162.638.58 1.446-.452 1.105.64.593-.18.8-.724 1.41-.419.44.086 1.186 2.107.387.222 1.033-.29.898-.725.602-.034 2.38 2.96h.567l1.608-.81.117-.46 1.24-1.23.134.58.638.726-.252.555.405.4.97-.409.593.034.952.657.404.068.773-.469.907.12.27.298 1.58-.836 1.645 1.024.692.12.682-.811.512-.282.405.214.952-.222.305.426-.045.307-.96.7.17 1.024-.665 1.314 1.213.734-.189.444.18.964.61-.205.603.512.916.034-.98 1.357-1.985.273-.251.341.17.589-.808.742-.386.154-.989-.478-.682.486.036.393-.665.665.97.393.377.87-.79.742-.728.282-.52-.922-.351.137-.35-.282-.998-1.442-.62.59-.152.844-.899 1.288-.278-.094.503-.802-.288-1.203.584-.896-.224-.503-3.234-.666-1.824.99-.898 1.74.96 1.076-.637 1.271 3.522 2.645.233.777.97 1.109.44.128.54-.128 1.096-1.041 1.159-.29 1.392.708.557-.034.503-.922 1.94-.682.548.29.459-.102 1.311-1.238.557-1.134.548-.197.476-.64.396.64.988-.153-.279.682.35.7-.78 1.852-.782.674.323.665-.539.742.809.598-.324 1.655-.961-.35-1.743.18-.719 1.689-.655.555-.926.179-.278 2.645-.575.964.368.58.045.973-.045 1.484-.36.282.495.546.135 1.092.359.546-.853.965-.162 2.508-.26.538.637.98-.323.581.305.478-.099.29.477 1.092-.396.53-.53-.154-.404.273-.243 1.288.566.572-.718 2.5-.521.529-.89.102-1.006.546-.368-.06-.638-.785-1.393-.375-.584.085-.278-.307-.395.086-.764 1.535-1.051-.281-.09.845-1.096.674-1.015-1.255-.88-.529-.35.205.323 1.007-.35.444-.585-.094.252-.922-1.132-1.732.593-.844-.71-1.443-1.195-1.151-.278.008-.485.768-.63-.623 1.061-.99.252-.69-.135-1.016-.521-.657.368-.674-.198-.188-.458.324-1.5-.98-.278 1.083-1.456 1.877-1.806-.512-.458-1.809-.673-.538-.486.12-.287-.299.225-.495.53.128.323-.324-.252-.188-.161-1.04-1.096.324-.503-.324-.027-.632-.737-1.075-.45-2.125-.305-.238-1.464.298-.746-1.212-1.176-.511-.72.076-1.05-.844-1.51-2.219L4.13 30l-.917-1.851-.638-.691.225-.7-.35-1.493.35-1.937.26-.973 1.06-1.68-.215-1.059.548-.947-.27-.384-.826.034-.629-.921-.97-.768-.773-.23.26-.555 1.546-.589.7.017.953-1.169 1.428-.742.342-1.033.404-.4-.063-.7 1.231-1.067-.036-.87-.808-.401.143-.196-.476-.282-.467-.998-.952-.427.341-.614 1.617-1.067.638-1.288 1.204-.606.099-.725z" stroke="#31313B" stroke-width=".4" mask="url(#a)"/></svg>