<svg width="41" height="47" fill="none" xmlns="http://www.w3.org/2000/svg"><mask id="a" fill="#fff"><path d="M12.895 3.076l.135-.888.368.094.468-.341-.144-1.058.719-.358.727.392 1.572.154.611.938 1.563-.358 1.042.35 1.833-.47 1.07.615.754-.214.539.282 2.335-.23-.449-1.05.863-.648.772.332.737-.238.629.657 1.114-.052.08.427.701.239.35.776.944.384 1.096 1.4.252 1.152.808.042-.287.53 1.42 1.305-.235.332.342 1.272-.503.571.62.163-.198.708-.584.333-.629.221-1.267-.145.315 1.144-.988.384 1.267 2.09-.405 1.007-.332.008-.45-.469-.691.18-.036.605.817 1.835-.251.554.907.87 1.923-.75.548.324-.234.444 1.177.136 1.779-.606 1.374.086.54 1.962-1.088.657.216.546-.279.512 1.294 1.084.35.026.09.682-1.356.051-.036.683-.27.205-1.958-.086-.108.359-1.33.998-.278.887-.7-.384-.18-.614.485-.316-.44-.307-1.384.24-.853-.24-.45.282.252.768-.386.094-.692-.214.215-.435-.377-.017.027-.239-.404.503-.35-.469-.504.18-.296.605-.207-.426-.548-.256-.224-.666-.431-.06-.566.162-.324.41v1.212l-.44-.06-.198-.393-.835.094-.243.572.944.17.53.87-1.105 1.016-.036.59-.27-.291-.52.026-.019.511 2.83.598.952-.333.548.683-.925.682-.431-.358-.773-.103-.144.674-.494.521.153.922 1.374.298.791.546.665-.025.296-.367.845.93 2.012.452.17 1.126-.835.546-.844-.605-1.042.145-.476.35-1.168-.734-.566.486-.872-.452-.772.623-.593-.103.314.691-1.41 1.408-.809.214-.09.98.818.36.045 1.015.809.136.628 1.664-.691.64-1.096.418-.468.623-1.23.034-1.671 1.527-.997.145-.854-.563.692-1.459.916-.76-.332-1.51-1.366.145-.862-.563-.234.188-.763-.358-.79.239-.207-.401-.288.042-1.258.504-.206.537.224.93-1.258-.708-.52-.964-.926.017-.305-.478.323-.58-.638-.981.26-.538.162-2.508.854-.965-.36-.546-.134-1.092-.494-.546.36-.282.044-1.484-.045-.973-.368-.58.575-.964.278-2.645.925-.18.656-.554.719-1.69 1.743-.179.961.35.323-1.655-.808-.598.539-.742-.323-.665.781-.674.782-1.852-.35-.7.278-.682-.988.153-.396-.64-.476.64-.548.197-.557 1.134-1.311 1.238-.458.102-.548-.29-1.94.682-.504.922-.557.034-1.392-.708-1.16.29-1.095 1.041-.54.128-.44-.128-.97-1.11-.233-.776-3.522-2.645.638-1.271-.961-1.075.898-1.74 1.824-.99 3.234.665.224.503-.584.896.288 1.203-.503.803.278.093.899-1.288.152-.845.62-.589.997 1.442.35.282.351-.136.521.921.728-.282.79-.742-.377-.87-.97-.393.665-.665-.036-.393.683-.486.988.478.386-.154.809-.742-.171-.589.251-.341 1.986-.273.979-1.357-.916-.034-.602-.512-.611.205-.18-.964.189-.444-1.213-.734.665-1.314-.17-1.024.96-.7.045-.307-.305-.426-.952.222-.405-.214-.512.282z"/></mask><path d="M12.895 3.076l.135-.888.368.094.468-.341-.144-1.058.719-.358.727.392 1.572.154.611.938 1.563-.358 1.042.35 1.833-.47 1.07.615.754-.214.539.282 2.335-.23-.449-1.05.863-.648.772.332.737-.238.629.657 1.114-.052.08.427.701.239.35.776.944.384 1.096 1.4.252 1.152.808.042-.287.53 1.42 1.305-.235.332.342 1.272-.503.571.62.163-.198.708-.584.333-.629.221-1.267-.145.315 1.144-.988.384 1.267 2.09-.405 1.007-.332.008-.45-.469-.691.18-.036.605.817 1.835-.251.554.907.87 1.923-.75.548.324-.234.444 1.177.136 1.779-.606 1.374.086.54 1.962-1.088.657.216.546-.279.512 1.294 1.084.35.026.09.682-1.356.051-.036.683-.27.205-1.958-.086-.108.359-1.33.998-.278.887-.7-.384-.18-.614.485-.316-.44-.307-1.384.24-.853-.24-.45.282.252.768-.386.094-.692-.214.215-.435-.377-.017.027-.239-.404.503-.35-.469-.504.18-.296.605-.207-.426-.548-.256-.224-.666-.431-.06-.566.162-.324.41v1.212l-.44-.06-.198-.393-.835.094-.243.572.944.17.53.87-1.105 1.016-.036.59-.27-.291-.52.026-.019.511 2.83.598.952-.333.548.683-.925.682-.431-.358-.773-.103-.144.674-.494.521.153.922 1.374.298.791.546.665-.025.296-.367.845.93 2.012.452.17 1.126-.835.546-.844-.605-1.042.145-.476.35-1.168-.734-.566.486-.872-.452-.772.623-.593-.103.314.691-1.41 1.408-.809.214-.09.98.818.36.045 1.015.809.136.628 1.664-.691.64-1.096.418-.468.623-1.23.034-1.671 1.527-.997.145-.854-.563.692-1.459.916-.76-.332-1.51-1.366.145-.862-.563-.234.188-.763-.358-.79.239-.207-.401-.288.042-1.258.504-.206.537.224.93-1.258-.708-.52-.964-.926.017-.305-.478.323-.58-.638-.981.26-.538.162-2.508.854-.965-.36-.546-.134-1.092-.494-.546.36-.282.044-1.484-.045-.973-.368-.58.575-.964.278-2.645.925-.18.656-.554.719-1.69 1.743-.179.961.35.323-1.655-.808-.598.539-.742-.323-.665.781-.674.782-1.852-.35-.7.278-.682-.988.153-.396-.64-.476.64-.548.197-.557 1.134-1.311 1.238-.458.102-.548-.29-1.94.682-.504.922-.557.034-1.392-.708-1.16.29-1.095 1.041-.54.128-.44-.128-.97-1.11-.233-.776-3.522-2.645.638-1.271-.961-1.075.898-1.74 1.824-.99 3.234.665.224.503-.584.896.288 1.203-.503.803.278.093.899-1.288.152-.845.62-.589.997 1.442.35.282.351-.136.521.921.728-.282.79-.742-.377-.87-.97-.393.665-.665-.036-.393.683-.486.988.478.386-.154.809-.742-.171-.589.251-.341 1.986-.273.979-1.357-.916-.034-.602-.512-.611.205-.18-.964.189-.444-1.213-.734.665-1.314-.17-1.024.96-.7.045-.307-.305-.426-.952.222-.405-.214-.512.282z" stroke="#31313B" stroke-width=".4" mask="url(#a)"/></svg>