<svg width="210" height="154" fill="none" xmlns="http://www.w3.org/2000/svg"><mask id="a" fill="#fff"><path d="M65.095 33.924l-.683-.461.899-1.775 1.347-.81-.09-.325.467-.085.513-.606.584-.102-.045.23 1.078.034-.045.342.727.102-.116.392.556-.119-.09.17.495.154-.117.214.395-.453.297.615 2.461.46 1.303.743.215.819-.251.913-.845-.102-.116.29.368.426-.341.188.242.956-.341 1.305-.458.572-.782-.188-.952.145-3.468-1.34-1.554-1.092-.162-.588.243-.137-1.734-.887zm125.798 81.562l.584-.196.395.469-.323.341-1.15-.111-.396-.307.288-.495.602.299zM134.341 12.14l-.18-1.638 1.68-1.894.081-.905 1.815-1.1 1.958-2.654 1.366-.956-.081.308.431.076.269-.546.45-.085.413-.905.458-.23.045.239 1.321-.034-.486-.307.153-.29.467.12.36-.53.063.503.215.026.449-.683.126.41.494.026.018.392.413-.247.854.375.359-.281.279.162.862-.956 2.848.392-.009.248.692-.009 1.832.837-.557.093.683.419-.099.426.656-.051.036-.35.234.128.673.683-.44.247.36.367-.486-.017.944.265.62 1.023 1.482 1.45.584-.153.027.461.476.555-.189 1.254-.44.256-.243.674-2.138 1.544-1.518.23-1.644.752-2.336.332-2.955 1.314-2.084.461.575-.392-.656-.657-.809-.59-1.931-.485-.791.247-1.347 1.434-1.051.588-.566.069-.36-.265.755.136.188-.153-.278-.299-.386.205-1.087-.094-3.127 1.732.189-.247-.216-1.536-.763-1.92zm75.247 81.298l.179.853-.422 1.1-.566-.033-.62-.563-.736.136-.818.376-2.47 2.414.341.7-.323.512.152 1.749-.494.759-1.716-.23-.116-.435-1.905-.768-.647-1.212-.997-.819-.368-.017.404.324.243.845.772.597-.341-.06-.027.385.53.64 1.096.409.512.649-.045 1.271-.422.478-1.438-.939-4.087.888-.198-.069 1.303-.495-1.285-.11-.799-.606-.539.315-.261-.247-.404.06.215-.555-.566-.589.036-.341-.691-.538-1.123.188.072-.341-1.114.384.754.094.036.742.737-.026.979.538-.216.589.548.955-.862.137.557.64 1.105-.248.62-.691-.863 2.5.261.401-.162 1.186.8 1.69-1.213 1.792-.8.665-.835-.094.072.256-1.59.973-1.213-.478-.872.512.144.418-.808.367.036.333.826-.324.89-.93 1.069 1.1-.216.504-.377.059-.054.487-.8.111-.593.409.036.197.683-.18.207-.307.521.256-.926 1.323.602-.034.279-.589.368-.06.449.102.081.35.53.009.306.418.997.128.35.964.872 1.024-1.348.009-.997.426-.845-.401-.269-1.536-1.222.282-.467.469.072.222 1.015-.316.44.521-.323 1.809-.683.563-1.105.23-1.617-.734.063-1.049.62-.512.098.264.557-.742-.601.222.269-1.425-.341.068-.09-.836-.279.009-.152-.376.413 1.69-.135.674-1.473 1.484-.629.077-2.273-1.339-.368-1.656-1.518-1.288.395-.128-.108-.282-.853.239-2.66-1.868-.97-.384-.79.375-1.752-.188-.207-.222-.413.214-.108-.359.449-.546-.656.034-.044-.58-1.833-.862.009-.349-.782-.41.674-.546.324-1.493-.863-1.434-.287-2.457-.521-.367-6.289-2.457-.907.119-1.366 1.57-.925.367-1.932.239-.377-.239-.79.154-1.159-.222-.917.256-1.707-.725.755-3.234-.341-.504-.8.248-.665-.981-.072-.632-1.069-.93.36-.392-.144-.88.575.129.584-.666-.099-.845 1.186-.648-.18-.708.404-.726-.368-.35.44-.58-.134-1.493-.252-.23-.234.734-.35-.077-.862 2.457-.764.52-.512.06-.629-.452.045-.384-.386-.503.26-.401-.081-1.545-.368.3-.063 1.142-.233.128-1.465-.648.018.47 1.132 1.27-.206.53-.989.7-.925-.163-.431-.683-.566.052.135.247-.611.922-.171 2.798.979 2.33 2.246 1.672-.368.887.44.547-1.374 1.826.107.554-.323.606-.144 1.391-.889 1.476-.665.085-.808.888-1.635 1.083-2.04 2.722-2.578.691-3.683 2.765-.297-.333.719.008 1.177-.844-.297-.418-2.47.52-1.482-.503-.791.367-.117-.521-1.868-.136-.557-.905-.602-.128.054-.495-.53.103-.342-.342.791-.426-.279-.171.072-.657-.251-.23-1.186.094-.081.913.521.588-1.716.777-.225-.418-.422-.017-.126-.615-.323-.179-.395.205-.53-.35-.593-.06-.737.785-.611.034-.108-.708-1.23-.512-.89-.665-.018-.282-.377.017-.656.828-.332 1.032-.854.726-.494.256-.602-.453-1.392.606-.826-.162-.36.307 1.105.376 1.015-.615 1.24.222 1.384-.938.449-.64.072-.802.871-.009.422.282.665 1.595.826.93-.08.495-1.492.691-.152.393.17.094.27-.359.692.154.521-.316.278-.648h.485l.979.614.36 1.177 2.003-2.397.898.06.917-.709 1.015.145-.144 1.69-.485.913.045 1.032.476 1.084 2.336 2.432 1.24.563.772-.068-.359-.427 1.374-1.502-.673-1.459 2.749 5.853.907 4.676.108 2.048.494 1.613 1.329 2.133 1.483.964.79 1.126.09.7-.934.128-.324.981.432 1.289 1.167.23.27.282.44 2.099-.206.81-.863.469-.081.803-.539.742-.97-.196-.485.435-.171.478.467.418-.242.426.188.495-.503.563-.458-.802-4.528-1.57-1.572-.947-3.333-.426-2.829.281-1.213.358-2.255 1.11-2.228 1.911-1.554.367-2.749 1.246-2.165 1.809-2.624 1.279-.574.743-1.438.606-.476-.18.081-.614-.458-.384-.153-.811-.521-.409-.27-1.092-.763.179-.44-.307-.135-1.579-.674-.375 1.078-1.195-.323-.998-.566-.418-.818-.06-.305-.572-.701-.213-3.818 1.229-2.003 1.263-.755-.623-1.204-.444-.862.179-.386.367-1.052.043-.314-.555-.773-.307-1.221.631-.45.76-2.892.973.135-.615-.225-.06-.692.478.09-.81-.216-.145-.377.179-.215.589-.611.076-.027.512-1.114.162-.189.453-3.072-1.05-.854.708-.386-.315-.252-1.306-.503-.554.162-.538-.656-.648.189-.973-.26-.717-.692-.051-.557-.512-.593.026-.764-1.272-3.018-2.116-1.007.231-1.132-.444-.43-.632-1.68-.921.071-.597.62-.231.225-.452.808-.162.79-.853-.008-.956.52-.341.288-.76.872-.315 1.105-1.4 1.105-.264.683-.546-.073-.342.432-.58-.728-2.628-.925-.537.063-.802-.611-.299-1.563-.145-.926-1.05-.494-2.406-1.266-.273-.432-.58-.233-1.152-1.231.282-.35-.231-.63.555-1.005.247-.593-.187-.117-.717-.907.29-.432-.179-.09-1.374-1.024-.495-.665-.691-.988-1.698-.44.137-.665.921-1.042.41-.8-.137-1.06.316-1.06-1.135-1.877-.495-.665.905-.71.145-.458-.265.243-.836-.764-1.775-2.371-.128-.521-1.075-.593-.213-1.034.333-.287.503.306 1.212-.522.375-1.078-1.706-.772-.009-2.56-1.792-.845-.008-.593.495-1.105.042-.521-.461-.773-.068-.395-.324-1.401 1.826-.692-.12-.323.231-.036.503.485.47.036.571-2.857.111-1.348-1.339-3.045-.495-1.294-.862-1.428-2.79-.98-.162-1.464-1.007-4.294-.743-2.668-3.003-.602-1.749-1.806-.367-.53-.785-4.114-1.425L7.6 99.283l.063-3.584.44-1.084 1.195-1.561.072-.555-1.761-.093-1.447-.88-.233-.707-.863-.069-.512-.648-.26-1.007.763-.512.243-.998 1.132-1.587-.063-.751.422-.82.98-.528-.135-.538-1.024-1.237.27-1.442-.225-.964-1.959-.93-1.123-.171-1.24-1.596-1.194-.358-.19-.452.18-1.835-.754-1.305-.135-1.46.333-2.175 1.033-.239.808.137.89-.367.35-.572-.063-.316-.817-.41-.36-.835.962-1.186.565-2.133 1.177-.82 2.381.137 2.497-2.048.548.589.647.025.369-.256.997.436.431-.99.494-.504.665-.162 4.797.47 1.384-.53 2.03-1.757.916-.196 3.971 1.151 2.426 1.076.52-.837-.044-1.39.377-.657-.08-1.605.79-.46-.1-.717.315-.785-.727-.538-.081-.955.8-.495.628-1.058-.656-1.34-1.105-.41-.386-.69.431-2.552 1.294-.281-.036-.504-1.913-2.329-.081-1.314-.827-.392.243-.88L28.36 39l.638-.298.476-1.306-.08-.716.098-.743.898.615-.072-.24.396-.23 1.14.547h.72l2.91-1.23 1.177.555 1.168.094 1.347-.35 1.132-1.134.593.136.818 1.434 2.12 1.527 1.958.358 1.923-.529 1.455.316 2.03-.008 3.198 1.143 1.968.162.88-.316.53.52 1.303.086 1.536-1.254 2.965-3.388.925-.435.925.981.827.188.117.316-.324-.068-.305.29-.17.69 1.014.948.962.478-.342 3.72.368 1.792.459.358 2.461.145 1.096.589 1.527 1.322.79.205.477-.153.656 1.117.242 1.587-.278.982.323.972.944.862.682.043 3.998-.828.898-1.024 2.336-1.459 1.294-1.672.018-.956-.279-.588-.826-.512.278-2.023-.52-1.314-.414-.12-.036-1.51-.404-.34.09-.632-.378-.922-.673-.503-1.626.367-.782-.23.207-1.289.575-.538-.153-.11 1.464-.41.7-.657-.52-2.628.413-2.952-.198-.316-.7-.213.08-.367.602-.103 1.483.803 1.383-.103 1.707.572 1.159.094 2.605 1.075 2.579.41 1.554.622 1.572-.571.44.554.045.563 2.012 1.203.423-.042-.027-.751.386-.503 1.518-.495 1.438 1.237-.243.273.647.802 1.168-.862 1.114-.333.179.18.566-.18.099.41.306-.026.071-.375.998.435 3.854.162 4.285-.75 1.168.264 1.141-.214 1.985 2.5 3.027 1.733 1.653.605 2.112.316 2.479 1.69 1.536.665 1.051.06.027.4.89-.451 2.686 1.092 3.854 2.824 3.737 4.172 1.41 1.135 1.132.307.584-.23.045-.358.503.239-.09.179.926.913 3.018 1.809 2.516 3.012 3.036 2.21 2.291 2.107 10.08 7.167 1.212.478.27-.162-.054.717 3.513 2.244.161.239-.386.298.404 1.263 1.132 1.391.629.307 1.159 1.229.485 1.98-.44-.982-.485.58-.27 2.944.351 1.51.476.82.557.315-.441.094.333 2.585-.387-.136-1.185 1.374.647.861 1.14.163 1.609 1.015.143.887-.251.154-.126 1.11.665.793 1.311-1.007.027-.794.827-.239.665.401-.243.393.243 1.519-.504-.017-.071.239.646.281.495-.085.269-.23-.566-.342 1.114-.418.18-1.246-.746-.495-.314-.648-1.375-.282-1.051-.665 1.958-1.417-.179-2.687-.539-2.04-.647-.256-.35.214-.207-1.297-1.842.426-.79-.204.018-.265.907-.299 4.905-.008.521-.597 1.321.588 2.371.606.342-.11 6.1 1.689.889-.657.719.452.62-.068.575.597-.414.555.288.537 2.012 1.39-.197 1.127 1.509 1.587 2.605 2.074 1.024 1.459 2.282.998 1.123 1.382-.449-.153.054.392 1.617.418.665-.17.485.358zm-16.629 19.309l1.339.99-3.396 1.109-.315-.35.881-1.578.664-.359.827.188z"/></mask><path d="M65.095 33.924l-.683-.461.899-1.775 1.347-.81-.09-.325.467-.085.513-.606.584-.102-.045.23 1.078.034-.045.342.727.102-.116.392.556-.119-.09.17.495.154-.117.214.395-.453.297.615 2.461.46 1.303.743.215.819-.251.913-.845-.102-.116.29.368.426-.341.188.242.956-.341 1.305-.458.572-.782-.188-.952.145-3.468-1.34-1.554-1.092-.162-.588.243-.137-1.734-.887zm125.798 81.562l.584-.196.395.469-.323.341-1.15-.111-.396-.307.288-.495.602.299zM134.341 12.14l-.18-1.638 1.68-1.894.081-.905 1.815-1.1 1.958-2.654 1.366-.956-.081.308.431.076.269-.546.45-.085.413-.905.458-.23.045.239 1.321-.034-.486-.307.153-.29.467.12.36-.53.063.503.215.026.449-.683.126.41.494.026.018.392.413-.247.854.375.359-.281.279.162.862-.956 2.848.392-.009.248.692-.009 1.832.837-.557.093.683.419-.099.426.656-.051.036-.35.234.128.673.683-.44.247.36.367-.486-.017.944.265.62 1.023 1.482 1.45.584-.153.027.461.476.555-.189 1.254-.44.256-.243.674-2.138 1.544-1.518.23-1.644.752-2.336.332-2.955 1.314-2.084.461.575-.392-.656-.657-.809-.59-1.931-.485-.791.247-1.347 1.434-1.051.588-.566.069-.36-.265.755.136.188-.153-.278-.299-.386.205-1.087-.094-3.127 1.732.189-.247-.216-1.536-.763-1.92zm75.247 81.298l.179.853-.422 1.1-.566-.033-.62-.563-.736.136-.818.376-2.47 2.414.341.7-.323.512.152 1.749-.494.759-1.716-.23-.116-.435-1.905-.768-.647-1.212-.997-.819-.368-.017.404.324.243.845.772.597-.341-.06-.027.385.53.64 1.096.409.512.649-.045 1.271-.422.478-1.438-.939-4.087.888-.198-.069 1.303-.495-1.285-.11-.799-.606-.539.315-.261-.247-.404.06.215-.555-.566-.589.036-.341-.691-.538-1.123.188.072-.341-1.114.384.754.094.036.742.737-.026.979.538-.216.589.548.955-.862.137.557.64 1.105-.248.62-.691-.863 2.5.261.401-.162 1.186.8 1.69-1.213 1.792-.8.665-.835-.094.072.256-1.59.973-1.213-.478-.872.512.144.418-.808.367.036.333.826-.324.89-.93 1.069 1.1-.216.504-.377.059-.054.487-.8.111-.593.409.036.197.683-.18.207-.307.521.256-.926 1.323.602-.034.279-.589.368-.06.449.102.081.35.53.009.306.418.997.128.35.964.872 1.024-1.348.009-.997.426-.845-.401-.269-1.536-1.222.282-.467.469.072.222 1.015-.316.44.521-.323 1.809-.683.563-1.105.23-1.617-.734.063-1.049.62-.512.098.264.557-.742-.601.222.269-1.425-.341.068-.09-.836-.279.009-.152-.376.413 1.69-.135.674-1.473 1.484-.629.077-2.273-1.339-.368-1.656-1.518-1.288.395-.128-.108-.282-.853.239-2.66-1.868-.97-.384-.79.375-1.752-.188-.207-.222-.413.214-.108-.359.449-.546-.656.034-.044-.58-1.833-.862.009-.349-.782-.41.674-.546.324-1.493-.863-1.434-.287-2.457-.521-.367-6.289-2.457-.907.119-1.366 1.57-.925.367-1.932.239-.377-.239-.79.154-1.159-.222-.917.256-1.707-.725.755-3.234-.341-.504-.8.248-.665-.981-.072-.632-1.069-.93.36-.392-.144-.88.575.129.584-.666-.099-.845 1.186-.648-.18-.708.404-.726-.368-.35.44-.58-.134-1.493-.252-.23-.234.734-.35-.077-.862 2.457-.764.52-.512.06-.629-.452.045-.384-.386-.503.26-.401-.081-1.545-.368.3-.063 1.142-.233.128-1.465-.648.018.47 1.132 1.27-.206.53-.989.7-.925-.163-.431-.683-.566.052.135.247-.611.922-.171 2.798.979 2.33 2.246 1.672-.368.887.44.547-1.374 1.826.107.554-.323.606-.144 1.391-.889 1.476-.665.085-.808.888-1.635 1.083-2.04 2.722-2.578.691-3.683 2.765-.297-.333.719.008 1.177-.844-.297-.418-2.47.52-1.482-.503-.791.367-.117-.521-1.868-.136-.557-.905-.602-.128.054-.495-.53.103-.342-.342.791-.426-.279-.171.072-.657-.251-.23-1.186.094-.081.913.521.588-1.716.777-.225-.418-.422-.017-.126-.615-.323-.179-.395.205-.53-.35-.593-.06-.737.785-.611.034-.108-.708-1.23-.512-.89-.665-.018-.282-.377.017-.656.828-.332 1.032-.854.726-.494.256-.602-.453-1.392.606-.826-.162-.36.307 1.105.376 1.015-.615 1.24.222 1.384-.938.449-.64.072-.802.871-.009.422.282.665 1.595.826.93-.08.495-1.492.691-.152.393.17.094.27-.359.692.154.521-.316.278-.648h.485l.979.614.36 1.177 2.003-2.397.898.06.917-.709 1.015.145-.144 1.69-.485.913.045 1.032.476 1.084 2.336 2.432 1.24.563.772-.068-.359-.427 1.374-1.502-.673-1.459 2.749 5.853.907 4.676.108 2.048.494 1.613 1.329 2.133 1.483.964.79 1.126.09.7-.934.128-.324.981.432 1.289 1.167.23.27.282.44 2.099-.206.81-.863.469-.081.803-.539.742-.97-.196-.485.435-.171.478.467.418-.242.426.188.495-.503.563-.458-.802-4.528-1.57-1.572-.947-3.333-.426-2.829.281-1.213.358-2.255 1.11-2.228 1.911-1.554.367-2.749 1.246-2.165 1.809-2.624 1.279-.574.743-1.438.606-.476-.18.081-.614-.458-.384-.153-.811-.521-.409-.27-1.092-.763.179-.44-.307-.135-1.579-.674-.375 1.078-1.195-.323-.998-.566-.418-.818-.06-.305-.572-.701-.213-3.818 1.229-2.003 1.263-.755-.623-1.204-.444-.862.179-.386.367-1.052.043-.314-.555-.773-.307-1.221.631-.45.76-2.892.973.135-.615-.225-.06-.692.478.09-.81-.216-.145-.377.179-.215.589-.611.076-.027.512-1.114.162-.189.453-3.072-1.05-.854.708-.386-.315-.252-1.306-.503-.554.162-.538-.656-.648.189-.973-.26-.717-.692-.051-.557-.512-.593.026-.764-1.272-3.018-2.116-1.007.231-1.132-.444-.43-.632-1.68-.921.071-.597.62-.231.225-.452.808-.162.79-.853-.008-.956.52-.341.288-.76.872-.315 1.105-1.4 1.105-.264.683-.546-.073-.342.432-.58-.728-2.628-.925-.537.063-.802-.611-.299-1.563-.145-.926-1.05-.494-2.406-1.266-.273-.432-.58-.233-1.152-1.231.282-.35-.231-.63.555-1.005.247-.593-.187-.117-.717-.907.29-.432-.179-.09-1.374-1.024-.495-.665-.691-.988-1.698-.44.137-.665.921-1.042.41-.8-.137-1.06.316-1.06-1.135-1.877-.495-.665.905-.71.145-.458-.265.243-.836-.764-1.775-2.371-.128-.521-1.075-.593-.213-1.034.333-.287.503.306 1.212-.522.375-1.078-1.706-.772-.009-2.56-1.792-.845-.008-.593.495-1.105.042-.521-.461-.773-.068-.395-.324-1.401 1.826-.692-.12-.323.231-.036.503.485.47.036.571-2.857.111-1.348-1.339-3.045-.495-1.294-.862-1.428-2.79-.98-.162-1.464-1.007-4.294-.743-2.668-3.003-.602-1.749-1.806-.367-.53-.785-4.114-1.425L7.6 99.283l.063-3.584.44-1.084 1.195-1.561.072-.555-1.761-.093-1.447-.88-.233-.707-.863-.069-.512-.648-.26-1.007.763-.512.243-.998 1.132-1.587-.063-.751.422-.82.98-.528-.135-.538-1.024-1.237.27-1.442-.225-.964-1.959-.93-1.123-.171-1.24-1.596-1.194-.358-.19-.452.18-1.835-.754-1.305-.135-1.46.333-2.175 1.033-.239.808.137.89-.367.35-.572-.063-.316-.817-.41-.36-.835.962-1.186.565-2.133 1.177-.82 2.381.137 2.497-2.048.548.589.647.025.369-.256.997.436.431-.99.494-.504.665-.162 4.797.47 1.384-.53 2.03-1.757.916-.196 3.971 1.151 2.426 1.076.52-.837-.044-1.39.377-.657-.08-1.605.79-.46-.1-.717.315-.785-.727-.538-.081-.955.8-.495.628-1.058-.656-1.34-1.105-.41-.386-.69.431-2.552 1.294-.281-.036-.504-1.913-2.329-.081-1.314-.827-.392.243-.88L28.36 39l.638-.298.476-1.306-.08-.716.098-.743.898.615-.072-.24.396-.23 1.14.547h.72l2.91-1.23 1.177.555 1.168.094 1.347-.35 1.132-1.134.593.136.818 1.434 2.12 1.527 1.958.358 1.923-.529 1.455.316 2.03-.008 3.198 1.143 1.968.162.88-.316.53.52 1.303.086 1.536-1.254 2.965-3.388.925-.435.925.981.827.188.117.316-.324-.068-.305.29-.17.69 1.014.948.962.478-.342 3.72.368 1.792.459.358 2.461.145 1.096.589 1.527 1.322.79.205.477-.153.656 1.117.242 1.587-.278.982.323.972.944.862.682.043 3.998-.828.898-1.024 2.336-1.459 1.294-1.672.018-.956-.279-.588-.826-.512.278-2.023-.52-1.314-.414-.12-.036-1.51-.404-.34.09-.632-.378-.922-.673-.503-1.626.367-.782-.23.207-1.289.575-.538-.153-.11 1.464-.41.7-.657-.52-2.628.413-2.952-.198-.316-.7-.213.08-.367.602-.103 1.483.803 1.383-.103 1.707.572 1.159.094 2.605 1.075 2.579.41 1.554.622 1.572-.571.44.554.045.563 2.012 1.203.423-.042-.027-.751.386-.503 1.518-.495 1.438 1.237-.243.273.647.802 1.168-.862 1.114-.333.179.18.566-.18.099.41.306-.026.071-.375.998.435 3.854.162 4.285-.75 1.168.264 1.141-.214 1.985 2.5 3.027 1.733 1.653.605 2.112.316 2.479 1.69 1.536.665 1.051.06.027.4.89-.451 2.686 1.092 3.854 2.824 3.737 4.172 1.41 1.135 1.132.307.584-.23.045-.358.503.239-.09.179.926.913 3.018 1.809 2.516 3.012 3.036 2.21 2.291 2.107 10.08 7.167 1.212.478.27-.162-.054.717 3.513 2.244.161.239-.386.298.404 1.263 1.132 1.391.629.307 1.159 1.229.485 1.98-.44-.982-.485.58-.27 2.944.351 1.51.476.82.557.315-.441.094.333 2.585-.387-.136-1.185 1.374.647.861 1.14.163 1.609 1.015.143.887-.251.154-.126 1.11.665.793 1.311-1.007.027-.794.827-.239.665.401-.243.393.243 1.519-.504-.017-.071.239.646.281.495-.085.269-.23-.566-.342 1.114-.418.18-1.246-.746-.495-.314-.648-1.375-.282-1.051-.665 1.958-1.417-.179-2.687-.539-2.04-.647-.256-.35.214-.207-1.297-1.842.426-.79-.204.018-.265.907-.299 4.905-.008.521-.597 1.321.588 2.371.606.342-.11 6.1 1.689.889-.657.719.452.62-.068.575.597-.414.555.288.537 2.012 1.39-.197 1.127 1.509 1.587 2.605 2.074 1.024 1.459 2.282.998 1.123 1.382-.449-.153.054.392 1.617.418.665-.17.485.358zm-16.629 19.309l1.339.99-3.396 1.109-.315-.35.881-1.578.664-.359.827.188z" stroke="#31313B" stroke-width=".4" mask="url(#a)"/></svg>