<svg width="11" height="14" fill="none" xmlns="http://www.w3.org/2000/svg"><path d="M7.568 2.436l.453-.415.796-.115.102-.014-.018-.102-.08-.445.854-.677.437.558-.008.349-.001.063.056.028.606.304.073.292-.135.677-1.465 2.409-.026.043.02.046.7 1.709-.124 1.118-.007.07.063.031.41.199-.088.627-.006.04.024.033.191.262-.585.564-.177-.022-.165-.35-.037-.08-.083.026-.818.256-.017.006-.014.01-.665.521-.078.061.06.079.475.623-1.041.277-.057.016-.015.057-.176.715-.404-.056-.076-.01-.03.07-.229.53-.766.42-1.264-.683-.026-.014-.03.002-1.482.123-1.027-1.322-.031-.04-.051.002-.28.009.315-.374.029-.035-.007-.044-.075-.497.371-.504.029-.04-.013-.046-.25-.9.843-1.508.011-.02.001-.023.054-1.007.004-.068-.063-.029-.648-.292.113-.684.013-.076-.071-.031-1.793-.795.162-.71.187.076.048.02.043-.028.737-.46.042-.027.004-.05.137-1.54.607-.143.221.616.023.064.069.002.943.026h.032l.026-.017.476-.315.047-.032-.002-.056-.034-.743L4.2.814l1.337.598.037.017.039-.014.726-.271 1.086.264-.025.951-.006.235.174-.158z" stroke="#31313B" stroke-width=".2"/></svg>