<svg width="17" height="20" fill="none" xmlns="http://www.w3.org/2000/svg"><path d="M14.186 9.138l.565.279-.842.644-.012.01-.009.012-1.048 1.473-.667.186-.048.014-.018.046-.126.325-.005.012-.001.013-.1.879-.008.08.076.025.405.137.064.022.043-.052.433-.506.334.037.121.014-.01-.122-.041-.466.307.096.648 1.57-.773.41-.042.022-.01.046-.125.597-.01.046.03.037.361.458-1.108.183-.112.018.032.109.284.966-.758-.036-.126-.006.023.123.083.464-.872-.108-.869-.633-.215-.157.059.26.067.297-.383.311-.072.058.053.076.405.588-1.006.397-.015.006-.012.01-.655.53-.477-.385-.032-.026-.04.004-.593.06-.035.003-.025.024-.698.671-.398-.436-.032-.035-.047.003-.668.032-1.299-.866-.394-1.305-.009-.03-.024-.019-.837-.677.364-.556.03-.046-.022-.05-.234-.52-.016-.035-.035-.016-.35-.153-.09-.039-.04.087-.452.946-.091.007-.15-.617h0l-.001-.003-.357-1.322.348-.53.815-.467.036-.02.011-.04.25-.928.84-.542.06-.04-.018-.07-.17-.648-.013-.048-.047-.019-1.367-.557L.917 8.594l-.008-.63.895-1.14.025-.033-.005-.04-.158-1.439.352-.707L4.39 3.114l.722.359.03.014.032-.005.449-.077.035-.006.024-.028.628-.73 2.321-1.49 1.013-.096.334.273.539 1.358.013.033.032.018.727.4.016.01.017.002 1.884.298.743 1.834.014.034.033.017L16.54 6.62l.021.478-.832.163-.041.008-.024.036-.457.705-1.046.373-.071.025.004.075.036.572.004.058.052.025zm-.066 6.272l.392-.155-.002.09-.39.065z" stroke="#31313B" stroke-width=".2"/></svg>