<svg width="23" height="33" fill="none" xmlns="http://www.w3.org/2000/svg"><mask id="a" fill="#fff"><path d="M4.084 1.03l.772-.231 3.585.563 1.078.862 1.267.503.952-.367-.306 1.22h-.359l.027.504.234.068-.297.384.431.222-.655.29.134.299.593-.069.97.623.522 1.638.242.18.369-.282.224.247.323.982 1.59 2.21-.458 1.945-.422.324h.342l-.135.316.233.264 1.105-3.319.593-.222.243.222-1.824 4.241.243.546.26-.418.324.503-.593.59-.386 1.689 1.527 1.16.278 2.04 2.201 2.61 1.923 3.524.862.384-.584 1.937-1.05.853-1.33.273-1.07 2.185-.808.247-.836-.401-.566.256-.332-.486-1.383-.418-.989-2.15-.682.213-.072-.598-.62-.819-.368-.008-.414-.444-.17-.606-1.25.427-.179-.589-.656-.128-.314-.529-.476.18-.431-.53-.494.111-.279-.247-.117.222-.278-.401-.773.12-.36-.624-.646-.145-1.105-.75.18-.65.673-.127-.125-.555.305-.742.845-.46.242-.564.494.068.198-.802 1.186-.316-.566-.742.665-.52.817-.256.189.4.278.035.683-.657-.243-.333.1-.7-.477-.23.126-1.143-.71-1.733 1.473-2.423.144-.716-.09-.359-.646-.324.009-.384-.521-.665-.98.776.09.503-.826.12-.476.435.026-1.032-1.194-.29-.755.281-1.392-.623-.027-1.33-.503-.18-.836.333L.796 8.06l.18-.341 1.383-.393.27-.418-.072-.853-1.123-.24.215-.264-.143-.537 1.257-.623.611-.879.297-.64-.35-.93.763-.913z"/></mask><path d="M4.084 1.03l.772-.231 3.585.563 1.078.862 1.267.503.952-.367-.306 1.22h-.359l.027.504.234.068-.297.384.431.222-.655.29.134.299.593-.069.97.623.522 1.638.242.18.369-.282.224.247.323.982 1.59 2.21-.458 1.945-.422.324h.342l-.135.316.233.264 1.105-3.319.593-.222.243.222-1.824 4.241.243.546.26-.418.324.503-.593.59-.386 1.689 1.527 1.16.278 2.04 2.201 2.61 1.923 3.524.862.384-.584 1.937-1.05.853-1.33.273-1.07 2.185-.808.247-.836-.401-.566.256-.332-.486-1.383-.418-.989-2.15-.682.213-.072-.598-.62-.819-.368-.008-.414-.444-.17-.606-1.25.427-.179-.589-.656-.128-.314-.529-.476.18-.431-.53-.494.111-.279-.247-.117.222-.278-.401-.773.12-.36-.624-.646-.145-1.105-.75.18-.65.673-.127-.125-.555.305-.742.845-.46.242-.564.494.068.198-.802 1.186-.316-.566-.742.665-.52.817-.256.189.4.278.035.683-.657-.243-.333.1-.7-.477-.23.126-1.143-.71-1.733 1.473-2.423.144-.716-.09-.359-.646-.324.009-.384-.521-.665-.98.776.09.503-.826.12-.476.435.026-1.032-1.194-.29-.755.281-1.392-.623-.027-1.33-.503-.18-.836.333L.796 8.06l.18-.341 1.383-.393.27-.418-.072-.853-1.123-.24.215-.264-.143-.537 1.257-.623.611-.879.297-.64-.35-.93.763-.913z" stroke="#31313B" stroke-width=".4" mask="url(#a)"/></svg>