<svg width="152" height="153" fill="none" xmlns="http://www.w3.org/2000/svg"><mask id="a" fill="#fff"><path d="M151.776 77.748l-2.911.546-1.24-.572-.952-1.288-.701-.486-.664-.163-.521.23-1.402-.588-.548.026-.512.665-1.024.401-.225.487.665.469.279 1.203-.405.154-.476-.495-.341.503.144.683-.405 1.535.189.453-.323.085-.189.495-1.114-.051-.315.341.396.256.224.742-.35.649.341.529.764.06-.53 1.1.225.52.539.35V87.8l.521-.043.116.419-.359.512.404.332.746-.495.099-.486.413-.051 1.096.538-.431.213-.27.819-.691.29.557.964-.351 1.314-.341.162.161.563-.287.538-.422-.264-.44.213-.908-1.237-.727.682-.342.828-.26.153-.611-.196.108.444-.683-.085-.683.469-.314-.273-1.617-.094-1.025-.862-.368-.06-.719.47-.727-.649-1.429-.75-.287.085 2.345-1.903.772-.282-.889-1.04-1.896.102-1.177 1.186-3.548.06-.009 1.177-1.276 1.826-.359 1.186-.359.299-1.429.017-.566.435-1.922-.282-.908.888-.233.708-.36.085-.763-.145-.243-.631-1.293-.666-2.103.384-2.326-.768-1.213-1.135-.072-1.561-.539-.051-1.105 1.177-1.375-.23-.835-.777-1.123-.153-.359.418-.342-.077-1.275-2.048-.432-.17-.961.802-.575 1.04.054.521-1.195 1.067-.871-.47-1.087.111-.575-.238-1.087.332-1.222-.955-2.443-.453-.602.768-.234 1.306-1.132.93-1.302-.256-1.788.674-.773-.043-1.006.93-1.527.205-.18.282.342.204-.063.555-.97 1.45.853.965.916.341.845 2.15.467-.034 1.132.649-.342.512-1.123-.137-.664.205-.962 3.268-.44.307.153.734-.377.571.072 1.758.09.384.547.341-.404 1.784.189 1.271-.243.717.063 2.116-.44.341-.512 1.118.467-.017-.404.512-.234 4.914-2.632 7.509-3.477 3.259-6.764 3.832-7.331 8.131-4.321 2.287-.512.887.018 1.22-.431.435-.387-.238-.575.349-1.258.137-.413.469-.961.196-.512.512-.665.171v-2.491l-.934-.657h-2.13l-.565-.512-.26-.905.125-1.075-.62-1.578-1.788-.794-1.266-1.689-.423-.171-.152-1.024-.917-.375-.718.204-1.177-.298-.71.409-1.069-.947-.997-.426-.53-1.221-1.491-1.433-3.18-1.869-.818-1.126-2.03-1.305-.53-.828-.036-1.399-.584-1.332-.79.231-.28.657-1.536-.145-.053 1.032-1.555.93-1.59.214.01.546-.773.546-.26.81-2.139-1.228.476-.538-.557-.384-.44-.094-.557.316-.62-.367-.548.427-2.066.162-.099-1.126-1.276-.197-.449-.554-.009-.717-.961-.085-.494-.316-1.186.171-.216-.674-.943-.504-.216-.623-.583-.546H9.798l-.305-.426-.503-.12-.7-.921-.917.068-.09.759-1.491-.333-.647-.972-.593-.35-.934-1.579-.692-.392-.036-.606-1.33-.904-.485-.683-.727-.128.116-1.101.611-.768 1.24-.204.79-1.357 2.84.316-.054-.538 1.123-2.833-.081-.759-.467-.495.565-2.125-.332-.964 1.626-.699-.602-1.024.117-1.946-.61-.503.269-.358-.1-1.067 1.178-1.032.251-1.502.836-.094.242-.845.8.103.368.418.737-.708.08-1.05.683.051-.107-1.868 2.272-.282-.161-.802.278-.776-.126-.248-.87-.12.287-2.354-1.878-.111-.252-.393.081-.503.746-.384.18-.563-1.788-.913 3.728-8.541 5.471.196.395.657 1.492-.077.458-.529.593.111 1.33-.29.413-1.792.646-.4.234-.94.871-.187.674.333.827-.333.736.691-.494.938.234.982.341.29 1.285.256-.072.452.494.41-.233.648.512.512-.297.384.153.631 1.33.717.305.674.422.026.476-.725.584.136.288-.273-.153-.828-.53-.307-.315-.921.369-1.16-.387-1.187 1.671.086.018-.683 1.105-1.246-.539-.307.081-.495 1.698-1.348.827-.17.96-2.048.53-.461 2.435-.589 1.168-1.502 1.105-.58.413-.717-.161-1.612-.961-1.852.512-1.459 1.374-.64.88.17.162-.511.737-.683.853.418.611-.273 1.16.145.026.376-.8.008-.026.726.71.827.026.615 1.168 1.365 2.641.708.153 1.775.961-.444.908.12.098.58.548.094-.071 1.032.979.18.413-.308.782-.008 1.41-1.178-.485-.341-.35-.76.161-.512 2.174-1.936 1.06-.342.414-.418-.144-1.544-1.078-1.067.323-.554-.099-.939-.916.017-1.078-1.143-.126-.82-.512-.802 1.482-1.117.584-1.127 2.812.103-.045-.512-.52-.478.359-.981-.306-.683.126-2.431-.61.119-.486-.512-1.123.145-1.806-.998-1.608-1.775-.539-1.169.611-1.357-.224-.469-.521-.136-.045-.564.745-.367-.054-1.902.27-.666.692-.298.035-.555 1.95-1.041-.198-.862-.494-.503.081-.597 2.12-.913.117-.495 1.967-1.442.306-.58 1.213-.018.907-.657-.395-1.663 3.045-2.765.494-2.21-.395-.341-.045-.427.557-.665.144-.649 1.743-1.766-.081-.691.476-.768-1.644-.452-.45-.59.288-.707-.89-1.468-1.194-1.084-.189-1.646.97-.094.459-.316.314-1.502-.575-.614.252-.862.539-.264.682.486.665-.341.36-.563-1.132-1.442-.279-.751.818-1.058.108-1.74.584-1.451-.432-1.895.279-.256 2.434 1.255.71-.828.952.93 1.007.162.476-.307.251-.947 1.132-.299 2.542-.12.513.547.835-1.69-.853-.938-.405-1.28-.997-.444.71-.375.907.358.755-.716.341.093.054.956.467.367-.341.82.296 1.228.27.537 1.06.171.431.589-.287 1.237.35.239.027.495-.557.537-2.614.171v.913l-1.042 1.809.26.597 1.527-.495 1.025-.034 1.68.802 1.32-.179 1.32 2.508.818-.238.458 5.435.27.674.952 1.024-.063.418-1.105.99-.233 1.015-.486.324-.026.512-.477.41v1.109l.97 1.34.755-.487 1.905-.034.638 1.613-.279.435.368 1.11-.538 1.023.08.717-1.248.606-.566.674-.485 1.382.332 1.416 1.473 2.202-.27 2.833.306.571.422.137.584-.248.422.307.432.999.763.52 1.096-.153.71.486-.278 1.843-1.5 1.988.323.589-.387.87-1.203.196-.081.35.503.367-.036.367-.602.256-.09.538-.683.563.09.887-.61.393-.234.98-.53.65-.387 1.612.468.938-.764 1.118-.009.828-1.258 1.792.288.742-.243.82-1.114 1.253-.17.606.377.273-.431.435-.117.623 1.222.555.188.75.782.888-.08.905.287.264.7-.298.297 1.092.8-.282 2.425.111.781-.452.638-.051.548-.555.45-1.442.413-.503 1.698.255.799-.23.386.486.539.052.306-.512 1.222-.29.979.665.638-.64 1.805-.435 1.725-2.287.539.854-.278 1.612.862-.367 1.312-.008-.018 1.015-.8.367-.664.691.17 1.16-.278 1.025.242 1.211.458.017.441-.298V67.97l.458-.342.009.657.692.47.853-1.323 1.86-.665.718.076 1.294-1.126.135-.623-.351-1.22.917-.674.251-.956.728-.69.701-.06.027-.487.314-.444.611-.05-.072-.513.341-.273.459.214.467-.163-.009-.716.53-.717 1.293-.998.701-.137.135-.614-.315-.666 1.132-1.536 1.267.043.503-.273.494-.828.234-1.305.916-1.263.458.376.692-.009 1.752-.973.494-.008.799.537-.053.478h1.078l.682.341.027.41.728.008.27.453 1.266-.12.656.828.773.154.08.648.944.299.503.529.314.495.045.93.315.324 1.392-.324-.512 1.382-.584.222-.431.537.584.53.09 2.277-.207.623.243.58.781.572 1.249-.145.638.256.943-.708.332 1.143.351.29.691-.315.207-1.127.422-.222.324-.844.126.418.916-.222.611.683.251.853 2.399.794.566 1.416-.881 1.16.342 2.287.431.264-.404.82.449 1.322-.332 2.44 2.003 1.255.081.605-.351.495.566 1.366-.215.597z"/></mask><path d="M151.776 77.748l-2.911.546-1.24-.572-.952-1.288-.701-.486-.664-.163-.521.23-1.402-.588-.548.026-.512.665-1.024.401-.225.487.665.469.279 1.203-.405.154-.476-.495-.341.503.144.683-.405 1.535.189.453-.323.085-.189.495-1.114-.051-.315.341.396.256.224.742-.35.649.341.529.764.06-.53 1.1.225.52.539.35V87.8l.521-.043.116.419-.359.512.404.332.746-.495.099-.486.413-.051 1.096.538-.431.213-.27.819-.691.29.557.964-.351 1.314-.341.162.161.563-.287.538-.422-.264-.44.213-.908-1.237-.727.682-.342.828-.26.153-.611-.196.108.444-.683-.085-.683.469-.314-.273-1.617-.094-1.025-.862-.368-.06-.719.47-.727-.649-1.429-.75-.287.085 2.345-1.903.772-.282-.889-1.04-1.896.102-1.177 1.186-3.548.06-.009 1.177-1.276 1.826-.359 1.186-.359.299-1.429.017-.566.435-1.922-.282-.908.888-.233.708-.36.085-.763-.145-.243-.631-1.293-.666-2.103.384-2.326-.768-1.213-1.135-.072-1.561-.539-.051-1.105 1.177-1.375-.23-.835-.777-1.123-.153-.359.418-.342-.077-1.275-2.048-.432-.17-.961.802-.575 1.04.054.521-1.195 1.067-.871-.47-1.087.111-.575-.238-1.087.332-1.222-.955-2.443-.453-.602.768-.234 1.306-1.132.93-1.302-.256-1.788.674-.773-.043-1.006.93-1.527.205-.18.282.342.204-.063.555-.97 1.45.853.965.916.341.845 2.15.467-.034 1.132.649-.342.512-1.123-.137-.664.205-.962 3.268-.44.307.153.734-.377.571.072 1.758.09.384.547.341-.404 1.784.189 1.271-.243.717.063 2.116-.44.341-.512 1.118.467-.017-.404.512-.234 4.914-2.632 7.509-3.477 3.259-6.764 3.832-7.331 8.131-4.321 2.287-.512.887.018 1.22-.431.435-.387-.238-.575.349-1.258.137-.413.469-.961.196-.512.512-.665.171v-2.491l-.934-.657h-2.13l-.565-.512-.26-.905.125-1.075-.62-1.578-1.788-.794-1.266-1.689-.423-.171-.152-1.024-.917-.375-.718.204-1.177-.298-.71.409-1.069-.947-.997-.426-.53-1.221-1.491-1.433-3.18-1.869-.818-1.126-2.03-1.305-.53-.828-.036-1.399-.584-1.332-.79.231-.28.657-1.536-.145-.053 1.032-1.555.93-1.59.214.01.546-.773.546-.26.81-2.139-1.228.476-.538-.557-.384-.44-.094-.557.316-.62-.367-.548.427-2.066.162-.099-1.126-1.276-.197-.449-.554-.009-.717-.961-.085-.494-.316-1.186.171-.216-.674-.943-.504-.216-.623-.583-.546H9.798l-.305-.426-.503-.12-.7-.921-.917.068-.09.759-1.491-.333-.647-.972-.593-.35-.934-1.579-.692-.392-.036-.606-1.33-.904-.485-.683-.727-.128.116-1.101.611-.768 1.24-.204.79-1.357 2.84.316-.054-.538 1.123-2.833-.081-.759-.467-.495.565-2.125-.332-.964 1.626-.699-.602-1.024.117-1.946-.61-.503.269-.358-.1-1.067 1.178-1.032.251-1.502.836-.094.242-.845.8.103.368.418.737-.708.08-1.05.683.051-.107-1.868 2.272-.282-.161-.802.278-.776-.126-.248-.87-.12.287-2.354-1.878-.111-.252-.393.081-.503.746-.384.18-.563-1.788-.913 3.728-8.541 5.471.196.395.657 1.492-.077.458-.529.593.111 1.33-.29.413-1.792.646-.4.234-.94.871-.187.674.333.827-.333.736.691-.494.938.234.982.341.29 1.285.256-.072.452.494.41-.233.648.512.512-.297.384.153.631 1.33.717.305.674.422.026.476-.725.584.136.288-.273-.153-.828-.53-.307-.315-.921.369-1.16-.387-1.187 1.671.086.018-.683 1.105-1.246-.539-.307.081-.495 1.698-1.348.827-.17.96-2.048.53-.461 2.435-.589 1.168-1.502 1.105-.58.413-.717-.161-1.612-.961-1.852.512-1.459 1.374-.64.88.17.162-.511.737-.683.853.418.611-.273 1.16.145.026.376-.8.008-.026.726.71.827.026.615 1.168 1.365 2.641.708.153 1.775.961-.444.908.12.098.58.548.094-.071 1.032.979.18.413-.308.782-.008 1.41-1.178-.485-.341-.35-.76.161-.512 2.174-1.936 1.06-.342.414-.418-.144-1.544-1.078-1.067.323-.554-.099-.939-.916.017-1.078-1.143-.126-.82-.512-.802 1.482-1.117.584-1.127 2.812.103-.045-.512-.52-.478.359-.981-.306-.683.126-2.431-.61.119-.486-.512-1.123.145-1.806-.998-1.608-1.775-.539-1.169.611-1.357-.224-.469-.521-.136-.045-.564.745-.367-.054-1.902.27-.666.692-.298.035-.555 1.95-1.041-.198-.862-.494-.503.081-.597 2.12-.913.117-.495 1.967-1.442.306-.58 1.213-.018.907-.657-.395-1.663 3.045-2.765.494-2.21-.395-.341-.045-.427.557-.665.144-.649 1.743-1.766-.081-.691.476-.768-1.644-.452-.45-.59.288-.707-.89-1.468-1.194-1.084-.189-1.646.97-.094.459-.316.314-1.502-.575-.614.252-.862.539-.264.682.486.665-.341.36-.563-1.132-1.442-.279-.751.818-1.058.108-1.74.584-1.451-.432-1.895.279-.256 2.434 1.255.71-.828.952.93 1.007.162.476-.307.251-.947 1.132-.299 2.542-.12.513.547.835-1.69-.853-.938-.405-1.28-.997-.444.71-.375.907.358.755-.716.341.093.054.956.467.367-.341.82.296 1.228.27.537 1.06.171.431.589-.287 1.237.35.239.027.495-.557.537-2.614.171v.913l-1.042 1.809.26.597 1.527-.495 1.025-.034 1.68.802 1.32-.179 1.32 2.508.818-.238.458 5.435.27.674.952 1.024-.063.418-1.105.99-.233 1.015-.486.324-.026.512-.477.41v1.109l.97 1.34.755-.487 1.905-.034.638 1.613-.279.435.368 1.11-.538 1.023.08.717-1.248.606-.566.674-.485 1.382.332 1.416 1.473 2.202-.27 2.833.306.571.422.137.584-.248.422.307.432.999.763.52 1.096-.153.71.486-.278 1.843-1.5 1.988.323.589-.387.87-1.203.196-.081.35.503.367-.036.367-.602.256-.09.538-.683.563.09.887-.61.393-.234.98-.53.65-.387 1.612.468.938-.764 1.118-.009.828-1.258 1.792.288.742-.243.82-1.114 1.253-.17.606.377.273-.431.435-.117.623 1.222.555.188.75.782.888-.08.905.287.264.7-.298.297 1.092.8-.282 2.425.111.781-.452.638-.051.548-.555.45-1.442.413-.503 1.698.255.799-.23.386.486.539.052.306-.512 1.222-.29.979.665.638-.64 1.805-.435 1.725-2.287.539.854-.278 1.612.862-.367 1.312-.008-.018 1.015-.8.367-.664.691.17 1.16-.278 1.025.242 1.211.458.017.441-.298V67.97l.458-.342.009.657.692.47.853-1.323 1.86-.665.718.076 1.294-1.126.135-.623-.351-1.22.917-.674.251-.956.728-.69.701-.06.027-.487.314-.444.611-.05-.072-.513.341-.273.459.214.467-.163-.009-.716.53-.717 1.293-.998.701-.137.135-.614-.315-.666 1.132-1.536 1.267.043.503-.273.494-.828.234-1.305.916-1.263.458.376.692-.009 1.752-.973.494-.008.799.537-.053.478h1.078l.682.341.027.41.728.008.27.453 1.266-.12.656.828.773.154.08.648.944.299.503.529.314.495.045.93.315.324 1.392-.324-.512 1.382-.584.222-.431.537.584.53.09 2.277-.207.623.243.58.781.572 1.249-.145.638.256.943-.708.332 1.143.351.29.691-.315.207-1.127.422-.222.324-.844.126.418.916-.222.611.683.251.853 2.399.794.566 1.416-.881 1.16.342 2.287.431.264-.404.82.449 1.322-.332 2.44 2.003 1.255.081.605-.351.495.566 1.366-.215.597z" stroke="#31313B" stroke-width=".4" mask="url(#a)"/></svg>