<svg width="30" height="17" fill="none" xmlns="http://www.w3.org/2000/svg"><mask id="a" fill="#fff"><path d="M7.53 5.516l.63-.358.637.145.216-.325 1.222-.153.745.418v-.359l.368.018.414-.512v-.47l.467.222 2.444-.725.278-1.442-.216-1.331 2.165.623.117.41 1.042.588.333-.256.35.213.755-.128.188-.426.566-.23.26.23 1.088-.145.26-.598.755.248-.225 1.05.342.887-.557.512.7.674 1.007.094.691-.427.19-.401-.262-1.16.477-.811.18 2.227.835-1.007.674-.273 1.14.23.405.342.117.537-.1.401 1.025.58-.099.256-.305-.196-.18.487-.395-.273-.45.307.171.375-.772.341-.315.461-.063 1.041.809.188-.045.222.45.187-1.106 1.997-2.524.29-.027.29-.431.197-.513-.274-.718.274-.386.495.34.426-.34.76.314.247.36-.265.044 2.117-1.51.06-.376.69-1.096.069-.153-.444-.934-.196-.602.162-.036.478-.79.648-.81-.324-.215-1.417-1.878.52-.494.385-.404-.538-1.347-.076-.216-.3-.656.257-.17.35-.423-.384-1.177-.282-.224-.836-.593-.18-1.41.36-.153.315-.63.043-.125.315-.314-.085-.584 1.118-.584-.453-.818-.162-.61-1.578-.576-.051.459-.973-.054-.734-1.608-.478-.908.58-.36-.06-.16-.853.34.009.153-.76.764-.298-.45-.674.378-.384.36.008-.037-.34.935-.53.161.154.611-.785.369-.017.485-.495.278-.111.45.418.323-.051-.01-.35.45-.282-.656-.375L7 5.806l.53-.29z"/></mask><path d="M7.53 5.516l.63-.358.637.145.216-.325 1.222-.153.745.418v-.359l.368.018.414-.512v-.47l.467.222 2.444-.725.278-1.442-.216-1.331 2.165.623.117.41 1.042.588.333-.256.35.213.755-.128.188-.426.566-.23.26.23 1.088-.145.26-.598.755.248-.225 1.05.342.887-.557.512.7.674 1.007.094.691-.427.19-.401-.262-1.16.477-.811.18 2.227.835-1.007.674-.273 1.14.23.405.342.117.537-.1.401 1.025.58-.099.256-.305-.196-.18.487-.395-.273-.45.307.171.375-.772.341-.315.461-.063 1.041.809.188-.045.222.45.187-1.106 1.997-2.524.29-.027.29-.431.197-.513-.274-.718.274-.386.495.34.426-.34.76.314.247.36-.265.044 2.117-1.51.06-.376.69-1.096.069-.153-.444-.934-.196-.602.162-.036.478-.79.648-.81-.324-.215-1.417-1.878.52-.494.385-.404-.538-1.347-.076-.216-.3-.656.257-.17.35-.423-.384-1.177-.282-.224-.836-.593-.18-1.41.36-.153.315-.63.043-.125.315-.314-.085-.584 1.118-.584-.453-.818-.162-.61-1.578-.576-.051.459-.973-.054-.734-1.608-.478-.908.58-.36-.06-.16-.853.34.009.153-.76.764-.298-.45-.674.378-.384.36.008-.037-.34.935-.53.161.154.611-.785.369-.017.485-.495.278-.111.45.418.323-.051-.01-.35.45-.282-.656-.375L7 5.806l.53-.29z" stroke="#31313B" stroke-width=".4" mask="url(#a)"/></svg>