<svg width="6" height="9" fill="none" xmlns="http://www.w3.org/2000/svg"><path d="M2.648 6.94l-.62.878-.485-.844.167-.623.114.208.022.04.045.01.647.136.052.01.038-.036.836-.802.041-.04-.014-.056-.332-1.323-.007-.027-.02-.02-1.15-1.126-.028-.027-.038-.002-.587-.021.108-1.27.004-.05-.039-.034-.464-.402.079-.952.567-.073.135.384.02.056.058.01.36.06.087.014.025-.085.208-.712.53.27h0l.005.002 1.798.796-.113.683-.012.076.07.031.656.297-.049.915-.851 1.524-.02.036.01.04.248.891-.366.499-.025.033.007.04.074.494-.387.46-1.292-.406-.07-.022-.042.06z" stroke="#31313B" stroke-width=".2"/></svg>