<svg width="33" height="50" fill="none" xmlns="http://www.w3.org/2000/svg"><mask id="a" fill="#fff"><path d="M27.465.14L27.933 2l-.09.692-.297.29-.593.051-.224.64.745.58-.108.47.773 1.126 1.006-.017.36.725.907.06.279 1.118.907 1.015-.054.853.584 1.476.656.29-.108.794-1.015.444-.467.597-1.492.333-2.093 2.466-.404.827-.638.29-.009.666.494 2.722.656 1.22.728.623-.234.793-.61.273-.261.615-.297 2.542-1.078.538.225.367 1.15.614.422-.17.449-.794.8-.222.35.862.395.239 1.07-.478.188.205.252 1.518-.89.982-.216 1.33.818.086.422 1.766-1.248.29-.602 1.306-.8.725.243.743-.504 1.356.1.307.574-.537.809 1.152.188.444-.503.23.611.452.054.452-.755.376-.152.716.233.384.414-.068.494.87.647.29.188.547-.431.085-.243.538-.539.298-.107.41.71.716-1.33 1.272-1.527.938.107.905-1.194.802-.593.11.143-1.544-.296-.785-.746-.196-.754.256-1.6-1.356-.413.034-.979 1.092-.431.042-2.03-.785.107-.383-.26-.419-.854.188-.305-.282-.009-.708-.207-.281-.602.042-.287-.93.018-.682.512-.487-.126-1.083-1.994-1.579-.45-.64.144-.324 1.267-.572.36-.785.008-.827-2.515-.299-.386-.913-.63-.486-.547-1.647-.548-.256-.494-1.459-1.258-.572-.08-.307-.585-.23-.314-.666-1.581-.827-.818.145-1.284-2.09-.315-.231-.36.128-.718-1.681.494-.657-.745-.666.125-.546.494-.153.306-.444-.26-.845-1.034-1.126.342-1.323-.369-1.39.054-1.442-1.563-.052.952-.7.18-1.339-.234-.52-.763-.316-.593-.973.162-.315-.405-1.23.288-.374-.162-1.016-.584-.162 2.228-1.246.98.069 1.94-.794 2.39-.188-.36-.128-.198-.58 1.366-.418.323-.828 1.24-.623.53-.588.503-.052.225-1.185.26-.197.863.862.395.06 1.159-.708 1.32.017-.206.69.197.223 1.357-.06.782-.316.206-.845 1.222-.008-.063.75 1.429-.784.305 1.271 1.464-.589 1.141-.998L26.154.866l.862.256.45-.981z"/></mask><path d="M27.465.14L27.933 2l-.09.692-.297.29-.593.051-.224.64.745.58-.108.47.773 1.126 1.006-.017.36.725.907.06.279 1.118.907 1.015-.054.853.584 1.476.656.29-.108.794-1.015.444-.467.597-1.492.333-2.093 2.466-.404.827-.638.29-.009.666.494 2.722.656 1.22.728.623-.234.793-.61.273-.261.615-.297 2.542-1.078.538.225.367 1.15.614.422-.17.449-.794.8-.222.35.862.395.239 1.07-.478.188.205.252 1.518-.89.982-.216 1.33.818.086.422 1.766-1.248.29-.602 1.306-.8.725.243.743-.504 1.356.1.307.574-.537.809 1.152.188.444-.503.23.611.452.054.452-.755.376-.152.716.233.384.414-.068.494.87.647.29.188.547-.431.085-.243.538-.539.298-.107.41.71.716-1.33 1.272-1.527.938.107.905-1.194.802-.593.11.143-1.544-.296-.785-.746-.196-.754.256-1.6-1.356-.413.034-.979 1.092-.431.042-2.03-.785.107-.383-.26-.419-.854.188-.305-.282-.009-.708-.207-.281-.602.042-.287-.93.018-.682.512-.487-.126-1.083-1.994-1.579-.45-.64.144-.324 1.267-.572.36-.785.008-.827-2.515-.299-.386-.913-.63-.486-.547-1.647-.548-.256-.494-1.459-1.258-.572-.08-.307-.585-.23-.314-.666-1.581-.827-.818.145-1.284-2.09-.315-.231-.36.128-.718-1.681.494-.657-.745-.666.125-.546.494-.153.306-.444-.26-.845-1.034-1.126.342-1.323-.369-1.39.054-1.442-1.563-.052.952-.7.18-1.339-.234-.52-.763-.316-.593-.973.162-.315-.405-1.23.288-.374-.162-1.016-.584-.162 2.228-1.246.98.069 1.94-.794 2.39-.188-.36-.128-.198-.58 1.366-.418.323-.828 1.24-.623.53-.588.503-.052.225-1.185.26-.197.863.862.395.06 1.159-.708 1.32.017-.206.69.197.223 1.357-.06.782-.316.206-.845 1.222-.008-.063.75 1.429-.784.305 1.271 1.464-.589 1.141-.998L26.154.866l.862.256.45-.981z" stroke="#31313B" stroke-width=".4" mask="url(#a)"/></svg>