<svg width="15" height="12" fill="none" xmlns="http://www.w3.org/2000/svg"><path d="M8.41.812h0l.006-.004.3-.247.611.06.63.983.023.036.043.008 2.063.378.688.678.152.15.018-.212.027-.329.54.036.095.006.011-.094.055-.443.144-.035.571.839-2.038 1.057-.038.02-.012.041-.26.896-.023.077.07.039 1.07.588.045.026.047-.024.324-.162.066-.033-.013-.074-.054-.31.28.066.46.73.096.84.005.049.042.025.279.17-.307.793-1.505.853-.058.032.008.066.094.797-.488.641-.017.023-.003.027-.09.854-.002.026.01.025.173.389-.352-.131-.101-.305-.034-.1-.099.04-.916.369-.45-.166-.03-.012-.032.01-.965.289-1.164-.432-.062-.023-.046.048-.292.314-.473-.217-.026-.012-.029.004-.642.081-1.253-.656-.106-.425-.03-.12-.11.054-.454.22-1.198-.504-.029-.012-.03.006-.45.092-.376-.372-.035-.034-.048.006-.336.043-.325-.454-.018-.025-.029-.011-.983-.36.042-1.59.597-1.47.695-.258.062-.023.003-.066.051-1.214.421-.162 2.229.58.401.68.023.04.045.008.718.136.072.014.035-.064.474-.87h.588l.027-.056.54-1.118.011-.025-.002-.028-.072-.734-.004-.035-.024-.025-.548-.565L8.41.812z" stroke="#31313B" stroke-width=".2"/></svg>