<svg width="110" height="171" fill="none" xmlns="http://www.w3.org/2000/svg"><mask id="a" fill="#fff"><path d="M4.415 82.016l-.01-.956-.538-.785-.054-.657.53-1.672 1.168-1.962.161-1.929.53-.76.513-.17.53.555.413-.086.512-.759.61.828.522-.137.242-.41-.494-.818.081-1.263.89-.589.125-.47-2.335-3.412-.97-.87-.639-.069-.233-.81.476-.103.189-.802.35-.051-.009.333.97.46.35-.213.405-.742.027-.905 1.006-1.177.09-.46.718-.615.513-.043.125-.52.369-.069.233-.426-2.003-2.014.332-.572-1.015-.392-.494-.572.162-.717-.63-.145-.143-.98 1.195-.274.476.708 1.078.427.503.572.935-.052-.405-1.587.333-.657.476-.162-.413-2.841 1.626.196.224-.819.611-.708-.341-.828.665-2.039 1.446-.282.287-.657-.61-.597.395-.981.494.128.548-.23.215-.888.575-.273.854.145 1.734-.682.772.418 2.22-.461 1.562.776.584-.179.683.58.692.009.763-.606.369.026.79.896.387-.137 1.572.572.584-.299v-.307l.638-.648-.01-.768 2.022-2.629.719-.196.898.145 1.294.7.08.333 1.608.478 1.42.093 1.006.59.45-.035 1.167-1.04 1.384-.223 1.787-1.561.27-.401-.126-.785 1.051-1.007 2.345.034.431-.35.26.563-.134.683.736-.026.513-.588-.027-.273-.468-.24-.161-1.023.674-.998-.512-.615.143-1.169-.287-.725.242-.384.01-1.126.96-1.69-.404-.93 1.267-2.858-1.968-2.21.944-2.048-.234-.631.198-.273.593.136 1.536-1.28.279-.477-.297-.743.386-.648.324.469.431-.316 1.23-.008.342-.384-.018-.725.413-.41.836.264.862-.597 1.24-.256.916-1.527.575-.256 1.105-3.106-.323-.973.593-.281 1.213.068.08-.46.62-.65-.386-.554.62-3.84.593-.435 1.303-.042.637-1.152.908-.009.386.666.808-.043-.035.862.736.051.602-.281.153.733.665.956.763.452-.027.88.422.596.593.29.126.427.782.196.467.888.907-.299.378-.503.646-.017.405 1.604.997.665.692-.085.826-.896 1.608.444.234.64.566-.188.072-.708.71-.81-.046-1.05.827-.333.036.683.61.41-.035.323.772-.443.593.12.297.656-.234.316.773 1.322.52-.998.989-.495.368.154-.278.802.215.606-.395.614.117.538.7.358.423-.29.97-.034.692-.888 1.024-.341.476-1.886.773-.734 1.599-.179.503.768 1.159.649.467-.674.35.068.243.392.44-.102-.234.665.522.009.188-.41.53-.076.306-.41-.117-.734.377-.29.377.81.935.154 1.734 1.135 1.868 2.406-.027.606 1.024 1.212-.125 1.51.709.845-.215.87.664 1.928-.044 1.05-.369.444.135.298-.44 1.203-1.033.111-.288.393-.018 1.809.333.58-.324.555-.683.017-1.284-1.007-.449.11-.423.461-.458.043-.485 1.015h-.449l-.97.674v.751l-.611.163-.207.52.611.887-.476.222 2.039 2.1.926-.47.862.222.889-.495.764.222.656 1.322 1.293.273.234.657-.404.623.727 1.152.306.094.781-.742.512-.043.045.76.755.29.099.554-.333.341.405.376.143 1.433-.512 1.203-.018 1.553-1.5.555-.719.12-.97-.36-.152-.52-1.501-.358-.907.862v1.382l.314.828-.251.247-.71-.281-.997.81-.44-.042.072-.436-1.052-.776.926-1.894-.306-.214-.296.29-.324-.17-.152.572-.7-.726-.09.188-.701-.222-1.644.427-.01-.29-.404-.086-1.868.572-7.017-.384-2.542.981-1.473-.512-5.3 2.04-2.453 2.133-2.363 3.89-.754.811-1.59 1.237-1.851.794-1.644 1.604-1.42 3.447-.404 1.843-.907.597-.27.504-.422-.214-1.536.692-1.375 2.508-.458-.085-.692.316-.763 1.459-1.195.665-.79.051-.872.922-.135.606-.215-.205-.378.136-.224 1.272-.306.205-.386-.205.027.281-1.23.572-.207 1.903-.216-.137.045-.682-.755.153.225.325-.593 1.049-.602.307-.072.81-.287-.085-.746.547.144.938.772.265-.18.477-.395-.256-.637.103-.144.665-.827.162-.485 1.434-.404.188-.36.896-.88.213-1.024.879-.225.99-.601-.214-1.339 1.186-.242.743-.504-.069-.79.589-.611 1.041-.27-.264-.736.588-.315-.128-.072.461-.772.162-1.842 3.004-.458.025-1.033 1.033-.557.05-.719.735-1.176.35-2.184 2.329-.035.503.547.828 2.022.828.584.008.233.145.027.648.503.316 2.767-.648.252.213 1.662.077 2.066-.606-.17.486.512.359-.513.537.306.273-.315.24.171.434-.215.24-.054-.342-.279.205.045.597.45.358-.459.359.36.281.035.248-.386.205.44.844-.305.111.197.128-.107.52-.557.504-.171 1.007.233 1.22.557.393.432-.401-.045-.29.593-.273.79.085.315.401.53-.435.691-1.912-.233-.204-.692.179-.485-.922.674-.896.647-.153-.162-.222.737-.29.098-.324 1.546.119.637-.282-1.68 2.364-.188.077v-.64l-.494.11-.35.223-.171.665.916.145 1.042.888 1.698-.128-.341.64-1.258.725-.063.614-.647 1.075-1.087.111-.88.751.772.538 4.115-.495 2.273-1.562.44-1.775 1.357-.938-.09 1.997-1.375 1.595.063.427-.656.435.036.461 1.267-.077 1.258-1.886.332-2.099.368-.725.01-1.144-.701.342.422-.922.054-1.04-.503-.402.575-.187 1.77.93 1.796.4 1.087-.255 1.725-.99.323.06.036.938 2.596 1.51.072.589.782.452-.476.649.36.921 1.338.956-.072.333.8.785 1.976 1.058-.216.759.575-.187-.063.349.818.145-.162.239.674.563 1.464.222-.144.495-.332.162.467.052.189.75-.521.163.036.546-.953.128.243.281-.36.418-.646.043-1.464-.845-.36-.571-.638.068.701.904.656.034.162.982.557.153.116.41 1.16.179-.495.751.54.554.134 1.459-.35.837-.656.247.063.836 1.716 1.792.898-.154.117.837-.53-.069-.737.606-.027.999.503.426-.206.41-1.276.657-.557 1.638-.629.017-.854.503.063 1.306-1.024.299.36.093.072.384.44-.059-.027.495-1.231.494.225.692-.477.179.333 1.706-.315.598.117.332-.808.581-.081.802-.54.972.414.845-.512.828.764 1.945-.252.375.09 1.374.233.359.926.281-1.294.879-.557 1.084.306.699.52.214-.188.998.305 1.092-.826 1.502.045.99-.737.767.225.12.036.93-.45.094.216.392-.61.777.736-.512.368.452-.188.521-.791.691-.36.887-.053 2.799-.575.392-.315.657-.727.282-1.294 1.263-1.177 1.757-.853.41-.827.99-1.464 3.105.018.589-.306-.102-.916-.615-1.096.274-1.087-.333.503-1.135-.485-.503.108-.316 1.446-.871.108-.622-.413-.777-.898-.734.332-.674.512-.179-.027-.478-.997-.119.054-.452-.485-.316-.26-1.271-1.007-.291-.818.623.027.555-1.356.222-.26.52-.953.393-.853-.265-1.016.265-.925.87.494.981 1.204.674-.153.418-.71.222-.161.435 1.087.077 1.123.76.853-.179.548.366.405-.051-.459.64.557.196.081.93-.52.478-.504.068-.054.598-.71.324-.655-.222-1.833 1.399-.773-.255-.152-.316-1.474-.29-.691 1.826.35.725-2.524 1.843-.935-.137-.781.41-1.195-.427-.315-.495-.314.026-.521.657-1.42-.998.19-.401-1.07-.068-.009-.197h-.314l-.44.495-.611.026-.081-.324.45-.709-.594-.392-.054-.734-.763-.026-.944-.418-.655.717-.647-.23-.414.281-.853-.008-.539 1.527-.88-.392.278 1.834-.296.691-2.902.614.314-2.747.44-1.032.558-.273-.036-.7-.423-.452.207-.691.737-.879 1.275-.205.476-.452 1.33-2.125-.638-.845-.117-.64-.44-.119-.242-.794 1.033-2.576-.53-.222-.387-.615-.377.18-.692-.35-.718.102 1.446-.964 1.554.444.647-.384.216-1.11-.782-.264-.512.273-.602-.392-.233.281-.369-.717-.395-.068-.395-.503-.423-.034-.97.947-2.776-.427-2.129-.913-1.051-1.058-.61-2.628-.782-.41-1.519-.102-.305-.759-.566.281-.629-.179-.557.299-.512-.376-.063-.879-1.473-.716-.7.281-.145.666-.341.196.036.674-.431.103-.324-.393-.656-.145-1.751 1.084-.602-.248.395-.119.386-1.161-.009-1.664-.673-1.109.826-1.083-.18-.265.243-.802-.377-.512-.01-.811-.457-.324.583-.81-.53-1.007-.7-.213-.171-.905-.404.205-.44-.341-.584-.103-.468.273-.413-.281.063-.444.629-.7-.018-.529-.539-.802-.422.009-.764.52-.278-.213-.045-.435.988-1.613-.386-.896 1.14-.606.854-2.107.988-.29.638-1.041.845.034.188-.657-.566-1.348.315-1.067 1.374.094 1.087-.546.44.094 2.462-.836.413-.453.18-.981 2.174-1.92.656-.341 2.165.128 1.221-.811.117-.554-.979-1.084-.126-.529.431-.443-.512-1.127.432-.571 3.79 1.544.764.068.512.401 3.342.427.17-.725-.287-.41.818-.964-.144-.512-.395-.188.18-.691-.315-1.143 1.527-2.116-.161-.709.341-.682-.332-.708-.584-.418.152-.273.917.025.17-.324-2.623-1.954-.539.64-.988-.017-1.734.964-.557.06-.548-.478-.88.136-.494-.665-.63-.137-.367.589-.836.017-1.186.734.108.93-.467.333-.341-.248-.53.188-.342.623-.548.171-.61-.205-1.824.17-.656-.238-1.545.392-.126.546-.63.29-.592-.179-.305-.546.368-.341-.144-.299-.925-.094-1.339.529-.44-.145.854-1.382-.692-1.408.206-.478-.449-2.15-.62-.444-.781.162-1.015-.477-.89.418-.665-.691-.745-.043-.485-.546-.935.102-.646-.333.8-.861.376-1.715.674-.393.467-.75 1.339-.606.764.196.35-.18.763-2.278.01-.947.889-.435.27-.623 1.15-.179.161-.435 1.213-.435.395-.598.638-.17.728-1.289 1.697-.41.315-.46.018-.956 1.257-.307.818-1.467 1.105-.137.207-.35-1.626-.887-.252-.384.279-.657-.584-.393-.503-1.075-1.042-.162-1.348.58-2.327.265-.117-.418-3.17.495-1.034-.017-.907-.282z"/></mask><path d="M4.415 82.016l-.01-.956-.538-.785-.054-.657.53-1.672 1.168-1.962.161-1.929.53-.76.513-.17.53.555.413-.086.512-.759.61.828.522-.137.242-.41-.494-.818.081-1.263.89-.589.125-.47-2.335-3.412-.97-.87-.639-.069-.233-.81.476-.103.189-.802.35-.051-.009.333.97.46.35-.213.405-.742.027-.905 1.006-1.177.09-.46.718-.615.513-.043.125-.52.369-.069.233-.426-2.003-2.014.332-.572-1.015-.392-.494-.572.162-.717-.63-.145-.143-.98 1.195-.274.476.708 1.078.427.503.572.935-.052-.405-1.587.333-.657.476-.162-.413-2.841 1.626.196.224-.819.611-.708-.341-.828.665-2.039 1.446-.282.287-.657-.61-.597.395-.981.494.128.548-.23.215-.888.575-.273.854.145 1.734-.682.772.418 2.22-.461 1.562.776.584-.179.683.58.692.009.763-.606.369.026.79.896.387-.137 1.572.572.584-.299v-.307l.638-.648-.01-.768 2.022-2.629.719-.196.898.145 1.294.7.08.333 1.608.478 1.42.093 1.006.59.45-.035 1.167-1.04 1.384-.223 1.787-1.561.27-.401-.126-.785 1.051-1.007 2.345.034.431-.35.26.563-.134.683.736-.026.513-.588-.027-.273-.468-.24-.161-1.023.674-.998-.512-.615.143-1.169-.287-.725.242-.384.01-1.126.96-1.69-.404-.93 1.267-2.858-1.968-2.21.944-2.048-.234-.631.198-.273.593.136 1.536-1.28.279-.477-.297-.743.386-.648.324.469.431-.316 1.23-.008.342-.384-.018-.725.413-.41.836.264.862-.597 1.24-.256.916-1.527.575-.256 1.105-3.106-.323-.973.593-.281 1.213.068.08-.46.62-.65-.386-.554.62-3.84.593-.435 1.303-.042.637-1.152.908-.009.386.666.808-.043-.035.862.736.051.602-.281.153.733.665.956.763.452-.027.88.422.596.593.29.126.427.782.196.467.888.907-.299.378-.503.646-.017.405 1.604.997.665.692-.085.826-.896 1.608.444.234.64.566-.188.072-.708.71-.81-.046-1.05.827-.333.036.683.61.41-.035.323.772-.443.593.12.297.656-.234.316.773 1.322.52-.998.989-.495.368.154-.278.802.215.606-.395.614.117.538.7.358.423-.29.97-.034.692-.888 1.024-.341.476-1.886.773-.734 1.599-.179.503.768 1.159.649.467-.674.35.068.243.392.44-.102-.234.665.522.009.188-.41.53-.076.306-.41-.117-.734.377-.29.377.81.935.154 1.734 1.135 1.868 2.406-.027.606 1.024 1.212-.125 1.51.709.845-.215.87.664 1.928-.044 1.05-.369.444.135.298-.44 1.203-1.033.111-.288.393-.018 1.809.333.58-.324.555-.683.017-1.284-1.007-.449.11-.423.461-.458.043-.485 1.015h-.449l-.97.674v.751l-.611.163-.207.52.611.887-.476.222 2.039 2.1.926-.47.862.222.889-.495.764.222.656 1.322 1.293.273.234.657-.404.623.727 1.152.306.094.781-.742.512-.043.045.76.755.29.099.554-.333.341.405.376.143 1.433-.512 1.203-.018 1.553-1.5.555-.719.12-.97-.36-.152-.52-1.501-.358-.907.862v1.382l.314.828-.251.247-.71-.281-.997.81-.44-.042.072-.436-1.052-.776.926-1.894-.306-.214-.296.29-.324-.17-.152.572-.7-.726-.09.188-.701-.222-1.644.427-.01-.29-.404-.086-1.868.572-7.017-.384-2.542.981-1.473-.512-5.3 2.04-2.453 2.133-2.363 3.89-.754.811-1.59 1.237-1.851.794-1.644 1.604-1.42 3.447-.404 1.843-.907.597-.27.504-.422-.214-1.536.692-1.375 2.508-.458-.085-.692.316-.763 1.459-1.195.665-.79.051-.872.922-.135.606-.215-.205-.378.136-.224 1.272-.306.205-.386-.205.027.281-1.23.572-.207 1.903-.216-.137.045-.682-.755.153.225.325-.593 1.049-.602.307-.072.81-.287-.085-.746.547.144.938.772.265-.18.477-.395-.256-.637.103-.144.665-.827.162-.485 1.434-.404.188-.36.896-.88.213-1.024.879-.225.99-.601-.214-1.339 1.186-.242.743-.504-.069-.79.589-.611 1.041-.27-.264-.736.588-.315-.128-.072.461-.772.162-1.842 3.004-.458.025-1.033 1.033-.557.05-.719.735-1.176.35-2.184 2.329-.035.503.547.828 2.022.828.584.008.233.145.027.648.503.316 2.767-.648.252.213 1.662.077 2.066-.606-.17.486.512.359-.513.537.306.273-.315.24.171.434-.215.24-.054-.342-.279.205.045.597.45.358-.459.359.36.281.035.248-.386.205.44.844-.305.111.197.128-.107.52-.557.504-.171 1.007.233 1.22.557.393.432-.401-.045-.29.593-.273.79.085.315.401.53-.435.691-1.912-.233-.204-.692.179-.485-.922.674-.896.647-.153-.162-.222.737-.29.098-.324 1.546.119.637-.282-1.68 2.364-.188.077v-.64l-.494.11-.35.223-.171.665.916.145 1.042.888 1.698-.128-.341.64-1.258.725-.063.614-.647 1.075-1.087.111-.88.751.772.538 4.115-.495 2.273-1.562.44-1.775 1.357-.938-.09 1.997-1.375 1.595.063.427-.656.435.036.461 1.267-.077 1.258-1.886.332-2.099.368-.725.01-1.144-.701.342.422-.922.054-1.04-.503-.402.575-.187 1.77.93 1.796.4 1.087-.255 1.725-.99.323.06.036.938 2.596 1.51.072.589.782.452-.476.649.36.921 1.338.956-.072.333.8.785 1.976 1.058-.216.759.575-.187-.063.349.818.145-.162.239.674.563 1.464.222-.144.495-.332.162.467.052.189.75-.521.163.036.546-.953.128.243.281-.36.418-.646.043-1.464-.845-.36-.571-.638.068.701.904.656.034.162.982.557.153.116.41 1.16.179-.495.751.54.554.134 1.459-.35.837-.656.247.063.836 1.716 1.792.898-.154.117.837-.53-.069-.737.606-.027.999.503.426-.206.41-1.276.657-.557 1.638-.629.017-.854.503.063 1.306-1.024.299.36.093.072.384.44-.059-.027.495-1.231.494.225.692-.477.179.333 1.706-.315.598.117.332-.808.581-.081.802-.54.972.414.845-.512.828.764 1.945-.252.375.09 1.374.233.359.926.281-1.294.879-.557 1.084.306.699.52.214-.188.998.305 1.092-.826 1.502.045.99-.737.767.225.12.036.93-.45.094.216.392-.61.777.736-.512.368.452-.188.521-.791.691-.36.887-.053 2.799-.575.392-.315.657-.727.282-1.294 1.263-1.177 1.757-.853.41-.827.99-1.464 3.105.018.589-.306-.102-.916-.615-1.096.274-1.087-.333.503-1.135-.485-.503.108-.316 1.446-.871.108-.622-.413-.777-.898-.734.332-.674.512-.179-.027-.478-.997-.119.054-.452-.485-.316-.26-1.271-1.007-.291-.818.623.027.555-1.356.222-.26.52-.953.393-.853-.265-1.016.265-.925.87.494.981 1.204.674-.153.418-.71.222-.161.435 1.087.077 1.123.76.853-.179.548.366.405-.051-.459.64.557.196.081.93-.52.478-.504.068-.054.598-.71.324-.655-.222-1.833 1.399-.773-.255-.152-.316-1.474-.29-.691 1.826.35.725-2.524 1.843-.935-.137-.781.41-1.195-.427-.315-.495-.314.026-.521.657-1.42-.998.19-.401-1.07-.068-.009-.197h-.314l-.44.495-.611.026-.081-.324.45-.709-.594-.392-.054-.734-.763-.026-.944-.418-.655.717-.647-.23-.414.281-.853-.008-.539 1.527-.88-.392.278 1.834-.296.691-2.902.614.314-2.747.44-1.032.558-.273-.036-.7-.423-.452.207-.691.737-.879 1.275-.205.476-.452 1.33-2.125-.638-.845-.117-.64-.44-.119-.242-.794 1.033-2.576-.53-.222-.387-.615-.377.18-.692-.35-.718.102 1.446-.964 1.554.444.647-.384.216-1.11-.782-.264-.512.273-.602-.392-.233.281-.369-.717-.395-.068-.395-.503-.423-.034-.97.947-2.776-.427-2.129-.913-1.051-1.058-.61-2.628-.782-.41-1.519-.102-.305-.759-.566.281-.629-.179-.557.299-.512-.376-.063-.879-1.473-.716-.7.281-.145.666-.341.196.036.674-.431.103-.324-.393-.656-.145-1.751 1.084-.602-.248.395-.119.386-1.161-.009-1.664-.673-1.109.826-1.083-.18-.265.243-.802-.377-.512-.01-.811-.457-.324.583-.81-.53-1.007-.7-.213-.171-.905-.404.205-.44-.341-.584-.103-.468.273-.413-.281.063-.444.629-.7-.018-.529-.539-.802-.422.009-.764.52-.278-.213-.045-.435.988-1.613-.386-.896 1.14-.606.854-2.107.988-.29.638-1.041.845.034.188-.657-.566-1.348.315-1.067 1.374.094 1.087-.546.44.094 2.462-.836.413-.453.18-.981 2.174-1.92.656-.341 2.165.128 1.221-.811.117-.554-.979-1.084-.126-.529.431-.443-.512-1.127.432-.571 3.79 1.544.764.068.512.401 3.342.427.17-.725-.287-.41.818-.964-.144-.512-.395-.188.18-.691-.315-1.143 1.527-2.116-.161-.709.341-.682-.332-.708-.584-.418.152-.273.917.025.17-.324-2.623-1.954-.539.64-.988-.017-1.734.964-.557.06-.548-.478-.88.136-.494-.665-.63-.137-.367.589-.836.017-1.186.734.108.93-.467.333-.341-.248-.53.188-.342.623-.548.171-.61-.205-1.824.17-.656-.238-1.545.392-.126.546-.63.29-.592-.179-.305-.546.368-.341-.144-.299-.925-.094-1.339.529-.44-.145.854-1.382-.692-1.408.206-.478-.449-2.15-.62-.444-.781.162-1.015-.477-.89.418-.665-.691-.745-.043-.485-.546-.935.102-.646-.333.8-.861.376-1.715.674-.393.467-.75 1.339-.606.764.196.35-.18.763-2.278.01-.947.889-.435.27-.623 1.15-.179.161-.435 1.213-.435.395-.598.638-.17.728-1.289 1.697-.41.315-.46.018-.956 1.257-.307.818-1.467 1.105-.137.207-.35-1.626-.887-.252-.384.279-.657-.584-.393-.503-1.075-1.042-.162-1.348.58-2.327.265-.117-.418-3.17.495-1.034-.017-.907-.282z" stroke="#31313B" stroke-width=".4" mask="url(#a)"/></svg>