<svg width="27" height="43" fill="none" xmlns="http://www.w3.org/2000/svg"><mask id="a" fill="#fff"><path d="M5.609.003l.8.87.403-.034.827.623.099 1.117.647.563-.19.512.71.086.342.913.943-.103.288.282.36-.691.772-.205.584.589 1.59-.888 1.446-.204.431-.495.216.904 1.33.53.305.938-.162.606 1.455-.359.198.777.809-.086.485.504-.387 1.74 1.959 1.46.593 2.235 1.365 2.278.01.939-.89 1.544.045.606.781 1.561.1.947 1.77.692.655.972-.036.649-1.168 1.322-.952.53-.494-.018.134.24-.224.008V24.2l-.458.315.368 1.323-.072.802-.997 1.22-1.312.879-.27.589-.619.239-1.285 1.194-1.599 2.944-1.024-.085-.233.392-.53.188-.584-.29-.225.17.153 1.024-.566.53-.18.759.665 1.476-.27.29-.898.18-.997 1.322-.665.4-1.168-.537-1.347.512-.405-.162.189-.879-1.14.273-.675.495-.844.085-.297-.068-.332.401-.126.998-.485.674-1.222.436-.485-.35.018-.256L2.6 41.3l-.665-.734-.853-.23-.216-.435.018-.504.638-.188.7-1.134-.09-.47-.574.188-.602-.58.89-2.244 1.419-.342.952-1.134.593-.111 1.195-.802-.099-.905 1.518-.938 1.33-1.272-.71-.716.117-.41.539-.307.243-.538.43-.085-.188-.546-.647-.282-.494-.87-.413.068-.225-.384.153-.716.755-.376-.054-.452-.611-.46.503-.231-.189-.435-.808-1.16-.575.537-.099-.308.494-1.356-.233-.742.8-.726.601-1.305 1.249-.29-.423-1.767-.817-.093.216-1.332.889-.98-.252-1.52-.188-.213-1.07.478-.395-.239-.359-.862-.79.222-.45.794-.422.17-1.15-.622-.224-.367 1.078-.53.305-2.55.252-.615.62-.273.233-.794-.728-.622-.664-1.22-.494-2.722.017-.666.638-.29.396-.76z"/></mask><path d="M5.609.003l.8.87.403-.034.827.623.099 1.117.647.563-.19.512.71.086.342.913.943-.103.288.282.36-.691.772-.205.584.589 1.59-.888 1.446-.204.431-.495.216.904 1.33.53.305.938-.162.606 1.455-.359.198.777.809-.086.485.504-.387 1.74 1.959 1.46.593 2.235 1.365 2.278.01.939-.89 1.544.045.606.781 1.561.1.947 1.77.692.655.972-.036.649-1.168 1.322-.952.53-.494-.018.134.24-.224.008V24.2l-.458.315.368 1.323-.072.802-.997 1.22-1.312.879-.27.589-.619.239-1.285 1.194-1.599 2.944-1.024-.085-.233.392-.53.188-.584-.29-.225.17.153 1.024-.566.53-.18.759.665 1.476-.27.29-.898.18-.997 1.322-.665.4-1.168-.537-1.347.512-.405-.162.189-.879-1.14.273-.675.495-.844.085-.297-.068-.332.401-.126.998-.485.674-1.222.436-.485-.35.018-.256L2.6 41.3l-.665-.734-.853-.23-.216-.435.018-.504.638-.188.7-1.134-.09-.47-.574.188-.602-.58.89-2.244 1.419-.342.952-1.134.593-.111 1.195-.802-.099-.905 1.518-.938 1.33-1.272-.71-.716.117-.41.539-.307.243-.538.43-.085-.188-.546-.647-.282-.494-.87-.413.068-.225-.384.153-.716.755-.376-.054-.452-.611-.46.503-.231-.189-.435-.808-1.16-.575.537-.099-.308.494-1.356-.233-.742.8-.726.601-1.305 1.249-.29-.423-1.767-.817-.093.216-1.332.889-.98-.252-1.52-.188-.213-1.07.478-.395-.239-.359-.862-.79.222-.45.794-.422.17-1.15-.622-.224-.367 1.078-.53.305-2.55.252-.615.62-.273.233-.794-.728-.622-.664-1.22-.494-2.722.017-.666.638-.29.396-.76z" stroke="#31313B" stroke-width=".4" mask="url(#a)"/></svg>