<svg width="135" height="129" fill="none" xmlns="http://www.w3.org/2000/svg"><mask id="a" fill="#fff"><path d="M22.836 36.907l16.898-10.256-.135-1.98.71-.068 3.369-2.585 15.65 1.306 8.866.238 34.138-.375.719.23 1.069-.622 1.006.153.772-1.305 7.214-4.796.153-2.15 1.06-2.201 1.608-1.545 1.024-.29 1.357.615-.072-.836 1.599-1.835-.35-1.809 3.171-1.75.251-.673.935-.35-.171-2.287 1.168-.955 1.213-.017.692-.29 1.06.614.592.043 1.079-.623-.009.75-.971 1.315.306 5.085 1.248 1.11 1.07-.078.907-.52 1.213-.068.377.81-.099.717-.566.742 1.15.956.404 1.254-.404.393-1.428-.35-.441.222-.574.947 1.536.546.566 1.032-.09.7-.584.683-1.905.75-1.069 1.52-1.716 1.194-.862 1.476-.835.435.413 2.628-1.518 1.237-.8.026-1.015.46-.243.965-1.266.597-.521.725-1.689-.008-1.384 1.638-1.284.879-1.393.367-.53 1.518-.458.495.539 1.434-.647-.29-1.024.947-.314 1.126-.486.393-.188.674-.494.273.395.862-.683.819-.09.81L107.426 43l-1.024.537-1.052 1.041-.044.341-.692.273-1.779 2.842-.144.589.297 1.262-.943 1.05-.674.273-.279.964-1.868 1.032-.153.837-1.078.631-.162-.828-.584-.281-.126-.674-1.742-.649-.998.853.018 1.178-.664.085-.1.435-.907.3-.143.844-.764.213-.054.964.737.794-.44.205-.431 1.254-.737 1.007.907.93.018 3.473.252.64 1.042.034.368.99-.692.656-.233.87-.997.666-.396 1.263-.395.239.216.947-.26 2.432-.63 2.585.108.691-.494.367.279.828-.54.742.306 1.4-.548.802.278.998 1.339 1.382-.018 1.11-.728.793.512 2.278.252.358.467.06.458.913.027 1.579-.961.529.018.955-.27.384.117 2.825-.62 1.186.171 2.039-1.572.887-.503.939-1.051.111-.387.367-7.833.102-2.606-.307-.772.418-2.363-.742-.287.486-.342-.043-.395.964-.827-.119-1.033 2.679-2.506-.589-.863 1.937-2.928-.196-.584 1.519-.71-.12-.817 1.818-7.142-1.05-.342 1.596-3.126-.504.593-1.936-3.638-.47-.584 1.528-1.977-.145-.808 1.535-2.83-.512-.898 3.601 2.47.888-.117.622 1.348.444-.126.751.314.674-.556.905-1.33-.939-.8.213-2.811 4.599-.566.034-.8-1.527-1.383-.213-1.6 2.346-.88-.068-1.707.367-1.006.401-.54.563-.835-.171-.548.197-.08.443.377.623-1.366.384-.206 1.835.251.324-.107 1.032.206.376-.278 1.356-.782.461-.602-.119-.539-.299.306-1.826-1.483-.188-.107-.699-1.186-.435-.432.401-.287-.137.18-2.099-3.675-.589.018-3.856-.287-1.63.314-.691 1.492-1.374-.198-.58-1.078-.913.072-1.672-.764-2.936-.422-.324.287-1.698.89-.904 1.626-1.11 1.006.009.88-.58 1.195.222 1.725-5.504-3-.836 1.221-5.998.431-.111 1.815-8.243-5.534-.887-.719 1.408L19 84.86l-.907 3.242.538.76-.009 1.254-2.2-.205-1.86.145-.323 1.545-1.42-.034-.17-1.69-1.177.009.224-4.139L10.6 82.71l1.545-.939 1.078-1.04.683-1.23-.494-.64-2.893-1.663-1.06-2.33.98-1.245.107-1.246-.332-.691-1.608-1.587-2.22-1.656-1.15-.187-1.086-.683-1.23.026-.935-.461-.79-.82-.944-2.03 1.77-1.04 1.518-.36 1.887.513.871-.034 1.186-1.024 4.294-.333 1.518.18 2.291-.3 1.85.308.1 1.45 1.877.427.296-.674-.071-.973 2.48-.077.619-1.86 1.617-.136 1.51.435 1.032-1.903 1.977.333 2.56.879 1.07-4.719-.854-.051-1.24-.555-.764-.895-1.841-3.55-.557-1.698-3.62.674-.135-5.495-.35-2.193.143-3.438-.45-1.272z"/></mask><path d="M22.836 36.907l16.898-10.256-.135-1.98.71-.068 3.369-2.585 15.65 1.306 8.866.238 34.138-.375.719.23 1.069-.622 1.006.153.772-1.305 7.214-4.796.153-2.15 1.06-2.201 1.608-1.545 1.024-.29 1.357.615-.072-.836 1.599-1.835-.35-1.809 3.171-1.75.251-.673.935-.35-.171-2.287 1.168-.955 1.213-.017.692-.29 1.06.614.592.043 1.079-.623-.009.75-.971 1.315.306 5.085 1.248 1.11 1.07-.078.907-.52 1.213-.068.377.81-.099.717-.566.742 1.15.956.404 1.254-.404.393-1.428-.35-.441.222-.574.947 1.536.546.566 1.032-.09.7-.584.683-1.905.75-1.069 1.52-1.716 1.194-.862 1.476-.835.435.413 2.628-1.518 1.237-.8.026-1.015.46-.243.965-1.266.597-.521.725-1.689-.008-1.384 1.638-1.284.879-1.393.367-.53 1.518-.458.495.539 1.434-.647-.29-1.024.947-.314 1.126-.486.393-.188.674-.494.273.395.862-.683.819-.09.81L107.426 43l-1.024.537-1.052 1.041-.044.341-.692.273-1.779 2.842-.144.589.297 1.262-.943 1.05-.674.273-.279.964-1.868 1.032-.153.837-1.078.631-.162-.828-.584-.281-.126-.674-1.742-.649-.998.853.018 1.178-.664.085-.1.435-.907.3-.143.844-.764.213-.054.964.737.794-.44.205-.431 1.254-.737 1.007.907.93.018 3.473.252.64 1.042.034.368.99-.692.656-.233.87-.997.666-.396 1.263-.395.239.216.947-.26 2.432-.63 2.585.108.691-.494.367.279.828-.54.742.306 1.4-.548.802.278.998 1.339 1.382-.018 1.11-.728.793.512 2.278.252.358.467.06.458.913.027 1.579-.961.529.018.955-.27.384.117 2.825-.62 1.186.171 2.039-1.572.887-.503.939-1.051.111-.387.367-7.833.102-2.606-.307-.772.418-2.363-.742-.287.486-.342-.043-.395.964-.827-.119-1.033 2.679-2.506-.589-.863 1.937-2.928-.196-.584 1.519-.71-.12-.817 1.818-7.142-1.05-.342 1.596-3.126-.504.593-1.936-3.638-.47-.584 1.528-1.977-.145-.808 1.535-2.83-.512-.898 3.601 2.47.888-.117.622 1.348.444-.126.751.314.674-.556.905-1.33-.939-.8.213-2.811 4.599-.566.034-.8-1.527-1.383-.213-1.6 2.346-.88-.068-1.707.367-1.006.401-.54.563-.835-.171-.548.197-.08.443.377.623-1.366.384-.206 1.835.251.324-.107 1.032.206.376-.278 1.356-.782.461-.602-.119-.539-.299.306-1.826-1.483-.188-.107-.699-1.186-.435-.432.401-.287-.137.18-2.099-3.675-.589.018-3.856-.287-1.63.314-.691 1.492-1.374-.198-.58-1.078-.913.072-1.672-.764-2.936-.422-.324.287-1.698.89-.904 1.626-1.11 1.006.009.88-.58 1.195.222 1.725-5.504-3-.836 1.221-5.998.431-.111 1.815-8.243-5.534-.887-.719 1.408L19 84.86l-.907 3.242.538.76-.009 1.254-2.2-.205-1.86.145-.323 1.545-1.42-.034-.17-1.69-1.177.009.224-4.139L10.6 82.71l1.545-.939 1.078-1.04.683-1.23-.494-.64-2.893-1.663-1.06-2.33.98-1.245.107-1.246-.332-.691-1.608-1.587-2.22-1.656-1.15-.187-1.086-.683-1.23.026-.935-.461-.79-.82-.944-2.03 1.77-1.04 1.518-.36 1.887.513.871-.034 1.186-1.024 4.294-.333 1.518.18 2.291-.3 1.85.308.1 1.45 1.877.427.296-.674-.071-.973 2.48-.077.619-1.86 1.617-.136 1.51.435 1.032-1.903 1.977.333 2.56.879 1.07-4.719-.854-.051-1.24-.555-.764-.895-1.841-3.55-.557-1.698-3.62.674-.135-5.495-.35-2.193.143-3.438-.45-1.272z" stroke="#31313B" stroke-width=".4" mask="url(#a)"/></svg>