<svg width="49" height="59" fill="none" xmlns="http://www.w3.org/2000/svg"><mask id="a" fill="#fff"><path d="M4.861 2.964l.423-1.527.395-.478-.072-.495 1.285.197.62-.384 2.65.682.341.307.08 1.357 2.4.401.422.324.763 2.936-.071 1.672 1.078.913.197.58-1.491 1.374-.315.69.288 1.63L13.836 17l3.674.59-.18 2.098.288.137.431-.401 1.186.435.108.7 1.482.187-.305 1.826.539.299.602.12.781-.462.279-1.356-.207-.376.108-1.032-.252-.324.207-1.835 1.366-.384-.378-.623.081-.443.548-.197.836.171.539-.563 1.006-.401 1.707-.367.88.068 1.6-2.346 1.383.213.8 1.527.565-.034 2.812-4.599.8-.213 1.33.939 1.14.614 5.687.887.143-.862.495-.204 1.087 1.501.35 1.22-.719 3.635-.808.111-.225 1.715-1.204 2.355 1.15 2.432.782.009 1.015.554.638-.153.386.315-.53 1.075.288 1.733.691.861-.925.487-.18.529.279.452-.198.375.252 1.656-.683.085-.324.358-.43-.162-.513.282-.224-.265-.27.094-.072.444-.988-.068-.755-1.391-1.293.452-.144.887-.314.308-2.633-.197-1.572-.64-.575.017-1.087.487-.871.981-.818 2.005 1.034.939.044.742.728.35-.404.776.242 2.116-.359.999-.71.682-.099.52-.87.496.026.469-.575.196-.485-.222-.97.111-.521.359-.665 1.527 1.895 4.044.8.794-.09.546-.683.555-.305 1.032-1.096-.043-.225.59.198.741-.234.512.98.905.161.623 1.07.7-.63.7.647.46-.467.623-.215.503-.45.017-.727-.546-.476.145-.674-.452-.692-.981.243-.999-.225-.7-.404-.417-.467.238.18.726-1.06-.299-.603-1.126.108-.487-1.284-1.791-.53.529-.495-.256-.377.35-.575-.222.431-1.425-.27-.76-.556-.332-.386.145-1.267-.35.26-.836-.27-.427.09-.392-.907-.478-1.015.23-.629.47-.628-.265-.549-1.425-.018-.657.405-.64-.26-.392-.998.273-.153.614.324.563-.521.418-.126.742-.26.137-.71-.265.242-.614-.413-.273-.836.376-.79-.316-.674.717-.404-.478h-.638l-.224.7-.486.17-.027.572-.664.213-1.204.077-.764-.683L7.79 49.51l-.108.691-.781-.256-1.492.444.153-.512-.368-.46-2.336-.257.234-1.851-.35-.53.62-.494-.729-1.152-.116-1.203.476-.964.35-.214 1.222.222 1.455-.896 1.024.657.396-.17.485-.905.35-2.448 1.141-1.238-2.57-.827-1.886-.205-3.611-.222-.773.299-.099-.598-.395-.588.377-.76.387-.034.242-.427-.305-.895.467-.564-.494-.281 1.195-.53-.189-.87.593-1.211.162.18.8-.138.376-.332.27.17.773-.162-.171-.862.871-.81.512.136.782-.418-.386-.571.305-.265-.35-.478.206-.128 1.887.18-.252-1.451-.629-.904-.152-.734-.216.435-.629-.282-.413-.819.234-.153-.279-.427.144-.845-1.348-.213.342-2.995.099-1.263-.198-.443-1.428-.555.754-2.065.252-2.32-1.276 1.202-.746.188-2.003-.947-.566-1.476 2.12-.333.593.145.324-.264.565-2.773 1.16-1.16-.432-2.083.45-1.263z"/></mask><path d="M4.861 2.964l.423-1.527.395-.478-.072-.495 1.285.197.62-.384 2.65.682.341.307.08 1.357 2.4.401.422.324.763 2.936-.071 1.672 1.078.913.197.58-1.491 1.374-.315.69.288 1.63L13.836 17l3.674.59-.18 2.098.288.137.431-.401 1.186.435.108.7 1.482.187-.305 1.826.539.299.602.12.781-.462.279-1.356-.207-.376.108-1.032-.252-.324.207-1.835 1.366-.384-.378-.623.081-.443.548-.197.836.171.539-.563 1.006-.401 1.707-.367.88.068 1.6-2.346 1.383.213.8 1.527.565-.034 2.812-4.599.8-.213 1.33.939 1.14.614 5.687.887.143-.862.495-.204 1.087 1.501.35 1.22-.719 3.635-.808.111-.225 1.715-1.204 2.355 1.15 2.432.782.009 1.015.554.638-.153.386.315-.53 1.075.288 1.733.691.861-.925.487-.18.529.279.452-.198.375.252 1.656-.683.085-.324.358-.43-.162-.513.282-.224-.265-.27.094-.072.444-.988-.068-.755-1.391-1.293.452-.144.887-.314.308-2.633-.197-1.572-.64-.575.017-1.087.487-.871.981-.818 2.005 1.034.939.044.742.728.35-.404.776.242 2.116-.359.999-.71.682-.099.52-.87.496.026.469-.575.196-.485-.222-.97.111-.521.359-.665 1.527 1.895 4.044.8.794-.09.546-.683.555-.305 1.032-1.096-.043-.225.59.198.741-.234.512.98.905.161.623 1.07.7-.63.7.647.46-.467.623-.215.503-.45.017-.727-.546-.476.145-.674-.452-.692-.981.243-.999-.225-.7-.404-.417-.467.238.18.726-1.06-.299-.603-1.126.108-.487-1.284-1.791-.53.529-.495-.256-.377.35-.575-.222.431-1.425-.27-.76-.556-.332-.386.145-1.267-.35.26-.836-.27-.427.09-.392-.907-.478-1.015.23-.629.47-.628-.265-.549-1.425-.018-.657.405-.64-.26-.392-.998.273-.153.614.324.563-.521.418-.126.742-.26.137-.71-.265.242-.614-.413-.273-.836.376-.79-.316-.674.717-.404-.478h-.638l-.224.7-.486.17-.027.572-.664.213-1.204.077-.764-.683L7.79 49.51l-.108.691-.781-.256-1.492.444.153-.512-.368-.46-2.336-.257.234-1.851-.35-.53.62-.494-.729-1.152-.116-1.203.476-.964.35-.214 1.222.222 1.455-.896 1.024.657.396-.17.485-.905.35-2.448 1.141-1.238-2.57-.827-1.886-.205-3.611-.222-.773.299-.099-.598-.395-.588.377-.76.387-.034.242-.427-.305-.895.467-.564-.494-.281 1.195-.53-.189-.87.593-1.211.162.18.8-.138.376-.332.27.17.773-.162-.171-.862.871-.81.512.136.782-.418-.386-.571.305-.265-.35-.478.206-.128 1.887.18-.252-1.451-.629-.904-.152-.734-.216.435-.629-.282-.413-.819.234-.153-.279-.427.144-.845-1.348-.213.342-2.995.099-1.263-.198-.443-1.428-.555.754-2.065.252-2.32-1.276 1.202-.746.188-2.003-.947-.566-1.476 2.12-.333.593.145.324-.264.565-2.773 1.16-1.16-.432-2.083.45-1.263z" stroke="#31313B" stroke-width=".4" mask="url(#a)"/></svg>