<svg width="245" height="531" fill="none" xmlns="http://www.w3.org/2000/svg"><mask id="a" fill="#fff"><path d="M62.393 203.802l.593-.572.324-1.578 1.123-.478 1.787 1.544-.44.947-.332.111-.207-.742-.835-.41-.297.265.62.273.189.384-.36.375-.503-.119-.62.588-.61.12-.045-.205.287-.043-.108-.401-.512.197-.054-.256zm46.868-140.275l-.27-.188.252-.127.018.315zM91.725 8.714l-.683-.819-.135-1.092.557-2.065.468-.537 2.937-.666 1.707-.051.602-.401 3.728 1.468.135 1.493.422 1.16-1.096 1.527-1.338 1.204-1.662.315-2.21-.179-.962-.606-2.47-.75zm9.271 28.73l.422-.112.387-.64 1.078.436.26-.734 1.411.52-.899-.819.189-.12.871.206.44.554.809-.452 1.069.512 1.195-.196-.62-.862-2.614-.632-1.806-1.245.665-.59 1.464-.349.746-.768 1.886-.162.989-.648.035-2.85.432-2.56 2.497-3.908-.099-.41.36-.921-.468-.358-.431.332.261 1.135-.18.17-.719.027-1.32.614-.359-.785-.459.93-.575.213-.602-.068-.26-.973.764-.75.898-1.613-.009-1.28 1.958-1.502.656.239.279-.162-.611-1.186.027-1.169-.306-.35.252-.29.844-.17 1.761-1.588 1.231.47.18-.23-.297-1.161 1.545-.888.917-.153.781-1.041.746-.111.53-.435.512.094 2.318-1.297.26-.632 2.641-2.773 1.959-.162-.404-.46-1.968.085-.781-.222-.162-1.195.18-.179 2.973-.896 1.563.359.602.853.171.973-.773 1.86 1.528-.086.179.939.584.188.261 1.27.691 1.119 1.007.921.17 1.732 1.348 1.058-.324 1.229.719 1.826.692.154 1.329 1.083.369.981 1.671 1.263.027.538 2.713.452-.53 1.212.619-.06.387.7-.09.529-.656.631.791.341.215 1.502-.772.128-.656.82-.404-.24-.8.137-.269.708-.809.341-.341-.128-.072-.938-.413.46-.468-.298.09.819-.808 4.095.835 2.671.09 3.524 1.051.358.288.666-.009.589-1.087 1.425.152.725-1.132.051-1.033.47-1.213-.163-2.695.478-4.545.196-1.743 1.297-1.482.717-1.043.162-1.221-.264-.935.776-.646-.529-1.456 2.662-4.042 2.244-3.441-1.928-2.542-2.21-2.785-.17-1.222-.65.152-.323.71-.316-.081-.794 3.989 1.903.413-.299-.134-.545-.584-.555-3.306-1.724-.171-.631-.997-.7 2.048-.128 2.282-.606 1.401.367 1.689 1.22.584-.264-.71-1.237-1.967-.768-.781.06-2.642.785-3 .187-1.617.64-.252-.153.324-.606-.045-.58-.584.682-1.258.367 1.123-2.03zm140.342 167.493l.207 1.262-.162.982-.161.145-.117-.342-1.42 3.337-.584-.103-.637.324-1.034 2.287-4.015-1.177-1.653-1.937-1.995-.606-.934-1.015.153-1.084.503-.503.871-.128 1.06.665.944-.708-.216-.316.323-1.135-.476-.58.216-2.039 4.429.785 2.938.196 1.176.742.584.948zm3.037-35.291l.072 2.056-.288 1.562-.566 1.254-.449 2.338-1.069 2.005-.719-.025-.35-.342 1.195-1.595.17-.947-1.823-.76-1.087-.025-1.033.409.988-.665-.027-.299-.476-.299.072-.298-.971-.487-2.012-2.047-.8-.461-.916.136-.566-.222.53.453.611.059.413 1.451 1.051.034 1.204.913.252.725-.189.435-.638-.025-.727-.606-.216.503.521.367.737.06-.036.614.485.547.009.409-.647.734.099.981.737.205.646-.452.045-.453-.323-.341.144-.461 1.608-1.373.269.051.333.418-.117.836.224.265-.431.563.683 1.416.961.367 1.141.009.207.878-.072 1.451-.593-.119-.692.708.503-.222.566.256-.341 2.457-.818 1.707-1.877 2.158-1.312 2.159-.521.435-.144-.128-.125.734-.791 1.007-1.114.555-.449.665.251-.725-2.38 1.024-.396-.145.198.409-1.141 2.441-.314.221-.342-.392.477.742-.827 1.033-.225.938-1.491-.887-.934.171-1.464 1.382-1.312 1.945-.548-.128-2.291 1.382-1.222-.511-1.033.196 1.303.213.135.973-1.869 2.193-.566.076.818-.597-.504-.333-1.32 1.408-.629.051-.108.487-.26-.623-.405-.068-.233.358-.404-.162-.072.264h-.432l-.368.555-.422.128.629-.017.35-.589 1.438.41 1.104-.657.135.981-.431 1.826-2.246 2.56-2.03.273-.818.495-.763 1.169.17.179-1.024.99-1.913 3.387-.557-.256-.225-.555h-.692l.62.171.117 1.323-1.329 1.954-1.079.085-1.32.956-1.411-.163-.709.273-1.483-.332-.709.469-1.393-.623-.898.23-.036-.238-.853-.18-2.345.222-.467-.691-.665.341-.063.316.773.256.17.324 2.561-.222 2.479 1.34v1.561l-1.123 1.059-.117 1.851-.646.956-.737.213-2.21-.341-1.105 1.083-.611 2.125-.26.085.341.12.027.29-.881.819-.044 2.073-.908 1.127-.296 1.297-2.417 1.885-.584.171.395.768 1.016.196.593-.264 1.958-2.185.719.444-.369-.589.432-1.075 1.464-1.109-.126-2.662.135-.495.656-.563.17-.674.611.034 1.087.751 1.141.298 2.246-.631 1.437.239 2.597-.094.485-.205 1.141-1.271.566-.214.808 2.227.935.657.763.035-.656-.606.081-2.261 1.06-.657-.404-.06-.449.307-1.491-.324-.144.35.215-.811 4.313-1.16 2.371-1.075.207-.214-.431-.486.063-.956.476.99.727.504.575-.478-.305-.18.144-.503 1.724.367.486-.188 1.051-1.1.709-.103.333-.955-.548.068.206-.529.548.06 1.285-.632-.162-.503.602-.606.737.119 1.509-.588.234-.376.314.111.054-.486-.332-.512.305-.99-.692-.085-.79-.555-.449.794-1.123.52-.908 1.075-1.132-.435-2.084.247-.269.265.099.606-.522-.47-.619-1.228-.261-1.946.692-.256 1.284-1.083.8-2.637 2.354-.401 1.41.538 1.644 1.152.737.861.575.069.557-.581.081-.401-.306-.076-.018-.495.503-1.058 1.114-.657 1.258-.069.476.956-1.347.555-.674-.043-.396.358.495 2.099-1.689 1.212-.512.725-.234 1.895 1.123.238.593 1.587-.359.274-.728-.461-.647.042-1.383 3.849-3.136.042-.395.666 2.668 1.271.135 1.178-1.33 1.365.674 1.015 1.384-.512 1.176.316.261.52-.413.768.557.913-.072.879-.845.171-.467.836 1.087.205-.763 1.996-.279 1.69.395 3.234.584-.086.45.299-.162 1.032 1.275.291.665.759-.018 1.203-.647.657-.323.802.539.879 1.303-.06.521.725.97-.034.701.854-.27 1.971.71.196.422.802 1.231.409.278 3.84-.197 2.654.602 5.128-.18 1.868.216.64 1.347.623 1.132 1.459 1.006.128.566.384-.009.939-.925.205-.189 1.023.243.606-.315.802-.934.103-.332.921-.36.179-.512-.802-.413-.017-1.123 1.502-2.704.742-.638 1.127-1.32.153-1.896 1.348-2.381.726-.781.913-1.015.179-.791.623-.341.648.242.674-.458.341-.045 1.093 1.168.853.305.785-4.339.665-.287.461.251.853-.341 1.024-1.231.47-.107 1.032.458.503-.18 1.442.871.444-.044.469-.486.512-.17 1.673-.764 1.902-1.177.393-1.266-.205-.315-.443.054-.888-.53-.128-3.315.205-1.437 1.152-.557 1.339-.378.265-1.176-.102-1.797.588-.683.64-2.273 1.306-2.309.213-1.132-.683-.925.709-.512 1.023-.611.333-.233 1.152 2.479 4.156 2.336 4.675.359 3.857-.171 7.799-.772 8.797-.099 4.189-.296 1.34-.629.614-1.168-.384-1.159 1.092-1.366.188-.44 2.056-.548.316-2.443-.017-.153.495 1.195 1.126.692-.358.727.145.135.785 1.258-.213-.018.81-.494.785.278.282.665-.171.126.785.521.614-.261 1.127.369 1.954-.827 1.433-.09 3.729 1.698 1.024.341.887-.044 5.461 1.275.7 1.024 1.467.989-.017.242.324-1.105.777-.224 1.305-.539-.23-.737.102-.692.478-.548 1.195.521.853h-.709l-.674 1.049-.719.231-.225.648-.781.069-.261.426.063.717.494.401.009.631.638.504-.701.23-.395-.589-.413.052-.216.691.225.571-.683 1.161.252.691-.225.35-.916-.034.278 1.143-.278.341.889 1.289.827-.811.862.23.099.657-.279.47.405.486.925-.401 1.689-.196.296-.307-.107-.555.548-.299.61 1.664 1.141-.085.369.759 1.698.145.206 1.272h.899l.476-.384.664.094 2.013 1.288h.799l.081-.52.997.435.405 1.28.853.947-.835 1.681-.512-.547-2.543.111-1.132.308-.251.947-.476.307-1.007-.162-.952-.93-.71.827-2.443-1.254-.27.256.432 1.894-.593 1.451-.108 1.74-.809 1.058.279.76 1.123 1.442-.351.554-.664.342-.692-.478-.53.256-.252.862.575.614-.314 1.502-.458.315-.971.094.189 1.647 1.195 1.084.889 1.467-.296.709.449.597 1.644.452-.476.768.081.691-1.743 1.766-.144.649-.557.665.045.427.404.341-.503 2.202-3.036 2.773.395 1.655-.907.657-1.222.017-.305.58-1.968 1.442-.117.495-2.12.913-.09.606.494.503.207.862-1.949 1.041-.045.555-.692.298-.27.666.054 1.903-.745.358.045.563.521.137.224.478-.611 1.356.53 1.169 1.609 1.775 1.805.99 1.123-.145.485.512.611-.12-.126 2.44.306.675-.359.981.521.478.036.512-2.803-.103-.584 1.126-1.483 1.11.521.802.126.819 1.069 1.143.917-.017.098.939-.314.554 1.069 1.067.153 1.544-.422.418-1.061.342-2.174 1.937-.161.52.35.751.485.341-1.41 1.178-.782.008-.413.307-.979-.187.072-1.024-.548-.094-.099-.589-.908-.111-.961.444-.162-1.775-2.641-.708-1.159-1.365-.027-.623-.709-.828.027-.725.808-.009-.027-.375-1.159-.145-.619.273-.854-.418-.728.682-.161.504-.89-.171-1.374.64-.512 1.459.97 1.843.162 1.613-.414.717-1.114.58-1.167 1.502-2.435.588-.53.461-.961 2.048-.827.17-1.707 1.349-.08.495.53.315-1.096 1.246-.018.683-1.671-.086.386 1.186-.368 1.161.323.921.53.307.153.82-.288.281-.584-.136-.476.725-.422-.026-.305-.674-1.33-.717-.153-.622.288-.384-.512-.512.233-.649-.494-.409.072-.453-1.285-.256-.341-.29-.234-.972.494-.939-.727-.691-.827.333-.673-.333-.872.188-.233.938-.647.401-.414 1.792-1.329.29-.593-.119-.458.529-1.491.068-.396-.648-5.471-.197-3.728 8.541 1.788.913-.18.572-.746.384-.089.503.251.384 1.869.111-.279 2.355.872.12.116.247-.269.777.162.802-2.273.281.108 1.869-.683-.051-.09 1.049-.737.708-.359-.409-.8-.103-.251.845-.827.094-.251 1.502-1.177 1.032.099 1.067-.27.358.62.503-.126 1.946.602 1.024-1.626.699.333.965-.557 2.116.467.495.081.759-1.114 2.841.045.538-2.839-.316-.782 1.357-1.248.213-.611.768-.108 1.101.728.128.485.691 1.329.904.036.606.692.393.934 1.578.593.35.647.973 1.482.332-.206.802-1.734.598-1.168-.538-.162.546-.602.137-.386.529-1.276-.325-.682.239-.225-.324-2.192 1.152-1.222-.648-.97.742-.063-.188-1.94.214-.647.537.53.469v.367l-.494.359-.665 2.858-1.402.162-.736.367-.952 2.039-.521.282-.045.751-.989.913-.018 1.041-.691.486-.27 1.288-1.159.214-.584.392-3.207 2.91-1.168-.06-1.653.606-.853-.188-1.959.546-.655-.17-.647-.802-.899.221-1.446-.563-1.698.248-.377-.487-.503-.128-1.213.495-.925-1.783-1.276-1.032 1.6-2.944 1.284-1.195.62-.239.27-.588 1.31-.879.998-1.22.072-.802-.368-1.323.458-.316v.256l.224-.008-.135-.239.495.017.952-.529 1.168-1.323.036-.648-.656-.973-1.77-.691-.099-.947-.781-1.562-.045-.605.89-1.545-.01-.938-1.365-2.278-.593-2.236-1.959-1.459.387-1.741-.486-.503-.808.085-.198-.776-1.455.358.162-.606-.306-.938-1.33-.529-.215-.905-.431.495-1.447.205-1.59.887-.584-.588-.772.204-.36.692-.287-.282-.943.102-.342-.913-.71-.085.19-.512-.647-.563-.1-1.118-.826-.623-.404.034-.8-.87 2.094-2.466 1.5-.333.458-.597 1.024-.443.108-.794-.656-.29-.575-1.476.054-.853-.907-1.016-.279-1.118-.898-.059-.36-.726-1.006.017-.781-1.126.108-.469-.746-.58.225-.64.592-.043.297-.29.09-.691-.467-1.86.736-1.647-.296-.614-1.078.111.126-.461 1.024-.939 1.203-2.619 1.357-.623-.27-.939 2.022-.614.143-2.065-.116-.862-.746-.716-.575-.154-1.365.213-1.366-.614-.683-.811-3.584-.716-.09-.802-.692-1.076-.224-3.054 2.488-2.739 1.393-2.031 1.796-.896-.116-.725-1.231-1.254-.108-.999-.17-.273-.944.043-3.459.478-1.114-1.724-1.356-3.344-2.174-.069-.126-1.732-.296-.563-.737-.29-4.097-.751-2.937.196-2.12.546-5.786.145-.431-1.322.512-.913-.009-1.775.593-.495.512-1.143-2.758-5.103-.755-.537-.17-.7 2.012-1.416 7.061-3.831-.054-1.707.935-.708 1.069-.256-.315-1.024-1.68-.367-1.626-1.416-1.213-.137-1.68-.921-1.212-.248-.512-.443-1.105-2.15.009-2.475.458-1.143 2.138-2.389.27-1.749.53-1.195 1.518-1.442.476-1.135 1.006-.819.17-1.109.36-.273.162-.674-.53-1.28.341-.452-.144-.615.297-1.527-.387-.222-.61.102-.71-1.552-1.258-.675-.188-.639 1.24-1.221.269-2.355.943-.503 1.186-1.229 1.77-1.237.027-3.003-.486-1.4.162-.529-.62-1.263.665-1.134-.692-3.055-.61-.06-.18-.35-.818-.324-1.347.922-.63-.103-.61-.682-.925-.307.539-.606-.162-.461-2.327.418-1.877-.179-.26-.367.43-.887-.71-1.604.486-1.016 1.536-1.374-.683-3.174-.862-.725-1.51-.478 1.15-.648-.305-.691-2.264-1.485-1.311.299-.791-.231-.395-.503-.216-1.621-.871-1.075-.216-.709.602-.597.018-.751.89-.597-1.474-2.841-1.662-1.903-.063-.691.71-1.11.62-.469.242-.751-.727-2.047-1.033-.632-.117-.887-5.714-4.992 1.213-1.373-.153-1.758.521-1.024-.045-.589-1.787-1.732-.27-1.638-.907-.64-1.087-2.167.27-.29.637.025 1.159-.444.88.376 1.078-.341.09-2.33.908-1.049.206-1.4 1.07-.725.134-2.594-.386-2.227 1.437-.921-.108-.939-.296-.845-1.554-1.493-.459-2.295-.88-1.604.71-.845-.45-.819-1.284-.119-2.102-.743-.126-.631.97-1.289v-.938l-1.832-1.28-.459.734.135 1.066-.206.811-.548.546-.656.145-.863-.222-1.518.888-.79-.069-2.103-1.536-.844.094-1.68-.665-1.976.162-.764-.401-.7-1.169-.495-.102-1.213-3.849-2.551-.529.225-1.493-.755-1.365-.234-1.007 1.375-1.288 1.267-1.963.063-1.228.287-.418.45.102.502.188.108.503.97-1.8 3.19-3.012.044-.606.773-.367 1.401.026 1.06.793.737.068.297-.486-.108-.358-.98-1.067 1.07-2.807-1.123-1.195.557-1.868-.692-1.408-.189-2.389-.494-.888-2.192-.64-2.237-1.032-2.219-2.901-.754-.06-.575-.486-.459-1.988.153-.717.53-.222.207-.648-.126-1.877 2.57-.069 1.221-.563.863-1.228.53-2.569 1.401-.443.18-.453-.404-1.007-2.049-1.416-1.258-.384-.637-.751-1.94.316-1.465-.213-1.878-1.34-1.94-1.911.108-1.135-1.222-2.15 4.312.205 1.743.349 2.767 2.765.907.529-.18.512.521-.401 3.297 1.51.728 1.852.845.128.61 1.126 1.932 2.065.539 1.792 2.156 1.22 1.186.145 2.533-.367 3.01-1.203.88-.094.593.017.512.725 1.32.239.477.632.063.605-.872 1.613-1.24.734.153 2.415-1.787.75-3.09 2.151.53 3.532-.836 1.212.53.443-.135.657-.117-.358-.107.273 1.248 3.831-.988 1.092-.26 1.408-.863.785.485 1.144-.045.563-.52.938-1.034.615.072.435-.45.435.405-.12.099.802-.79 1.562h.314l.593-1.562.072-1.569.593-.18.664-1.1-.018 1.297.189-.026.027.623.485.316.072.631-.18.264-.072-.187-1.06-.009-.314.231 1.069-.06.296.23.71 1.152.135.777-.683.349-.36.547.046 1.16.206.119-.09-1.297.423-.546.584-.221.224.332.27-.529 1.33.461 2.146 2.176-.332.751-1.159-.145-.476-.461.045.273.44.316 1.213.162 1.168.64.36.785 1.437 1.527.583 1.519 2.201.051-.072.307.108-.503.63.017 1.383 2.73.727.367.79-.23.9-.811-.225-.341-.719.35-.306-1.323-1.85-.486-.988-1.425.125-.137.333.401-.144-.375-1.105-.461-.575-.691-.862-1.536-.252-1.092-.584-.614-1.868-.529.224-1.178-1.257-2.662.368-.828.018.214 1.024.384.818-.043 1.033-.606.368.512-.072-.597.377-.162 1.204-1.877-.305-.794.251-.324-.404.102.377-.35-.053-.384-.522-.725-1.033-4.488.054-.708-.7-2.347-.701-.981-.557-.111-.413-1.109.53.265.161-.623-.727-1.997 1.096-1.152.7-3.379.764-.452.44-.7.306-1.16-.108-.7-.988-1.459-.656-.52.251-1.007-.844-1.101-.818-.469-2.434-.418-.279-.256-.36.205-.035.426-1.177-3.268-1.626-1.288.135-.239.467.316.782-.896-.342-.086.117-.298-.297-.137-.772-1.706-2.309-1.135.332-.725-.53.52-1.167-.213-.35-.324-.764.204-.216-.315-1.258.025-1.86-1.305-.574-.128-.396-.495-.566-1.374.126-.435.459-.196-.225-.674.692-.777-.378-.426-.754.452-.36-.23-.134-1.204.072-.972 1.284-1.374-.251.043-.198-.521.386-2.141-.548-1.69.09-.409-.746-.7-1.176-.504.727-.29-.099-.802-1.32-.401-.153-.606-.485.239.566-.452 1.258.128-.036-.461.548.376.862-.205-.727-.282-.261-.511.252-.069-1.132-.938-.45.196-.637-.435.628-1.357.378.23.404-.247-.153-.452.674-.307.557-.871-.539-.059.108-.572.287-.179-.161-.435-.459.17-.063.538-.188-.026-.09-.623-.368-.35.422-.563-.252-.332 1.483-.359.637.563.396-.025-.01-.435 1.178-.137-.081-.239 1.482.145.512-.23.054-.384 3.234-.725 2.848-.282.431.452.072.538.162-.265-.333-.742 6.89.145 5.939-1.519 2.336-1.007 1.168.248.997.785 1.446.119 1.186-.35.072-1.245 1.06-.905 1.581-.068 1.15-.87 2.857-.504.27.29 1.167-.537.126.247.629-.085.323.401 1.033.358.719-.554h-.287l-.279-1.383-.332-.682-.728-.367-.252-.913 1.034-.495 1.518.026-.045-.342.907-.349-3.63.503-.484-.555.26-.46-.97-.487.512-1.135-.683-1.297-.449-.332-1.177-.069-.727-.639-1.025.127-1.23-.529-.459-.691.054-.802.405-.708.862-.128.243.358.215-.238.863 1.629.161-.588-.305-1.221-1.366-.64.998-.162.08-.204.44.247.019-.461.341-.29.26.256.378-.486.602-.026.979 1.067-.296.597.494-.265.413.743.162-.461h1.042l-.162.768-1.428 1.22.727.341.144-.768.79-.418-.143.683.296.384-.314.614.27.128.359-.358.072-.802-.477-1.152.153-.29 1.195.734.997-.111.018-.615-.467-.204.117-.999-.36.06.35 1.587-.368.205-1.401-1.186.422-.981.467-.18-.332-.247.018-.392-.62 1.22-1.23.29-.513-.145-.036-.282.315-.171-.7-.136.179-.785-.279.136-.278-.631-.44.12.036-.461 1.23-.751-1.473.085-.305-.222.062-.307-.889-.222.243-.657-.764-.111-.045.239-.575-.068.027-.222-1.069.034-.18-.341-.26.435-.396-.162-.772.444.593-.649-.773-.486.863-.674-.414-.452.1-.435.78-.436.567.436.251-1.127.315.128.18-.256-.81-.588-.143-.743.692-.077.305.905.494-.58.027.401.953.588.027.504-.692-.222-.306.299.44.367.306.887.44-.742.521-.103.27.256-.17.546.754-.443-.054.972-.45.393.881-.179.26.298-.35.316.018.725.647-.375 1.123.665-.602-.938.162-.615.368-.213-.225-.196-.808.111-.27-.572.459-.41-.207-.179.45-.102-.199-.23.216-.308.377.325.44-.035.53.538-.161-.589.422-.571-.53.025.297-1.996.602-.009-.225-.35 1.662-1.775-.593.086-.674-.973.315-.281 1.14-.137.396.606-.422.495.575.068.359.401.386-.845.575-.034.234-.589-.117-.802-1.842-.145-.35.256-1.976-1.271-.97-.068-.019.623-.43-1.076.637-.716 1.6-.393 4.742.964.836-.213.665-.614-.027.332.449-.153.61-.376-.089-.409.36-.017-.603-.444 1.519-2.21.494.248.287.802.378.051-.683-1.169.072-.828 1.006-.537 1.213.187-.468-.418.117-.247-.476.29-.413-.136.71-.743 1.365-.273.207.947-.198.205.916-.085-.575-.188-.404-1.271-1.033.145-.71.401-.395-.154 2.21-1.092.306.094 1.104-1.8.998.059.44.495-1.276-.256-.099.905 1.007.221-.306.521.467.145.584-.512.207.239.88.068-.341-.648.108-.623 1.24-.324.682.119.17-.324.28.153-.854-.938.072-.239 1.05-.623.612-.026.422-.546 1.105.376 1.015-.725.368.187.279-.341-.18-.316 1.024-.341.54-.478-.09.64.449.836.997-1.211.7-.436-.26.777.225.341.7-.008.899-.819.368.571.89.299-.333-1.544.386-.325.027-.742.737.128-.243.461 1.519-.418-.045.367.404.213.341-.853 1.932-.052-.045-.622.467-.427.854.171.251-.256 2.102-.367.962-.598.727.128.925-.239 1.932-1.083.871-.128 2.183-1.365-.125-.785-.27.716-2.83 1.135-.422-.264-.26-1.186-.405.768.324.742-.378.273-1.015-1.493-.413-.145.26-.905.351-.23-.503-.051-.252.537-.781.214-.989.742 1.258.725-.736.256-.692-.273-.494.239.431-.802-.333-.299.009-.657-.431-.111 1.051-.742-.054-1.075-.305-.375.952-.453-.206.785.467.35-.099.367.898-.529.279-.469-.279-.29.539-.427-1.024-.469.557-.512.395.64.692-.649.503.401-.206.41-.656.358.458.248.189.486-.36.563.153.171.449-.051.414-.478v-.7l.269.418.97-.64.207.418 1.545.077-.314-.427-.593-.196-.171-.426-.898-.111-.234-.418.207-.239 1.41.247.854-.153.179-.299.629.708.737-.631.7-.12-.143.521.548.239.018.733.53-.281.656.051-.369-.708.593-.205.647.196-.288-.349.297-.342-1.572.017-.099-.358.422-.188 1.68.034.521 1.024.827.452.781-.622.584.426 1.006-1.484.306.29.943.094.153.315 1.249-.094 1.446 1.033.35-.231.054.282.8.282-.611.435-.306-.316-.727.631.269.367.584.043-2.003 2.841-1.384 1.323.638 1.101.288-.12.584-1.45 1.662-1.639.485.632.467-.393.593.154.188-.222-.251-.085.108-.436-.441-.187.773-.248.198-.401.835-.017-.323.794 1.006-.171.242.213-.251.683-1.545 1.997.233.145 1.015-.487.459-.52.637.384.198-.546.827-.512.179-.905h.288l1.707-1.536.629.052-1.258.819-.144.298.602.623-.611.461.027.239.836-.009.278-1.117.62-.162.251-.367.468-.086 1.024.709.287-.308.638.154-.458-1.28-.809.026-.593-.504 1.626-1.143.243.06-.117.384.539.119-.144.29.225.273.701-.392.197.17.351-.554.566.119.161-.512-.763-.051-.207-.401-.305.29-.494-.281v-.316l.467-.367.494.111-.063-.282.557-.478 1.5-.221 1.608-1.604 1.123-.683.27.205-.521 1.271.907.085.135-.537.943.358 1.393.086.098.392-.979 1.007.054.23.333.384 1.266-.111.944-.665-.162.964-.89.495.117.213.997.051.243-.691.746-.58-.072-.503-.926-.999-.26-1.237-1.195-.887-.018-.572-.503-.836-1.356-.179-.468-1.903-.907-1.272.072-.546.323-.392.494-.034 2.956 1.391 1.536.085 2.174-.555 1.33.077.341.341 3.288-1.203.638-.64h.368l.126-.46.737-.367.467-3.285.548-.197.243-.657-.198-.836-1.536-.734-.647-2.192.853-3.123.665.068.063.375.314-.025.342-.606.314-.026-.054-1.331.503-.588-.44-.009.09-.401-.512.188.853-1.673 2.058-2.867.611-1.262 1.832-2.074.207-.836.539-.034 1.141.776-.593-1.194.71-.359.646.111-.332-.128v-.52l1.518-2.415-.054-.324.449-.333.315.111-.09-.256 1.536-.81.27-.436-.108-.324.314.111.935-1.766.979-.265.126.837 1.464-.239 2.884-2.995.368.358.674-.503.395.375.108.589-.386.333.817.81 1.509-.964.486-.06.557.316.009 1.032.332.188-.261.41 1.069 1.399.503-.478 1.878 1.289.934.187.656-.094.458-.469 1.564.017-.261.324.485 1.11-.108 1.007.333.955.314.145-.126.435 1.078.734.027.487.728.051-.431.606-.593.162-.449-.427-1.429-.401-.494.393-1.635.247.045.58.359-.188.063-.384 1.411-.221.126.17-1.483 1.929-.449-.222-.234.443-.323-.093-1.132.657.764-.35 1.32-.068.126.52-.871 1.229-3.387 1.723-.728-.281-.736.102-1.15 1.135-1.078.051-.872.853.503.333.863.06.512-.341 1.168.093.377-.631.611.887 1.356.427.89-.862.467.444.602.068 1.59-.836 1.024.188.907-1.024-.377.768.063 1.049-.845.674.36.47-.746.196-.71-.239-.673.409.072.316.404-.222.485.905.557-.128.305-.401 1.007-.009 1.823-1.826 1.492.367.413 1.092.332-.051.449-.64.396.922.575-.231-.62-.247.143-.444.539-.008-.215-.589.719.008.682.683-.134.341.871-.068-.467.546.153.137 1.985-.495-.62.444.71.648-.09.597.332.461.953.41-.234.435-1.653.401.988.469-1.033.751.018.35.476-.333.108.179-.503.794-1.285.358-.036 1.306-.431.119-.413.648-.836-.196.081 1.024.369.145.009.265-.423.793.045.794-.413.495.135.46-.602.879-.333-.213-.314-.998-.764.273.593.904-.386.495.629.725.269-.034-.072.367.917-.247.305-.342.593 1.195.144-1.144.898.077 2.049-.759.727.085 1.033.674.476-.042 1.168-.854.755-1.228.171-1.417-.378-.87-.027-1.621.396-.367 1.32.111-.125-.359.422-.196 1.213.802 1.356.367 1.662-.392 1.033-.76 1.006.111 1.267-.845.377.163-.305.307 1.482.128.943 1.007.755.145-.135.332.89-.529.188 1.033.189-.939 1.86-1.109 1.491-.393.593.086-.054.589 1.294.29.763-.137-.251-.264 1.114-.615.7.401-.611.888.36.264-.099.649.593-.367 1.671.384.224-.35 1.141.631.09.504-1.123-.879.225.426-.593 1.263.764-.025-.557.426.871-.034 1.249.905.521.546.143.904.728.435.539 1.579.44.358.369-.443.206.605 1.33 1.306.602.99.754.477-.458.674-.036 2.355-.404-.034-.683-.768-.62.077.638.725-.152.316.664.162-.224.307.691-.017-.053-.281.521-.137-.072.666.395.896.135.836-.27.52-.808.504-.53-.12-.126.273.835.017-.152.188.368.077.027-.461.719.265.332.486-.153-.862.989-.401-.081-.699-.351-.265.324-.648.467-.137.314.265.036-.359.431.069.692.699-1.177-1.595-.979-.222-.35-1.041.233-.256 1.249.205.117-.47h.503l.35.862-.287.179.692.376.341.913.269 1.442-.215.554.503 1.639.198 2.312-.27.384.341.58-.098.307.305.41-.305-1.459.35-.256.44.239.413-.64.468.691.206-.256.243.452zM10.297 64.995l.252.981-.557.41-4.753.256-.512-.47-.188-1.612-.746.332-.413-.255-.422.409-.773-.623-1.177-2.03L.99 61.07l.36-.376.548.094.898.606-.08.35-.423-.068-.099.213.593.435.782-.76.889.18 4.573 2.96 1.266.29zm12.838 176.452l-.198.666-.584-.043-.485.333-.808-.376-1.249-.034-1.132-.409-.314-.572-1.231-.768-.036-1.084 2.246-2.875.718-1.527.773-.64.674.094-.872.23 1.294 1.442.89 1.937-.019.256-.296-.068.458 2.039-.224.384.395 1.015zm-5.13-223.304l-.638-.222-.359-.572.36-1.4 1.329-2.277 2.39-.973 1.212.085 2.48.939.782.802.044 1.1-.305.53-2.354 1.578-3.782.495-1.159-.085zm23.439 272.98l-.44-1.186.592 1.024-.152.162zM165.596 74.56l-.125.324-.117-.384.242.06zm-9.864 25.956l.512-.342.414-.947.018-.657-.342-.196.494-.76.171-1.527 1.976-1.305h-1.374l-.288-.24.27-1.731 1.815-4.113.269.026.422.861 2.336.914h.62l-1.967-1.366-.279-.99.279-.315-.674-.615 1.32-4.931.405-.23 1.931 1.382 1.132.426.341-.136-1.59-1.075-.494-.564.18-.486-.386.213-1.24-.716.305-1.263.728-.87 1.455-.069-1.419-.708.665-2.543.799-.443.719.375-.108-.384.584.111.207-.213-.09-.836-.458-.632-.054-1.237.422-.853.305.094.342-.487.719-.11.817 3.404-.171.46 1.914.845.135.495-.62-4.991.62-2.116.97-.418.458.708 2.291 1.015.359 1.254.377-.11-.179.63.476-.195-.063.648.503-.29.359.41-.655 1.433-.261-.128-.629 1.348-.377.094.225.213-.692 2.398.251.725-.754 1.656v2.986l.206.128-.386 1.297-1.006.827.162.188-.36.307-.054 1.058-.673 1.715.637-.213.234.17.844-1.578.378.256.206-.239-.269-.12-.045-1.032.503-.11-.027-.58 1.15-3.542.036-1.143.907.904-.108-.435.252-.281 1.428-.82.108-.947.351.171.449-.333.161-1.63.315-.665.216-.077-.009.538.341-.418.045.187-.126 2.193.395-1.143.656-.205-.045-.631.369-.41-.018 1.297 1.087.043.152.222.009 1.399-.467.623.674 1.092-.171.956.36.153.521-.367.898.359 1.114 1.851-.072 1.656.422.008-.116.333.458-.401.476.307-1.186.691-2.426-.58-.314.281h.656l.745.512.36-.153.799.196 1.087.674.099 1.007-.332.341-.189 1.101 1.402-2.457-.414-.154.045-.307.71-.606 1.195.623 1.051 1.007.701 2.235-.441-.077-.027.461.539.325-.106 1.44.53 3.55-.333 1.425-1.159 2.483-1.967 2.986-.467.256.045-.367-.467-.298-1.375.486-1.797-.043-2.138 1.758-.898.154-.135.324-1.356-.128-1.141.452-.485.504-1.195-.282-.8.546.162.657-1.258.956-.036-.487.432-.239-.513-.546.117-.716-1.464.128-.476.281-.944-.119-1.383.802-.485-.461.62-.64-.252-.503-.566 1.117-1.689.282-1.069-.282-.287.188.413-.742-.162-.085-.485.827-1.545.538-2.551 2.662-1.617.836-3.279 2.978-1.168-.026-.054-.341-.854.111-.808.785-.539-.887-.117-1.605-.467-.324 1.644-4.659.521-.52.413-1.161 1.77-2.994-.153-2.082zm2.21-5.47l-.135.376-.224-.026.018-.281.341-.069zm2.579-7.013l-.081.247-.234-.12.315-.127zm25.297 15.99l-.071-.197.287-.051-.216.248zm-8.66-25.24l-.17.18.089-.734.081.554zm-23.995 35.905l.144-.29.224.077-.368.213zm-11.589-69.745l.054.606 1.024.726.09.503-1.375 1.348.539 1.647-.377.631.584.35-.359 1.186-.836.47-.952 1.305-.979-.265-.854.111 1.06.401.108.265-3.71 1.809-.422.58-1.033.068-2.013 1.63.216.29.593-.282.449.12 1.366-.913.521-.026.242.709.117-.854.683-.46.116-.385.782-.511 2.992-.87-.063 1.364-1.015.862-1.258.427-.306.819-.682.367-.306 1.322.225.88-.297.605.279.794.072-2.722 1.985-1.698.916-.41.548-.844.701.426-.036-1.578.494.008.342-.503.521.008.88-.503.44.06-.943-2.867.368-.359.261.35.638.094.494-.742.009-1.203.314-.197-.126.64.306-.264.287.162-.601 1.544-.036.981.395-.35.242.188-.134-1.05.539-1.492.054-1.203-.557-.709-.126-.972.458-.726 1.123-.631.207.102-.414.82.503.46.45-.239.35-.708.251.102.09.53.782-.623 1.617.017.009.307-.952.606.045.35 1.446-.35.35.392-.674.504-.071.486 1.383.068-.404.35.997.128.198.367-.279.17-.224.854.188.077.306-.606.53.572-.171.503.656-.026.503.802.036 1.22.62.205-.09.47.323-.24.099.163.198 1.595.323.632-.377.76-.656.434-.683-.196-.134.188.125.23.27-.077-.045.436.332.179.081.896-.314 2.082-.431-.154.179.512-.197 1.945-.548.598.44.213.449 1.45-.683 2.023.315 1.058-.324 1.484.279.862-.099 2.15-.198.188-.593-.333.144.512-.216.41-.548.23.261.47-.602-.64.153-.12-1.518-1.408-.557-.153-.315.315.081.606 1.051 1.672 2.435 2.45-.719.264-.18.734 2.058.921.233 1.246-.359.768.718 2.508-.098.444-.405.7-1.392.972-1.024 1.204-.369 1.032-.772-.18-.153-.272-1.392.742-3.369-.299-.602.768-.97.504-.467-.99-.351-.23-.494.153-.404-.725-.279.137.279.4-.539-.017-.369-.503-.485-.128-1.698.683-.655-.657-.692-.171-.512-1.075.09-.589-.548.24-.809-.163-1.276-1.587-.125-1.672-.548-.419-1.168.069-.431.29-.378-.333.333-.307-.611.384-.243.512-1.078-1.041-.916 1.066-.961.026-.593-.691-1.24.299-.153-1.383.27-.725-.117-.205-.494.29-.216-1.382-.997.094-.692 1.024-.458.06-.97 1.109-.871-.299.386-.222-.081-.392-.503.4-.512-.136-1.482-2.355.242-2.073-2.111-1.988.332-.196-.395-.188.171-.418.17-.137.036.222.18-.401-.422-1.39.215-.897-.359-2.158.413-.811-.17-1.493-.494-.299-1.186.128-.548-.273-.144.905.278.34-.305.675-.782-.367.054.307-.485.128.297-.938-.665-.453.656-.486.404.137-.189-1.076.62.017-1.069-.571.171-.341-.746-.256-.081-.274-.26.077-.117-.281.09-.265.763-.068.027-.478.575-.316.117-1.27-1.024.545-.261.742.27.615-.692.162-1.177 1.476-.17.683.575.52-.827.853.512.163.036.239-1.303.23-.539-.35-.206-.7.808-.366-.081-.419.477.069-.027-.973-.719-.273-.638.47-.431-.453.252-.435-.531-.52-.655.059.018-.52h.602l.197.383 1.806.726.153-.649 1.437-1.817.746-.085-.225-.128.764-1.135.377-1.331 1.689-2.39 1.617-.443 2.264.358.081-.23-.863-.162.791-.725-.099-.675-.835-.418-1.573-1.868.027-.947.342-.128.35-.674-.368-.248-.144-1.118.755.58.826-.648 1.105.41-.719-.777.414-.162.161-1.485 1.249-.802.207-1.399.296.068.108.58.521.24-.252.7.746.357.566 1.024.737-1.083.009-1.323.521-.52.97.273.701-.273.44.418 1.581-.341.503.529.342-.137.368-.717.539.478.808.085.8-.452.242-.87.836.572 2.111-.922.593-.674 3.18.085.306.691 1.428 1.314zm-39.744 15.18l.135.469.243-.085-.279.23-2.91-2.107-.387-1.332 4.286.359-.629.495 1.177.725.61-1.553.252.068-.09-.264.746-.026.188.478.486.077.224-1.075-.314-.674-1.087-.973-1.114-.205-.53.47-.324-.342-1.006-.29-.737.102-2.057-.512-.44-1.194.36-.623.377.137.566-.401.18-.53-1.375-1.663.745-.52.09-.854-.629-.213-.188-1.144-1.572-.964 3.288-.239 1.069.265 1.59-.427.35.708.467.307 1.447.3 1.599-.052.458.666 2.686-.171 2.273.947 1.904 2.014 1.025.315.521.453-.521 1.595-.602.58.206.393-.152.443-1.294.905-.467-.145.413-1.732-1.132 1.578-1.06-.546.871.802.674-.418-.144.546.629.333-.593.828-.638.307-.44 1.075-.673.648-2.561.965-1.581.23-2.461-.384-1.213.896-.935-.051zm32.126-2.543l.036-.256.189.367-.225-.11z"/></mask><path d="M62.393 203.802l.593-.572.324-1.578 1.123-.478 1.787 1.544-.44.947-.332.111-.207-.742-.835-.41-.297.265.62.273.189.384-.36.375-.503-.119-.62.588-.61.12-.045-.205.287-.043-.108-.401-.512.197-.054-.256zm46.868-140.275l-.27-.188.252-.127.018.315zM91.725 8.714l-.683-.819-.135-1.092.557-2.065.468-.537 2.937-.666 1.707-.051.602-.401 3.728 1.468.135 1.493.422 1.16-1.096 1.527-1.338 1.204-1.662.315-2.21-.179-.962-.606-2.47-.75zm9.271 28.73l.422-.112.387-.64 1.078.436.26-.734 1.411.52-.899-.819.189-.12.871.206.44.554.809-.452 1.069.512 1.195-.196-.62-.862-2.614-.632-1.806-1.245.665-.59 1.464-.349.746-.768 1.886-.162.989-.648.035-2.85.432-2.56 2.497-3.908-.099-.41.36-.921-.468-.358-.431.332.261 1.135-.18.17-.719.027-1.32.614-.359-.785-.459.93-.575.213-.602-.068-.26-.973.764-.75.898-1.613-.009-1.28 1.958-1.502.656.239.279-.162-.611-1.186.027-1.169-.306-.35.252-.29.844-.17 1.761-1.588 1.231.47.18-.23-.297-1.161 1.545-.888.917-.153.781-1.041.746-.111.53-.435.512.094 2.318-1.297.26-.632 2.641-2.773 1.959-.162-.404-.46-1.968.085-.781-.222-.162-1.195.18-.179 2.973-.896 1.563.359.602.853.171.973-.773 1.86 1.528-.086.179.939.584.188.261 1.27.691 1.119 1.007.921.17 1.732 1.348 1.058-.324 1.229.719 1.826.692.154 1.329 1.083.369.981 1.671 1.263.027.538 2.713.452-.53 1.212.619-.06.387.7-.09.529-.656.631.791.341.215 1.502-.772.128-.656.82-.404-.24-.8.137-.269.708-.809.341-.341-.128-.072-.938-.413.46-.468-.298.09.819-.808 4.095.835 2.671.09 3.524 1.051.358.288.666-.009.589-1.087 1.425.152.725-1.132.051-1.033.47-1.213-.163-2.695.478-4.545.196-1.743 1.297-1.482.717-1.043.162-1.221-.264-.935.776-.646-.529-1.456 2.662-4.042 2.244-3.441-1.928-2.542-2.21-2.785-.17-1.222-.65.152-.323.71-.316-.081-.794 3.989 1.903.413-.299-.134-.545-.584-.555-3.306-1.724-.171-.631-.997-.7 2.048-.128 2.282-.606 1.401.367 1.689 1.22.584-.264-.71-1.237-1.967-.768-.781.06-2.642.785-3 .187-1.617.64-.252-.153.324-.606-.045-.58-.584.682-1.258.367 1.123-2.03zm140.342 167.493l.207 1.262-.162.982-.161.145-.117-.342-1.42 3.337-.584-.103-.637.324-1.034 2.287-4.015-1.177-1.653-1.937-1.995-.606-.934-1.015.153-1.084.503-.503.871-.128 1.06.665.944-.708-.216-.316.323-1.135-.476-.58.216-2.039 4.429.785 2.938.196 1.176.742.584.948zm3.037-35.291l.072 2.056-.288 1.562-.566 1.254-.449 2.338-1.069 2.005-.719-.025-.35-.342 1.195-1.595.17-.947-1.823-.76-1.087-.025-1.033.409.988-.665-.027-.299-.476-.299.072-.298-.971-.487-2.012-2.047-.8-.461-.916.136-.566-.222.53.453.611.059.413 1.451 1.051.034 1.204.913.252.725-.189.435-.638-.025-.727-.606-.216.503.521.367.737.06-.036.614.485.547.009.409-.647.734.099.981.737.205.646-.452.045-.453-.323-.341.144-.461 1.608-1.373.269.051.333.418-.117.836.224.265-.431.563.683 1.416.961.367 1.141.009.207.878-.072 1.451-.593-.119-.692.708.503-.222.566.256-.341 2.457-.818 1.707-1.877 2.158-1.312 2.159-.521.435-.144-.128-.125.734-.791 1.007-1.114.555-.449.665.251-.725-2.38 1.024-.396-.145.198.409-1.141 2.441-.314.221-.342-.392.477.742-.827 1.033-.225.938-1.491-.887-.934.171-1.464 1.382-1.312 1.945-.548-.128-2.291 1.382-1.222-.511-1.033.196 1.303.213.135.973-1.869 2.193-.566.076.818-.597-.504-.333-1.32 1.408-.629.051-.108.487-.26-.623-.405-.068-.233.358-.404-.162-.072.264h-.432l-.368.555-.422.128.629-.017.35-.589 1.438.41 1.104-.657.135.981-.431 1.826-2.246 2.56-2.03.273-.818.495-.763 1.169.17.179-1.024.99-1.913 3.387-.557-.256-.225-.555h-.692l.62.171.117 1.323-1.329 1.954-1.079.085-1.32.956-1.411-.163-.709.273-1.483-.332-.709.469-1.393-.623-.898.23-.036-.238-.853-.18-2.345.222-.467-.691-.665.341-.063.316.773.256.17.324 2.561-.222 2.479 1.34v1.561l-1.123 1.059-.117 1.851-.646.956-.737.213-2.21-.341-1.105 1.083-.611 2.125-.26.085.341.12.027.29-.881.819-.044 2.073-.908 1.127-.296 1.297-2.417 1.885-.584.171.395.768 1.016.196.593-.264 1.958-2.185.719.444-.369-.589.432-1.075 1.464-1.109-.126-2.662.135-.495.656-.563.17-.674.611.034 1.087.751 1.141.298 2.246-.631 1.437.239 2.597-.094.485-.205 1.141-1.271.566-.214.808 2.227.935.657.763.035-.656-.606.081-2.261 1.06-.657-.404-.06-.449.307-1.491-.324-.144.35.215-.811 4.313-1.16 2.371-1.075.207-.214-.431-.486.063-.956.476.99.727.504.575-.478-.305-.18.144-.503 1.724.367.486-.188 1.051-1.1.709-.103.333-.955-.548.068.206-.529.548.06 1.285-.632-.162-.503.602-.606.737.119 1.509-.588.234-.376.314.111.054-.486-.332-.512.305-.99-.692-.085-.79-.555-.449.794-1.123.52-.908 1.075-1.132-.435-2.084.247-.269.265.099.606-.522-.47-.619-1.228-.261-1.946.692-.256 1.284-1.083.8-2.637 2.354-.401 1.41.538 1.644 1.152.737.861.575.069.557-.581.081-.401-.306-.076-.018-.495.503-1.058 1.114-.657 1.258-.069.476.956-1.347.555-.674-.043-.396.358.495 2.099-1.689 1.212-.512.725-.234 1.895 1.123.238.593 1.587-.359.274-.728-.461-.647.042-1.383 3.849-3.136.042-.395.666 2.668 1.271.135 1.178-1.33 1.365.674 1.015 1.384-.512 1.176.316.261.52-.413.768.557.913-.072.879-.845.171-.467.836 1.087.205-.763 1.996-.279 1.69.395 3.234.584-.086.45.299-.162 1.032 1.275.291.665.759-.018 1.203-.647.657-.323.802.539.879 1.303-.06.521.725.97-.034.701.854-.27 1.971.71.196.422.802 1.231.409.278 3.84-.197 2.654.602 5.128-.18 1.868.216.64 1.347.623 1.132 1.459 1.006.128.566.384-.009.939-.925.205-.189 1.023.243.606-.315.802-.934.103-.332.921-.36.179-.512-.802-.413-.017-1.123 1.502-2.704.742-.638 1.127-1.32.153-1.896 1.348-2.381.726-.781.913-1.015.179-.791.623-.341.648.242.674-.458.341-.045 1.093 1.168.853.305.785-4.339.665-.287.461.251.853-.341 1.024-1.231.47-.107 1.032.458.503-.18 1.442.871.444-.044.469-.486.512-.17 1.673-.764 1.902-1.177.393-1.266-.205-.315-.443.054-.888-.53-.128-3.315.205-1.437 1.152-.557 1.339-.378.265-1.176-.102-1.797.588-.683.64-2.273 1.306-2.309.213-1.132-.683-.925.709-.512 1.023-.611.333-.233 1.152 2.479 4.156 2.336 4.675.359 3.857-.171 7.799-.772 8.797-.099 4.189-.296 1.34-.629.614-1.168-.384-1.159 1.092-1.366.188-.44 2.056-.548.316-2.443-.017-.153.495 1.195 1.126.692-.358.727.145.135.785 1.258-.213-.018.81-.494.785.278.282.665-.171.126.785.521.614-.261 1.127.369 1.954-.827 1.433-.09 3.729 1.698 1.024.341.887-.044 5.461 1.275.7 1.024 1.467.989-.017.242.324-1.105.777-.224 1.305-.539-.23-.737.102-.692.478-.548 1.195.521.853h-.709l-.674 1.049-.719.231-.225.648-.781.069-.261.426.063.717.494.401.009.631.638.504-.701.23-.395-.589-.413.052-.216.691.225.571-.683 1.161.252.691-.225.35-.916-.034.278 1.143-.278.341.889 1.289.827-.811.862.23.099.657-.279.47.405.486.925-.401 1.689-.196.296-.307-.107-.555.548-.299.61 1.664 1.141-.085.369.759 1.698.145.206 1.272h.899l.476-.384.664.094 2.013 1.288h.799l.081-.52.997.435.405 1.28.853.947-.835 1.681-.512-.547-2.543.111-1.132.308-.251.947-.476.307-1.007-.162-.952-.93-.71.827-2.443-1.254-.27.256.432 1.894-.593 1.451-.108 1.74-.809 1.058.279.76 1.123 1.442-.351.554-.664.342-.692-.478-.53.256-.252.862.575.614-.314 1.502-.458.315-.971.094.189 1.647 1.195 1.084.889 1.467-.296.709.449.597 1.644.452-.476.768.081.691-1.743 1.766-.144.649-.557.665.045.427.404.341-.503 2.202-3.036 2.773.395 1.655-.907.657-1.222.017-.305.58-1.968 1.442-.117.495-2.12.913-.09.606.494.503.207.862-1.949 1.041-.045.555-.692.298-.27.666.054 1.903-.745.358.045.563.521.137.224.478-.611 1.356.53 1.169 1.609 1.775 1.805.99 1.123-.145.485.512.611-.12-.126 2.44.306.675-.359.981.521.478.036.512-2.803-.103-.584 1.126-1.483 1.11.521.802.126.819 1.069 1.143.917-.017.098.939-.314.554 1.069 1.067.153 1.544-.422.418-1.061.342-2.174 1.937-.161.52.35.751.485.341-1.41 1.178-.782.008-.413.307-.979-.187.072-1.024-.548-.094-.099-.589-.908-.111-.961.444-.162-1.775-2.641-.708-1.159-1.365-.027-.623-.709-.828.027-.725.808-.009-.027-.375-1.159-.145-.619.273-.854-.418-.728.682-.161.504-.89-.171-1.374.64-.512 1.459.97 1.843.162 1.613-.414.717-1.114.58-1.167 1.502-2.435.588-.53.461-.961 2.048-.827.17-1.707 1.349-.08.495.53.315-1.096 1.246-.018.683-1.671-.086.386 1.186-.368 1.161.323.921.53.307.153.82-.288.281-.584-.136-.476.725-.422-.026-.305-.674-1.33-.717-.153-.622.288-.384-.512-.512.233-.649-.494-.409.072-.453-1.285-.256-.341-.29-.234-.972.494-.939-.727-.691-.827.333-.673-.333-.872.188-.233.938-.647.401-.414 1.792-1.329.29-.593-.119-.458.529-1.491.068-.396-.648-5.471-.197-3.728 8.541 1.788.913-.18.572-.746.384-.089.503.251.384 1.869.111-.279 2.355.872.12.116.247-.269.777.162.802-2.273.281.108 1.869-.683-.051-.09 1.049-.737.708-.359-.409-.8-.103-.251.845-.827.094-.251 1.502-1.177 1.032.099 1.067-.27.358.62.503-.126 1.946.602 1.024-1.626.699.333.965-.557 2.116.467.495.081.759-1.114 2.841.045.538-2.839-.316-.782 1.357-1.248.213-.611.768-.108 1.101.728.128.485.691 1.329.904.036.606.692.393.934 1.578.593.35.647.973 1.482.332-.206.802-1.734.598-1.168-.538-.162.546-.602.137-.386.529-1.276-.325-.682.239-.225-.324-2.192 1.152-1.222-.648-.97.742-.063-.188-1.94.214-.647.537.53.469v.367l-.494.359-.665 2.858-1.402.162-.736.367-.952 2.039-.521.282-.045.751-.989.913-.018 1.041-.691.486-.27 1.288-1.159.214-.584.392-3.207 2.91-1.168-.06-1.653.606-.853-.188-1.959.546-.655-.17-.647-.802-.899.221-1.446-.563-1.698.248-.377-.487-.503-.128-1.213.495-.925-1.783-1.276-1.032 1.6-2.944 1.284-1.195.62-.239.27-.588 1.31-.879.998-1.22.072-.802-.368-1.323.458-.316v.256l.224-.008-.135-.239.495.017.952-.529 1.168-1.323.036-.648-.656-.973-1.77-.691-.099-.947-.781-1.562-.045-.605.89-1.545-.01-.938-1.365-2.278-.593-2.236-1.959-1.459.387-1.741-.486-.503-.808.085-.198-.776-1.455.358.162-.606-.306-.938-1.33-.529-.215-.905-.431.495-1.447.205-1.59.887-.584-.588-.772.204-.36.692-.287-.282-.943.102-.342-.913-.71-.085.19-.512-.647-.563-.1-1.118-.826-.623-.404.034-.8-.87 2.094-2.466 1.5-.333.458-.597 1.024-.443.108-.794-.656-.29-.575-1.476.054-.853-.907-1.016-.279-1.118-.898-.059-.36-.726-1.006.017-.781-1.126.108-.469-.746-.58.225-.64.592-.043.297-.29.09-.691-.467-1.86.736-1.647-.296-.614-1.078.111.126-.461 1.024-.939 1.203-2.619 1.357-.623-.27-.939 2.022-.614.143-2.065-.116-.862-.746-.716-.575-.154-1.365.213-1.366-.614-.683-.811-3.584-.716-.09-.802-.692-1.076-.224-3.054 2.488-2.739 1.393-2.031 1.796-.896-.116-.725-1.231-1.254-.108-.999-.17-.273-.944.043-3.459.478-1.114-1.724-1.356-3.344-2.174-.069-.126-1.732-.296-.563-.737-.29-4.097-.751-2.937.196-2.12.546-5.786.145-.431-1.322.512-.913-.009-1.775.593-.495.512-1.143-2.758-5.103-.755-.537-.17-.7 2.012-1.416 7.061-3.831-.054-1.707.935-.708 1.069-.256-.315-1.024-1.68-.367-1.626-1.416-1.213-.137-1.68-.921-1.212-.248-.512-.443-1.105-2.15.009-2.475.458-1.143 2.138-2.389.27-1.749.53-1.195 1.518-1.442.476-1.135 1.006-.819.17-1.109.36-.273.162-.674-.53-1.28.341-.452-.144-.615.297-1.527-.387-.222-.61.102-.71-1.552-1.258-.675-.188-.639 1.24-1.221.269-2.355.943-.503 1.186-1.229 1.77-1.237.027-3.003-.486-1.4.162-.529-.62-1.263.665-1.134-.692-3.055-.61-.06-.18-.35-.818-.324-1.347.922-.63-.103-.61-.682-.925-.307.539-.606-.162-.461-2.327.418-1.877-.179-.26-.367.43-.887-.71-1.604.486-1.016 1.536-1.374-.683-3.174-.862-.725-1.51-.478 1.15-.648-.305-.691-2.264-1.485-1.311.299-.791-.231-.395-.503-.216-1.621-.871-1.075-.216-.709.602-.597.018-.751.89-.597-1.474-2.841-1.662-1.903-.063-.691.71-1.11.62-.469.242-.751-.727-2.047-1.033-.632-.117-.887-5.714-4.992 1.213-1.373-.153-1.758.521-1.024-.045-.589-1.787-1.732-.27-1.638-.907-.64-1.087-2.167.27-.29.637.025 1.159-.444.88.376 1.078-.341.09-2.33.908-1.049.206-1.4 1.07-.725.134-2.594-.386-2.227 1.437-.921-.108-.939-.296-.845-1.554-1.493-.459-2.295-.88-1.604.71-.845-.45-.819-1.284-.119-2.102-.743-.126-.631.97-1.289v-.938l-1.832-1.28-.459.734.135 1.066-.206.811-.548.546-.656.145-.863-.222-1.518.888-.79-.069-2.103-1.536-.844.094-1.68-.665-1.976.162-.764-.401-.7-1.169-.495-.102-1.213-3.849-2.551-.529.225-1.493-.755-1.365-.234-1.007 1.375-1.288 1.267-1.963.063-1.228.287-.418.45.102.502.188.108.503.97-1.8 3.19-3.012.044-.606.773-.367 1.401.026 1.06.793.737.068.297-.486-.108-.358-.98-1.067 1.07-2.807-1.123-1.195.557-1.868-.692-1.408-.189-2.389-.494-.888-2.192-.64-2.237-1.032-2.219-2.901-.754-.06-.575-.486-.459-1.988.153-.717.53-.222.207-.648-.126-1.877 2.57-.069 1.221-.563.863-1.228.53-2.569 1.401-.443.18-.453-.404-1.007-2.049-1.416-1.258-.384-.637-.751-1.94.316-1.465-.213-1.878-1.34-1.94-1.911.108-1.135-1.222-2.15 4.312.205 1.743.349 2.767 2.765.907.529-.18.512.521-.401 3.297 1.51.728 1.852.845.128.61 1.126 1.932 2.065.539 1.792 2.156 1.22 1.186.145 2.533-.367 3.01-1.203.88-.094.593.017.512.725 1.32.239.477.632.063.605-.872 1.613-1.24.734.153 2.415-1.787.75-3.09 2.151.53 3.532-.836 1.212.53.443-.135.657-.117-.358-.107.273 1.248 3.831-.988 1.092-.26 1.408-.863.785.485 1.144-.045.563-.52.938-1.034.615.072.435-.45.435.405-.12.099.802-.79 1.562h.314l.593-1.562.072-1.569.593-.18.664-1.1-.018 1.297.189-.026.027.623.485.316.072.631-.18.264-.072-.187-1.06-.009-.314.231 1.069-.06.296.23.71 1.152.135.777-.683.349-.36.547.046 1.16.206.119-.09-1.297.423-.546.584-.221.224.332.27-.529 1.33.461 2.146 2.176-.332.751-1.159-.145-.476-.461.045.273.44.316 1.213.162 1.168.64.36.785 1.437 1.527.583 1.519 2.201.051-.072.307.108-.503.63.017 1.383 2.73.727.367.79-.23.9-.811-.225-.341-.719.35-.306-1.323-1.85-.486-.988-1.425.125-.137.333.401-.144-.375-1.105-.461-.575-.691-.862-1.536-.252-1.092-.584-.614-1.868-.529.224-1.178-1.257-2.662.368-.828.018.214 1.024.384.818-.043 1.033-.606.368.512-.072-.597.377-.162 1.204-1.877-.305-.794.251-.324-.404.102.377-.35-.053-.384-.522-.725-1.033-4.488.054-.708-.7-2.347-.701-.981-.557-.111-.413-1.109.53.265.161-.623-.727-1.997 1.096-1.152.7-3.379.764-.452.44-.7.306-1.16-.108-.7-.988-1.459-.656-.52.251-1.007-.844-1.101-.818-.469-2.434-.418-.279-.256-.36.205-.035.426-1.177-3.268-1.626-1.288.135-.239.467.316.782-.896-.342-.086.117-.298-.297-.137-.772-1.706-2.309-1.135.332-.725-.53.52-1.167-.213-.35-.324-.764.204-.216-.315-1.258.025-1.86-1.305-.574-.128-.396-.495-.566-1.374.126-.435.459-.196-.225-.674.692-.777-.378-.426-.754.452-.36-.23-.134-1.204.072-.972 1.284-1.374-.251.043-.198-.521.386-2.141-.548-1.69.09-.409-.746-.7-1.176-.504.727-.29-.099-.802-1.32-.401-.153-.606-.485.239.566-.452 1.258.128-.036-.461.548.376.862-.205-.727-.282-.261-.511.252-.069-1.132-.938-.45.196-.637-.435.628-1.357.378.23.404-.247-.153-.452.674-.307.557-.871-.539-.059.108-.572.287-.179-.161-.435-.459.17-.063.538-.188-.026-.09-.623-.368-.35.422-.563-.252-.332 1.483-.359.637.563.396-.025-.01-.435 1.178-.137-.081-.239 1.482.145.512-.23.054-.384 3.234-.725 2.848-.282.431.452.072.538.162-.265-.333-.742 6.89.145 5.939-1.519 2.336-1.007 1.168.248.997.785 1.446.119 1.186-.35.072-1.245 1.06-.905 1.581-.068 1.15-.87 2.857-.504.27.29 1.167-.537.126.247.629-.085.323.401 1.033.358.719-.554h-.287l-.279-1.383-.332-.682-.728-.367-.252-.913 1.034-.495 1.518.026-.045-.342.907-.349-3.63.503-.484-.555.26-.46-.97-.487.512-1.135-.683-1.297-.449-.332-1.177-.069-.727-.639-1.025.127-1.23-.529-.459-.691.054-.802.405-.708.862-.128.243.358.215-.238.863 1.629.161-.588-.305-1.221-1.366-.64.998-.162.08-.204.44.247.019-.461.341-.29.26.256.378-.486.602-.026.979 1.067-.296.597.494-.265.413.743.162-.461h1.042l-.162.768-1.428 1.22.727.341.144-.768.79-.418-.143.683.296.384-.314.614.27.128.359-.358.072-.802-.477-1.152.153-.29 1.195.734.997-.111.018-.615-.467-.204.117-.999-.36.06.35 1.587-.368.205-1.401-1.186.422-.981.467-.18-.332-.247.018-.392-.62 1.22-1.23.29-.513-.145-.036-.282.315-.171-.7-.136.179-.785-.279.136-.278-.631-.44.12.036-.461 1.23-.751-1.473.085-.305-.222.062-.307-.889-.222.243-.657-.764-.111-.045.239-.575-.068.027-.222-1.069.034-.18-.341-.26.435-.396-.162-.772.444.593-.649-.773-.486.863-.674-.414-.452.1-.435.78-.436.567.436.251-1.127.315.128.18-.256-.81-.588-.143-.743.692-.077.305.905.494-.58.027.401.953.588.027.504-.692-.222-.306.299.44.367.306.887.44-.742.521-.103.27.256-.17.546.754-.443-.054.972-.45.393.881-.179.26.298-.35.316.018.725.647-.375 1.123.665-.602-.938.162-.615.368-.213-.225-.196-.808.111-.27-.572.459-.41-.207-.179.45-.102-.199-.23.216-.308.377.325.44-.035.53.538-.161-.589.422-.571-.53.025.297-1.996.602-.009-.225-.35 1.662-1.775-.593.086-.674-.973.315-.281 1.14-.137.396.606-.422.495.575.068.359.401.386-.845.575-.034.234-.589-.117-.802-1.842-.145-.35.256-1.976-1.271-.97-.068-.019.623-.43-1.076.637-.716 1.6-.393 4.742.964.836-.213.665-.614-.027.332.449-.153.61-.376-.089-.409.36-.017-.603-.444 1.519-2.21.494.248.287.802.378.051-.683-1.169.072-.828 1.006-.537 1.213.187-.468-.418.117-.247-.476.29-.413-.136.71-.743 1.365-.273.207.947-.198.205.916-.085-.575-.188-.404-1.271-1.033.145-.71.401-.395-.154 2.21-1.092.306.094 1.104-1.8.998.059.44.495-1.276-.256-.099.905 1.007.221-.306.521.467.145.584-.512.207.239.88.068-.341-.648.108-.623 1.24-.324.682.119.17-.324.28.153-.854-.938.072-.239 1.05-.623.612-.026.422-.546 1.105.376 1.015-.725.368.187.279-.341-.18-.316 1.024-.341.54-.478-.09.64.449.836.997-1.211.7-.436-.26.777.225.341.7-.008.899-.819.368.571.89.299-.333-1.544.386-.325.027-.742.737.128-.243.461 1.519-.418-.045.367.404.213.341-.853 1.932-.052-.045-.622.467-.427.854.171.251-.256 2.102-.367.962-.598.727.128.925-.239 1.932-1.083.871-.128 2.183-1.365-.125-.785-.27.716-2.83 1.135-.422-.264-.26-1.186-.405.768.324.742-.378.273-1.015-1.493-.413-.145.26-.905.351-.23-.503-.051-.252.537-.781.214-.989.742 1.258.725-.736.256-.692-.273-.494.239.431-.802-.333-.299.009-.657-.431-.111 1.051-.742-.054-1.075-.305-.375.952-.453-.206.785.467.35-.099.367.898-.529.279-.469-.279-.29.539-.427-1.024-.469.557-.512.395.64.692-.649.503.401-.206.41-.656.358.458.248.189.486-.36.563.153.171.449-.051.414-.478v-.7l.269.418.97-.64.207.418 1.545.077-.314-.427-.593-.196-.171-.426-.898-.111-.234-.418.207-.239 1.41.247.854-.153.179-.299.629.708.737-.631.7-.12-.143.521.548.239.018.733.53-.281.656.051-.369-.708.593-.205.647.196-.288-.349.297-.342-1.572.017-.099-.358.422-.188 1.68.034.521 1.024.827.452.781-.622.584.426 1.006-1.484.306.29.943.094.153.315 1.249-.094 1.446 1.033.35-.231.054.282.8.282-.611.435-.306-.316-.727.631.269.367.584.043-2.003 2.841-1.384 1.323.638 1.101.288-.12.584-1.45 1.662-1.639.485.632.467-.393.593.154.188-.222-.251-.085.108-.436-.441-.187.773-.248.198-.401.835-.017-.323.794 1.006-.171.242.213-.251.683-1.545 1.997.233.145 1.015-.487.459-.52.637.384.198-.546.827-.512.179-.905h.288l1.707-1.536.629.052-1.258.819-.144.298.602.623-.611.461.027.239.836-.009.278-1.117.62-.162.251-.367.468-.086 1.024.709.287-.308.638.154-.458-1.28-.809.026-.593-.504 1.626-1.143.243.06-.117.384.539.119-.144.29.225.273.701-.392.197.17.351-.554.566.119.161-.512-.763-.051-.207-.401-.305.29-.494-.281v-.316l.467-.367.494.111-.063-.282.557-.478 1.5-.221 1.608-1.604 1.123-.683.27.205-.521 1.271.907.085.135-.537.943.358 1.393.086.098.392-.979 1.007.054.23.333.384 1.266-.111.944-.665-.162.964-.89.495.117.213.997.051.243-.691.746-.58-.072-.503-.926-.999-.26-1.237-1.195-.887-.018-.572-.503-.836-1.356-.179-.468-1.903-.907-1.272.072-.546.323-.392.494-.034 2.956 1.391 1.536.085 2.174-.555 1.33.077.341.341 3.288-1.203.638-.64h.368l.126-.46.737-.367.467-3.285.548-.197.243-.657-.198-.836-1.536-.734-.647-2.192.853-3.123.665.068.063.375.314-.025.342-.606.314-.026-.054-1.331.503-.588-.44-.009.09-.401-.512.188.853-1.673 2.058-2.867.611-1.262 1.832-2.074.207-.836.539-.034 1.141.776-.593-1.194.71-.359.646.111-.332-.128v-.52l1.518-2.415-.054-.324.449-.333.315.111-.09-.256 1.536-.81.27-.436-.108-.324.314.111.935-1.766.979-.265.126.837 1.464-.239 2.884-2.995.368.358.674-.503.395.375.108.589-.386.333.817.81 1.509-.964.486-.06.557.316.009 1.032.332.188-.261.41 1.069 1.399.503-.478 1.878 1.289.934.187.656-.094.458-.469 1.564.017-.261.324.485 1.11-.108 1.007.333.955.314.145-.126.435 1.078.734.027.487.728.051-.431.606-.593.162-.449-.427-1.429-.401-.494.393-1.635.247.045.58.359-.188.063-.384 1.411-.221.126.17-1.483 1.929-.449-.222-.234.443-.323-.093-1.132.657.764-.35 1.32-.068.126.52-.871 1.229-3.387 1.723-.728-.281-.736.102-1.15 1.135-1.078.051-.872.853.503.333.863.06.512-.341 1.168.093.377-.631.611.887 1.356.427.89-.862.467.444.602.068 1.59-.836 1.024.188.907-1.024-.377.768.063 1.049-.845.674.36.47-.746.196-.71-.239-.673.409.072.316.404-.222.485.905.557-.128.305-.401 1.007-.009 1.823-1.826 1.492.367.413 1.092.332-.051.449-.64.396.922.575-.231-.62-.247.143-.444.539-.008-.215-.589.719.008.682.683-.134.341.871-.068-.467.546.153.137 1.985-.495-.62.444.71.648-.09.597.332.461.953.41-.234.435-1.653.401.988.469-1.033.751.018.35.476-.333.108.179-.503.794-1.285.358-.036 1.306-.431.119-.413.648-.836-.196.081 1.024.369.145.009.265-.423.793.045.794-.413.495.135.46-.602.879-.333-.213-.314-.998-.764.273.593.904-.386.495.629.725.269-.034-.072.367.917-.247.305-.342.593 1.195.144-1.144.898.077 2.049-.759.727.085 1.033.674.476-.042 1.168-.854.755-1.228.171-1.417-.378-.87-.027-1.621.396-.367 1.32.111-.125-.359.422-.196 1.213.802 1.356.367 1.662-.392 1.033-.76 1.006.111 1.267-.845.377.163-.305.307 1.482.128.943 1.007.755.145-.135.332.89-.529.188 1.033.189-.939 1.86-1.109 1.491-.393.593.086-.054.589 1.294.29.763-.137-.251-.264 1.114-.615.7.401-.611.888.36.264-.099.649.593-.367 1.671.384.224-.35 1.141.631.09.504-1.123-.879.225.426-.593 1.263.764-.025-.557.426.871-.034 1.249.905.521.546.143.904.728.435.539 1.579.44.358.369-.443.206.605 1.33 1.306.602.99.754.477-.458.674-.036 2.355-.404-.034-.683-.768-.62.077.638.725-.152.316.664.162-.224.307.691-.017-.053-.281.521-.137-.072.666.395.896.135.836-.27.52-.808.504-.53-.12-.126.273.835.017-.152.188.368.077.027-.461.719.265.332.486-.153-.862.989-.401-.081-.699-.351-.265.324-.648.467-.137.314.265.036-.359.431.069.692.699-1.177-1.595-.979-.222-.35-1.041.233-.256 1.249.205.117-.47h.503l.35.862-.287.179.692.376.341.913.269 1.442-.215.554.503 1.639.198 2.312-.27.384.341.58-.098.307.305.41-.305-1.459.35-.256.44.239.413-.64.468.691.206-.256.243.452zM10.297 64.995l.252.981-.557.41-4.753.256-.512-.47-.188-1.612-.746.332-.413-.255-.422.409-.773-.623-1.177-2.03L.99 61.07l.36-.376.548.094.898.606-.08.35-.423-.068-.099.213.593.435.782-.76.889.18 4.573 2.96 1.266.29zm12.838 176.452l-.198.666-.584-.043-.485.333-.808-.376-1.249-.034-1.132-.409-.314-.572-1.231-.768-.036-1.084 2.246-2.875.718-1.527.773-.64.674.094-.872.23 1.294 1.442.89 1.937-.019.256-.296-.068.458 2.039-.224.384.395 1.015zm-5.13-223.304l-.638-.222-.359-.572.36-1.4 1.329-2.277 2.39-.973 1.212.085 2.48.939.782.802.044 1.1-.305.53-2.354 1.578-3.782.495-1.159-.085zm23.439 272.98l-.44-1.186.592 1.024-.152.162zM165.596 74.56l-.125.324-.117-.384.242.06zm-9.864 25.956l.512-.342.414-.947.018-.657-.342-.196.494-.76.171-1.527 1.976-1.305h-1.374l-.288-.24.27-1.731 1.815-4.113.269.026.422.861 2.336.914h.62l-1.967-1.366-.279-.99.279-.315-.674-.615 1.32-4.931.405-.23 1.931 1.382 1.132.426.341-.136-1.59-1.075-.494-.564.18-.486-.386.213-1.24-.716.305-1.263.728-.87 1.455-.069-1.419-.708.665-2.543.799-.443.719.375-.108-.384.584.111.207-.213-.09-.836-.458-.632-.054-1.237.422-.853.305.094.342-.487.719-.11.817 3.404-.171.46 1.914.845.135.495-.62-4.991.62-2.116.97-.418.458.708 2.291 1.015.359 1.254.377-.11-.179.63.476-.195-.063.648.503-.29.359.41-.655 1.433-.261-.128-.629 1.348-.377.094.225.213-.692 2.398.251.725-.754 1.656v2.986l.206.128-.386 1.297-1.006.827.162.188-.36.307-.054 1.058-.673 1.715.637-.213.234.17.844-1.578.378.256.206-.239-.269-.12-.045-1.032.503-.11-.027-.58 1.15-3.542.036-1.143.907.904-.108-.435.252-.281 1.428-.82.108-.947.351.171.449-.333.161-1.63.315-.665.216-.077-.009.538.341-.418.045.187-.126 2.193.395-1.143.656-.205-.045-.631.369-.41-.018 1.297 1.087.043.152.222.009 1.399-.467.623.674 1.092-.171.956.36.153.521-.367.898.359 1.114 1.851-.072 1.656.422.008-.116.333.458-.401.476.307-1.186.691-2.426-.58-.314.281h.656l.745.512.36-.153.799.196 1.087.674.099 1.007-.332.341-.189 1.101 1.402-2.457-.414-.154.045-.307.71-.606 1.195.623 1.051 1.007.701 2.235-.441-.077-.027.461.539.325-.106 1.44.53 3.55-.333 1.425-1.159 2.483-1.967 2.986-.467.256.045-.367-.467-.298-1.375.486-1.797-.043-2.138 1.758-.898.154-.135.324-1.356-.128-1.141.452-.485.504-1.195-.282-.8.546.162.657-1.258.956-.036-.487.432-.239-.513-.546.117-.716-1.464.128-.476.281-.944-.119-1.383.802-.485-.461.62-.64-.252-.503-.566 1.117-1.689.282-1.069-.282-.287.188.413-.742-.162-.085-.485.827-1.545.538-2.551 2.662-1.617.836-3.279 2.978-1.168-.026-.054-.341-.854.111-.808.785-.539-.887-.117-1.605-.467-.324 1.644-4.659.521-.52.413-1.161 1.77-2.994-.153-2.082zm2.21-5.47l-.135.376-.224-.026.018-.281.341-.069zm2.579-7.013l-.081.247-.234-.12.315-.127zm25.297 15.99l-.071-.197.287-.051-.216.248zm-8.66-25.24l-.17.18.089-.734.081.554zm-23.995 35.905l.144-.29.224.077-.368.213zm-11.589-69.745l.054.606 1.024.726.09.503-1.375 1.348.539 1.647-.377.631.584.35-.359 1.186-.836.47-.952 1.305-.979-.265-.854.111 1.06.401.108.265-3.71 1.809-.422.58-1.033.068-2.013 1.63.216.29.593-.282.449.12 1.366-.913.521-.026.242.709.117-.854.683-.46.116-.385.782-.511 2.992-.87-.063 1.364-1.015.862-1.258.427-.306.819-.682.367-.306 1.322.225.88-.297.605.279.794.072-2.722 1.985-1.698.916-.41.548-.844.701.426-.036-1.578.494.008.342-.503.521.008.88-.503.44.06-.943-2.867.368-.359.261.35.638.094.494-.742.009-1.203.314-.197-.126.64.306-.264.287.162-.601 1.544-.036.981.395-.35.242.188-.134-1.05.539-1.492.054-1.203-.557-.709-.126-.972.458-.726 1.123-.631.207.102-.414.82.503.46.45-.239.35-.708.251.102.09.53.782-.623 1.617.017.009.307-.952.606.045.35 1.446-.35.35.392-.674.504-.071.486 1.383.068-.404.35.997.128.198.367-.279.17-.224.854.188.077.306-.606.53.572-.171.503.656-.026.503.802.036 1.22.62.205-.09.47.323-.24.099.163.198 1.595.323.632-.377.76-.656.434-.683-.196-.134.188.125.23.27-.077-.045.436.332.179.081.896-.314 2.082-.431-.154.179.512-.197 1.945-.548.598.44.213.449 1.45-.683 2.023.315 1.058-.324 1.484.279.862-.099 2.15-.198.188-.593-.333.144.512-.216.41-.548.23.261.47-.602-.64.153-.12-1.518-1.408-.557-.153-.315.315.081.606 1.051 1.672 2.435 2.45-.719.264-.18.734 2.058.921.233 1.246-.359.768.718 2.508-.098.444-.405.7-1.392.972-1.024 1.204-.369 1.032-.772-.18-.153-.272-1.392.742-3.369-.299-.602.768-.97.504-.467-.99-.351-.23-.494.153-.404-.725-.279.137.279.4-.539-.017-.369-.503-.485-.128-1.698.683-.655-.657-.692-.171-.512-1.075.09-.589-.548.24-.809-.163-1.276-1.587-.125-1.672-.548-.419-1.168.069-.431.29-.378-.333.333-.307-.611.384-.243.512-1.078-1.041-.916 1.066-.961.026-.593-.691-1.24.299-.153-1.383.27-.725-.117-.205-.494.29-.216-1.382-.997.094-.692 1.024-.458.06-.97 1.109-.871-.299.386-.222-.081-.392-.503.4-.512-.136-1.482-2.355.242-2.073-2.111-1.988.332-.196-.395-.188.171-.418.17-.137.036.222.18-.401-.422-1.39.215-.897-.359-2.158.413-.811-.17-1.493-.494-.299-1.186.128-.548-.273-.144.905.278.34-.305.675-.782-.367.054.307-.485.128.297-.938-.665-.453.656-.486.404.137-.189-1.076.62.017-1.069-.571.171-.341-.746-.256-.081-.274-.26.077-.117-.281.09-.265.763-.068.027-.478.575-.316.117-1.27-1.024.545-.261.742.27.615-.692.162-1.177 1.476-.17.683.575.52-.827.853.512.163.036.239-1.303.23-.539-.35-.206-.7.808-.366-.081-.419.477.069-.027-.973-.719-.273-.638.47-.431-.453.252-.435-.531-.52-.655.059.018-.52h.602l.197.383 1.806.726.153-.649 1.437-1.817.746-.085-.225-.128.764-1.135.377-1.331 1.689-2.39 1.617-.443 2.264.358.081-.23-.863-.162.791-.725-.099-.675-.835-.418-1.573-1.868.027-.947.342-.128.35-.674-.368-.248-.144-1.118.755.58.826-.648 1.105.41-.719-.777.414-.162.161-1.485 1.249-.802.207-1.399.296.068.108.58.521.24-.252.7.746.357.566 1.024.737-1.083.009-1.323.521-.52.97.273.701-.273.44.418 1.581-.341.503.529.342-.137.368-.717.539.478.808.085.8-.452.242-.87.836.572 2.111-.922.593-.674 3.18.085.306.691 1.428 1.314zm-39.744 15.18l.135.469.243-.085-.279.23-2.91-2.107-.387-1.332 4.286.359-.629.495 1.177.725.61-1.553.252.068-.09-.264.746-.026.188.478.486.077.224-1.075-.314-.674-1.087-.973-1.114-.205-.53.47-.324-.342-1.006-.29-.737.102-2.057-.512-.44-1.194.36-.623.377.137.566-.401.18-.53-1.375-1.663.745-.52.09-.854-.629-.213-.188-1.144-1.572-.964 3.288-.239 1.069.265 1.59-.427.35.708.467.307 1.447.3 1.599-.052.458.666 2.686-.171 2.273.947 1.904 2.014 1.025.315.521.453-.521 1.595-.602.58.206.393-.152.443-1.294.905-.467-.145.413-1.732-1.132 1.578-1.06-.546.871.802.674-.418-.144.546.629.333-.593.828-.638.307-.44 1.075-.673.648-2.561.965-1.581.23-2.461-.384-1.213.896-.935-.051zm32.126-2.543l.036-.256.189.367-.225-.11z" stroke="#31313B" stroke-width=".4" mask="url(#a)"/></svg>