<svg width="25" height="22" fill="none" xmlns="http://www.w3.org/2000/svg"><mask id="a" fill="#fff"><path d="M12.533 1.11l.305.358.683.026.755-.648.826-.103.629.649.746-.077.404.418.557-.06.224.333.674-.18.144.214.485-.93.234.017.09-.503.799.017.377-.401.207.887.988.034.162.512 1.06-.392-.01.017.064.153h.009l.018.017.027.043-.01.017-.008.009.539.69.126-.042.197-.017-.27.085-.017.316.422.17.009.368-.234.094.593.955-.045 1.05.225.17-.341 2.261-.477.845-.655-.563-.728.18.225.494-.566.367.188.614.647.094-.189 1.144.234.324-1.752.128-.377-.282-.916.248-.566.64-.72-.163-.646.828-1.06-.153.728.392-.126.248-.566.068 1.258.145-.638.64.009.913-.53-.111-.512.41.233.34-.61.333.323.418-.315.376.935.734-.486.512-.997.716-.215.461-.63.051-.206-.358-.512.324-.449 1.058-.305-.085.305-.631-.431.136-.467 1.169-.854.282.045.443-.341-.17-.548.23-.701-.802-.862.11-1.06-.477H7.69l-.611-.444-.144-2.474-.665-.393v-.418l-.952-.665-.18-.452-1.213.358-.251-.299-.323.128-.746-1.246-.872-.503-1.015.137-.386-.59.647-.093.224-.998.459-.214-.234-.418.61-.844-.583-.41.341-.776-.341-.222.278-.58.396.06.718-.65.18.282.216-.273.53-.034.8.367.502-.102.288.512.422-.256 1.042.136.431-1.229-.637-.827 1.383.341 1.788-.964.17-.239-.503-.427-.071-.512 1.49-1.45.28.495.152-.111.44-1.16.216.008.584-.981-.018-.717z"/></mask><path d="M12.533 1.11l.305.358.683.026.755-.648.826-.103.629.649.746-.077.404.418.557-.06.224.333.674-.18.144.214.485-.93.234.017.09-.503.799.017.377-.401.207.887.988.034.162.512 1.06-.392-.01.017.064.153h.009l.018.017.027.043-.01.017-.008.009.539.69.126-.042.197-.017-.27.085-.017.316.422.17.009.368-.234.094.593.955-.045 1.05.225.17-.341 2.261-.477.845-.655-.563-.728.18.225.494-.566.367.188.614.647.094-.189 1.144.234.324-1.752.128-.377-.282-.916.248-.566.64-.72-.163-.646.828-1.06-.153.728.392-.126.248-.566.068 1.258.145-.638.64.009.913-.53-.111-.512.41.233.34-.61.333.323.418-.315.376.935.734-.486.512-.997.716-.215.461-.63.051-.206-.358-.512.324-.449 1.058-.305-.085.305-.631-.431.136-.467 1.169-.854.282.045.443-.341-.17-.548.23-.701-.802-.862.11-1.06-.477H7.69l-.611-.444-.144-2.474-.665-.393v-.418l-.952-.665-.18-.452-1.213.358-.251-.299-.323.128-.746-1.246-.872-.503-1.015.137-.386-.59.647-.093.224-.998.459-.214-.234-.418.61-.844-.583-.41.341-.776-.341-.222.278-.58.396.06.718-.65.18.282.216-.273.53-.034.8.367.502-.102.288.512.422-.256 1.042.136.431-1.229-.637-.827 1.383.341 1.788-.964.17-.239-.503-.427-.071-.512 1.49-1.45.28.495.152-.111.44-1.16.216.008.584-.981-.018-.717z" stroke="#31313B" stroke-width=".4" mask="url(#a)"/></svg>