<svg width="48" height="28" fill="none" xmlns="http://www.w3.org/2000/svg"><mask id="a" fill="#fff"><path d="M44.194.374l-.342 2.995 1.348.213-.144.845.279.427-.234.153.413.82.63.28.215-.434.152.734.63.904.25 1.45-1.886-.179-.206.128.35.478-.305.265.386.571-.782.418-.512-.136-.871.81.17.862-.772.162-.27-.17-.377.332-.8.137-.161-.18-.593 1.212.189.87-1.195.53.494.281-.467.564.305.895-.242.427-.387.034-.377.76.395.588-2.92.53-.467-.12-.197.324-.279-.034-.224.828-.369.307-.44-.017-1.06-1.289-.79.205-.773-.683-2.165.103-.296.4.233 1.895-.341.333.143.572-.449.29-.134.793-.935-.102-1.428 2.116-.8.043-1.204.819-2.255-.086-.116-.537-.404-.341-1.141-.23-.674.272-.836 1.007-.18-2.227-.476.81.261 1.161-.189.401-.691.427-1.006-.094-.701-.674.557-.512-.342-.888.225-1.05-.755-.247-.26.598-1.087.145-.26-.23-.567.23-.188.426-.755.128-.35-.213-.333.256-1.042-.589-.117-.41-2.165-.622.216 1.33-.279 1.443-2.443.725-.467-.222v.47l-.414.512-.368-.017v.358l-.745-.418-1.222.153-.216.325-.638-.145-.629.358-.44-.512-.108-1.698.387-.213-.135-.495.521-.128-.072-.546.288.264.161-.35.458.23.19-.34-.54-.93.566-1.067-.494-1.16.961-.692-.072-1.245 1.042-.717-.269-.632.458-.238.602-.948.647-.204.467-.58-.665-.811-.17-.947-.72-.333.315-.29.243.128-.162-.512.638-.614.476-.086.494-.896-.692-.776.396-.742.27.145-.019-.649-.43-.29.511-.47-.009-.323.315-.18.26.683.35-.52 1.447-.914 1.042-.315.89.136.305-.512.206.222.36-.102.107-1.493-.889-.572.656-1.698.907.23.189 1.093.494.597.395-.418 1.519-.316.458 1.058.314.009.638 1.075.341-.111.027-.623.27.222.925-.256-.027-.282.557-.392.62.52.18-.145.215.324.27-.102-.036-.623 1.024-.41.234 1.442.503-.247-.09-.35 1.186-.554.018.69.629-.059.727.358L25.175 5l.144.52.755.17.036.35 1.24-.28 3.153.468.44-.819 1.383.034.297-.435 2.255.333.17-.341.459.367 1.042.085.781-1.724.512.086.252-.418 1.392-.154.216-1.169-.279-.358L39.72.57l1.356-.102.126.367.54-.103.367-.435 2.085.077z"/></mask><path d="M44.194.374l-.342 2.995 1.348.213-.144.845.279.427-.234.153.413.82.63.28.215-.434.152.734.63.904.25 1.45-1.886-.179-.206.128.35.478-.305.265.386.571-.782.418-.512-.136-.871.81.17.862-.772.162-.27-.17-.377.332-.8.137-.161-.18-.593 1.212.189.87-1.195.53.494.281-.467.564.305.895-.242.427-.387.034-.377.76.395.588-2.92.53-.467-.12-.197.324-.279-.034-.224.828-.369.307-.44-.017-1.06-1.289-.79.205-.773-.683-2.165.103-.296.4.233 1.895-.341.333.143.572-.449.29-.134.793-.935-.102-1.428 2.116-.8.043-1.204.819-2.255-.086-.116-.537-.404-.341-1.141-.23-.674.272-.836 1.007-.18-2.227-.476.81.261 1.161-.189.401-.691.427-1.006-.094-.701-.674.557-.512-.342-.888.225-1.05-.755-.247-.26.598-1.087.145-.26-.23-.567.23-.188.426-.755.128-.35-.213-.333.256-1.042-.589-.117-.41-2.165-.622.216 1.33-.279 1.443-2.443.725-.467-.222v.47l-.414.512-.368-.017v.358l-.745-.418-1.222.153-.216.325-.638-.145-.629.358-.44-.512-.108-1.698.387-.213-.135-.495.521-.128-.072-.546.288.264.161-.35.458.23.19-.34-.54-.93.566-1.067-.494-1.16.961-.692-.072-1.245 1.042-.717-.269-.632.458-.238.602-.948.647-.204.467-.58-.665-.811-.17-.947-.72-.333.315-.29.243.128-.162-.512.638-.614.476-.086.494-.896-.692-.776.396-.742.27.145-.019-.649-.43-.29.511-.47-.009-.323.315-.18.26.683.35-.52 1.447-.914 1.042-.315.89.136.305-.512.206.222.36-.102.107-1.493-.889-.572.656-1.698.907.23.189 1.093.494.597.395-.418 1.519-.316.458 1.058.314.009.638 1.075.341-.111.027-.623.27.222.925-.256-.027-.282.557-.392.62.52.18-.145.215.324.27-.102-.036-.623 1.024-.41.234 1.442.503-.247-.09-.35 1.186-.554.018.69.629-.059.727.358L25.175 5l.144.52.755.17.036.35 1.24-.28 3.153.468.44-.819 1.383.034.297-.435 2.255.333.17-.341.459.367 1.042.085.781-1.724.512.086.252-.418 1.392-.154.216-1.169-.279-.358L39.72.57l1.356-.102.126.367.54-.103.367-.435 2.085.077z" stroke="#31313B" stroke-width=".4" mask="url(#a)"/></svg>