<svg width="44" height="30" fill="none" xmlns="http://www.w3.org/2000/svg"><mask id="a" fill="#fff"><path d="M1.228 7.811L1.3 6.463l.764-.486L3.6 3.647l.719-.503.305.017.584.921.629-.725 1.285-.717 1.14.564 1.141-.077.225.29.332-.503.701-.3 1.878 1.383 2.102.24.692-.231-.153-.982.952-.793-.054-.99.26-.23.441.085.898-.887 1.69.025.78.743.324 1.075-.143 1.408.997 1.63-.243.494.198.35 3.153.367.314.785 2.049 2.159 1.653-.709 1.428 1.434 1.285-1.007.503.82.629.093.7-.444.387.615 1.482.025.907 2.338 1.348.307 1.078-.34.674.724 1.823-.435.333 1.237 2.839 2.646.044 1.228-.251.76-2.839.017.162.64.548.622-.44.495-.117.683-1.15.162-.997-.358-.476.367-.198.631-.809.316-.547.153-1.537-.298-.215.486-1.231.222-.27.273-1.608.085-.404.435-2.515.376-2.093.75-.432-.136-.045-.862-.682.205-.548.947-1.698-.495-.27.359.207.46-.8-.085-1.006.589.135 1.92-.71.025-.862-.836-1.438.64-.08-.486-.647.077-.728.435-.341-.077-.27.358-2.29.12-.306.375-.225-.307-.224.375-.97-.034-1.896.76-.89.085-.09-.683-.35-.025-1.293-1.084.278-.512-.215-.546 1.087-.657-.54-1.962-1.374-.086-1.779.606-1.177-.136.234-.444-.548-.324-1.923.75-.907-.87.252-.554-.818-1.835.036-.606.692-.179.449.47.332-.01.405-1.006-1.267-2.09.988-.384-.314-1.144 1.266.145.63-.222.583-.332.198-.708-.62-.163.503-.571-.341-1.272.233-.332-1.42-1.306.288-.529-.808-.043-.252-1.151-1.096-1.4z"/></mask><path d="M1.228 7.811L1.3 6.463l.764-.486L3.6 3.647l.719-.503.305.017.584.921.629-.725 1.285-.717 1.14.564 1.141-.077.225.29.332-.503.701-.3 1.878 1.383 2.102.24.692-.231-.153-.982.952-.793-.054-.99.26-.23.441.085.898-.887 1.69.025.78.743.324 1.075-.143 1.408.997 1.63-.243.494.198.35 3.153.367.314.785 2.049 2.159 1.653-.709 1.428 1.434 1.285-1.007.503.82.629.093.7-.444.387.615 1.482.025.907 2.338 1.348.307 1.078-.34.674.724 1.823-.435.333 1.237 2.839 2.646.044 1.228-.251.76-2.839.017.162.64.548.622-.44.495-.117.683-1.15.162-.997-.358-.476.367-.198.631-.809.316-.547.153-1.537-.298-.215.486-1.231.222-.27.273-1.608.085-.404.435-2.515.376-2.093.75-.432-.136-.045-.862-.682.205-.548.947-1.698-.495-.27.359.207.46-.8-.085-1.006.589.135 1.92-.71.025-.862-.836-1.438.64-.08-.486-.647.077-.728.435-.341-.077-.27.358-2.29.12-.306.375-.225-.307-.224.375-.97-.034-1.896.76-.89.085-.09-.683-.35-.025-1.293-1.084.278-.512-.215-.546 1.087-.657-.54-1.962-1.374-.086-1.779.606-1.177-.136.234-.444-.548-.324-1.923.75-.907-.87.252-.554-.818-1.835.036-.606.692-.179.449.47.332-.01.405-1.006-1.267-2.09.988-.384-.314-1.144 1.266.145.63-.222.583-.332.198-.708-.62-.163.503-.571-.341-1.272.233-.332-1.42-1.306.288-.529-.808-.043-.252-1.151-1.096-1.4z" stroke="#31313B" stroke-width=".4" mask="url(#a)"/></svg>