<svg width="14" height="10" fill="none" xmlns="http://www.w3.org/2000/svg"><path d="M5.615 1.987l.402-.333.597 1.064.039.069.076-.022 1.24-.35 1.338.368.08.021.036-.073.528-1.061.61-.433 2.027.733.065.023.045-.053.652-.777.013.17-.613.77-.02.027-.002.033-.018.594-.062.645-.005.05.038.034.717.64-.163 1.813-.111.096-.537-.216-.048-.02-.044.029-.601.396-.597-.267-.066-.03-.048.053-.252.273-.033.036.008.048.136.84-.272.299-.236-.043-.023-.035.165-.022.18-.024-.116-.14-.243-.29-.05-.06-.07.035-.345.167-.301-.441-.086-.125-.081.127-1.771 2.756-.509.216-.468-.282-.06-.036-.055.045-.402.328-1.384-.309-.926-.782-.008-.424-.002-.074-.07-.02-.684-.201-.188-.41-.026-.058-.062-.001-1.375-.034-.108-.003.006.109.008.139-.667-.314-.244-.547.084-.799.495-.652.025-.032-.005-.04-.091-.77 1.478-.838.031-.017.013-.034.332-.856 2.645-.678L5.598 2l.017-.014z" stroke="#31313B" stroke-width=".2"/></svg>