<svg width="123" height="165" fill="none" xmlns="http://www.w3.org/2000/svg"><mask id="a" fill="#fff"><path d="M59.81 77.115l-.27 1.647-.44.486-.988-.017-1.311.725-.629-.051-3.746 2.773-.638 1.459-.485-1.22 1.15-.487 1.096-2.414.063-.999 1.078-1.34-.1-.306 2.426-1.033.602-.768 1.267-.716.027.554.279.12.026.623.593.964zm61.727-34.13l-.961-.444-.782.213.018.563.323.128-1.625 1.587-1.097-1.16-.727-.034-.387.367-.071 2.116-.827.034-.341.333.036.674-1.024.87-.539.094-1.061-1.015-.907.503-.144.358 1.249.751.207.7-.539.299-.818-.615-.683-.128 1.096.657-.934.751-.225.53-.835-.112-.719-.554-.359.136.171.606.467.367-.854.367.611-.103-.018.777.414-.324.107.34-.494.487-.763.026-1.519-1.135-.161.154.763.537.494 1.118-.503.316-.512 1.117-.413-.64-.234.12.045.52-.332.214-.611-.009-.207-.29-.467.145-.619.725.224.418-.18.333-.682.017-.818.615v.614l-3.405 1.596-.772 1.023-.575-.06.072.444-.279.197.467.187-.045.512-.727.248-.369.426-.584 3.405-.7.452-1.195-.47.162-.528-1.24-.674-.647-2.065-.539-.342-.305-1.612-2.058-1.45-2.039-.564-2.04-.102-.466.281-1.06-.631-1.15-.051-1.959.495-1.293.708-.549-.324-.116.75-.27-.145-.691.495-1.204.316-1.42.913-.638-.256-.377-.512.144 1.084-.62.17-.566.845-.422.068.197.111-.745 1.365-2.058 2.219-.781 1.365-1.23.145-.118-.188.575-1.996.153-1.775.512-.358.153-.47-.377-2.133.862-.571-.09-.606-.647-.103-1.05.53-.63.827-1.105.52-.503.623-2.39 1.195-1.032 1.015-.378-.298-.844.153.072.478.476-.333.386.086-.18.588.54.512-.369.256-.458 1.289-.871.324-.737.674-.377-.435-.126-1.374-.386-.853-.602-.248-.315-.597-.8-.47-.808.428.108.972-.827.342-.52.614.008.324.504.41-.845-.111-.117-.376 1.105-1.066-.53.06-.7-.538-1.106.222-.368.307-.692 1.4-.27-.265-.933-.068-.908 1.706.225 1.57-.36.341-.853.154-.234.563.09.572.836 1.015v1.374l-1.653.392.09.862.907.512.135.657-1.402-.819-.808.307.656 1.416.395.146-.189.41-1.401.827-.198.64-1.204.717-1.024 1.015-2.138 3.959-.836 2.995.27 1.775.674 1.1 1.922.768-.557 1.306.656-.248.521-.768-.215-1.365.386-.657.907-.264 2.255 1.493 1.06.025.692 1.058-.602.7-.027.862-.512.222-.314.972-1.222.572-.71.777-.189 1.348.557 2.329-.494 2.952.98.922-.755-.324.719.341.952-.572.377.179.692-.162-.027.316.35.256-.323.785.242.546-.152 1.451.673 1.228.055 1.553-1.177.555-1.007 1.408-1.347-.649-1.16-1.749.495-.486.207-.802 1.293-.376v-.375l.845-.478.224-.683-.242-.145-.44-.145-.207.222-.404 1.109-1.294-.716-.898.699-.998.299-.035.341.8.452-.028.316.297-.017.161.41-2.551 1.22-.835.716.008.666-2.102 5.051-.099 1.673.297 1.971.61 1.578 1.789 2.295-.324.359.216.708-.898.597-1.95 2.039-1.383-.145-1.25.35-.556-.443.009-.598-.467-.128-1.977.41-2.21 1.442-1.275 1.391-1.007.623-.853 1.177-.871 2.679-.036 1.886.62.828.062.981-.125.222-.593-.282-.09-.392-.369.29.44.247.028.845.476.196-.045.589h.395l-.458.725.288.469.09-.418.35-.102-.126.341.413.853-.162.47-1.877-1.084.692-.674-.243-.06-.62.572-.907-.324-.674.264-.512.76-.377-.18-1.537.606-1.32.956-1.195 1.331-.126-.939-.467-.733-.503-.103-.736.444-.054.384.377.162-.36.137.135.58.764.025-.099-.221.62-.06-.01.461-.25.051.34.239-.52.674-.458-.179-.072.204.045.359.736.435-.431.426.099.248-.288.111-.745-.35.143.503.728.692-.197.315.188.196-.826.726.7-.29.342.196-.108.512-.386.213.413.103.063.281-1.051.785.125.546-.242.435-.162-.145-.296.231.144.495-.378.597.036.469-1.087 1.519-.494.239-.773 1.536-.898.733-1.32.504-.8 1.51-.431.009-.755 1.203-1.078.691-2.767 2.739.71-1.203-.072-.802-.36-.111.081-1.041-1.078-.862-.404-2.304.108-2.952-.297-3.567-2.003-6.723-.925-7.492-1.69-8.686-1.185-8.643.629-7.867.61-1.502 1.59-6.408.818-1.391.432-.23-.683.811.772-.41.153-.683 1.608-1.117.44-.768.054-.845.764.461.413-.128v-.427l1.626-3.242.108-1.118-.27-1.22-.556-1.152-.638-.248.485-.844.35-.026.638-.657.314.657.791.307.827.086.87-.282.594-.41.36-.802-.082-.426.575-.487.081-.486 2.075.427v-.23h.836l1.24-.811 2.219-2.219 2.65-1.928.718-1.177 2.22-2.313.655-1.305.288.068.27-.316.25-1.05-.269-.375.944-1.826.87-.682 1.268-1.664.745-.145.674-.683.503-1.894 2.48-.768.404-.998 1.087-.691 1.006-1.084 1.491-2.33 1.779-.98.97-1.059.153-1.049-.341-.145.395-1.434.539-.145.36-.64.044.273.44-.23.27-.495 1.32-.247.674-.785 1.213.025.602-.563.683-1.34.629-.255.79.307-.018-.324.422-.35.935.077-.018.554.512-.75 1.446-.683.961.426-.53-.239.477-.836-1.788-1.083.116-.316.638-.282.045-.69.315-.368 1.77-1.177.53-1.442-.674-1.16-.638-.077-.35.34-.153-.647.647-1.297.134-1.041 1.204-.453.153-1.535-.207-.521.324-.657-.162-1.195.296-.469-.215-.972.332-.487.18-1.843 1.824-1.126.557-1.1 1.302-.18.872.418 1.67.18-.242-.436.764-.299.161-.315-.862.034-1.85-1.033-.252.171-1.051-1.63-1.096-.196-1.06.418-1.51.12-.79.938-.872-.324-3.153 1.015-.314 1.058-.782.461.584-.12.162.547.871.58-.862.239-.045.4-1.096.828.476 1.238-.207.69.53.197-.826 1.246-.036.836-.53 1.203.602.614 1.707.666-.027.58-.728.265.018.478-.27-.308-.458.163-.242.46.278.41-.52.435-.477-.836-.719-.299.566-.546-.646-.862-1.348.632.099.469.7.043.1.41-2.12-1.016.188-.82-.665-.64-.566-1.347.377-.342.477.077.853-.964-.323-.904-1.474-.29-.458-.444.144-.52 1.994-.607 1.438-.913.018-1.561.278-.768-.764-1.45.8-.692.153-.597-1.51-.631.486-.666-1.474-1.348-.934-.23-.063-.768.45-1.835.43-.512.54.24.646-.171.602-.845.79-.341.055-.316-.548-.512.314-.666L47 22.217l.997-.325 1.087-1.476-.063-1.066-.404-.692-.683-.273-.036-.588-.629-.478.62-1.46.548-.443-.09-1.74-.736-1.16.161-.684.782-.529 1.42-.179.52-.418-.341-.418.099-.384 1.67-1.16.019-.453-.62-.674.009-.614-1.15-1.135-.045-1.817-.036-.572-.485-.47.036-.503.323-.23.692.12L52.066.57l.396.324.772.068.521.46 1.105-.042.593-.495.845.009 2.56 1.792.773.008 1.078 1.707.52-.376-.305-1.211.288-.504 1.033-.333.593.214.521 1.075 2.372.128.763 1.775-.242.836.458.264.71-.145.664-.904 1.878.495 1.06 1.134 1.06-.315.8.136 1.042-.41.664-.92.44-.137.989 1.698.665.69 1.024.496.09 1.373.43.18.908-.29.117.716.593.188 1.006-.247.629-.555.35.23 1.231-.281.234 1.152.43.58 1.267.273.495 2.406.925 1.05 1.563.145.611.298-.063.802.925.538.728 2.628-.431.58.072.341-.683.546-1.105.265-1.105 1.4-.871.315-.288.76-.52.34.008.956-.79.854-.809.162-.225.452-.62.23-.071.598 1.68.921.43.632 1.133.443 1.006-.23 3.018 2.116.764 1.271.593-.025.557.511.692.052.26.717-.188.972.655.649-.161.537.503.555.251 1.305.386.316.854-.708 3.072 1.05.189-.453 1.114-.162.027-.512.611-.077.215-.589.378-.179.215.145-.09.81.692-.477.225.06-.135.614 2.893-.973.449-.759 1.222-.631.772.307.315.554 1.051-.042.386-.367.863-.18 1.203.444.755.623 2.003-1.263 3.818-1.228.701.213.306.572.817.06.566.418.323.998-1.077 1.194.673.376.135 1.578.44.308.764-.18.269 1.093.521.41.153.81.458.384-.081.614-.844.316zm-49.248 82.97l-1.186-1.161.117-.443-.593.068-.171-.265-.054.239-.566-.921-.71-.452-1.275-2.901-1.447-.606 1.447-.845.952.452.818-.085.278.307-.377.376.027.955 1.266 2.278.97.529.324.512.18 1.963z"/></mask><path d="M59.81 77.115l-.27 1.647-.44.486-.988-.017-1.311.725-.629-.051-3.746 2.773-.638 1.459-.485-1.22 1.15-.487 1.096-2.414.063-.999 1.078-1.34-.1-.306 2.426-1.033.602-.768 1.267-.716.027.554.279.12.026.623.593.964zm61.727-34.13l-.961-.444-.782.213.018.563.323.128-1.625 1.587-1.097-1.16-.727-.034-.387.367-.071 2.116-.827.034-.341.333.036.674-1.024.87-.539.094-1.061-1.015-.907.503-.144.358 1.249.751.207.7-.539.299-.818-.615-.683-.128 1.096.657-.934.751-.225.53-.835-.112-.719-.554-.359.136.171.606.467.367-.854.367.611-.103-.018.777.414-.324.107.34-.494.487-.763.026-1.519-1.135-.161.154.763.537.494 1.118-.503.316-.512 1.117-.413-.64-.234.12.045.52-.332.214-.611-.009-.207-.29-.467.145-.619.725.224.418-.18.333-.682.017-.818.615v.614l-3.405 1.596-.772 1.023-.575-.06.072.444-.279.197.467.187-.045.512-.727.248-.369.426-.584 3.405-.7.452-1.195-.47.162-.528-1.24-.674-.647-2.065-.539-.342-.305-1.612-2.058-1.45-2.039-.564-2.04-.102-.466.281-1.06-.631-1.15-.051-1.959.495-1.293.708-.549-.324-.116.75-.27-.145-.691.495-1.204.316-1.42.913-.638-.256-.377-.512.144 1.084-.62.17-.566.845-.422.068.197.111-.745 1.365-2.058 2.219-.781 1.365-1.23.145-.118-.188.575-1.996.153-1.775.512-.358.153-.47-.377-2.133.862-.571-.09-.606-.647-.103-1.05.53-.63.827-1.105.52-.503.623-2.39 1.195-1.032 1.015-.378-.298-.844.153.072.478.476-.333.386.086-.18.588.54.512-.369.256-.458 1.289-.871.324-.737.674-.377-.435-.126-1.374-.386-.853-.602-.248-.315-.597-.8-.47-.808.428.108.972-.827.342-.52.614.008.324.504.41-.845-.111-.117-.376 1.105-1.066-.53.06-.7-.538-1.106.222-.368.307-.692 1.4-.27-.265-.933-.068-.908 1.706.225 1.57-.36.341-.853.154-.234.563.09.572.836 1.015v1.374l-1.653.392.09.862.907.512.135.657-1.402-.819-.808.307.656 1.416.395.146-.189.41-1.401.827-.198.64-1.204.717-1.024 1.015-2.138 3.959-.836 2.995.27 1.775.674 1.1 1.922.768-.557 1.306.656-.248.521-.768-.215-1.365.386-.657.907-.264 2.255 1.493 1.06.025.692 1.058-.602.7-.027.862-.512.222-.314.972-1.222.572-.71.777-.189 1.348.557 2.329-.494 2.952.98.922-.755-.324.719.341.952-.572.377.179.692-.162-.027.316.35.256-.323.785.242.546-.152 1.451.673 1.228.055 1.553-1.177.555-1.007 1.408-1.347-.649-1.16-1.749.495-.486.207-.802 1.293-.376v-.375l.845-.478.224-.683-.242-.145-.44-.145-.207.222-.404 1.109-1.294-.716-.898.699-.998.299-.035.341.8.452-.028.316.297-.017.161.41-2.551 1.22-.835.716.008.666-2.102 5.051-.099 1.673.297 1.971.61 1.578 1.789 2.295-.324.359.216.708-.898.597-1.95 2.039-1.383-.145-1.25.35-.556-.443.009-.598-.467-.128-1.977.41-2.21 1.442-1.275 1.391-1.007.623-.853 1.177-.871 2.679-.036 1.886.62.828.062.981-.125.222-.593-.282-.09-.392-.369.29.44.247.028.845.476.196-.045.589h.395l-.458.725.288.469.09-.418.35-.102-.126.341.413.853-.162.47-1.877-1.084.692-.674-.243-.06-.62.572-.907-.324-.674.264-.512.76-.377-.18-1.537.606-1.32.956-1.195 1.331-.126-.939-.467-.733-.503-.103-.736.444-.054.384.377.162-.36.137.135.58.764.025-.099-.221.62-.06-.01.461-.25.051.34.239-.52.674-.458-.179-.072.204.045.359.736.435-.431.426.099.248-.288.111-.745-.35.143.503.728.692-.197.315.188.196-.826.726.7-.29.342.196-.108.512-.386.213.413.103.063.281-1.051.785.125.546-.242.435-.162-.145-.296.231.144.495-.378.597.036.469-1.087 1.519-.494.239-.773 1.536-.898.733-1.32.504-.8 1.51-.431.009-.755 1.203-1.078.691-2.767 2.739.71-1.203-.072-.802-.36-.111.081-1.041-1.078-.862-.404-2.304.108-2.952-.297-3.567-2.003-6.723-.925-7.492-1.69-8.686-1.185-8.643.629-7.867.61-1.502 1.59-6.408.818-1.391.432-.23-.683.811.772-.41.153-.683 1.608-1.117.44-.768.054-.845.764.461.413-.128v-.427l1.626-3.242.108-1.118-.27-1.22-.556-1.152-.638-.248.485-.844.35-.026.638-.657.314.657.791.307.827.086.87-.282.594-.41.36-.802-.082-.426.575-.487.081-.486 2.075.427v-.23h.836l1.24-.811 2.219-2.219 2.65-1.928.718-1.177 2.22-2.313.655-1.305.288.068.27-.316.25-1.05-.269-.375.944-1.826.87-.682 1.268-1.664.745-.145.674-.683.503-1.894 2.48-.768.404-.998 1.087-.691 1.006-1.084 1.491-2.33 1.779-.98.97-1.059.153-1.049-.341-.145.395-1.434.539-.145.36-.64.044.273.44-.23.27-.495 1.32-.247.674-.785 1.213.025.602-.563.683-1.34.629-.255.79.307-.018-.324.422-.35.935.077-.018.554.512-.75 1.446-.683.961.426-.53-.239.477-.836-1.788-1.083.116-.316.638-.282.045-.69.315-.368 1.77-1.177.53-1.442-.674-1.16-.638-.077-.35.34-.153-.647.647-1.297.134-1.041 1.204-.453.153-1.535-.207-.521.324-.657-.162-1.195.296-.469-.215-.972.332-.487.18-1.843 1.824-1.126.557-1.1 1.302-.18.872.418 1.67.18-.242-.436.764-.299.161-.315-.862.034-1.85-1.033-.252.171-1.051-1.63-1.096-.196-1.06.418-1.51.12-.79.938-.872-.324-3.153 1.015-.314 1.058-.782.461.584-.12.162.547.871.58-.862.239-.045.4-1.096.828.476 1.238-.207.69.53.197-.826 1.246-.036.836-.53 1.203.602.614 1.707.666-.027.58-.728.265.018.478-.27-.308-.458.163-.242.46.278.41-.52.435-.477-.836-.719-.299.566-.546-.646-.862-1.348.632.099.469.7.043.1.41-2.12-1.016.188-.82-.665-.64-.566-1.347.377-.342.477.077.853-.964-.323-.904-1.474-.29-.458-.444.144-.52 1.994-.607 1.438-.913.018-1.561.278-.768-.764-1.45.8-.692.153-.597-1.51-.631.486-.666-1.474-1.348-.934-.23-.063-.768.45-1.835.43-.512.54.24.646-.171.602-.845.79-.341.055-.316-.548-.512.314-.666L47 22.217l.997-.325 1.087-1.476-.063-1.066-.404-.692-.683-.273-.036-.588-.629-.478.62-1.46.548-.443-.09-1.74-.736-1.16.161-.684.782-.529 1.42-.179.52-.418-.341-.418.099-.384 1.67-1.16.019-.453-.62-.674.009-.614-1.15-1.135-.045-1.817-.036-.572-.485-.47.036-.503.323-.23.692.12L52.066.57l.396.324.772.068.521.46 1.105-.042.593-.495.845.009 2.56 1.792.773.008 1.078 1.707.52-.376-.305-1.211.288-.504 1.033-.333.593.214.521 1.075 2.372.128.763 1.775-.242.836.458.264.71-.145.664-.904 1.878.495 1.06 1.134 1.06-.315.8.136 1.042-.41.664-.92.44-.137.989 1.698.665.69 1.024.496.09 1.373.43.18.908-.29.117.716.593.188 1.006-.247.629-.555.35.23 1.231-.281.234 1.152.43.58 1.267.273.495 2.406.925 1.05 1.563.145.611.298-.063.802.925.538.728 2.628-.431.58.072.341-.683.546-1.105.265-1.105 1.4-.871.315-.288.76-.52.34.008.956-.79.854-.809.162-.225.452-.62.23-.071.598 1.68.921.43.632 1.133.443 1.006-.23 3.018 2.116.764 1.271.593-.025.557.511.692.052.26.717-.188.972.655.649-.161.537.503.555.251 1.305.386.316.854-.708 3.072 1.05.189-.453 1.114-.162.027-.512.611-.077.215-.589.378-.179.215.145-.09.81.692-.477.225.06-.135.614 2.893-.973.449-.759 1.222-.631.772.307.315.554 1.051-.042.386-.367.863-.18 1.203.444.755.623 2.003-1.263 3.818-1.228.701.213.306.572.817.06.566.418.323.998-1.077 1.194.673.376.135 1.578.44.308.764-.18.269 1.093.521.41.153.81.458.384-.081.614-.844.316zm-49.248 82.97l-1.186-1.161.117-.443-.593.068-.171-.265-.054.239-.566-.921-.71-.452-1.275-2.901-1.447-.606 1.447-.845.952.452.818-.085.278.307-.377.376.027.955 1.266 2.278.97.529.324.512.18 1.963z" stroke="#31313B" stroke-width=".4" mask="url(#a)"/></svg>