<svg width="35" height="31" fill="none" xmlns="http://www.w3.org/2000/svg"><mask id="a" fill="#fff"><path d="M34.352 21.73l-1.096.777.637.648.072.734-.539 1.118h-.584l-.503.921-.718-.128-.423-.716-2.3-.598-.512.188-.053 1.28-.737.273-.611 1.527-.045 1.681-.341-.239-.584.367-2.085-.571-.916.136-.61 1.544-.387-.11-.458-.845-.961-.589-2.812-3.157-1.671-1.305-.243-.555-.853-.299-.476-.716-3.8-1.16-.989-1.136.108-.221-.521.076-.521-.546.063-.307-.719-.58.063.47-.476.255-1.644-.384-.674-.554-.52-1.135.116-.316-.503-.546-2.156-.99-1.078-.034-.89-.742 2.543-.802.027-.333-1.276.205-.216-.632.234.188.35-.213-.593-.307.135-.24.458-.076 2.381 1.032 1.437-.12.62-.375.387-.768.053-1.62 1.41-.803.908-2.449.899-.179-.297.76.26.162.504-1.45.377-.368 1.383.999.791.042-.08-.665-1.43-.836-1.32-1.477-.916-.29-.054.401-.485-.384-1.213-2.483.611.367 1.15.103 1.878-.947.215.665 1.168.213.575-.213-.099-.512-1.123-.256.108-.648.503-.487.305.214.728-.145.099.358 1.365-.026-.575 1.246v.589l.45-.503 1.347.102.647-.58.072-.572 1.249-.674.485.35 3.018.298.638.461-.44 1.476 1.347.572.387.836-.225.46.593.692h2.426l.673.486 1.204-.435.18 1.144.7.443.611 1.118-.134.631.61.453.18.836h-.494l-.44.785-.683-.299-1.006.188-.197 1.084.628.383.611.897.252 1.587 2.21.256-.018.759.8 1.05 1.257.64.072.852-.827.973-.7.256.485.802 1.797 1.238zm-13.296 1.8l.907 1.195.961-.503-.036-1.067h-.395l-.296-.537-.45.017-.332-.324.225-.683-.35-1.126.511-.46-.018-.632.854-.53-.602-.4.332-.333-.143-.478-.548-.188.197-.486-1.087-.068-.584-.487-.575 1.698-1.042.316-1.698-.324-.997.102-1.23-.486-.594-.589-.754-.12-.198-.375.395-.486.432.375.718-.12.926.547 1.491-.085 1.815-.768.97-.734 1.051.17.602.521.997.341.728-.341 1.024.06 1.293 1.024 2.022 4.308-.584.222-.827-2.167-.44-.392-.629.05-.476 1.315.925 1.954-.538 1.459.422 1.57-.342 1.075-.898.734-2.273-1.323-1.33.085-.538-.443.601-.265-.152-.46.485-.205-.521-.862.593-.29z"/></mask><path d="M34.352 21.73l-1.096.777.637.648.072.734-.539 1.118h-.584l-.503.921-.718-.128-.423-.716-2.3-.598-.512.188-.053 1.28-.737.273-.611 1.527-.045 1.681-.341-.239-.584.367-2.085-.571-.916.136-.61 1.544-.387-.11-.458-.845-.961-.589-2.812-3.157-1.671-1.305-.243-.555-.853-.299-.476-.716-3.8-1.16-.989-1.136.108-.221-.521.076-.521-.546.063-.307-.719-.58.063.47-.476.255-1.644-.384-.674-.554-.52-1.135.116-.316-.503-.546-2.156-.99-1.078-.034-.89-.742 2.543-.802.027-.333-1.276.205-.216-.632.234.188.35-.213-.593-.307.135-.24.458-.076 2.381 1.032 1.437-.12.62-.375.387-.768.053-1.62 1.41-.803.908-2.449.899-.179-.297.76.26.162.504-1.45.377-.368 1.383.999.791.042-.08-.665-1.43-.836-1.32-1.477-.916-.29-.054.401-.485-.384-1.213-2.483.611.367 1.15.103 1.878-.947.215.665 1.168.213.575-.213-.099-.512-1.123-.256.108-.648.503-.487.305.214.728-.145.099.358 1.365-.026-.575 1.246v.589l.45-.503 1.347.102.647-.58.072-.572 1.249-.674.485.35 3.018.298.638.461-.44 1.476 1.347.572.387.836-.225.46.593.692h2.426l.673.486 1.204-.435.18 1.144.7.443.611 1.118-.134.631.61.453.18.836h-.494l-.44.785-.683-.299-1.006.188-.197 1.084.628.383.611.897.252 1.587 2.21.256-.018.759.8 1.05 1.257.64.072.852-.827.973-.7.256.485.802 1.797 1.238zm-13.296 1.8l.907 1.195.961-.503-.036-1.067h-.395l-.296-.537-.45.017-.332-.324.225-.683-.35-1.126.511-.46-.018-.632.854-.53-.602-.4.332-.333-.143-.478-.548-.188.197-.486-1.087-.068-.584-.487-.575 1.698-1.042.316-1.698-.324-.997.102-1.23-.486-.594-.589-.754-.12-.198-.375.395-.486.432.375.718-.12.926.547 1.491-.085 1.815-.768.97-.734 1.051.17.602.521.997.341.728-.341 1.024.06 1.293 1.024 2.022 4.308-.584.222-.827-2.167-.44-.392-.629.05-.476 1.315.925 1.954-.538 1.459.422 1.57-.342 1.075-.898.734-2.273-1.323-1.33.085-.538-.443.601-.265-.152-.46.485-.205-.521-.862.593-.29z" stroke="#31313B" stroke-width=".4" mask="url(#a)"/></svg>