<svg width="57" height="84" fill="none" xmlns="http://www.w3.org/2000/svg"><mask id="a" fill="#fff"><path d="M36.281 28.583l-.88.401.512.24.17.724.45.256-.027.393.377.35-1.222 1.263.71.486.395-.154.144 1.033.458.222.512-.18.1.922 1.31.162-.098.589.512.179.88-.597.333.213.287-.384-.27-.563.881.401.18.444.377-.017.377.46.27.435-.198.427.521.666.53-.444 1.213 1.143-.332.325v.503l.52.213-.107.794.216.29 1.132.034.053.256.908.23-.17.53.502 1.723-1.644 2.235-1.114-.298-.512.316-1.213-.18 1.842 2.466.08 1.101.684.665.099.444-.53.666.215.213.79-.35-.08.495-.809 1.007.18 1.527 1.985 2.705 2.866 1.664 1.824-.307.638.23.736 1.1.09 2.262-.494 1.51-.458.026.063.529.575.674.871-.137.279.273.727 1.698-.063.674.656.495.036.93-.629 1.51.512.504-.036.273-.862.964-.063 1.8-2.542.342-.566-.282-.378-.606-.377.026-.746-.512-.79.324-.44.734-1.267-.46-1.437 2.167-5.103 2.721-.467-.469-.719.862-.252-.051-.664-.444.018-1.356-1.24.716-2.273-1.1-1.913 1.245-.216 1.16-1.698-1.484-.521.23-2.29-.273-1.95 1.016.197.52.98.726.763-.419.836.359-.728 1.715-.234.239-1.14-.717-.854-.094v.555l-.7.341-.899.93-.404 1.126-.566.316-.548-.12-1.123 1.434-.97-.06L5.26 77.457l-.764-.042-.898-.572h-1.06l-.45-.734-.862-.341-.7-.81 1.158-1.502.01-.453.862-.162 1.491-2.355 1.087-.955.278-.785L6.94 67.21l-.018-.358 1.913-2.313.297-.819 1.931-1.45-.09-.29 1.41-1.502 2.705-6.135-.8-1.604-1.159-1.075-.305-1.528-2.875-2.483-1.797-.725-3.377-4.019 1.742-.964 1.59-2.67.369-1.34-.53-1.186.251-.324-.18-.495-.745-.316-.674-.845-.934-.307-.431-.64.099-.785-.378-1.408.081-.478.782-.853-.638-1.075.296-.7-.287-.221-1.896.034-.43-.427-.333-1.015-.234-1.442.189-1.016.7-.443.692.034.315-.239-.405-.486.44-.82-.116-.273-1.42-.213-.314-.341L3.4 20.443l-.17-1.937.87-1.459-.924-.93 1.751-.921.764.358.018-1.032-.341-2.543-1.07-3.507-1.545-2.32-.503-2.049-1.14-2.457 2.416-.537 2.183.145 2.614-.24.899-.306 2.56.17 1.841-.23-.062.298 1.473.086.117 1.604.916.384.719 1.766 2.812.094.197-.282-.18-.802.989.333-1.07-.887 1.402-.145.26-1.52.261-.178 1.716.222 2.174.785-1.958.213 1.096.29 1.186-.324.43.315-.197.094.17.367.53.248.917.247.162-.486h.377l-.278.537.997.444-1.428.333 1.185.836-1.302.077-2.965 1.117 1.554-.256.638-.469.494-.025.036.238 1.015-.281.189.12-.315.383 1.348.12.072.35.71.213-.126.478.476-.376.97-.042.485.554-.215.376.431-.086-.036.205-.009-.367.225.043.467.47-.117.178.305-.042 1.141.887.135.555.252-.103.17.222v.41l.593.341.1.324-.315.069-.1.537.27.102-.188.222.152.461.225-.384.674.17.153.36-.207.52-.485.128.647.247-.782-.17-.512.417.242.077-.143.29.26.461-.224.512.323-.239.315.299-.638.4.404.035.44 1.058-.144.222-.242-.248.009.922-.665.572.252.733-.504.214-.727-.171.287.52-1.096-.102.521.597-.512-.221-.512.153 1.384.623-.315.299.18.955.413-.11-.054.545.423-.145.323.41-.297.034.62.614-.386.145.288.922.682.102-.251.52.215.095-.08.384.188-.154-.153.316.342-.376-.099.29-.853.538.593.111.34.785.082-.23.323.238-.08.316.53.589-.513.87z"/></mask><path d="M36.281 28.583l-.88.401.512.24.17.724.45.256-.027.393.377.35-1.222 1.263.71.486.395-.154.144 1.033.458.222.512-.18.1.922 1.31.162-.098.589.512.179.88-.597.333.213.287-.384-.27-.563.881.401.18.444.377-.017.377.46.27.435-.198.427.521.666.53-.444 1.213 1.143-.332.325v.503l.52.213-.107.794.216.29 1.132.034.053.256.908.23-.17.53.502 1.723-1.644 2.235-1.114-.298-.512.316-1.213-.18 1.842 2.466.08 1.101.684.665.099.444-.53.666.215.213.79-.35-.08.495-.809 1.007.18 1.527 1.985 2.705 2.866 1.664 1.824-.307.638.23.736 1.1.09 2.262-.494 1.51-.458.026.063.529.575.674.871-.137.279.273.727 1.698-.063.674.656.495.036.93-.629 1.51.512.504-.036.273-.862.964-.063 1.8-2.542.342-.566-.282-.378-.606-.377.026-.746-.512-.79.324-.44.734-1.267-.46-1.437 2.167-5.103 2.721-.467-.469-.719.862-.252-.051-.664-.444.018-1.356-1.24.716-2.273-1.1-1.913 1.245-.216 1.16-1.698-1.484-.521.23-2.29-.273-1.95 1.016.197.52.98.726.763-.419.836.359-.728 1.715-.234.239-1.14-.717-.854-.094v.555l-.7.341-.899.93-.404 1.126-.566.316-.548-.12-1.123 1.434-.97-.06L5.26 77.457l-.764-.042-.898-.572h-1.06l-.45-.734-.862-.341-.7-.81 1.158-1.502.01-.453.862-.162 1.491-2.355 1.087-.955.278-.785L6.94 67.21l-.018-.358 1.913-2.313.297-.819 1.931-1.45-.09-.29 1.41-1.502 2.705-6.135-.8-1.604-1.159-1.075-.305-1.528-2.875-2.483-1.797-.725-3.377-4.019 1.742-.964 1.59-2.67.369-1.34-.53-1.186.251-.324-.18-.495-.745-.316-.674-.845-.934-.307-.431-.64.099-.785-.378-1.408.081-.478.782-.853-.638-1.075.296-.7-.287-.221-1.896.034-.43-.427-.333-1.015-.234-1.442.189-1.016.7-.443.692.034.315-.239-.405-.486.44-.82-.116-.273-1.42-.213-.314-.341L3.4 20.443l-.17-1.937.87-1.459-.924-.93 1.751-.921.764.358.018-1.032-.341-2.543-1.07-3.507-1.545-2.32-.503-2.049-1.14-2.457 2.416-.537 2.183.145 2.614-.24.899-.306 2.56.17 1.841-.23-.062.298 1.473.086.117 1.604.916.384.719 1.766 2.812.094.197-.282-.18-.802.989.333-1.07-.887 1.402-.145.26-1.52.261-.178 1.716.222 2.174.785-1.958.213 1.096.29 1.186-.324.43.315-.197.094.17.367.53.248.917.247.162-.486h.377l-.278.537.997.444-1.428.333 1.185.836-1.302.077-2.965 1.117 1.554-.256.638-.469.494-.025.036.238 1.015-.281.189.12-.315.383 1.348.12.072.35.71.213-.126.478.476-.376.97-.042.485.554-.215.376.431-.086-.036.205-.009-.367.225.043.467.47-.117.178.305-.042 1.141.887.135.555.252-.103.17.222v.41l.593.341.1.324-.315.069-.1.537.27.102-.188.222.152.461.225-.384.674.17.153.36-.207.52-.485.128.647.247-.782-.17-.512.417.242.077-.143.29.26.461-.224.512.323-.239.315.299-.638.4.404.035.44 1.058-.144.222-.242-.248.009.922-.665.572.252.733-.504.214-.727-.171.287.52-1.096-.102.521.597-.512-.221-.512.153 1.384.623-.315.299.18.955.413-.11-.054.545.423-.145.323.41-.297.034.62.614-.386.145.288.922.682.102-.251.52.215.095-.08.384.188-.154-.153.316.342-.376-.099.29-.853.538.593.111.34.785.082-.23.323.238-.08.316.53.589-.513.87z" stroke="#31313B" stroke-width=".4" mask="url(#a)"/></svg>