<svg width="39" height="31" fill="none" xmlns="http://www.w3.org/2000/svg"><mask id="a" fill="#fff"><path d="M13.345 7.16l-.108-1.143.252-.785 1.958-1.11-.009-.716.656-.307.961.46.611-.025.719-.794.216-.435-1.276-.614.162-.708.485-.555 1.195.316-.18.913.225.247.943-.41.323.342.503-.034.413-.213-.242-.453.162-.307.584-.008 1.293.546.458-.214 1.608 1.22.593-.221.602.196-.09 1.485 1.743 2.073 2.318 1.775 1.779-1.86.997.281-.233.376-.827.358-.746.905 2.13 3.737.502.179.459.896.7.068.908 1.229-.252.768-1.087.452-.368.554-.063.948-1.258.076-1.204 1.093.908.503.736.051.279.376.036.921.278.188 1.797-.376.207.359-1.545 3.123-.836 1.1 1.94.043 1.15-.418 1.285.213-.467.794.602.512-.521 2.918-.872-.964.342 1.117-.35.154.125.401-.503.691-.377-.128-.925 1.442-.44-.503-.477.495-.099-.299-.395-.094-.952.367-1.267-.503-1.078-.862-3.584-.563-.773.23-.862-1.203-.746-.503-3.28-1.442-.502-.52-2.839-.743-1.393-1.408-1.078-1.894-2.048-.751-1.518-.145-.826-.768-2.085-.81-.629-.59-.853 1.178-.764.154-.835.708-1.518.188.125-1.28-.646-.18-.324.043.18.623-.386.358.125.657-.251.103-1.168-.555-1.554-.102.117-.35-.504-.922.234-.315.54-.188.637.375.656-.46-.081-.81.62-.317.781.188.315-.29-.755-1.05-.296-.708.152-.145 2.273.913.7.683 1.043.452 1.725-.452 2.803 2.133 1.42-.026.907-2.107.458.358.036.64.682-.341.144-.23-.476-1.084.279-.708-.746-.256 1.707-2.21.395.025.728-.64.054-1.194.44-1.28.08-2.44-.727-.418.18-.35-.53-.086-.225.922-1.114.418-.26.99-.324-.017-.53-.248-.602-1.442z"/></mask><path d="M13.345 7.16l-.108-1.143.252-.785 1.958-1.11-.009-.716.656-.307.961.46.611-.025.719-.794.216-.435-1.276-.614.162-.708.485-.555 1.195.316-.18.913.225.247.943-.41.323.342.503-.034.413-.213-.242-.453.162-.307.584-.008 1.293.546.458-.214 1.608 1.22.593-.221.602.196-.09 1.485 1.743 2.073 2.318 1.775 1.779-1.86.997.281-.233.376-.827.358-.746.905 2.13 3.737.502.179.459.896.7.068.908 1.229-.252.768-1.087.452-.368.554-.063.948-1.258.076-1.204 1.093.908.503.736.051.279.376.036.921.278.188 1.797-.376.207.359-1.545 3.123-.836 1.1 1.94.043 1.15-.418 1.285.213-.467.794.602.512-.521 2.918-.872-.964.342 1.117-.35.154.125.401-.503.691-.377-.128-.925 1.442-.44-.503-.477.495-.099-.299-.395-.094-.952.367-1.267-.503-1.078-.862-3.584-.563-.773.23-.862-1.203-.746-.503-3.28-1.442-.502-.52-2.839-.743-1.393-1.408-1.078-1.894-2.048-.751-1.518-.145-.826-.768-2.085-.81-.629-.59-.853 1.178-.764.154-.835.708-1.518.188.125-1.28-.646-.18-.324.043.18.623-.386.358.125.657-.251.103-1.168-.555-1.554-.102.117-.35-.504-.922.234-.315.54-.188.637.375.656-.46-.081-.81.62-.317.781.188.315-.29-.755-1.05-.296-.708.152-.145 2.273.913.7.683 1.043.452 1.725-.452 2.803 2.133 1.42-.026.907-2.107.458.358.036.64.682-.341.144-.23-.476-1.084.279-.708-.746-.256 1.707-2.21.395.025.728-.64.054-1.194.44-1.28.08-2.44-.727-.418.18-.35-.53-.086-.225.922-1.114.418-.26.99-.324-.017-.53-.248-.602-1.442z" stroke="#31313B" stroke-width=".4" mask="url(#a)"/></svg>