<svg width="22" height="11" fill="none" xmlns="http://www.w3.org/2000/svg"><path d="M2.122 7.229l-.33-.047.232-.485.007.037.091.495zm-.071-.575l-.015.019.3-.63.014-.029-.005-.03-.211-1.336.27-.593.93.165.02.004.02-.005.855-.196.543.258.038.018.04-.015.88-.324.016-.006.012-.01.61-.49-.492.495-.13.132.181.037 1.177.239.032.006.03-.013.337-.153.536.454.025.021.034.002 1.428.077.032.002.026-.017 1.007-.623.056-.035-.01-.066-.417-2.559.35.079.095.021.024-.095.125-.507.577-.37.672.978.028.04.048.003.924.066.611.613.013.013.016.008.997.46.022.01h.023l.788-.024.183.552.035.103.1-.042.92-.391 1.654.15.025.003.022-.01.56-.228.48.99.069.142.099-.122.069-.085.436.625.019.027.03.01.555.194.178 1.083-.902.647-.046.033.005.057.077.854-.396.472-.025.03.002.04.09 1.375.002.022.01.02.48.866-8.313.435L1.41 9.42l.732-.506.025-.017.011-.028.288-.73.556.198.05.018.043-.032 1.504-1.117.394-.032.163-.013-.086-.14-.18-.29-.029-.046h-.055l-1.051-.01h-.029l-.024.016-.64.395-.229-.659-.021-.063-.067-.004-.404-.025-.052-.004-.032.04-.225.283zM8.482.912L8.65.686l.077.033-.244.193zm-.286.386l-.24.557-.683.688.923-1.245zM1.61 7.653l-.165.17.161-.205.004.035z" stroke="#31313B" stroke-width=".2"/></svg>