<svg width="30" height="16" fill="none" xmlns="http://www.w3.org/2000/svg"><path d="M8.363 1.32l.046-.395.474.242.11.056.032-.12.108-.41.294.096.365 1.583.01.044.04.021.288.154.035.019.038-.01 4.169-1.111.306.085.886 1.359.025.037.044.007.798.121.209.352.027.045.052.003.628.041.902.65.018.013.023.003 1.882.32 1.334 1.342.043.043.057-.018.279-.085.044-.014.018-.042.293-.665.472.062.397.466.087.101.073-.111.465-.71.155.034.437.903.017.035.035.014 1.033.427.03.013.033-.009.974-.25.569.131.039.01.034-.021.523-.31.883.548.245.583-.13.67-.013.074.068.034.741.37-.474.438-.447-.29-.036-.024-.042.01-1.644.393-.13.031.067.116.99 1.71.242 1.145-.186.598-2.045-1.36-.029-.018-.034.003-.683.05-.025.003-.021.013-.836.54-.938-.22-.014-.004-.015.001-1.348.086-.03.002-.023.017-.405.303-1.317.277-.04.008-.022.035-.623.944-1.583.258-.026.004-.02.017-1.221.977-1.633-.336-.576-.39-.042-.028-.047.016-.793.277-.495-.516-.073-.077-.072.078-.566.605-.09.097.117.06.319.166-.107.31-.44.107-.04.01-.022.034-.386.626-.477-.213-.053-.023-.046.034-.52.378-.805.13-.28-.517L9.299 15l-.045-.01-.471-.098.131-.212.057-.09-.095-.05-.574-.308-.037-.02-.039.012-.806.238-.508-1.513-.02-.058-.06-.01-.872-.127-.033-.005-.03.016-1.04.564-.697-.098-.186-.523-.021-.058-.062-.008-1.554-.187-.038-.005-.031.022-.431.304-.31-.192.43-.935.04-.086-.083-.044-.686-.364.567-1.115.034-.068-.056-.052L.449 8.718l1.958-.573.074-.022-.002-.077-.027-1.05-.001-.051-.044-.03-.489-.32.483-.563.098-.114-.143-.046-.661-.212.137-.702.74-.537 1.26.042.071.002.025-.068.243-.656.014-.04-.018-.038-.232-.493.21-.14.459.252.048.026.048-.026.234-.128.022-.013.014-.022.902-1.421 1.16-.206.04-.007.024-.033.245-.342.891.293.117.038.014-.121z" stroke="#31313B" stroke-width=".2"/></svg>