<svg width="173" height="94" fill="none" xmlns="http://www.w3.org/2000/svg"><mask id="a" fill="#fff"><path d="M18.426 0l1.536 1.459.871 1.723.144 1.246 1.5 1.152 1.186.478-.368 4.48-.485 1.1.844 1.92-.575 1.39-1.437.948.198.742 1.895 1.186 1.168-.572 2.363 1.024.476 1.707 1.132.947 1.159-.248 1.536-1.177 2.488.017.602-.486.683.153 1.41-.665 2.192-.274 2.004-.733 3.998-.453 1.437 1.093 2.722-.81.458.357.395.973-.754 2.219.251.75.62.615 1.626.418.342 1.007 2.946-.393.45.794 2.173-1.365 2.372-2.057 2.794 1.442.072-1.229.575-.861-.62-1.186 1.087-.325 1.42.154.817.87 2.336-.093.305.81 2.956-.427 1.078 1.263 1.608.845.305.53.081.784-.485.836-.557.333 1.536 2.764.297 1.553 2.73.077.486.316.781 1.323.063 2.167.728 2.91 2.641-.632.845-.708 2.246.273 1.158-.214 1.195-1.63.36-.093 1.042.085.413 1.152.485.248.862 1.382.683.375 4.124.009.871.435 1.447 1.536 3.288-.23 1.581-.564 3.297-.4 2.847 1.228.611.802.45-.009 1.105-.853 1.06-.043 1.446.47.494.46.71 1.673 1.518 1.544 2.893 2.142 1.365.606 1.42-.632 3.413-.529 2.336.453 4.357-.188.8-3.004 1.716-.41 1.778-1.586-.027-.256.665-.085.306-1.297 1.931-.709.234.043.503 1.178 1.752 1.732-.234.716.305.384 1.07.657.664-.264.89 1.28.611.341.512-.137.341-1.126.368-.47.566-.093 1.752.939 2.516-.069.044 1.477 1.788.537.171.973.781.571 1.483.419.988-.965.099.7 1.159-.836.781.307 1.204 1.877.71-.068.557.606.117.87 1.221 1.186-.009 2.466 1.105 2.15.512.444 1.213.256 1.671.921 1.222.137 1.626 1.416 1.68.367.314 1.024-1.069.247-.934.709.054 1.706-7.061 3.831-2.013 1.408-1.976.12-2.758-2.245-2.075.146-4.285 3.105-.728.734-.099 1.255-1.006 1.015-.602.077-1.86-1.468-1.76-.043-.737.308-2.542-.248-.225-1.365-1.464-.657-.611-.043-.836.53-1.796.298-.998.665-2.937.009-1.635.35-.953-.213-.359-1.656-.952-.213-.566-.043-.88.862-.962-.46-.296-.581-.952.708-2.705-.264-.548.52-1.644-.572-2.668-.068-1.311-.486-.405.145-.233.46.072.982-.413.956.458 1.186-.126.324-1.258.76-.179 1.382.233 1.45-.943 1.8.287 1.246-.611 4.966-3.207.53-.79 1.22-.719.127-.719 1.528-1.365 1.177.566 2.048-.162.76-3.207 2.917-.243.58-.862-.546-.889.188-1.51-.316-3.27.052-1.168-1.195-.898.222-.8-.683-2.2.666-1.582-.435-.844-.376.862-.947-1.284-1.135.548-.716-.144-.47-.862-.256-1.124.632-1.266-1.135-.117-1.254-2.309-2.662-1.32-.154-.908-.956-2.327-1.535-1.176-1.238-1.348.606-.61-.648-1.923.494-1.752-.708-1.14-.853-2.813.956-.036-.828-.898-.401-1.186.11-.826.65 1.015 1.595-3.414 2.645-1.68-.009-.377 2.057-.836 1.502-2.165.785-2.066.298-.854 1.306-3.018 1.553-.278-.538-.584-.162-1.357 1.067.045 2.662-3.36 1.006-1.716-.307-.413.376-.243-1.067-1.347-.46-1.222-1.306-1.68-5.085-.198-.248-.655.051-.279-1.083-1.5.06-2.56-.811-2.013-.051-.781-.316-.737-.751-.476-.947.009-3.345-.512-2.824-.44-.785-2.866-1.126.431-.965-.234-.964-2.255-3.84-.682-2.252.52-1.63-.125-.725-1.14-1.638-9.928-6.16-4.85-.828-2.292.46-.53-.571.018-1.306-.251-.35-2.758-1.151-.369.35-.116-2.825.269-.384-.018-.955.961-.53-.027-1.578-.458-.913-.467-.06-.251-.358-.513-2.278.728-.794.018-1.109-1.338-1.382-.279-.998.548-.803-.305-1.399.539-.742-.279-.828.494-.367-.108-.69.63-2.586.26-2.432-.216-.947.395-.239.396-1.263.997-.665.233-.87.692-.658-.368-.99-1.042-.034-.252-.64-.018-3.472-.907-.93.737-1.007.43-1.254.441-.205-.737-.794.054-.964.764-.213.144-.845.907-.299.099-.435.665-.085-.018-1.178.997-.853 1.743.649.125.674.584.281.162.828 1.078-.631.153-.837 1.868-1.032.279-.964.674-.273.943-1.05-.296-1.263.143-.588 1.779-2.842.692-.273.045-.341L17.4.537 18.427 0z"/></mask><path d="M18.426 0l1.536 1.459.871 1.723.144 1.246 1.5 1.152 1.186.478-.368 4.48-.485 1.1.844 1.92-.575 1.39-1.437.948.198.742 1.895 1.186 1.168-.572 2.363 1.024.476 1.707 1.132.947 1.159-.248 1.536-1.177 2.488.017.602-.486.683.153 1.41-.665 2.192-.274 2.004-.733 3.998-.453 1.437 1.093 2.722-.81.458.357.395.973-.754 2.219.251.75.62.615 1.626.418.342 1.007 2.946-.393.45.794 2.173-1.365 2.372-2.057 2.794 1.442.072-1.229.575-.861-.62-1.186 1.087-.325 1.42.154.817.87 2.336-.093.305.81 2.956-.427 1.078 1.263 1.608.845.305.53.081.784-.485.836-.557.333 1.536 2.764.297 1.553 2.73.077.486.316.781 1.323.063 2.167.728 2.91 2.641-.632.845-.708 2.246.273 1.158-.214 1.195-1.63.36-.093 1.042.085.413 1.152.485.248.862 1.382.683.375 4.124.009.871.435 1.447 1.536 3.288-.23 1.581-.564 3.297-.4 2.847 1.228.611.802.45-.009 1.105-.853 1.06-.043 1.446.47.494.46.71 1.673 1.518 1.544 2.893 2.142 1.365.606 1.42-.632 3.413-.529 2.336.453 4.357-.188.8-3.004 1.716-.41 1.778-1.586-.027-.256.665-.085.306-1.297 1.931-.709.234.043.503 1.178 1.752 1.732-.234.716.305.384 1.07.657.664-.264.89 1.28.611.341.512-.137.341-1.126.368-.47.566-.093 1.752.939 2.516-.069.044 1.477 1.788.537.171.973.781.571 1.483.419.988-.965.099.7 1.159-.836.781.307 1.204 1.877.71-.068.557.606.117.87 1.221 1.186-.009 2.466 1.105 2.15.512.444 1.213.256 1.671.921 1.222.137 1.626 1.416 1.68.367.314 1.024-1.069.247-.934.709.054 1.706-7.061 3.831-2.013 1.408-1.976.12-2.758-2.245-2.075.146-4.285 3.105-.728.734-.099 1.255-1.006 1.015-.602.077-1.86-1.468-1.76-.043-.737.308-2.542-.248-.225-1.365-1.464-.657-.611-.043-.836.53-1.796.298-.998.665-2.937.009-1.635.35-.953-.213-.359-1.656-.952-.213-.566-.043-.88.862-.962-.46-.296-.581-.952.708-2.705-.264-.548.52-1.644-.572-2.668-.068-1.311-.486-.405.145-.233.46.072.982-.413.956.458 1.186-.126.324-1.258.76-.179 1.382.233 1.45-.943 1.8.287 1.246-.611 4.966-3.207.53-.79 1.22-.719.127-.719 1.528-1.365 1.177.566 2.048-.162.76-3.207 2.917-.243.58-.862-.546-.889.188-1.51-.316-3.27.052-1.168-1.195-.898.222-.8-.683-2.2.666-1.582-.435-.844-.376.862-.947-1.284-1.135.548-.716-.144-.47-.862-.256-1.124.632-1.266-1.135-.117-1.254-2.309-2.662-1.32-.154-.908-.956-2.327-1.535-1.176-1.238-1.348.606-.61-.648-1.923.494-1.752-.708-1.14-.853-2.813.956-.036-.828-.898-.401-1.186.11-.826.65 1.015 1.595-3.414 2.645-1.68-.009-.377 2.057-.836 1.502-2.165.785-2.066.298-.854 1.306-3.018 1.553-.278-.538-.584-.162-1.357 1.067.045 2.662-3.36 1.006-1.716-.307-.413.376-.243-1.067-1.347-.46-1.222-1.306-1.68-5.085-.198-.248-.655.051-.279-1.083-1.5.06-2.56-.811-2.013-.051-.781-.316-.737-.751-.476-.947.009-3.345-.512-2.824-.44-.785-2.866-1.126.431-.965-.234-.964-2.255-3.84-.682-2.252.52-1.63-.125-.725-1.14-1.638-9.928-6.16-4.85-.828-2.292.46-.53-.571.018-1.306-.251-.35-2.758-1.151-.369.35-.116-2.825.269-.384-.018-.955.961-.53-.027-1.578-.458-.913-.467-.06-.251-.358-.513-2.278.728-.794.018-1.109-1.338-1.382-.279-.998.548-.803-.305-1.399.539-.742-.279-.828.494-.367-.108-.69.63-2.586.26-2.432-.216-.947.395-.239.396-1.263.997-.665.233-.87.692-.658-.368-.99-1.042-.034-.252-.64-.018-3.472-.907-.93.737-1.007.43-1.254.441-.205-.737-.794.054-.964.764-.213.144-.845.907-.299.099-.435.665-.085-.018-1.178.997-.853 1.743.649.125.674.584.281.162.828 1.078-.631.153-.837 1.868-1.032.279-.964.674-.273.943-1.05-.296-1.263.143-.588 1.779-2.842.692-.273.045-.341L17.4.537 18.427 0z" stroke="#31313B" stroke-width=".4" mask="url(#a)"/></svg>