<svg width="52" height="37" fill="none" xmlns="http://www.w3.org/2000/svg"><mask id="a" fill="#fff"><path d="M5.971 9.31l-.377-.102-.539.205.045.213-.476-.145-.063.743-.988.35-.018.759-.467-.358-1.07.494-1.338-.418 2.453-3.003.43-.137 1.914-2.15.773.094.413-1.22.692-.99.755-.281 1.724-1.4.692-.981.7.81.863.342.485.725h1.06l.899.572.763.042L31.862 9.61l.97.06 1.123-1.433.548.12.566-.317.405-1.126.898-.93.7-.341v-.555l.854.094 1.141.717.234-.24.727-1.714-.835-.359-.764.418-.979-.725-.198-.52 1.95-1.016 2.29.273.522-.23 1.698 1.485.215-1.16L45.841.863l2.273 1.1 1.24-.716-.019 1.356.665.444.252.051.718-.862.468.47.233.87-.341.904-.88.7.035.418.485.367-.278.683-.404.452-.746-.341-.395.127-.737.905.602 1.305.296 1.545-.664 3.046-.494.657-.126 1.408.584.452-.018.486-.378.35 2.183.777-.449.512-.063 2.141.171.384 1.24.256.117 1.058-.755-.52.036 1.169-.907 1.058.53.58-.557.75-.207.88-.728-.009-.638.631-.556-.162-.306.487-.53-.572-.961 1.16.027.495-.243.103.189.392-.997.043-1.824-.87-1.06.162-.315.529-.449-.145-.62-.495-.566-.085-1.302-2.185-1.024.24-.584-.206-.656.751-1.383-.904-.387-.598-.602.913-1.05.794-.18.725.26.768-.395.683-.602.221-1.959-1.117-.287-1.348-2.13-1.417-.34.086-.306 1.237-.341.085-.333-.034-.62-.734-.907-.094.35 1.656-.476.341-.009.64-.781 1.177-.845.316-.754-.512-.701-.017-.602 1.57-1.186.939-.278 1.237-.36.145-.745-.282-1.096.623-1.25-.734-.197.128-.197.342.251.392-.377.58.323.837-.018.964-.781.52-.692-.247-.71.367-.745-.077-.566-.333-.378-.862-1.707-.512-.143-1.023-1.671-1.57-.728.06-3.126-.811-.602.06-.854-1.383-.844-.392-.952-.12-.899.836-.332-.469.135-.503 1.096-2.816.8-.614.574-.009.045-.435.53-.393-1.06-1.228.324-1.348-.602-1.323.161-.683.458-.46.566.145.234 1.109.925.333.432-.256.26-1.792.548-.273 1.105.93 1.51-.427.655-.768-.009-.256-.485-.247.36-.102.08-.444.431-.35.665-.11 3.019.759-.126.844.692.47.43-.043v.273l1.375 1.425 1.123.896.809.128.97-.342.35-.75.737.008.575-.606-.08-.4-1.555-.905.045-1.647-1.114-.794.207-.947-1.635-.35-3.163-1.348-.628.128-.845 1.144-1.707.017-.772-.248-.19-.708-.88-.589-.305-.81-.251.435-.98-.435-1.114-2.398.333-.008.449.87.943.503-.36-1.015.163-.47-.216-.417-.26.426-.36-.563.153-.52.278.486.557.145-.377-.768.683-.12-.17-.29.242-.486-.342-.58-.242.043.107.375-.278.043.072.7-.297.068zM.311 29.5v.008-.008z"/></mask><path d="M5.971 9.31l-.377-.102-.539.205.045.213-.476-.145-.063.743-.988.35-.018.759-.467-.358-1.07.494-1.338-.418 2.453-3.003.43-.137 1.914-2.15.773.094.413-1.22.692-.99.755-.281 1.724-1.4.692-.981.7.81.863.342.485.725h1.06l.899.572.763.042L31.862 9.61l.97.06 1.123-1.433.548.12.566-.317.405-1.126.898-.93.7-.341v-.555l.854.094 1.141.717.234-.24.727-1.714-.835-.359-.764.418-.979-.725-.198-.52 1.95-1.016 2.29.273.522-.23 1.698 1.485.215-1.16L45.841.863l2.273 1.1 1.24-.716-.019 1.356.665.444.252.051.718-.862.468.47.233.87-.341.904-.88.7.035.418.485.367-.278.683-.404.452-.746-.341-.395.127-.737.905.602 1.305.296 1.545-.664 3.046-.494.657-.126 1.408.584.452-.018.486-.378.35 2.183.777-.449.512-.063 2.141.171.384 1.24.256.117 1.058-.755-.52.036 1.169-.907 1.058.53.58-.557.75-.207.88-.728-.009-.638.631-.556-.162-.306.487-.53-.572-.961 1.16.027.495-.243.103.189.392-.997.043-1.824-.87-1.06.162-.315.529-.449-.145-.62-.495-.566-.085-1.302-2.185-1.024.24-.584-.206-.656.751-1.383-.904-.387-.598-.602.913-1.05.794-.18.725.26.768-.395.683-.602.221-1.959-1.117-.287-1.348-2.13-1.417-.34.086-.306 1.237-.341.085-.333-.034-.62-.734-.907-.094.35 1.656-.476.341-.009.64-.781 1.177-.845.316-.754-.512-.701-.017-.602 1.57-1.186.939-.278 1.237-.36.145-.745-.282-1.096.623-1.25-.734-.197.128-.197.342.251.392-.377.58.323.837-.018.964-.781.52-.692-.247-.71.367-.745-.077-.566-.333-.378-.862-1.707-.512-.143-1.023-1.671-1.57-.728.06-3.126-.811-.602.06-.854-1.383-.844-.392-.952-.12-.899.836-.332-.469.135-.503 1.096-2.816.8-.614.574-.009.045-.435.53-.393-1.06-1.228.324-1.348-.602-1.323.161-.683.458-.46.566.145.234 1.109.925.333.432-.256.26-1.792.548-.273 1.105.93 1.51-.427.655-.768-.009-.256-.485-.247.36-.102.08-.444.431-.35.665-.11 3.019.759-.126.844.692.47.43-.043v.273l1.375 1.425 1.123.896.809.128.97-.342.35-.75.737.008.575-.606-.08-.4-1.555-.905.045-1.647-1.114-.794.207-.947-1.635-.35-3.163-1.348-.628.128-.845 1.144-1.707.017-.772-.248-.19-.708-.88-.589-.305-.81-.251.435-.98-.435-1.114-2.398.333-.008.449.87.943.503-.36-1.015.163-.47-.216-.417-.26.426-.36-.563.153-.52.278.486.557.145-.377-.768.683-.12-.17-.29.242-.486-.342-.58-.242.043.107.375-.278.043.072.7-.297.068zM.311 29.5v.008-.008z" stroke="#31313B" stroke-width=".4" mask="url(#a)"/></svg>