<svg width="21" height="18" fill="none" xmlns="http://www.w3.org/2000/svg"><mask id="a" fill="#fff"><path d="M8.306.593l.315.17.458-.195.305.238.791 1.622.826-.325.45.197 1.015-.197.18-.947 1.158-.674.153.342.341-.24.755.427v.743l-.26.06.52.554.728.136.53.598-.449 1.271.306 1.63-.162.435.413.239-.638.76.44.904-.233.273-.566-.06-.324.657.701 1.775 1.824.938-.207.487.297.358 1.204.333 1.311 1.066-.036.555-.638.299-.602 1.962-3.862-.18-.396.47-.988.009-1.276-.453-.152-.938-.593-.282-1.842-.076-.153.896-.413.17-.629-.367-.386-.708-.503-.17-.332.247-.557-.256-.387.81-.745-.213-1.384.81-.575.342-.593-.136-.997.256-1.033-.427-.458-.947-.01-1.186 1.24-.922.333.162.314-.221.18-.53-.503-.588.045-.333-.404.008-.153-.35.323-.29-.754-.221-.108-.248.377-.213-.79-.657-.54.051-.035-.367.503-.017.718-1.271-.287-.606.26-.717L1.3 6.9l.207-.751.386-.009-.054-.495.584.009.09.239 1.707-.12.305 1.033.54-.196.017-.325.306.12.314-.777.26-.025.082.571.458-.05-.027-.436.242.068.297-.554-.79-.717.475-.128-.817-1.288 1.841-.512-.413-.913.243-.111-.44-.23.781-.564.386.248.027-.393z"/></mask><path d="M8.306.593l.315.17.458-.195.305.238.791 1.622.826-.325.45.197 1.015-.197.18-.947 1.158-.674.153.342.341-.24.755.427v.743l-.26.06.52.554.728.136.53.598-.449 1.271.306 1.63-.162.435.413.239-.638.76.44.904-.233.273-.566-.06-.324.657.701 1.775 1.824.938-.207.487.297.358 1.204.333 1.311 1.066-.036.555-.638.299-.602 1.962-3.862-.18-.396.47-.988.009-1.276-.453-.152-.938-.593-.282-1.842-.076-.153.896-.413.17-.629-.367-.386-.708-.503-.17-.332.247-.557-.256-.387.81-.745-.213-1.384.81-.575.342-.593-.136-.997.256-1.033-.427-.458-.947-.01-1.186 1.24-.922.333.162.314-.221.18-.53-.503-.588.045-.333-.404.008-.153-.35.323-.29-.754-.221-.108-.248.377-.213-.79-.657-.54.051-.035-.367.503-.017.718-1.271-.287-.606.26-.717L1.3 6.9l.207-.751.386-.009-.054-.495.584.009.09.239 1.707-.12.305 1.033.54-.196.017-.325.306.12.314-.777.26-.025.082.571.458-.05-.027-.436.242.068.297-.554-.79-.717.475-.128-.817-1.288 1.841-.512-.413-.913.243-.111-.44-.23.781-.564.386.248.027-.393z" stroke="#31313B" stroke-width=".4" mask="url(#a)"/></svg>