<svg width="121" height="101" fill="none" xmlns="http://www.w3.org/2000/svg"><mask id="a" fill="#fff"><path d="M89.138.742l.863.068.233.708 1.447.879 1.76.094-.072.554-1.194 1.562-.44 1.084-.063 3.583 1.042 1.127 4.114 1.424.53.785 1.806.367.602 1.75 2.668 3.003 4.294.742 1.465 1.007.979.162 1.428 2.79 1.294.862 3.045.495 1.348 1.34 2.857-.111.045 1.817 1.149 1.135-.009.614.62.674-.018.452-1.671 1.161-.098.384.341.418-.521.418-1.42.18-.781.528-.162.683.737 1.16.09 1.741-.548.444-.62 1.459.629.478.036.588.682.273.405.691.063 1.067-1.088 1.476-.997.324.315 1.135-.315.666.548.512-.054.315-.79.342-.602.844-.647.171-.539-.239-.431.512-.449 1.835.063.767.934.23 1.473 1.349-.485.666 1.509.631-.152.597-.8.691.764 1.45-.279.769-.018 1.561-1.437.913-1.995.606-.143.52.458.444 1.473.29.324.905-.854.964-.476-.077-.377.341.566 1.349.665.64-.189.819-.395.05-.126.71-.413-.018.242.307-.458.52-.332-.093.107.495-.575.298-.197.726-.647.034.341.187-.26.427-.557.094-.315-.691.126 1.186-.251.034-.27-.478-.26.93-.989.606-.485-.034.324.264-.126.58-.602-.145-.584.58.341.402-.934.827-.62.034-.413 1.118-1.419.853-.845 2.262-.638-.615-.323.615-.629-.299-.521.572-.35-.094.062-.572-.512.307.252.154-.045.478-.485.375-.081.41-.826.46-.036-1.04.368-.086-.027-.444.323-.23-.035-.75-.45-.581.216-.23.251.136.144-.896.692-.008-.27-.299.539-.76.045-.597-.431-.162-.611.316-.467-.239-1.653 1.263-.332-.077.09.367-.72-.154 1.348-2.286-.17-.82-.386-.452.233-.162-.198-.358-.907.188.413-.683.396-.017.395.35.251-.273-.637-.316.485-.333-.036-.478h.629l.206-.819-.422-.136 1.518-1.254-.144-.538.495-.998-.378-.308.944-.955-.081-.486-.252-.018.279-.34-.144-1.05-.404-.359-1.824 1.255-.943 1.715-.602-.171-.081.299h-.368l-.198-.299.018.495-.79.384-.315-.17-.054-.444.386-1.682-.386.453-.62.179-.494-.503.36-.478-.207-.342-1.16-.435-1.122-.042-.306.366-.476-.076-.341 1.083-.548.017-.35-.281-.88.077-.513.571-.566-.443-.89.017-1.419 1.203-1.392-.691-2.138-.094-.746.725-.17.691-.548-.222-1.375.606-.943 1.46-.53.255-.926-.008-.287 1.834.108 2.21-.234.145-.18-.333-.602.265-2.434 2.167-.557.845-.62.102-.126.205.378.282-.324.426-.08 1.971-.594-.196-.61.981-.647.085-.944.862-.27.743-.69-.086-1.115 1.34-1.132.529-1.024.879-1.598 2.49-.467-.025-.584.375.476 2.227-1.042-.136-.674.264.027 1.638.934 1.929-.53-.487-.09-.512-.305-.025-.52 1.561-.261-.077-.225.282.36.691 1.131.265.279-.973.305-.196.135.35-.234.375.306.239-.018.495.665-.009-.476-.862.224-.35-.368-.093-.108-.333.89.46.637-.34.908.93.781-.069.386-.324.737 1.263.8.537.054.478-.414.17.297.683-.413.154.296.58-2.255-.273-.26.196.09.632-.836-.24-.907-.818-.908.247-.404-.162.198.162-.216.06.162.973-.153-.171-.332.452-.35-.23-.37.11-.808.564-.664-.273-.638-1.17-.988-.178.233-.393.341-.008.018-.401-.88.725-1.725-.777-.152 1.255-.225-.197-.297.393.53.017-.071.53h-1.41l-.666.255-.44.691-.27 1.212-.601-.248-.566.248-.413-.41-.71-.11-.198-.436-.71-.41-1.527.41-.188.82-.485.375-1.465.076-1.024.453-1.348-.273-.835.324.108-.239-.71-.939-.09-.742-.871-1.271.745.23 1.573-.947.817.205.378-.18.664.419 2.111-.197.764-.614h.719l.072-.375-.97-.837-.207.197-.018-.282-.827.495-.718-.52-1.042.085-.126-.324.341-.342-.503-.495-.099-.571-.557-.632-.485-.102-.7-1.186-.28.008-.367.547-1.105-.29-1.42.204-.162.273.35.265-.215.358.315.111-.135.333-1.16.264-.07-.674-1.609.043 1.671-.546.08-.393-1.257.248-.764-.418.01-.461-.477-.051-.449-.435-1.033-.026-3.35-1.186-.944.068-1.168.504-1.662 1.117.332.052.081.879.665.196.072.716-.818-.298-1.087.41-.449-.402.413-.529-.323-.239-1.015 1.076.117 1.194.476.18.539-.538.027.537.27-.085-.108-.248.404-.025-.396.691.243.444-.216.563-.566-.555-.314.086-.162.435-.278-.017-.099-.35-.862.341-1.016-.179.162-.333-.278-1.143-.728-.359-2.668.273-.728.35.566.615-.323.495-1.051-.538-.611.35.018.503-1.59-1.186-.845.197-.467-.461-.845-.154 1.5-.554.019-1.553.512-1.203-.144-1.434-.404-.375.332-.342-.099-.554-.754-.29-.045-.76-.512.043-.782.742-.305-.094-.728-1.151.404-.623-.233-.657-1.294-.273-.656-1.323-.763-.222-.89.495-.862-.222-.925.47-2.04-2.1.476-.221-.61-.888.206-.52.611-.162v-.751l.97-.674h.45l.485-1.016.458-.042.422-.461.45-.11 1.284 1.006.683-.017.323-.555-.332-.58.018-1.809.287-.392 1.033-.111.44-1.203-.134-.299.368-.444.045-1.05-.665-1.927.216-.87-.71-.846.126-1.51-1.024-1.212.027-.605-1.869-2.406-1.734-1.135-.934-.154-.377-.81-.378.29.117.733-.305.41-.53.077-.19.41-.52-.01.233-.665-.44.103-.242-.393-.35-.068-.468.674-1.159-.648-.503-.768-1.599.179-.08-.794.475-.145.459-.606.35.154.548-.947.602-.085.27-.717-.162-1.024.512-.981-.396-.623.72-.657.242.239.718-.205.234-.341-.458-.53.413-1.416-.557-.358-.072-.546.557-.828-.117-1.638-1.257-.964.44-.495-.01-.606-.583-.76.26-.784.836-1.033-.081-.606.548-1.169-.135-.708.97-1.245.45-1.442-.297-1.664.18-.59L8.978 35.4l.782-1.024.638-2.167.377-.282 1.078.495 1.976-.29 2.157 1.578.718.043.189-.845.665.18 1.132-.7.386.375-.45 1.186 1.088.81-.234.504 1.123.188.638-.205-.081-.845.27-.716 1.482-2.176-1.384-1.681-.233-1.126.736-.359 1.321-1.416.737.358.116.785.953.47.736-.487.755.615.288-.649.916.256.71.725.871.086-.144-.623.746.316 2.237-1.579.314-.623.908.137-.01.554 1.034.546-.045.52-.638.53.26.529-.107.785.997.793.233.709.935-.12.979.58.7.026-.08-1.937.368-.572 1.402.325 1.05-.12.665-.52.297.358.674-.512.71.879.485-.162.7-1.476.62-.009 1.42-.614 1.221.512-.377.887.44.248 1.581-.376.297-.691-.728-1.075.189-.367.871-.154.63-1.134 1.284-.709.296-.665-.117-.41-.997-.495-.835-3.165.826-.435.072-1.579.54-.665-.01-.478.943-.24.827-.639 1.069.333.53-.18.009-.545.404-.402h.746l.539-.708.126-.708-.737-.631.18-.81.979-1.161-.234-.512.27-1.195-.458-.162.188-1.297.97-.29.468-.486 1.176.11.845-.204.35.4-.134.837.826-.034 1.168-1.681.063-1.11-.836-.716-.18-.674 1.124-.674.027-.708.997-.59.584.163.404.444.674.042.287.785.863-.221.44-.785.728-.145.395.725 1.437-.214 1.384.41 1.105-.683.332 1.033.854.657 1.5-.068.647.315.664-.418.144-.853.898-.981.288.11.216 1.212 1.617.999.072.631-.504.418 1.195.904 1.968.103.287-.367.018-.845.773-.478.745-1.16 1.258-.162 1.464-.631.89.221.458.82.512-.188.79.179.378-.401-1.015-1.886.817-1.322z"/></mask><path d="M89.138.742l.863.068.233.708 1.447.879 1.76.094-.072.554-1.194 1.562-.44 1.084-.063 3.583 1.042 1.127 4.114 1.424.53.785 1.806.367.602 1.75 2.668 3.003 4.294.742 1.465 1.007.979.162 1.428 2.79 1.294.862 3.045.495 1.348 1.34 2.857-.111.045 1.817 1.149 1.135-.009.614.62.674-.018.452-1.671 1.161-.098.384.341.418-.521.418-1.42.18-.781.528-.162.683.737 1.16.09 1.741-.548.444-.62 1.459.629.478.036.588.682.273.405.691.063 1.067-1.088 1.476-.997.324.315 1.135-.315.666.548.512-.054.315-.79.342-.602.844-.647.171-.539-.239-.431.512-.449 1.835.063.767.934.23 1.473 1.349-.485.666 1.509.631-.152.597-.8.691.764 1.45-.279.769-.018 1.561-1.437.913-1.995.606-.143.52.458.444 1.473.29.324.905-.854.964-.476-.077-.377.341.566 1.349.665.64-.189.819-.395.05-.126.71-.413-.018.242.307-.458.52-.332-.093.107.495-.575.298-.197.726-.647.034.341.187-.26.427-.557.094-.315-.691.126 1.186-.251.034-.27-.478-.26.93-.989.606-.485-.034.324.264-.126.58-.602-.145-.584.58.341.402-.934.827-.62.034-.413 1.118-1.419.853-.845 2.262-.638-.615-.323.615-.629-.299-.521.572-.35-.094.062-.572-.512.307.252.154-.045.478-.485.375-.081.41-.826.46-.036-1.04.368-.086-.027-.444.323-.23-.035-.75-.45-.581.216-.23.251.136.144-.896.692-.008-.27-.299.539-.76.045-.597-.431-.162-.611.316-.467-.239-1.653 1.263-.332-.077.09.367-.72-.154 1.348-2.286-.17-.82-.386-.452.233-.162-.198-.358-.907.188.413-.683.396-.017.395.35.251-.273-.637-.316.485-.333-.036-.478h.629l.206-.819-.422-.136 1.518-1.254-.144-.538.495-.998-.378-.308.944-.955-.081-.486-.252-.018.279-.34-.144-1.05-.404-.359-1.824 1.255-.943 1.715-.602-.171-.081.299h-.368l-.198-.299.018.495-.79.384-.315-.17-.054-.444.386-1.682-.386.453-.62.179-.494-.503.36-.478-.207-.342-1.16-.435-1.122-.042-.306.366-.476-.076-.341 1.083-.548.017-.35-.281-.88.077-.513.571-.566-.443-.89.017-1.419 1.203-1.392-.691-2.138-.094-.746.725-.17.691-.548-.222-1.375.606-.943 1.46-.53.255-.926-.008-.287 1.834.108 2.21-.234.145-.18-.333-.602.265-2.434 2.167-.557.845-.62.102-.126.205.378.282-.324.426-.08 1.971-.594-.196-.61.981-.647.085-.944.862-.27.743-.69-.086-1.115 1.34-1.132.529-1.024.879-1.598 2.49-.467-.025-.584.375.476 2.227-1.042-.136-.674.264.027 1.638.934 1.929-.53-.487-.09-.512-.305-.025-.52 1.561-.261-.077-.225.282.36.691 1.131.265.279-.973.305-.196.135.35-.234.375.306.239-.018.495.665-.009-.476-.862.224-.35-.368-.093-.108-.333.89.46.637-.34.908.93.781-.069.386-.324.737 1.263.8.537.054.478-.414.17.297.683-.413.154.296.58-2.255-.273-.26.196.09.632-.836-.24-.907-.818-.908.247-.404-.162.198.162-.216.06.162.973-.153-.171-.332.452-.35-.23-.37.11-.808.564-.664-.273-.638-1.17-.988-.178.233-.393.341-.008.018-.401-.88.725-1.725-.777-.152 1.255-.225-.197-.297.393.53.017-.071.53h-1.41l-.666.255-.44.691-.27 1.212-.601-.248-.566.248-.413-.41-.71-.11-.198-.436-.71-.41-1.527.41-.188.82-.485.375-1.465.076-1.024.453-1.348-.273-.835.324.108-.239-.71-.939-.09-.742-.871-1.271.745.23 1.573-.947.817.205.378-.18.664.419 2.111-.197.764-.614h.719l.072-.375-.97-.837-.207.197-.018-.282-.827.495-.718-.52-1.042.085-.126-.324.341-.342-.503-.495-.099-.571-.557-.632-.485-.102-.7-1.186-.28.008-.367.547-1.105-.29-1.42.204-.162.273.35.265-.215.358.315.111-.135.333-1.16.264-.07-.674-1.609.043 1.671-.546.08-.393-1.257.248-.764-.418.01-.461-.477-.051-.449-.435-1.033-.026-3.35-1.186-.944.068-1.168.504-1.662 1.117.332.052.081.879.665.196.072.716-.818-.298-1.087.41-.449-.402.413-.529-.323-.239-1.015 1.076.117 1.194.476.18.539-.538.027.537.27-.085-.108-.248.404-.025-.396.691.243.444-.216.563-.566-.555-.314.086-.162.435-.278-.017-.099-.35-.862.341-1.016-.179.162-.333-.278-1.143-.728-.359-2.668.273-.728.35.566.615-.323.495-1.051-.538-.611.35.018.503-1.59-1.186-.845.197-.467-.461-.845-.154 1.5-.554.019-1.553.512-1.203-.144-1.434-.404-.375.332-.342-.099-.554-.754-.29-.045-.76-.512.043-.782.742-.305-.094-.728-1.151.404-.623-.233-.657-1.294-.273-.656-1.323-.763-.222-.89.495-.862-.222-.925.47-2.04-2.1.476-.221-.61-.888.206-.52.611-.162v-.751l.97-.674h.45l.485-1.016.458-.042.422-.461.45-.11 1.284 1.006.683-.017.323-.555-.332-.58.018-1.809.287-.392 1.033-.111.44-1.203-.134-.299.368-.444.045-1.05-.665-1.927.216-.87-.71-.846.126-1.51-1.024-1.212.027-.605-1.869-2.406-1.734-1.135-.934-.154-.377-.81-.378.29.117.733-.305.41-.53.077-.19.41-.52-.01.233-.665-.44.103-.242-.393-.35-.068-.468.674-1.159-.648-.503-.768-1.599.179-.08-.794.475-.145.459-.606.35.154.548-.947.602-.085.27-.717-.162-1.024.512-.981-.396-.623.72-.657.242.239.718-.205.234-.341-.458-.53.413-1.416-.557-.358-.072-.546.557-.828-.117-1.638-1.257-.964.44-.495-.01-.606-.583-.76.26-.784.836-1.033-.081-.606.548-1.169-.135-.708.97-1.245.45-1.442-.297-1.664.18-.59L8.978 35.4l.782-1.024.638-2.167.377-.282 1.078.495 1.976-.29 2.157 1.578.718.043.189-.845.665.18 1.132-.7.386.375-.45 1.186 1.088.81-.234.504 1.123.188.638-.205-.081-.845.27-.716 1.482-2.176-1.384-1.681-.233-1.126.736-.359 1.321-1.416.737.358.116.785.953.47.736-.487.755.615.288-.649.916.256.71.725.871.086-.144-.623.746.316 2.237-1.579.314-.623.908.137-.01.554 1.034.546-.045.52-.638.53.26.529-.107.785.997.793.233.709.935-.12.979.58.7.026-.08-1.937.368-.572 1.402.325 1.05-.12.665-.52.297.358.674-.512.71.879.485-.162.7-1.476.62-.009 1.42-.614 1.221.512-.377.887.44.248 1.581-.376.297-.691-.728-1.075.189-.367.871-.154.63-1.134 1.284-.709.296-.665-.117-.41-.997-.495-.835-3.165.826-.435.072-1.579.54-.665-.01-.478.943-.24.827-.639 1.069.333.53-.18.009-.545.404-.402h.746l.539-.708.126-.708-.737-.631.18-.81.979-1.161-.234-.512.27-1.195-.458-.162.188-1.297.97-.29.468-.486 1.176.11.845-.204.35.4-.134.837.826-.034 1.168-1.681.063-1.11-.836-.716-.18-.674 1.124-.674.027-.708.997-.59.584.163.404.444.674.042.287.785.863-.221.44-.785.728-.145.395.725 1.437-.214 1.384.41 1.105-.683.332 1.033.854.657 1.5-.068.647.315.664-.418.144-.853.898-.981.288.11.216 1.212 1.617.999.072.631-.504.418 1.195.904 1.968.103.287-.367.018-.845.773-.478.745-1.16 1.258-.162 1.464-.631.89.221.458.82.512-.188.79.179.378-.401-1.015-1.886.817-1.322z" stroke="#31313B" stroke-width=".4" mask="url(#a)"/></svg>