<svg width="33" height="30" fill="none" xmlns="http://www.w3.org/2000/svg"><mask id="a" fill="#fff"><path d="M.113 11.542l1.222-1.417-.368-.281.494-.64-.297-.555 1.222-.35-.242-.554.323-.862-.647.043.081-.828.476.299.207-.453.161.18.36-.256.072.239.305-.393.54.307.098.76.368-.197 1.465.35.26.401.35-.853.611.11L8.45 5.68l.602.136.135-.298 1.743-.836-.036-.23 1.302.562.656-.034-.072-1.109.243-.341-.063-.538-.342-.316.8-.443.943.341.575-.392.36.162.476-.615-.036-.827 1.05-.52 1.196.895.602.128.458 1.152 1.473-.17.71.784-.53.12.368 1.305-.566.504.395.17-.224.205.242.435.369-.017v.649l.305.068-.305 1.382.476.657.332-.06-.17.35.314 1.22.431.564-.27.162.108.188.836.008.674.614 1.383-.213-.17.17.305-.068-.17.308.457.64.97.11.459-.247-.243.324.216.657.907-.025.1.324.25-.47.836-.05.54-.521.978.102.144 1.05 1.078.845-.224 1.45.71-.008.206.315-.341.836.502.948-.278.034-.207.665-1.033.632-1.266.153-.44.76.547-.188.306.256-.35 1.118-.225-.163-.566.205-.422-.23-.126.495-.413.017-.53.537.072.333-.486.435.072.401-.52.7.314.077-.863.435-.018.7-.467-.171-.27.281-.646-.017-.198.3-.368-.274-.647.222-.18.691.333.12-.36.614 1.132.444.045.383-.332.094-.126.418-.539-.366-.198.477-.458-.128-.054.862-.314.154-1.204-.512-.126-.41.315-.315-.54-.538-.359-1.263.593-.11.234-.692-.17-.367-.468.137-.656-.307-.314.298-.827-.785-.485-.12.072-.409-.7-.964-1.079.205v.921l-.512.333-.593-.247-.359.153-.144-.665-.44-.478-.934-.12-.027.197-.593-.265-.216-.17.036-1.05-.593-.956.243-.094-.01-.366-.421-.171.018-.324.27-.086.098-.008.386-.188-.054-.708.324-.23.36.128.008-.197.287.401.566-.324-.152-.708.287.017-.143-.23.422-.572-.62-.589.135-.256.332-.145.584.486.054-.383.431-.188-.207-.341.126-.564.872-.179.853-1.203.27-.077.09.342.314.034.027-.427-.827-.4-.036-.863-.943-.768-.862-.136.107-.495-.359.145.108.376-.7.34-.243-.383.197-.418-.539-.034.476.904-.512.282.135.273.26-.094-.17.435-.377-.077.08.333.324-.239.144.981-.18-.11-.216.298.458-.188.09.367h-.62l-.592.478-.854.213.288 1.365-.306.103.368.281-.574-.256-.557.086-.252-.64-.773.102-.072.734.35.64 1.097.998-.467.222-.027.333-.01.008-1.068.393-.162-.512-.988-.034-.207-.888-.377.401-.8-.017-.09.504-.233-.017-.485.93-.135-.213-.674.187-.233-.332-.548.068-.405-.427-.745.077-.629-.64-.827.094-.754.657-.683-.034-.305-.359-.584-.623.35-1.143-.144-1.553.602-.188-.036-.358-.422-.444.036-1.382-.305-.068-.935-1.732zM13.5 11.49l-.36-.188-.098-.563.377-.06.503.427-.36.076-.062.308zm1.383-.487l.207.111-.557.265.198-.265.152-.11zm-2.812 2.662l.396.342.494-.154-.153-.12.17.248-.772.18-.278-.24.278-.136-.377.094-.027-.248-.36.248.638-.256-.009.042zm5.58-.733l.34-.043-.278.11-.063-.067zm-5.67 6.595l.01-.017-.01.017zm.656.657l-.125.043.126-.043z"/></mask><path d="M.113 11.542l1.222-1.417-.368-.281.494-.64-.297-.555 1.222-.35-.242-.554.323-.862-.647.043.081-.828.476.299.207-.453.161.18.36-.256.072.239.305-.393.54.307.098.76.368-.197 1.465.35.26.401.35-.853.611.11L8.45 5.68l.602.136.135-.298 1.743-.836-.036-.23 1.302.562.656-.034-.072-1.109.243-.341-.063-.538-.342-.316.8-.443.943.341.575-.392.36.162.476-.615-.036-.827 1.05-.52 1.196.895.602.128.458 1.152 1.473-.17.71.784-.53.12.368 1.305-.566.504.395.17-.224.205.242.435.369-.017v.649l.305.068-.305 1.382.476.657.332-.06-.17.35.314 1.22.431.564-.27.162.108.188.836.008.674.614 1.383-.213-.17.17.305-.068-.17.308.457.64.97.11.459-.247-.243.324.216.657.907-.025.1.324.25-.47.836-.05.54-.521.978.102.144 1.05 1.078.845-.224 1.45.71-.008.206.315-.341.836.502.948-.278.034-.207.665-1.033.632-1.266.153-.44.76.547-.188.306.256-.35 1.118-.225-.163-.566.205-.422-.23-.126.495-.413.017-.53.537.072.333-.486.435.072.401-.52.7.314.077-.863.435-.018.7-.467-.171-.27.281-.646-.017-.198.3-.368-.274-.647.222-.18.691.333.12-.36.614 1.132.444.045.383-.332.094-.126.418-.539-.366-.198.477-.458-.128-.054.862-.314.154-1.204-.512-.126-.41.315-.315-.54-.538-.359-1.263.593-.11.234-.692-.17-.367-.468.137-.656-.307-.314.298-.827-.785-.485-.12.072-.409-.7-.964-1.079.205v.921l-.512.333-.593-.247-.359.153-.144-.665-.44-.478-.934-.12-.027.197-.593-.265-.216-.17.036-1.05-.593-.956.243-.094-.01-.366-.421-.171.018-.324.27-.086.098-.008.386-.188-.054-.708.324-.23.36.128.008-.197.287.401.566-.324-.152-.708.287.017-.143-.23.422-.572-.62-.589.135-.256.332-.145.584.486.054-.383.431-.188-.207-.341.126-.564.872-.179.853-1.203.27-.077.09.342.314.034.027-.427-.827-.4-.036-.863-.943-.768-.862-.136.107-.495-.359.145.108.376-.7.34-.243-.383.197-.418-.539-.034.476.904-.512.282.135.273.26-.094-.17.435-.377-.077.08.333.324-.239.144.981-.18-.11-.216.298.458-.188.09.367h-.62l-.592.478-.854.213.288 1.365-.306.103.368.281-.574-.256-.557.086-.252-.64-.773.102-.072.734.35.64 1.097.998-.467.222-.027.333-.01.008-1.068.393-.162-.512-.988-.034-.207-.888-.377.401-.8-.017-.09.504-.233-.017-.485.93-.135-.213-.674.187-.233-.332-.548.068-.405-.427-.745.077-.629-.64-.827.094-.754.657-.683-.034-.305-.359-.584-.623.35-1.143-.144-1.553.602-.188-.036-.358-.422-.444.036-1.382-.305-.068-.935-1.732zM13.5 11.49l-.36-.188-.098-.563.377-.06.503.427-.36.076-.062.308zm1.383-.487l.207.111-.557.265.198-.265.152-.11zm-2.812 2.662l.396.342.494-.154-.153-.12.17.248-.772.18-.278-.24.278-.136-.377.094-.027-.248-.36.248.638-.256-.009.042zm5.58-.733l.34-.043-.278.11-.063-.067zm-5.67 6.595l.01-.017-.01.017zm.656.657l-.125.043.126-.043z" stroke="#31313B" stroke-width=".4" mask="url(#a)"/></svg>