<svg width="9" height="11" fill="none" xmlns="http://www.w3.org/2000/svg"><mask id="a" fill="#fff"><path d="M2.08 3.658l-.01.008.396.342.494-.154-.153-.12.17.248-.772.18-.278-.24.278-.136-.377.094-.027-.248-.36.248.638-.256v.034zm5.64-.768l.27.008-.279.111.01-.12zM1.89 9.264l.027-.333.467-.222-1.096-.998-.35-.64.071-.734.773-.102.251.64.557-.086.575.256-.368-.281.306-.103-.288-1.365.854-.213.592-.478h.62l-.09-.367-.458.188.216-.299.18.111-.144-.981-.324.239-.08-.333.377.077.17-.435-.26.093-.135-.273.512-.281-.476-.905.54.034-.198.419.242.384.7-.342-.107-.375.36-.145-.108.495.862.136.943.768.036.862.827.4-.027.428-.315-.035-.09-.34-.269.076-.853 1.203-.872.18-.126.562.207.342-.431.187-.054.384-.584-.486-.332.145-.135.256.62.589-.423.571.144.23-.287-.016.152.708-.566.324-.287-.4-.009.195-.36-.128-.323.23.054.709-.386.188-.297.034-.125.042-.54-.69.01-.01.009-.016-.027-.043-.018-.017h-.01l-.071-.154.045-.06zm3.09-8.166l.108.017-.557.265.198-.265.251-.017zm-1.842.213L3.041.748l.377-.06.503.427-.36.077-.053.299-.369-.18z"/></mask><path d="M2.08 3.658l-.01.008.396.342.494-.154-.153-.12.17.248-.772.18-.278-.24.278-.136-.377.094-.027-.248-.36.248.638-.256v.034zm5.64-.768l.27.008-.279.111.01-.12zM1.89 9.264l.027-.333.467-.222-1.096-.998-.35-.64.071-.734.773-.102.251.64.557-.086.575.256-.368-.281.306-.103-.288-1.365.854-.213.592-.478h.62l-.09-.367-.458.188.216-.299.18.111-.144-.981-.324.239-.08-.333.377.077.17-.435-.26.093-.135-.273.512-.281-.476-.905.54.034-.198.419.242.384.7-.342-.107-.375.36-.145-.108.495.862.136.943.768.036.862.827.4-.027.428-.315-.035-.09-.34-.269.076-.853 1.203-.872.18-.126.562.207.342-.431.187-.054.384-.584-.486-.332.145-.135.256.62.589-.423.571.144.23-.287-.016.152.708-.566.324-.287-.4-.009.195-.36-.128-.323.23.054.709-.386.188-.297.034-.125.042-.54-.69.01-.01.009-.016-.027-.043-.018-.017h-.01l-.071-.154.045-.06zm3.09-8.166l.108.017-.557.265.198-.265.251-.017zm-1.842.213L3.041.748l.377-.06.503.427-.36.077-.053.299-.369-.18z" stroke="#31313B" stroke-width=".4" mask="url(#a)"/></svg>