<svg width="85" height="64" fill="none" xmlns="http://www.w3.org/2000/svg"><mask id="a" fill="#fff"><path d="M23.595.381l.575-.256.836.367.368.606.53.102 1.249.999-.081.597 1.006.307.234-.273 1.437.29.153.324.853.214.207.332-.162 1.417-.853 1.109-.692.324-2.165-.631-.476-.504-.386.197-1.204-.222-.198-.563.288-.461-.468-.998-.278.213.377.46-.296.93-.369.359-.556.051.62.555-.288.896.79-.802.827.469.952.128.207.213-.279.53.719.178.009.376-.638.23-.979 1.075 1.033-.34.18-.675.386.085.207-.384.063.24.287-.137.063.896.422-.709.88.009.504.222-.468.734-.053.682.655-1.169 1.043-.145-1.096 1.238.161.221-.647 1.314.477-.05.476-1.187 1.931-.734.18-.324 1.275.546-.682.717.476-.137.08.273-.556 1.075-.917-.025.117.247-.314.29 1.931.094-1.563.478 1.339.273-.01.888-.475.179-.405.725-1.482.393-.494.41.7-.18.791.17.243-.392.96-.11-.053-.53.305-.153.521-1.17-.134-.776.377-.46-.422.162.108-.743 1.078-.085.099.23.449-.324.485.145.323-.239.872.265 1.985.025.099.46.566.274 2.578.572.117.443.395-.35.899.197.26.367.305-.205.297.188.18-.256-.764-.82h.871l.486.41.862.017 1.797.785.242-.213.62.75.7.274.243-.205.252.435 1.195.23.422 1.05.135-.256.224.401.144-.136.934.426 2.84 2.432 1.095.538.26.529.441.136.063.375.449-.034.395.674.674.128.899.777 1.967 1.97.943 1.588.216-.077 1.05.964 1.303 1.784.333.093.395-1.083.89 1.126.727.043.054.46 1.15 1.212-.045.341.575-.221 3.162 2.926-.224-.503.215-.205.467.41.755-.086-.593-2.082 1.06 1.562.431 1.297.243.12.08-.214.773.93 1.519.879-.045.819-.431-.316-.243.205.862 1.288.26-.085.405.538.395-.512-.125-.504.368-.034.126.256.108-.307.808 1.228.773-.085.43.376.495 1.262-.422 1.135.215.751-.224.691.674.418.215.52-.242 2.356.359.529.737.384.413-.316.207.341-.315.862.566.46-.368.547.08 1.51-.53.051.225.504-.566 2.005-3.162 3.72-.126.751-.62.307-.117.7-.7.81-1.617.948-1.438 1.476-3.395 1.066-2.318 1.323-1.366-.068-1.42.657-2.308.145-1.177-.393-1.401-.094-1.536-.46-2.112-1.34-3.054-1.212-2.47-.11-6.271-1.52-1.015-.486-.234-.734-.745-.017-1.842-1.851-.62-.205-.755.12-.575.648-.898.162-.548-.734-.009-.964-2.246-.623-.548.103-.27-.171-.08-.563-.243.222-.305-.359.126-.375-1.177-.614-.225-.666-.009.879-.296-.154.224.99-.62.316-2.102-1.656-1.293-1.22-1.276-1.834-.01-.615 1.115-.503-1.294.196-.853-.665-.773.204-.467-.196-.494-.588-.53.426-.8-.179-.27.538-1.167-.512 1.213.861.503-.221-.126-.393.647.247.521.427-.45.111.333.427.53-.017.656.358.234 1.664-.917.589h.836l1.069.98-.045.308.61.512-.646.162.17.18 2.112.98 1.356.171.378.384-.09.392-.36-.383-.79-.137-.35.913-1.5-.418.035.4-1.716-.22-.26.178-.26 1.52-1.402.144 1.069.887-.988-.332.18.802-.198.281-2.812-.093-.719-1.767-.916-.384-.117-1.604-1.473-.085.063-.299-1.842.23-2.56-.17-.899.307-2.614.239-2.183-.145-2.417.538-2.11-3.678-.306-2.125 3.225-5.384.683-.469.009-.392 2.003-2.543.494-2.517-2.2-1.928-2.247-4.54-4.42-2.005-1.347-5.845 1.752-3.182.52-2.33-2.012-.17-.368-.401 3.171-2.543.7.691.657-.538.79-1.22.333-1.066.036-2.082 1.194-.444.35.256 1.77-1.826 1.007.094.8-.862.547-1.646-.512-1.895.503-.025 1.096.861 1.033 1.306 1.887.017.808-.776-.09-1.767-.323-.375.108-.486-.35-.896.584.426.53-.273.17.307.405-.102 2.075 1.084v.742l-1.105 1.561.449-.247.431-.836.413-.154.153-.69 1.51.23.574.383.018-.307-.754-.76.296-1.825.297-.324.494.273L24 3.572l.018-.384.332.069-.431-1.101-.512-.487.26-.34-.575-.624.117-.682.476.042-.09.316z"/></mask><path d="M23.595.381l.575-.256.836.367.368.606.53.102 1.249.999-.081.597 1.006.307.234-.273 1.437.29.153.324.853.214.207.332-.162 1.417-.853 1.109-.692.324-2.165-.631-.476-.504-.386.197-1.204-.222-.198-.563.288-.461-.468-.998-.278.213.377.46-.296.93-.369.359-.556.051.62.555-.288.896.79-.802.827.469.952.128.207.213-.279.53.719.178.009.376-.638.23-.979 1.075 1.033-.34.18-.675.386.085.207-.384.063.24.287-.137.063.896.422-.709.88.009.504.222-.468.734-.053.682.655-1.169 1.043-.145-1.096 1.238.161.221-.647 1.314.477-.05.476-1.187 1.931-.734.18-.324 1.275.546-.682.717.476-.137.08.273-.556 1.075-.917-.025.117.247-.314.29 1.931.094-1.563.478 1.339.273-.01.888-.475.179-.405.725-1.482.393-.494.41.7-.18.791.17.243-.392.96-.11-.053-.53.305-.153.521-1.17-.134-.776.377-.46-.422.162.108-.743 1.078-.085.099.23.449-.324.485.145.323-.239.872.265 1.985.025.099.46.566.274 2.578.572.117.443.395-.35.899.197.26.367.305-.205.297.188.18-.256-.764-.82h.871l.486.41.862.017 1.797.785.242-.213.62.75.7.274.243-.205.252.435 1.195.23.422 1.05.135-.256.224.401.144-.136.934.426 2.84 2.432 1.095.538.26.529.441.136.063.375.449-.034.395.674.674.128.899.777 1.967 1.97.943 1.588.216-.077 1.05.964 1.303 1.784.333.093.395-1.083.89 1.126.727.043.054.46 1.15 1.212-.045.341.575-.221 3.162 2.926-.224-.503.215-.205.467.41.755-.086-.593-2.082 1.06 1.562.431 1.297.243.12.08-.214.773.93 1.519.879-.045.819-.431-.316-.243.205.862 1.288.26-.085.405.538.395-.512-.125-.504.368-.034.126.256.108-.307.808 1.228.773-.085.43.376.495 1.262-.422 1.135.215.751-.224.691.674.418.215.52-.242 2.356.359.529.737.384.413-.316.207.341-.315.862.566.46-.368.547.08 1.51-.53.051.225.504-.566 2.005-3.162 3.72-.126.751-.62.307-.117.7-.7.81-1.617.948-1.438 1.476-3.395 1.066-2.318 1.323-1.366-.068-1.42.657-2.308.145-1.177-.393-1.401-.094-1.536-.46-2.112-1.34-3.054-1.212-2.47-.11-6.271-1.52-1.015-.486-.234-.734-.745-.017-1.842-1.851-.62-.205-.755.12-.575.648-.898.162-.548-.734-.009-.964-2.246-.623-.548.103-.27-.171-.08-.563-.243.222-.305-.359.126-.375-1.177-.614-.225-.666-.009.879-.296-.154.224.99-.62.316-2.102-1.656-1.293-1.22-1.276-1.834-.01-.615 1.115-.503-1.294.196-.853-.665-.773.204-.467-.196-.494-.588-.53.426-.8-.179-.27.538-1.167-.512 1.213.861.503-.221-.126-.393.647.247.521.427-.45.111.333.427.53-.017.656.358.234 1.664-.917.589h.836l1.069.98-.045.308.61.512-.646.162.17.18 2.112.98 1.356.171.378.384-.09.392-.36-.383-.79-.137-.35.913-1.5-.418.035.4-1.716-.22-.26.178-.26 1.52-1.402.144 1.069.887-.988-.332.18.802-.198.281-2.812-.093-.719-1.767-.916-.384-.117-1.604-1.473-.085.063-.299-1.842.23-2.56-.17-.899.307-2.614.239-2.183-.145-2.417.538-2.11-3.678-.306-2.125 3.225-5.384.683-.469.009-.392 2.003-2.543.494-2.517-2.2-1.928-2.247-4.54-4.42-2.005-1.347-5.845 1.752-3.182.52-2.33-2.012-.17-.368-.401 3.171-2.543.7.691.657-.538.79-1.22.333-1.066.036-2.082 1.194-.444.35.256 1.77-1.826 1.007.094.8-.862.547-1.646-.512-1.895.503-.025 1.096.861 1.033 1.306 1.887.017.808-.776-.09-1.767-.323-.375.108-.486-.35-.896.584.426.53-.273.17.307.405-.102 2.075 1.084v.742l-1.105 1.561.449-.247.431-.836.413-.154.153-.69 1.51.23.574.383.018-.307-.754-.76.296-1.825.297-.324.494.273L24 3.572l.018-.384.332.069-.431-1.101-.512-.487.26-.34-.575-.624.117-.682.476.042-.09.316z" stroke="#31313B" stroke-width=".4" mask="url(#a)"/></svg>