<svg width="30" height="17" fill="none" xmlns="http://www.w3.org/2000/svg"><mask id="a" fill="#fff"><path d="M2.152 4.325l.96.725.89-.469.252.009.323.605.467.009.782-.555.61.393.28-.947.943-.444.107-.392.485-.077.72.35.718-.214-.045 1.024 2.255.452-.036.546.234.188.763-.136.198.204-.126.58.8.709.817.034 1.06.76.521-.453.45.265-.405.776 1.428-.486.512.375.899-.213.485.205.207-.367-.98-.939.575-.665-.17-1.016.395-.46.422.52.44-1.263 1.195-.4-.26-1.178.44-.854 1.195-.861.638.153-.414 1.613.35.358 1.276-.179.88-.623.171.7.234-.017.476-.998.35.153.234.52-.413.632.907.734.404 1.34.477 1.476-.638.503.503.026.27.358-.522.52.98-.042-.522.776.153.213.683.018-.018.836-.584.145-1.491 1.1-2.336.657-1.024 1.656-.413.529-1.42.051-1.446.452-.315-.179-.161-.691-1.042.213-1.366-.128-1.572.888.08.657.773.93-.188.298-.988.256-.36-.41-1.401.206-1.653-.47-.557-.554-.126-1.016-1.222-.64-.718-.068-.135-.401-.35-.085-.773.367-1.267-.547-.503.785.404.751-.27.538-.538.085-.413-.247-.71.298-1.222-.12-.89.504-.359-.648-.422.392.117.743-1.087-.939.305-.657.8-.691L1.02 12.38l.323-.495.35.614.495-.341.583.375.135-.204-.251-.393.422-.239.853.034-.26-.58-1.015.06-.36-.512-.637.29.161.273-.71.307-.637-.93.647.24 1.347-.794.108-.53.88-.145-.278-.52-.431-.145.233-.734.404.222V7.61l.54-.324-.477-.299-.08-.87-.567.128-.134-.367-.198.222-.674-.589-.36-.648.36-.35.414.06-.054-.248z"/></mask><path d="M2.152 4.325l.96.725.89-.469.252.009.323.605.467.009.782-.555.61.393.28-.947.943-.444.107-.392.485-.077.72.35.718-.214-.045 1.024 2.255.452-.036.546.234.188.763-.136.198.204-.126.58.8.709.817.034 1.06.76.521-.453.45.265-.405.776 1.428-.486.512.375.899-.213.485.205.207-.367-.98-.939.575-.665-.17-1.016.395-.46.422.52.44-1.263 1.195-.4-.26-1.178.44-.854 1.195-.861.638.153-.414 1.613.35.358 1.276-.179.88-.623.171.7.234-.017.476-.998.35.153.234.52-.413.632.907.734.404 1.34.477 1.476-.638.503.503.026.27.358-.522.52.98-.042-.522.776.153.213.683.018-.018.836-.584.145-1.491 1.1-2.336.657-1.024 1.656-.413.529-1.42.051-1.446.452-.315-.179-.161-.691-1.042.213-1.366-.128-1.572.888.08.657.773.93-.188.298-.988.256-.36-.41-1.401.206-1.653-.47-.557-.554-.126-1.016-1.222-.64-.718-.068-.135-.401-.35-.085-.773.367-1.267-.547-.503.785.404.751-.27.538-.538.085-.413-.247-.71.298-1.222-.12-.89.504-.359-.648-.422.392.117.743-1.087-.939.305-.657.8-.691L1.02 12.38l.323-.495.35.614.495-.341.583.375.135-.204-.251-.393.422-.239.853.034-.26-.58-1.015.06-.36-.512-.637.29.161.273-.71.307-.637-.93.647.24 1.347-.794.108-.53.88-.145-.278-.52-.431-.145.233-.734.404.222V7.61l.54-.324-.477-.299-.08-.87-.567.128-.134-.367-.198.222-.674-.589-.36-.648.36-.35.414.06-.054-.248z" stroke="#31313B" stroke-width=".4" mask="url(#a)"/></svg>