<svg width="31" height="18" fill="none" xmlns="http://www.w3.org/2000/svg"><mask id="a" fill="#fff"><path d="M7.858 5.16l2.336.255.368.461-.153.512 1.491-.444.782.256.108-.69 1.509-1.699.764.683 1.204-.077.664-.213.027-.572.485-.17.225-.7h.638l.404.477.674-.716.79.315.836-.375.413.273-.242.614.71.265.26-.137.125-.742.522-.418-.324-.563.153-.615.997-.273.26.393-.404.64.018.657.548 1.425.63.264.628-.469 1.015-.23.908.477-.09.393.27.427-.261.836 1.266.35.387-.145.557.332.27.76-.432 1.425.117.494.548.069.242.384-.045.256-.736.273-.459.768-.395-.393-.8.52-.269-.392.306-.444-.521-.29-.944.333-.368.777-.737-.094-.43.836-1.645-.367-.916.538-.476.802.161.46.997.017-.071.342-.512.69-.647-.016-.512.956-.8-.23-.386 1.168-1.366.998.108.7-2.596-1.314-.764-1.886-1.94-.307-.728-.4-.548-1.383-.386-.316-1.078.102-2.354 1.51-.638.743-.449.077-.773-.384-2.443 1.536-.413-1.084.072-.606-1.465-1.024.638-.784-.063-.709-1.132-.708-.826.162-.17-.478.26-.98.601-.658.935.051-.108-1.954.503-.64 1.932-.392.601-.725 1.348.418.503-.128.341-.563.36.426z"/></mask><path d="M7.858 5.16l2.336.255.368.461-.153.512 1.491-.444.782.256.108-.69 1.509-1.699.764.683 1.204-.077.664-.213.027-.572.485-.17.225-.7h.638l.404.477.674-.716.79.315.836-.375.413.273-.242.614.71.265.26-.137.125-.742.522-.418-.324-.563.153-.615.997-.273.26.393-.404.64.018.657.548 1.425.63.264.628-.469 1.015-.23.908.477-.09.393.27.427-.261.836 1.266.35.387-.145.557.332.27.76-.432 1.425.117.494.548.069.242.384-.045.256-.736.273-.459.768-.395-.393-.8.52-.269-.392.306-.444-.521-.29-.944.333-.368.777-.737-.094-.43.836-1.645-.367-.916.538-.476.802.161.46.997.017-.071.342-.512.69-.647-.016-.512.956-.8-.23-.386 1.168-1.366.998.108.7-2.596-1.314-.764-1.886-1.94-.307-.728-.4-.548-1.383-.386-.316-1.078.102-2.354 1.51-.638.743-.449.077-.773-.384-2.443 1.536-.413-1.084.072-.606-1.465-1.024.638-.784-.063-.709-1.132-.708-.826.162-.17-.478.26-.98.601-.658.935.051-.108-1.954.503-.64 1.932-.392.601-.725 1.348.418.503-.128.341-.563.36.426z" stroke="#31313B" stroke-width=".4" mask="url(#a)"/></svg>