<svg width="45" height="31" fill="none" xmlns="http://www.w3.org/2000/svg"><mask id="a" fill="#fff"><path d="M2.425 12.23l.691.248.782-.52.018-.964-.323-.837.377-.58-.243-.392.198-.342.189-.128 1.257.734 1.087-.623.764.248.368-.137.27-1.237 1.186-.938.602-1.57.7.017.755.512.844-.316.782-1.186.009-.64.476-.333-.35-1.655.907.085.62.742.332.035.333-.094.314-1.238.333-.085 2.129 1.417.287 1.348 1.959 1.117.601-.221.396-.683-.26-.776.179-.717 1.05-.802.603-.913.386.597 1.384.913.655-.76.584.205 1.024-.238 1.294 2.184.575.085.611.495.458.145.315-.52 1.06-.162 1.823.87.997-.051 1.312.614-.377.282.278.23 1.608.46-.242 1.682.584-.342.126.88.853-1.161.557.008 1.14.632.351-.18.458.58 1.95.717.44.52.063.581.431.299.054.512.332.29.854.102-.44.384-.782-.188-.404.41-.342-.196-.467.52-.575-.222-.161.743-2.372-.418-1.554.742-.252.29.279.546-.88 1.041-.665.12-.261.298-.61-.46-.297.153-.665-.341-.53.512-.036.623.278.452-.413.41-1.347-.76-.467.136-.279-.4h-.548l-.602-.53-.764.111-.062-.29-1.043 1.084-1.185-.18-1.06 1.357 1.015.802-.162 1.007-.728.495-.18.606.297.589-.44.392-.548-.213-.827.281.261.308-.252.512.198.486-.539.154-.17.435-.019.435.503.333-.188.58-.674-.768-.809.529-.485-.427-.296.341-.431-.255-.315.128-.907 1.442-.7-.026-.378.537-.584-.017-.045.316-.808-.085-.081.904-.611-.12-.189.325-.71.188.045.375-.323.051.153.401-.27.103-.26-.606-.467.094-.225.367-.35-.18-.504.692.279.307-.44.11-.36.794-2.228-.341-.404.418-1.51-.657-.305-.154-.79.419-.647-.41-.26-.623.925-2.227-2.354-1.544.413-1.067-.233-.222 1.33-1.425-.62-.017-.71-.486.431-1.067-.575-.29.521-.674.045-.725-1.707-.026-1.168-.546h-.673l-.072-.623-.899-.776-1.14-.333.188-.819-.35-.546 1.662-1.16V12.23z"/></mask><path d="M2.425 12.23l.691.248.782-.52.018-.964-.323-.837.377-.58-.243-.392.198-.342.189-.128 1.257.734 1.087-.623.764.248.368-.137.27-1.237 1.186-.938.602-1.57.7.017.755.512.844-.316.782-1.186.009-.64.476-.333-.35-1.655.907.085.62.742.332.035.333-.094.314-1.238.333-.085 2.129 1.417.287 1.348 1.959 1.117.601-.221.396-.683-.26-.776.179-.717 1.05-.802.603-.913.386.597 1.384.913.655-.76.584.205 1.024-.238 1.294 2.184.575.085.611.495.458.145.315-.52 1.06-.162 1.823.87.997-.051 1.312.614-.377.282.278.23 1.608.46-.242 1.682.584-.342.126.88.853-1.161.557.008 1.14.632.351-.18.458.58 1.95.717.44.52.063.581.431.299.054.512.332.29.854.102-.44.384-.782-.188-.404.41-.342-.196-.467.52-.575-.222-.161.743-2.372-.418-1.554.742-.252.29.279.546-.88 1.041-.665.12-.261.298-.61-.46-.297.153-.665-.341-.53.512-.036.623.278.452-.413.41-1.347-.76-.467.136-.279-.4h-.548l-.602-.53-.764.111-.062-.29-1.043 1.084-1.185-.18-1.06 1.357 1.015.802-.162 1.007-.728.495-.18.606.297.589-.44.392-.548-.213-.827.281.261.308-.252.512.198.486-.539.154-.17.435-.019.435.503.333-.188.58-.674-.768-.809.529-.485-.427-.296.341-.431-.255-.315.128-.907 1.442-.7-.026-.378.537-.584-.017-.045.316-.808-.085-.081.904-.611-.12-.189.325-.71.188.045.375-.323.051.153.401-.27.103-.26-.606-.467.094-.225.367-.35-.18-.504.692.279.307-.44.11-.36.794-2.228-.341-.404.418-1.51-.657-.305-.154-.79.419-.647-.41-.26-.623.925-2.227-2.354-1.544.413-1.067-.233-.222 1.33-1.425-.62-.017-.71-.486.431-1.067-.575-.29.521-.674.045-.725-1.707-.026-1.168-.546h-.673l-.072-.623-.899-.776-1.14-.333.188-.819-.35-.546 1.662-1.16V12.23z" stroke="#31313B" stroke-width=".4" mask="url(#a)"/></svg>