<svg width="40" height="41" fill="none" xmlns="http://www.w3.org/2000/svg"><mask id="a" fill="#fff"><path d="M30.477.42l.099.598.772-.299 3.612.222 1.886.205 2.57.827-1.141 1.237-.35 2.45-.486.904-.395.17-1.024-.657-1.456.896-1.221-.222-.35.214-.477.964.117 1.203.728 1.152-.62.495.35.529-.233 1.851-.36-.426-.341.563-.503.128-1.348-.418-.602.725-1.931.393-.503.64.108 1.953-.935-.05-.602.656-.26.982.17.477.827-.162 1.132.708.063.709-.638.785 1.464 1.024-.072.605.414 1.084-.378.76.162 1.467-.916 1.169.009.708 1.302 1.178 1.384.563.17.648-.87.563-.261.964-.836.478-.386.59.368 1.364-.88.623-1.276.18-.35-.359.413-1.613-.638-.153-1.195.861-.44.854.26 1.177-1.194.401-.44 1.263-.423-.52-.395.46.17 1.016-.574.665.979.939-.207.367-.485-.205-.898.213-.512-.375-1.429.486.405-.776-.45-.265-.52.452-1.06-.759-.818-.034-.8-.708.126-.58-.197-.205-.764.136-.234-.188.036-.546-2.255-.452.045-1.024-.718.214-.72-.35-.484.077-.108.392-.943.444-.279.947-.61-.393-.782.555-.467-.008-.324-.606-.251-.009-.89.47-.961-.726-.036-1.152.404-.315-.413-.316-.323.264-.26-.204-.89.554-1.456-.333.144-1.092-.98.546-.502-.554.09-.41.458-.17.395-.743.279-1.425h.314l.692-.802-.342-.955.036-1.195 1.123-1.459 1.042-.538.306-1.27.719-.112.691-.623.081-.546-.233-.273.323-.375.755-.162.593-.64.044-.453-1.221-.469-.189-1.212-.61-.563.376-.69 1.51-.06-.045-2.116-.36.264-.314-.247.341-.76-.341-.426.386-.495.719-.273.512.273.431-.197.027-.29 2.525-.29 1.105-1.996-.45-.188.045-.222-.808-.188.063-1.04.314-.461.773-.342-.171-.375.45-.307.395.273.18-.487.305.197.098-.256-1.024-.58.1-.402 2.254.086 1.204-.82.8-.042 1.428-2.116.934.102.135-.793.449-.29-.144-.572.342-.333-.234-1.894.297-.401L22.957.47l.772.683.79-.205 1.06 1.289.441.017.368-.307.225-.828.278.034.198-.324.467.12 2.92-.53z"/></mask><path d="M30.477.42l.099.598.772-.299 3.612.222 1.886.205 2.57.827-1.141 1.237-.35 2.45-.486.904-.395.17-1.024-.657-1.456.896-1.221-.222-.35.214-.477.964.117 1.203.728 1.152-.62.495.35.529-.233 1.851-.36-.426-.341.563-.503.128-1.348-.418-.602.725-1.931.393-.503.64.108 1.953-.935-.05-.602.656-.26.982.17.477.827-.162 1.132.708.063.709-.638.785 1.464 1.024-.072.605.414 1.084-.378.76.162 1.467-.916 1.169.009.708 1.302 1.178 1.384.563.17.648-.87.563-.261.964-.836.478-.386.59.368 1.364-.88.623-1.276.18-.35-.359.413-1.613-.638-.153-1.195.861-.44.854.26 1.177-1.194.401-.44 1.263-.423-.52-.395.46.17 1.016-.574.665.979.939-.207.367-.485-.205-.898.213-.512-.375-1.429.486.405-.776-.45-.265-.52.452-1.06-.759-.818-.034-.8-.708.126-.58-.197-.205-.764.136-.234-.188.036-.546-2.255-.452.045-1.024-.718.214-.72-.35-.484.077-.108.392-.943.444-.279.947-.61-.393-.782.555-.467-.008-.324-.606-.251-.009-.89.47-.961-.726-.036-1.152.404-.315-.413-.316-.323.264-.26-.204-.89.554-1.456-.333.144-1.092-.98.546-.502-.554.09-.41.458-.17.395-.743.279-1.425h.314l.692-.802-.342-.955.036-1.195 1.123-1.459 1.042-.538.306-1.27.719-.112.691-.623.081-.546-.233-.273.323-.375.755-.162.593-.64.044-.453-1.221-.469-.189-1.212-.61-.563.376-.69 1.51-.06-.045-2.116-.36.264-.314-.247.341-.76-.341-.426.386-.495.719-.273.512.273.431-.197.027-.29 2.525-.29 1.105-1.996-.45-.188.045-.222-.808-.188.063-1.04.314-.461.773-.342-.171-.375.45-.307.395.273.18-.487.305.197.098-.256-1.024-.58.1-.402 2.254.086 1.204-.82.8-.042 1.428-2.116.934.102.135-.793.449-.29-.144-.572.342-.333-.234-1.894.297-.401L22.957.47l.772.683.79-.205 1.06 1.289.441.017.368-.307.225-.828.278.034.198-.324.467.12 2.92-.53z" stroke="#31313B" stroke-width=".4" mask="url(#a)"/></svg>