<svg width="65" height="43" fill="none" xmlns="http://www.w3.org/2000/svg"><mask id="a" fill="#fff"><path d="M6.882.122l2.076.486 1.644-.17 1.356.52 7.25.196 2.219-.17.808.844 5.184 1.084 1.204.887 1.635.751 3.423 4.616 2.093-.256 3.584-.896.387.145 2.174 2.756.476.137 4.94-1.323 2.552-.247.386-.452-.018-.572 1.752-.444.782 1.408-.988 1.724.682.546-.09.836.656.401-.063.879.593 1.69-.503 1.066-.43.17.457.58 2.093.026 1.25-2.175 1.104-1.289 1.123-.35.845.623.548-.06.637-.537.584.162.162 1.015-.287.376.404 1.229-.162.315.593.973.764.316.233.52-.18 1.34-.952.7 1.563.05-.053 1.443.368 1.39-.342 1.323 1.034 1.126.26.845-.305.444-.494.153-.126.546.745.666-.494.657.72 1.68-.037.248-1.132.213-1.86.854-1.266 1.519-.27-.316-.889-.23-1.842.904-.97-.162-2.048.298.09.888-.593.623-.512-.196-.252-.751-.844-.086-.557.282-2.372 2.21.117.58-.566.734.126.41-.809.759.198.247-.674.23-.638-.127-1.267-.88.198-.52-.341-.17-2.255-.461-.44-1.084.664-.41.063-.545-1.689-.043-.027-.964-.745-.717-1.078.034-.45-.426-.637.093-.207-.819-.835-.785-.234-.964-.36-.034-.484.495.242.708-1.554.444-.45.41.136.477-.764.077-1.07.819-.376.11-.261-.46-.296.12-.396.281.18.427-1.42.828-.161.64-1.42.426-.125.503-.764.521-.62.247-.656-.35-.53.41-.602.085-.386-.264-.206.384-.45-.256-1.509.282-.341.238-.315 1.075-1.931.461-.728-.546-.036-.76-.467.487-.925.051.018.734.665.376-.656.162.116.469-.134.273-.27-.102-.287.665-7.142-5.785-1.644-1.74-.521-1.366 1.176.077.297.358.602-.358.602-.768.188-.785-.134-.572-.44-.145.979-.503-.036-.333-1.24.427-.539.742-1.267.222-1.428-.324-.045.853-3.405 1.493-.188-3.43.107-.76.845-.554-.153-.87-.602-.307-.197-.913-.566-.572-.162.572-.413-1.16-1.222-.01.548-1.433-.494-.776-.467-.026.278-.973-.584-.802-.08-.674-.504-.128.97-1.288.602-.188-1.203-.631-.19-.614.27-.316-.548-.81.279-.333.808.238.45-.213-.216-1.305 1.213-1.314-.09-.632.97-.162.476-.538.854.018 1.186-.675 1.14.265.746-.401-.135-.58-1.114-.939-.107-.955.251-.487-.575-.443-1.096.7-.341-.607L6.36 7.144l.611-.128.79-.828v-2.5l-.44-.512.046-.955-.486-2.1z"/></mask><path d="M6.882.122l2.076.486 1.644-.17 1.356.52 7.25.196 2.219-.17.808.844 5.184 1.084 1.204.887 1.635.751 3.423 4.616 2.093-.256 3.584-.896.387.145 2.174 2.756.476.137 4.94-1.323 2.552-.247.386-.452-.018-.572 1.752-.444.782 1.408-.988 1.724.682.546-.09.836.656.401-.063.879.593 1.69-.503 1.066-.43.17.457.58 2.093.026 1.25-2.175 1.104-1.289 1.123-.35.845.623.548-.06.637-.537.584.162.162 1.015-.287.376.404 1.229-.162.315.593.973.764.316.233.52-.18 1.34-.952.7 1.563.05-.053 1.443.368 1.39-.342 1.323 1.034 1.126.26.845-.305.444-.494.153-.126.546.745.666-.494.657.72 1.68-.037.248-1.132.213-1.86.854-1.266 1.519-.27-.316-.889-.23-1.842.904-.97-.162-2.048.298.09.888-.593.623-.512-.196-.252-.751-.844-.086-.557.282-2.372 2.21.117.58-.566.734.126.41-.809.759.198.247-.674.23-.638-.127-1.267-.88.198-.52-.341-.17-2.255-.461-.44-1.084.664-.41.063-.545-1.689-.043-.027-.964-.745-.717-1.078.034-.45-.426-.637.093-.207-.819-.835-.785-.234-.964-.36-.034-.484.495.242.708-1.554.444-.45.41.136.477-.764.077-1.07.819-.376.11-.261-.46-.296.12-.396.281.18.427-1.42.828-.161.64-1.42.426-.125.503-.764.521-.62.247-.656-.35-.53.41-.602.085-.386-.264-.206.384-.45-.256-1.509.282-.341.238-.315 1.075-1.931.461-.728-.546-.036-.76-.467.487-.925.051.018.734.665.376-.656.162.116.469-.134.273-.27-.102-.287.665-7.142-5.785-1.644-1.74-.521-1.366 1.176.077.297.358.602-.358.602-.768.188-.785-.134-.572-.44-.145.979-.503-.036-.333-1.24.427-.539.742-1.267.222-1.428-.324-.045.853-3.405 1.493-.188-3.43.107-.76.845-.554-.153-.87-.602-.307-.197-.913-.566-.572-.162.572-.413-1.16-1.222-.01.548-1.433-.494-.776-.467-.026.278-.973-.584-.802-.08-.674-.504-.128.97-1.288.602-.188-1.203-.631-.19-.614.27-.316-.548-.81.279-.333.808.238.45-.213-.216-1.305 1.213-1.314-.09-.632.97-.162.476-.538.854.018 1.186-.675 1.14.265.746-.401-.135-.58-1.114-.939-.107-.955.251-.487-.575-.443-1.096.7-.341-.607L6.36 7.144l.611-.128.79-.828v-2.5l-.44-.512.046-.955-.486-2.1z" stroke="#31313B" stroke-width=".4" mask="url(#a)"/></svg>