<svg width="145" height="77" fill="none" xmlns="http://www.w3.org/2000/svg"><mask id="a" fill="#fff"><path d="M53.23 35.595l-1.077.333-.926-.077-.494.315-.754-.068-.063.376-.988.469 1.033-1.17.952-.57 2.74.136-.422.256zm47.192-14.83l1.976.845.809.614.287.427-.018.35-.224.025.377.418.198 1.263-.504-.222-.485-1.954-1.212-.827-.764-.154-.89-.785-.053-.87.503.87zM41.965 20.1l1.644 1.117h-.341l.198.367.332-.273.89.81.745 1.29.162 1.544-1.015 1.885-.153-.631.961-2.56-.216-.597-.008.836-1.06.879.08.47-1.374.784.215.051-.332.376.09.264.27-.042-.737.76-.79 1.578-1.905.972-.279-.187.072.324-2.453.973-.035-.214-1.366.487-.234-.52-.152.707-1.051-.486.449.136-1.977-2.005.387-.068-.405-.367-.09.273-.18-.128.18 1.075.998 1.203-.422-.238-.593-.58-.19-.837-.026-4.48.404-2.244.872-2.21 1.653-1.749 1.087-.648 2.371-.393 1.24.564 2.084 1.732zm-20.42 41.766l-.018.205 2.112-.46.251.392.17-.495.738-.034 2.12-1.084 1.365.572-.152-.504 1.06-1.45.08-2.04-.52-.836.71-.75-.09-1.52.996-1.637-.575-2.065 1.051-1.067.692.418-.224.06.09.384 1.033-1.075.61-.23.818.435 1.348-.93.206.127-.206.222 1.203-.128.989.58-.414.188.18.333.503-.094-.377-.085.314-.393-1.275-1.083-.737.256.305-1.092-.099-1.067-1.105-1.322 1.546 1.203 1.078.119 1.006-.299 2.65-1.63 3.046-2.397-.144.597-1.348.88.333.298.458-.222-.027-.273.377.008-.045-.426.378-.111.305-.572-.126-.316 4.636-4.266.718.427 2.471-.649.458-.469.431.026.063-.333.863.102.27-.35-.594-.085.431-.623 1.914-.384 2.156-1.05.297.129-.665.87-.692.051.063.632.584-.615.566.342-.036.529.36-.256.26.11-.198.094.072.743-.683.418-.189.46.953.863.108-.273.602-.077 1.167-1.17.647-.306.377-.948-1.158-.742-.225-.742-.395-.197.242-.776-.808.836-.728-.333 6.917-4.906 3.316-1.305 3.665-.555.88.273-.404.265-.557-.213-.575.409-2.938.683-1.733.17.224.214-.431.324.907.64.117-.214-.458-.4.907.068 1.285.597-.252.64-.557.026-.287.947.099.75-.692.683-.243.87.557.265.764 1.11.233 1.902-.826.58.072.572-.44-.17-.512-.718-.423.12-.215-.265.027.256.44.18-.018.776-.314-.563-.809-.282-1.042.53-.737 1.091-.009.87-.341-.025.207 1.288-.423.129.207.11.539-.452-.072-.554.35-.59 1.025-.298.745.145 1.015-.307.387.282.26-.103.36.23-.216.308.27.324.826-.563-.377.648.512-.7.08.385.432-.512-.126.836.251 1.177-1.113 1.835.251.154 1.258-1.699.386-2.133.575-.102 1.033-1.1.368.144.782 1.903.422.341.737-.008-.207.674.521-.922-.08-.69.476-.607-.63-1.194.27.162-.188-.256.871-1.732h.45l-.055-.248.79-.75.225.11-.071-.196.934-.87 1.85-.017 1.905-1.561.719-.103 1.32.93 1.096.009 1.16-.495.951.358.602.742 1.213.58 1.716-.195.997-.973.027-.768 1.16-1.681-.612-.18-1.204.615-1.096-.034 4.591-1.51.207.145-.297.41.18.673.485-.358.126-.452-.422-.341.161-.256 5.92-2.876 1.905-.06.692.24-.036.213-.503-.197-.8.308-.718.665.817.247 1.887 1.485.709 1.374-.512 1.075-1.159-.188-.548.273-.036.691-.602.777.522 1.1-.27 1.656.332.367 1.321.23.997.606 1.59-.444.207-.41.503-.042.422-.922-.979-3.037.88-1.348.755.631 2.444-.29 1.212-.921 1.141-2.005.53-.427.593.043-.152.63 1.033.01.431.947.359-.017-.287-.111.045-.93-1.402-1.186-.108.247-.125-.162.314-1.255-.287-.955.134-.341-.62-1.246-.386-.333-.278.145.081.956-.764-.487-.135-2.27-2.111-3.284-.081-.555-.494-.427.09-.605-.324-.342.216-1.228.827-.709.664.23 1.303-.11-.081.64.764.239.224-.248-.691-1.365.045-.46.565.145-.368-1.63.863-.93 1.311.546.351-.632.485.845.736-.043.324.555.853.23 1.581.094 2.004.598 5.12.383.944.29.009.572.098-.597 3.63 1.331 5.291 2.543.8.828-.18.247.296-.162 2.13 1.758.557 1.126-.728.682-.404.982.17 1.459-.242.477-1.015.675.539 1.322-.243.478.8.631.233-.614.494.23 1.51 1.374 1.23-.145.872.52-.009.76 1.123.597-.297.905.899 2.005-.234.87-1.213 1.16-1.078.615-.593-.034-1.06-.615-.692.29-1.212.018-1.177.955.171 2.287-.935.358-.251.674-3.172 1.75.36 1.808-1.608 1.835.072.836-1.357-.614-1.033.29-1.608 1.553-1.06 2.193-.153 2.158-7.214 4.796-.772 1.305-1.007-.153-1.069.614-.718-.23-34.147.366-8.867-.239-15.65-1.305-3.368 2.585-.719.069.144 1.98-16.898 10.264-1.716-.325-1.213.111-.916-.29-1.456.111-2.129 1.81-.638 1.083.79 1.263-.332.29-2.147-.188-1.796.239-4.68-3.592-1.699.682-1.877-1.305-1.132.47-.485-.07-2.66-1.834-3.575-.964-1.168-1.553-1.545-.375.557-1.203.45-.197.466-2.21.944-.264-.665-.188-.836-1.774.818-.666-.108-1.04.368-.197-.835-1.493-.647-.572.08-.47.46-.35-.666.325-.71-.76.036-.383-.907-.367-1.15.128-.548-.606.018-1.015 1.15-4.454.854-1.895.314-.127-.09.537.333-.64.206.043-.377-.359-.234.086.458-1.348-.43-1.16.359-.64.503.008-.297-.376.7-.204-.655-.163-.215.171.035-.956 1.204-.99-.952.197.117-3.123-.252-1.51-1.186-1.4-3.97-3.25-.88-1.033-.01-.47 1.213-.008 3.791 2.253 4.294-.043 3.333.273 2.066.444 3.073 1.365-.746-.324-.206.307.96 1.229.019.563.736.418 1.177 1.69 1.384.99.063.28-.467.171.386-.102.126 1.433.871 1.75-.054 1.467-1.653.026-.952-.307.162.273-1.537.486-.61-.102-.692.588-1.177.18-.09-.299-.925.239-1.222.887-.27-.11-.152.324.35-.069.162.41-.26 1.33-.28-.144-.646.273-1.033 1.135-.467 1.092-.108 1.45-.503.342.242-.24.333.35.18-.144 1.365 1.092 2.812 1.459-.09 1.459.647.555.781 2.124 1.312.674.099.24-.377.332 3.422-.879.378.026.27.366-.226.205zM102.184.654l-.027.666.602.256 1.293 1.254 1.536 2.551 1.303 1.075-.018.427 1.105.665.467-.12-.027.436.422.572 1.492 1.655.691.256.054.82.629 1.458-.503.785.135.802-.764-.444.252.572-.611.026-.153.281-.314-.196.135.341-.566-.213.17.367-1.266-.853.215.571-.503-.153.18.657-.405-.145-.152-.478-.719.12-1.356-.436.206-.529-.251-.264.063-.632.197.29.629-.11-1.006-1.374-.836-.598-.08.205-.656-.264-.351.162-.314-.418-.548-.017-.934-.615 1.248 1.604-.736-.017-.494-1.083-1.168-.913-1.312-1.8.288-.675-.638-.23.691-.205-.467-.341.297-.137-.072-.29-.324.282-.152-.53-.17.214-.243-.153.593-.384-.558-.461-.152.222.036-.35-.369-.017.072-.333 1.249.239.934.725.431-.077.009-.503-1.814-1.4-.153-.46.871.367v-.47l.854-.546.09-.964.862-.06.881-.665z"/></mask><path d="M53.23 35.595l-1.077.333-.926-.077-.494.315-.754-.068-.063.376-.988.469 1.033-1.17.952-.57 2.74.136-.422.256zm47.192-14.83l1.976.845.809.614.287.427-.018.35-.224.025.377.418.198 1.263-.504-.222-.485-1.954-1.212-.827-.764-.154-.89-.785-.053-.87.503.87zM41.965 20.1l1.644 1.117h-.341l.198.367.332-.273.89.81.745 1.29.162 1.544-1.015 1.885-.153-.631.961-2.56-.216-.597-.008.836-1.06.879.08.47-1.374.784.215.051-.332.376.09.264.27-.042-.737.76-.79 1.578-1.905.972-.279-.187.072.324-2.453.973-.035-.214-1.366.487-.234-.52-.152.707-1.051-.486.449.136-1.977-2.005.387-.068-.405-.367-.09.273-.18-.128.18 1.075.998 1.203-.422-.238-.593-.58-.19-.837-.026-4.48.404-2.244.872-2.21 1.653-1.749 1.087-.648 2.371-.393 1.24.564 2.084 1.732zm-20.42 41.766l-.018.205 2.112-.46.251.392.17-.495.738-.034 2.12-1.084 1.365.572-.152-.504 1.06-1.45.08-2.04-.52-.836.71-.75-.09-1.52.996-1.637-.575-2.065 1.051-1.067.692.418-.224.06.09.384 1.033-1.075.61-.23.818.435 1.348-.93.206.127-.206.222 1.203-.128.989.58-.414.188.18.333.503-.094-.377-.085.314-.393-1.275-1.083-.737.256.305-1.092-.099-1.067-1.105-1.322 1.546 1.203 1.078.119 1.006-.299 2.65-1.63 3.046-2.397-.144.597-1.348.88.333.298.458-.222-.027-.273.377.008-.045-.426.378-.111.305-.572-.126-.316 4.636-4.266.718.427 2.471-.649.458-.469.431.026.063-.333.863.102.27-.35-.594-.085.431-.623 1.914-.384 2.156-1.05.297.129-.665.87-.692.051.063.632.584-.615.566.342-.036.529.36-.256.26.11-.198.094.072.743-.683.418-.189.46.953.863.108-.273.602-.077 1.167-1.17.647-.306.377-.948-1.158-.742-.225-.742-.395-.197.242-.776-.808.836-.728-.333 6.917-4.906 3.316-1.305 3.665-.555.88.273-.404.265-.557-.213-.575.409-2.938.683-1.733.17.224.214-.431.324.907.64.117-.214-.458-.4.907.068 1.285.597-.252.64-.557.026-.287.947.099.75-.692.683-.243.87.557.265.764 1.11.233 1.902-.826.58.072.572-.44-.17-.512-.718-.423.12-.215-.265.027.256.44.18-.018.776-.314-.563-.809-.282-1.042.53-.737 1.091-.009.87-.341-.025.207 1.288-.423.129.207.11.539-.452-.072-.554.35-.59 1.025-.298.745.145 1.015-.307.387.282.26-.103.36.23-.216.308.27.324.826-.563-.377.648.512-.7.08.385.432-.512-.126.836.251 1.177-1.113 1.835.251.154 1.258-1.699.386-2.133.575-.102 1.033-1.1.368.144.782 1.903.422.341.737-.008-.207.674.521-.922-.08-.69.476-.607-.63-1.194.27.162-.188-.256.871-1.732h.45l-.055-.248.79-.75.225.11-.071-.196.934-.87 1.85-.017 1.905-1.561.719-.103 1.32.93 1.096.009 1.16-.495.951.358.602.742 1.213.58 1.716-.195.997-.973.027-.768 1.16-1.681-.612-.18-1.204.615-1.096-.034 4.591-1.51.207.145-.297.41.18.673.485-.358.126-.452-.422-.341.161-.256 5.92-2.876 1.905-.06.692.24-.036.213-.503-.197-.8.308-.718.665.817.247 1.887 1.485.709 1.374-.512 1.075-1.159-.188-.548.273-.036.691-.602.777.522 1.1-.27 1.656.332.367 1.321.23.997.606 1.59-.444.207-.41.503-.042.422-.922-.979-3.037.88-1.348.755.631 2.444-.29 1.212-.921 1.141-2.005.53-.427.593.043-.152.63 1.033.01.431.947.359-.017-.287-.111.045-.93-1.402-1.186-.108.247-.125-.162.314-1.255-.287-.955.134-.341-.62-1.246-.386-.333-.278.145.081.956-.764-.487-.135-2.27-2.111-3.284-.081-.555-.494-.427.09-.605-.324-.342.216-1.228.827-.709.664.23 1.303-.11-.081.64.764.239.224-.248-.691-1.365.045-.46.565.145-.368-1.63.863-.93 1.311.546.351-.632.485.845.736-.043.324.555.853.23 1.581.094 2.004.598 5.12.383.944.29.009.572.098-.597 3.63 1.331 5.291 2.543.8.828-.18.247.296-.162 2.13 1.758.557 1.126-.728.682-.404.982.17 1.459-.242.477-1.015.675.539 1.322-.243.478.8.631.233-.614.494.23 1.51 1.374 1.23-.145.872.52-.009.76 1.123.597-.297.905.899 2.005-.234.87-1.213 1.16-1.078.615-.593-.034-1.06-.615-.692.29-1.212.018-1.177.955.171 2.287-.935.358-.251.674-3.172 1.75.36 1.808-1.608 1.835.072.836-1.357-.614-1.033.29-1.608 1.553-1.06 2.193-.153 2.158-7.214 4.796-.772 1.305-1.007-.153-1.069.614-.718-.23-34.147.366-8.867-.239-15.65-1.305-3.368 2.585-.719.069.144 1.98-16.898 10.264-1.716-.325-1.213.111-.916-.29-1.456.111-2.129 1.81-.638 1.083.79 1.263-.332.29-2.147-.188-1.796.239-4.68-3.592-1.699.682-1.877-1.305-1.132.47-.485-.07-2.66-1.834-3.575-.964-1.168-1.553-1.545-.375.557-1.203.45-.197.466-2.21.944-.264-.665-.188-.836-1.774.818-.666-.108-1.04.368-.197-.835-1.493-.647-.572.08-.47.46-.35-.666.325-.71-.76.036-.383-.907-.367-1.15.128-.548-.606.018-1.015 1.15-4.454.854-1.895.314-.127-.09.537.333-.64.206.043-.377-.359-.234.086.458-1.348-.43-1.16.359-.64.503.008-.297-.376.7-.204-.655-.163-.215.171.035-.956 1.204-.99-.952.197.117-3.123-.252-1.51-1.186-1.4-3.97-3.25-.88-1.033-.01-.47 1.213-.008 3.791 2.253 4.294-.043 3.333.273 2.066.444 3.073 1.365-.746-.324-.206.307.96 1.229.019.563.736.418 1.177 1.69 1.384.99.063.28-.467.171.386-.102.126 1.433.871 1.75-.054 1.467-1.653.026-.952-.307.162.273-1.537.486-.61-.102-.692.588-1.177.18-.09-.299-.925.239-1.222.887-.27-.11-.152.324.35-.069.162.41-.26 1.33-.28-.144-.646.273-1.033 1.135-.467 1.092-.108 1.45-.503.342.242-.24.333.35.18-.144 1.365 1.092 2.812 1.459-.09 1.459.647.555.781 2.124 1.312.674.099.24-.377.332 3.422-.879.378.026.27.366-.226.205zM102.184.654l-.027.666.602.256 1.293 1.254 1.536 2.551 1.303 1.075-.018.427 1.105.665.467-.12-.027.436.422.572 1.492 1.655.691.256.054.82.629 1.458-.503.785.135.802-.764-.444.252.572-.611.026-.153.281-.314-.196.135.341-.566-.213.17.367-1.266-.853.215.571-.503-.153.18.657-.405-.145-.152-.478-.719.12-1.356-.436.206-.529-.251-.264.063-.632.197.29.629-.11-1.006-1.374-.836-.598-.08.205-.656-.264-.351.162-.314-.418-.548-.017-.934-.615 1.248 1.604-.736-.017-.494-1.083-1.168-.913-1.312-1.8.288-.675-.638-.23.691-.205-.467-.341.297-.137-.072-.29-.324.282-.152-.53-.17.214-.243-.153.593-.384-.558-.461-.152.222.036-.35-.369-.017.072-.333 1.249.239.934.725.431-.077.009-.503-1.814-1.4-.153-.46.871.367v-.47l.854-.546.09-.964.862-.06.881-.665z" stroke="#31313B" stroke-width=".4" mask="url(#a)"/></svg>