<svg width="70" height="39" fill="none" xmlns="http://www.w3.org/2000/svg"><mask id="a" fill="#fff"><path d="M11.211.026l.314.367 1.222-.025 1.276.657.593-.461.422.555-.09.256-1.069.307-.099.418.683.375-.108.709 1.231-.53.79.88.198-.077.638.69L18.128 6l1.177 1.17 1.51 2.218 1.05.844.72-.076 1.176.511.746 1.212 1.464-.299.305.24.45 2.124.736 1.075.027.631.503.325 1.096-.325.162 1.042.252.187-.324.324-.53-.128-.224.495.287.299.485-.12.674.538.458 1.809 1.806.512 1.455-1.877.279-1.084 1.5.981.458-.324.198.188-.368.674.52.657.135 1.015-.251.691-1.06.99.629.623.485-.768.278-.008 1.195 1.152.71 1.442-.593.844 1.132 1.732-.252.922.584.094.35-.444-.323-1.007.35-.205.88.53 1.016 1.254 1.096-.674.09-.845 1.05.282.764-1.536.396-.086.278.308.584-.086 1.393.375.638.785.368.06 1.006-.546.89-.102.52-.53.72-2.5-.567-.57.243-1.29.404-.272.53.153.395-.529-.476-1.092.099-.29.925-.017.521.964 1.258.708-.225-.93.207-.537 1.258-.504.287-.042.207.4.79-.238.764.358.234-.188.862.564 1.365-.146.333 1.51-.916.76-.692 1.46.853.562-.332.069-.081.366.315.7.53.17-.019-.375 1.438.888.746.145-.827.99.54.52.799.299 2.066.042.063.657.467.768 1.15.086 1.096.554.853-.273.45.853.79.743-.575.179-1.024 4.386-3.863 1.28-2.264-.086-1.033-.222-.782-.93-.08-.529-.728-.205-.422.359-1.105 2.355-1.94.665.062-.861-.404-.53-1.276.111-.395-.273-1.994-.213-.782-.7-.054-.614-1.159.077-.215-1.1.251-.675-.252-.495-1.248-.17-.512-.794-.503.273-.216.623-.485-.11-.108-.453-.566.418-.476-.341-.35.153-.35-.358-.414.094-.144 1.928-.323.196-.225-.333-.512.094-.368.555-1.033-.495L41 33.227l-1.032.426-.423-.23-.35.213-.458-.282-.665.035.018 1.04-.61-.179-.9-.955-.215.23.063.862-.512.06-.278.588-1.043-.23-.359 1.664-2.57 1.459-.269.392-1.338-.99-.836.111-1.662-1.39-.233-.282.27-.708-.333-.247-1.114.904-.35-.435-.755-.103-.333.803.459 1.757-.764.853h-.647l-.548-.896.584-2.073-1.392-.358-.746-1.075.063-.427-.189-.256-.126.128-.018-.555-.682-.512-2.291-.622-.45-.777.171-.802-1.644-1.229-.628.265-.108-.205-1.204.068-.593.308-.35-.282-.369.23.153-.273-.737-.06-.629.29.045.197-.916-.051-1.437-2.961-.432.478-.565-.017-.423.614-1.608-.264-.656.913.252.665-.809.478-.27.034.118-.427-.512-.46-.306.495-.584.273-.736-.069-.468-.648.764-.145-.009-.81-.593-.36-1.32.214-1.105-.12-.342-.656.17-.478 2.058-1.45 1.429-1.374.296-.495-.413-1.843 1.186-1.297v-.384l-.575-.58.404-1.118.458-.444.45.162.466-1.16-.107-.691 1.347-1.212.988-.529.315-1.024-.422-.529.557-1.271-.1-.452.935-.376-.898-.281-.414-.93.728-1.024.252-1.468.871-1.288.386-1.383.027-.554-.754-.751-.063-.478.314-.11.189-1.451L11.21.026z"/></mask><path d="M11.211.026l.314.367 1.222-.025 1.276.657.593-.461.422.555-.09.256-1.069.307-.099.418.683.375-.108.709 1.231-.53.79.88.198-.077.638.69L18.128 6l1.177 1.17 1.51 2.218 1.05.844.72-.076 1.176.511.746 1.212 1.464-.299.305.24.45 2.124.736 1.075.027.631.503.325 1.096-.325.162 1.042.252.187-.324.324-.53-.128-.224.495.287.299.485-.12.674.538.458 1.809 1.806.512 1.455-1.877.279-1.084 1.5.981.458-.324.198.188-.368.674.52.657.135 1.015-.251.691-1.06.99.629.623.485-.768.278-.008 1.195 1.152.71 1.442-.593.844 1.132 1.732-.252.922.584.094.35-.444-.323-1.007.35-.205.88.53 1.016 1.254 1.096-.674.09-.845 1.05.282.764-1.536.396-.086.278.308.584-.086 1.393.375.638.785.368.06 1.006-.546.89-.102.52-.53.72-2.5-.567-.57.243-1.29.404-.272.53.153.395-.529-.476-1.092.099-.29.925-.017.521.964 1.258.708-.225-.93.207-.537 1.258-.504.287-.042.207.4.79-.238.764.358.234-.188.862.564 1.365-.146.333 1.51-.916.76-.692 1.46.853.562-.332.069-.081.366.315.7.53.17-.019-.375 1.438.888.746.145-.827.99.54.52.799.299 2.066.042.063.657.467.768 1.15.086 1.096.554.853-.273.45.853.79.743-.575.179-1.024 4.386-3.863 1.28-2.264-.086-1.033-.222-.782-.93-.08-.529-.728-.205-.422.359-1.105 2.355-1.94.665.062-.861-.404-.53-1.276.111-.395-.273-1.994-.213-.782-.7-.054-.614-1.159.077-.215-1.1.251-.675-.252-.495-1.248-.17-.512-.794-.503.273-.216.623-.485-.11-.108-.453-.566.418-.476-.341-.35.153-.35-.358-.414.094-.144 1.928-.323.196-.225-.333-.512.094-.368.555-1.033-.495L41 33.227l-1.032.426-.423-.23-.35.213-.458-.282-.665.035.018 1.04-.61-.179-.9-.955-.215.23.063.862-.512.06-.278.588-1.043-.23-.359 1.664-2.57 1.459-.269.392-1.338-.99-.836.111-1.662-1.39-.233-.282.27-.708-.333-.247-1.114.904-.35-.435-.755-.103-.333.803.459 1.757-.764.853h-.647l-.548-.896.584-2.073-1.392-.358-.746-1.075.063-.427-.189-.256-.126.128-.018-.555-.682-.512-2.291-.622-.45-.777.171-.802-1.644-1.229-.628.265-.108-.205-1.204.068-.593.308-.35-.282-.369.23.153-.273-.737-.06-.629.29.045.197-.916-.051-1.437-2.961-.432.478-.565-.017-.423.614-1.608-.264-.656.913.252.665-.809.478-.27.034.118-.427-.512-.46-.306.495-.584.273-.736-.069-.468-.648.764-.145-.009-.81-.593-.36-1.32.214-1.105-.12-.342-.656.17-.478 2.058-1.45 1.429-1.374.296-.495-.413-1.843 1.186-1.297v-.384l-.575-.58.404-1.118.458-.444.45.162.466-1.16-.107-.691 1.347-1.212.988-.529.315-1.024-.422-.529.557-1.271-.1-.452.935-.376-.898-.281-.414-.93.728-1.024.252-1.468.871-1.288.386-1.383.027-.554-.754-.751-.063-.478.314-.11.189-1.451L11.21.026z" stroke="#31313B" stroke-width=".4" mask="url(#a)"/></svg>