<svg width="39" height="57" fill="none" xmlns="http://www.w3.org/2000/svg"><mask id="a" fill="#fff"><path d="M30.8.704l1.159 1.553-1.447.87-.512.665 1.276 1.16-.952.914.045.47 1.212.98 1.528.691.458 2.62-.279.87.746.051 1.024 1.835.162 1.152.71-.197.952 1.784.485 2.099-.045.956.44.511v2.5l-.79.828-.611.128-1.348 1.527.342.606 1.096-.7.575.444-.252.487.108.955 1.114.939.134.58-.745.401-1.141-.264-1.186.674-.853-.017-.477.537-.97.162.09.632-1.213 1.314.216 1.305-.45.213-.808-.239-.278.333.548.81-.27.316.189.615 1.204.631-.602.188-.97 1.288.503.128.08.675.584.802-.278.972.467.026.494.776-.548 1.434 1.222.008.413 1.16.162-.571.566.572.197.913.602.307.153.87-.844.555-.108.76.188 3.43-.628.272-.45-.179-.862.418.548.742-.063.325-2.794 1.954-1.464-.307-.26.622-.549.035-.287.93-1.096-.18-.189.913.279.154-.521 1.229-.79-.282-.252-1.084-.467-.093-.117.529-.566-.052.072-.708-1.105-.239-.45.64-1.024-.392-.162.665-.332-.077-.108.461-.853.794-.45-.333.135-.555-.988-.426.234-.725-.153-.385.45-.076.125-1.101.692-.196-.153-.325.216-.383 1.455.204.377-1.988-.754-.213-.018.341-.764.376.099.58-.755-.418-.053.358-.72.026-1.419-.444-.17-.537-.423-.06.027-.47-2.452-.366-.36.256-.161.648h.934l.368 1.007-1.087-.41-.467.828-.665-.452.27-.888-.368-.52.458-.316.395.086-.018-.3-1.186-.52.09-.52-.296-.18-.081-.665-.809-.46-.647.076.575.709-.278.622.719.461-.153.546-.494-.23-.458-.708-1.653-.265-.27.589.135.554-.584.376-.907-.068-.09-.495-.944-.282-.925.76-.314-.043-.593-.964.215-.623-.512-.273-.054-.495 1.213.18.18-.743-.207-2.014.665-.333-.009-.418-1.06-.546-.503-.691-.404-1.212.125-1.962-1.257-2.406-1.24.426-.683-.187-.242-1.033.494-.853.458.085.503-.332.404-.956-.027-.256-.817-.17-.368-1.357 1.661-.854-.116-.179-1.608.17-.207-.366.252-.341 1.24.06.457-.427.486-1.724-.26-1.152-.594-.486 1.473-.742-.467-.956-.638-.102-.152-.29.449-.376.503.137 1.078-.905-.44-1.621.647.358.341-.153.98.187.43-.631.369.085.413-.281-.08-.341.377-.205.071-.478-.467-1.613-2.578-2.73-.629-1.707-1.204-.068-.287.196-.18 1.17-.835.042-.333-.666-.772-.281-.432-.632.027-.281 1.968-1.681-.934-2.074-.584-.494.027-.623.314-2.824 1.563-3.627.53-1.937.656.58.808.129.054.708L5.87 3.1l-.323 1.775.054 1.433.35.76 4.474-.708.494.239.629.844 2.92-.068 1.293.435 1.114-.554-.242-.273 1.203-1.195 6.46.239 1.895-1.553.863-.222 1.006-1.118 1.159-.358.197-.836L30.8.704z"/></mask><path d="M30.8.704l1.159 1.553-1.447.87-.512.665 1.276 1.16-.952.914.045.47 1.212.98 1.528.691.458 2.62-.279.87.746.051 1.024 1.835.162 1.152.71-.197.952 1.784.485 2.099-.045.956.44.511v2.5l-.79.828-.611.128-1.348 1.527.342.606 1.096-.7.575.444-.252.487.108.955 1.114.939.134.58-.745.401-1.141-.264-1.186.674-.853-.017-.477.537-.97.162.09.632-1.213 1.314.216 1.305-.45.213-.808-.239-.278.333.548.81-.27.316.189.615 1.204.631-.602.188-.97 1.288.503.128.08.675.584.802-.278.972.467.026.494.776-.548 1.434 1.222.008.413 1.16.162-.571.566.572.197.913.602.307.153.87-.844.555-.108.76.188 3.43-.628.272-.45-.179-.862.418.548.742-.063.325-2.794 1.954-1.464-.307-.26.622-.549.035-.287.93-1.096-.18-.189.913.279.154-.521 1.229-.79-.282-.252-1.084-.467-.093-.117.529-.566-.052.072-.708-1.105-.239-.45.64-1.024-.392-.162.665-.332-.077-.108.461-.853.794-.45-.333.135-.555-.988-.426.234-.725-.153-.385.45-.076.125-1.101.692-.196-.153-.325.216-.383 1.455.204.377-1.988-.754-.213-.018.341-.764.376.099.58-.755-.418-.053.358-.72.026-1.419-.444-.17-.537-.423-.06.027-.47-2.452-.366-.36.256-.161.648h.934l.368 1.007-1.087-.41-.467.828-.665-.452.27-.888-.368-.52.458-.316.395.086-.018-.3-1.186-.52.09-.52-.296-.18-.081-.665-.809-.46-.647.076.575.709-.278.622.719.461-.153.546-.494-.23-.458-.708-1.653-.265-.27.589.135.554-.584.376-.907-.068-.09-.495-.944-.282-.925.76-.314-.043-.593-.964.215-.623-.512-.273-.054-.495 1.213.18.18-.743-.207-2.014.665-.333-.009-.418-1.06-.546-.503-.691-.404-1.212.125-1.962-1.257-2.406-1.24.426-.683-.187-.242-1.033.494-.853.458.085.503-.332.404-.956-.027-.256-.817-.17-.368-1.357 1.661-.854-.116-.179-1.608.17-.207-.366.252-.341 1.24.06.457-.427.486-1.724-.26-1.152-.594-.486 1.473-.742-.467-.956-.638-.102-.152-.29.449-.376.503.137 1.078-.905-.44-1.621.647.358.341-.153.98.187.43-.631.369.085.413-.281-.08-.341.377-.205.071-.478-.467-1.613-2.578-2.73-.629-1.707-1.204-.068-.287.196-.18 1.17-.835.042-.333-.666-.772-.281-.432-.632.027-.281 1.968-1.681-.934-2.074-.584-.494.027-.623.314-2.824 1.563-3.627.53-1.937.656.58.808.129.054.708L5.87 3.1l-.323 1.775.054 1.433.35.76 4.474-.708.494.239.629.844 2.92-.068 1.293.435 1.114-.554-.242-.273 1.203-1.195 6.46.239 1.895-1.553.863-.222 1.006-1.118 1.159-.358.197-.836L30.8.704z" stroke="#31313B" stroke-width=".4" mask="url(#a)"/></svg>