<svg width="23" height="18" fill="none" xmlns="http://www.w3.org/2000/svg"><mask id="a" fill="#fff"><path d="M8.522.8l.278.674.36-.103 1.221.52.36.726 1.024.725 1.194-.196-.143.188.557.879 1.177.324.287-.256 1.428.614.602-.205.036-.469 1.815.273.009 1.382.53.359.36-.35.889 1.263-.207.75.369.427-.261.717.287.606-.718 1.271-.503.017.036.367.539-.051.79.657-.377.213.108.248.754.222-.323.29.153.35.404-.009-.045.333.503.589-.18.529-.314.221-.332-.162-1.24.922.009 1.186-.27-.06-.503.768-.422-.495-.584-.077-.323.734-.279.085-1.356-1.365-1.914-.324-.925-.665-.656-.043-.234-.393-.844-.128-.907-1.39-.369-.103-4.195 1.118-.288-.154-.377-1.638-.45-.145-.134.512-.602-.307-.063.537-.96-.315-.288.4-1.204.214-.413-.418-.36.085.027-.58 1.204-.922-.44-.367.242-.332-.27-.53.405.129.216-.299-.297-.46.207-.436-.467.06-.422-.452-.279.307-.539-.939.674-.213-.081-.52.629.093.099-.477.323.503.746-.222-.018-.554.691-.009.108-.691-1.114-.572.315-.213-.081-1.152.548-.23.341.17-.045-.443.854-.282.467-1.169.431-.137-.305.632.305.085.45-1.058.511-.324.207.358.629-.05.215-.462L8.522.8z"/></mask><path d="M8.522.8l.278.674.36-.103 1.221.52.36.726 1.024.725 1.194-.196-.143.188.557.879 1.177.324.287-.256 1.428.614.602-.205.036-.469 1.815.273.009 1.382.53.359.36-.35.889 1.263-.207.75.369.427-.261.717.287.606-.718 1.271-.503.017.036.367.539-.051.79.657-.377.213.108.248.754.222-.323.29.153.35.404-.009-.045.333.503.589-.18.529-.314.221-.332-.162-1.24.922.009 1.186-.27-.06-.503.768-.422-.495-.584-.077-.323.734-.279.085-1.356-1.365-1.914-.324-.925-.665-.656-.043-.234-.393-.844-.128-.907-1.39-.369-.103-4.195 1.118-.288-.154-.377-1.638-.45-.145-.134.512-.602-.307-.063.537-.96-.315-.288.4-1.204.214-.413-.418-.36.085.027-.58 1.204-.922-.44-.367.242-.332-.27-.53.405.129.216-.299-.297-.46.207-.436-.467.06-.422-.452-.279.307-.539-.939.674-.213-.081-.52.629.093.099-.477.323.503.746-.222-.018-.554.691-.009.108-.691-1.114-.572.315-.213-.081-1.152.548-.23.341.17-.045-.443.854-.282.467-1.169.431-.137-.305.632.305.085.45-1.058.511-.324.207.358.629-.05.215-.462L8.522.8z" stroke="#31313B" stroke-width=".4" mask="url(#a)"/></svg>