<svg width="57" height="54" fill="none" xmlns="http://www.w3.org/2000/svg"><mask id="a" fill="#fff"><path d="M23.945 16.37l2.902-.614.296-.691-.278-1.835.88.393.54-1.527.853.008.413-.281.647.23.656-.717.943.418.763.026.054.734.593.392-.449.708.08.325.612-.026.44-.495h.314l.01.196 1.069.068-.19.402 1.42.998.521-.657.315-.026.314.495 1.195.427.782-.41.934.137 2.524-1.843-.35-.726.692-1.825 1.473.29.153.315.772.256 1.833-1.399.656.222.71-.324.053-.598.503-.068.521-.478-.08-.93-.557-.196.458-.64-.404.051-.548-.367-.854.18-1.123-.76-1.087-.077.162-.435.71-.222.152-.418-1.203-.674-.495-.981.926-.87 1.015-.265.853.265.953-.393.26-.52 1.357-.222-.027-.555.817-.623 1.006.29.26 1.272.486.315-.054.453.997.12.027.477-.512.18-.332.673.898.734.413.776-.108.623-1.446.87-.108.316.485.504-.503 1.135 1.087.332 1.096-.273.917.615.305.102-.395.828-.845.239-1.823 2.175-.593 1.69-.88 1.484-.028 1.349-1.05.785-.504 1.885-2.129 2.551-.539 1.204-2.093 1.697-1.437 2.091-2.183 1.536-.234.913-.844.563-1.24 1.715.054.486-.602-.247-.09.401-.252.043.216.23-.61.392-.082.777-.512.76-1.743.716-.539 1.246-.952.776-.099 1.186-.673.24-.153.537-.333-.043.045.606.432-.145-.584 1.1-1.016.666-.188-.222.26-.239-.584.23.216.129-.054.529-.332.213-.207.87-1.087.307-1.159.999-.09.35-.7.05.027.223-1.671 1.083-1.483.615-.386.657-.665.298-.638.76-.215-.205.242-.009-.395-.128-.961.845-.44-.572-.423.41-.52-.068.071.17-.584.325h-.835l-.62.58-1.015.264-.26-.367.583-.221-.665-.538.072-.256-.638.077.081.35-.413.443-.548-.895.08-.564-.377.026-.152.47-.8.093-.009-.196h-.368l.045-.367-.512-.256-.79.768-.18-.597.18-1.127-.216-.179.296-.154-.108-.648.494-.222-.053-.281-.486-.009.306-.46-.126-.231-.332.008.116.18-.43.495-.764.298-1.195 1.075-.306-.196.27-.973.566-.273.395-.657-.377-.094-.135.3-.746-.231-.341.213-.216-.58-.18 1.084-.475.255-.243.802-.656.828-.215-.06-.054.564-.872.05.1.581.53-.043-1.357.88-.378 1.142.117.657-.62-.503-.09-.478-.476.325-.43-.069-.28.401-.745-.341.18-.555-.728-.017-.458.376 1.302 1.024-.098.52-.387.026-.224.938-.45.563-.727-2.073.368-.077.036-.648-.539-.589-.512.12-.35-.359.952-.734.844-.281.557.12.324-.35 1.266.127-.044-.503.62.017.18-.358-.243-.52.673-.965-.072-.597.755-1.604-.045-.58-.754-.743.287-.35-.162-1.894.575-2.167-1.23-5.222-.953-1.4.836-.307.108-.35 1.14.052.432-.495.943.12-.09-.223 1.348-1.04-.26-.359.206-.529.629.043.323-.837.413-.238.26.486.81.384.808 2.406-.467 1.86 1.32 1.075 1.572.512.88-1.16.998-3.149.782.308 1.05-.922-.323-.947.458-1.988.71-.486.332.247 1.025-1.408.009-.256-.333-.085.476-.777-.215-.068.09-.606.413-.298.251.23.153-.623.395-.06.44-1.032-.305-.75.8-.684.233.205.387-.563.071-.503-.332-.162.476-.461-.593-.691.404-.982.755-.69z"/></mask><path d="M23.945 16.37l2.902-.614.296-.691-.278-1.835.88.393.54-1.527.853.008.413-.281.647.23.656-.717.943.418.763.026.054.734.593.392-.449.708.08.325.612-.026.44-.495h.314l.01.196 1.069.068-.19.402 1.42.998.521-.657.315-.026.314.495 1.195.427.782-.41.934.137 2.524-1.843-.35-.726.692-1.825 1.473.29.153.315.772.256 1.833-1.399.656.222.71-.324.053-.598.503-.068.521-.478-.08-.93-.557-.196.458-.64-.404.051-.548-.367-.854.18-1.123-.76-1.087-.077.162-.435.71-.222.152-.418-1.203-.674-.495-.981.926-.87 1.015-.265.853.265.953-.393.26-.52 1.357-.222-.027-.555.817-.623 1.006.29.26 1.272.486.315-.054.453.997.12.027.477-.512.18-.332.673.898.734.413.776-.108.623-1.446.87-.108.316.485.504-.503 1.135 1.087.332 1.096-.273.917.615.305.102-.395.828-.845.239-1.823 2.175-.593 1.69-.88 1.484-.028 1.349-1.05.785-.504 1.885-2.129 2.551-.539 1.204-2.093 1.697-1.437 2.091-2.183 1.536-.234.913-.844.563-1.24 1.715.054.486-.602-.247-.09.401-.252.043.216.23-.61.392-.082.777-.512.76-1.743.716-.539 1.246-.952.776-.099 1.186-.673.24-.153.537-.333-.043.045.606.432-.145-.584 1.1-1.016.666-.188-.222.26-.239-.584.23.216.129-.054.529-.332.213-.207.87-1.087.307-1.159.999-.09.35-.7.05.027.223-1.671 1.083-1.483.615-.386.657-.665.298-.638.76-.215-.205.242-.009-.395-.128-.961.845-.44-.572-.423.41-.52-.068.071.17-.584.325h-.835l-.62.58-1.015.264-.26-.367.583-.221-.665-.538.072-.256-.638.077.081.35-.413.443-.548-.895.08-.564-.377.026-.152.47-.8.093-.009-.196h-.368l.045-.367-.512-.256-.79.768-.18-.597.18-1.127-.216-.179.296-.154-.108-.648.494-.222-.053-.281-.486-.009.306-.46-.126-.231-.332.008.116.18-.43.495-.764.298-1.195 1.075-.306-.196.27-.973.566-.273.395-.657-.377-.094-.135.3-.746-.231-.341.213-.216-.58-.18 1.084-.475.255-.243.802-.656.828-.215-.06-.054.564-.872.05.1.581.53-.043-1.357.88-.378 1.142.117.657-.62-.503-.09-.478-.476.325-.43-.069-.28.401-.745-.341.18-.555-.728-.017-.458.376 1.302 1.024-.098.52-.387.026-.224.938-.45.563-.727-2.073.368-.077.036-.648-.539-.589-.512.12-.35-.359.952-.734.844-.281.557.12.324-.35 1.266.127-.044-.503.62.017.18-.358-.243-.52.673-.965-.072-.597.755-1.604-.045-.58-.754-.743.287-.35-.162-1.894.575-2.167-1.23-5.222-.953-1.4.836-.307.108-.35 1.14.052.432-.495.943.12-.09-.223 1.348-1.04-.26-.359.206-.529.629.043.323-.837.413-.238.26.486.81.384.808 2.406-.467 1.86 1.32 1.075 1.572.512.88-1.16.998-3.149.782.308 1.05-.922-.323-.947.458-1.988.71-.486.332.247 1.025-1.408.009-.256-.333-.085.476-.777-.215-.068.09-.606.413-.298.251.23.153-.623.395-.06.44-1.032-.305-.75.8-.684.233.205.387-.563.071-.503-.332-.162.476-.461-.593-.691.404-.982.755-.69z" stroke="#31313B" stroke-width=".4" mask="url(#a)"/></svg>