<svg width="28" height="40" fill="none" xmlns="http://www.w3.org/2000/svg"><mask id="a" fill="#fff"><path d="M3.32.73l-.143.29.332.469.898-.845.953.128.844.384.854 1.382.602-.06 3.126.82.728-.069 1.67 1.57.144 1.024 1.716.512.368.862.566.324.746.077.7-.367v1.792l-1.661 1.16.35.546-.188.82 1.14.332.899.777.072.622h.673l1.168.546 1.707.026-.045.725-.52.675.574.29-.431 1.066.71.486.62.017-1.33 1.425.233.222-.413 1.067 2.354 1.544-.925 2.227.26.623.647.41.79-.418.306.153-.242.068-.432 1.51-.584.547.503.042-.413.376.404.537 1.141.555-.188 1.664 1.347.307.234.563-.297.341.602.41h1.105l.35.299-.493.077-.036.546.449.375-.476.435.422 1.1-.153.402-.773.478.19.682-.207.487.413 1.314-1.456.358-.62-.273-.422.128-.53.341.198.222-.656.58-.305-.145-.396.453-.305-.111-.162-.555-.35.128-.323-.904-.638-.214-.279-.623-.862-.145-.557-.529-.63-.077-.322.495-.97-.64-.136.24-.583.016-.396 1.007-.287-.256-.728.197-1.024.81-.7-.657.197-1.502.503-.213-.422-.248.072-.281-1.41-.205-.261-.435-.647-.06-1.41.768-.755-.017-.153-.682-.296-.197.116-.477-1.68-.111-.17.452-.503-.043-.324-.213.135-.248-.764-.486.486-1.536-.503-.964.143-.725-.566-.973.27-.47-.656-.221-.314-1.297-.54-.41.477-.802-.467-.102-.36-.546-1.168.427.045-.854.35-.213.072-.597.081-1.11-.197-.128.673-.733.198-1.562-1.365-1.229-.872-.4.324-.427-.09-.623-1.042.077-.44-.555.565-.375-.18-.64.216-.358.53-.257.216.154.126-.273-.333-.64.27-.06.09-.452 1.024-.17.476.204.278-.324-.188-.648-.638-.18-.045-.938-.314-.162.233-.606-.7-.572-.575-1.527.503-1.434-.665-4.77.314-.81L3.321.73z"/></mask><path d="M3.32.73l-.143.29.332.469.898-.845.953.128.844.384.854 1.382.602-.06 3.126.82.728-.069 1.67 1.57.144 1.024 1.716.512.368.862.566.324.746.077.7-.367v1.792l-1.661 1.16.35.546-.188.82 1.14.332.899.777.072.622h.673l1.168.546 1.707.026-.045.725-.52.675.574.29-.431 1.066.71.486.62.017-1.33 1.425.233.222-.413 1.067 2.354 1.544-.925 2.227.26.623.647.41.79-.418.306.153-.242.068-.432 1.51-.584.547.503.042-.413.376.404.537 1.141.555-.188 1.664 1.347.307.234.563-.297.341.602.41h1.105l.35.299-.493.077-.036.546.449.375-.476.435.422 1.1-.153.402-.773.478.19.682-.207.487.413 1.314-1.456.358-.62-.273-.422.128-.53.341.198.222-.656.58-.305-.145-.396.453-.305-.111-.162-.555-.35.128-.323-.904-.638-.214-.279-.623-.862-.145-.557-.529-.63-.077-.322.495-.97-.64-.136.24-.583.016-.396 1.007-.287-.256-.728.197-1.024.81-.7-.657.197-1.502.503-.213-.422-.248.072-.281-1.41-.205-.261-.435-.647-.06-1.41.768-.755-.017-.153-.682-.296-.197.116-.477-1.68-.111-.17.452-.503-.043-.324-.213.135-.248-.764-.486.486-1.536-.503-.964.143-.725-.566-.973.27-.47-.656-.221-.314-1.297-.54-.41.477-.802-.467-.102-.36-.546-1.168.427.045-.854.35-.213.072-.597.081-1.11-.197-.128.673-.733.198-1.562-1.365-1.229-.872-.4.324-.427-.09-.623-1.042.077-.44-.555.565-.375-.18-.64.216-.358.53-.257.216.154.126-.273-.333-.64.27-.06.09-.452 1.024-.17.476.204.278-.324-.188-.648-.638-.18-.045-.938-.314-.162.233-.606-.7-.572-.575-1.527.503-1.434-.665-4.77.314-.81L3.321.73z" stroke="#31313B" stroke-width=".4" mask="url(#a)"/></svg>