<svg width="50" height="67" fill="none" xmlns="http://www.w3.org/2000/svg"><mask id="a" fill="#fff"><path d="M36.502 64.02l-1.24 1.228-.117.461-1.608.81h-.566l-2.38-2.96-.602.034-.899.725-1.033.29-.386-.222-1.186-2.107-.44-.085-1.41.418-.8.725-.593.18-1.105-.64-1.446.451-.638-.58-.665-.162-.314-.776-.584-.18-1.402 2.057-.368-1.4-.575-.17-1.051-1.255.162-.64-.369-.179-.647.333-.107.64-.396-.47.063-.818-.287-.401.108-.649 1.293-.153.89-1.81 1.49-.964-.116-.273-.548-.06-.162-.451.243-.444-.26-1.485-.683.043-.18-.282.18-.768.53-.495-.162-.52-1.24-1.067.422-.69-.018-.948.432-1.015-.476-1.835-1.105-1.373-.836-1.639.458-1.006-.727-1.792-.252-1.656.198-.375-.279-.452.18-.53.925-.486-.691-.861-.288-1.732.53-1.076-.386-.315-.638.153-1.015-.554-.782-.009-1.15-2.432 1.204-2.355.225-1.715.808-.11.602-2.458.018-1.903-1.339-1.996-.494.204-.143.862-5.687-.887-1.14-.614.556-.905-.314-.674.125-.75-1.347-.444.117-.623-2.47-.888.898-3.6 2.83.511.808-1.535 1.976.145.584-1.528 3.639.47-.593 1.937 3.126.503.341-1.596 7.142 1.05.818-1.818.71.12.584-1.519 2.928.196.863-1.937 2.506.59 1.033-2.68.827.12.395-.965.341.043.288-.486 2.363.742.772-.418 2.605.307 7.834-.102.386-.367 1.051-.111.504-.939L49.25.316l.655 1.553-1.221 2.96.009.99.43 2.833.818 1.519-.009 1.98-.62 2.414-1.221 2.748.072 1.194-1.015 3.294-1.887 1.604-.943 1.416-.908 2.952.719.59.898 1.433.683.392.916.094 1.087 1.34-.143 1.092.52.862-.682.964-.009 1.04.431.137.225.683.449.324.98-.162.152.213-.27.683.405 1.536-.306.554-1.23.794-.306.913-.368.239-.872-.154-1.203.947-.36.845-1.015 1.126.08 1.118.495.683 1.033.23.243.401-.063 1.092-1.24.862-.925 1.058-.431-1.314-1.123.085-.908-.35-.575.59-.009.562-.61.76.179.734-.656 1.399.072.452.871.666-.296 1.092.593.793-.234.256.252.478-.252.162-.314-.426-.332-.026-1.69 1.834-.628.282-1.492-.572-.494.393-.17.956 1.177 1.808-.387.948.225 2.755z"/></mask><path d="M36.502 64.02l-1.24 1.228-.117.461-1.608.81h-.566l-2.38-2.96-.602.034-.899.725-1.033.29-.386-.222-1.186-2.107-.44-.085-1.41.418-.8.725-.593.18-1.105-.64-1.446.451-.638-.58-.665-.162-.314-.776-.584-.18-1.402 2.057-.368-1.4-.575-.17-1.051-1.255.162-.64-.369-.179-.647.333-.107.64-.396-.47.063-.818-.287-.401.108-.649 1.293-.153.89-1.81 1.49-.964-.116-.273-.548-.06-.162-.451.243-.444-.26-1.485-.683.043-.18-.282.18-.768.53-.495-.162-.52-1.24-1.067.422-.69-.018-.948.432-1.015-.476-1.835-1.105-1.373-.836-1.639.458-1.006-.727-1.792-.252-1.656.198-.375-.279-.452.18-.53.925-.486-.691-.861-.288-1.732.53-1.076-.386-.315-.638.153-1.015-.554-.782-.009-1.15-2.432 1.204-2.355.225-1.715.808-.11.602-2.458.018-1.903-1.339-1.996-.494.204-.143.862-5.687-.887-1.14-.614.556-.905-.314-.674.125-.75-1.347-.444.117-.623-2.47-.888.898-3.6 2.83.511.808-1.535 1.976.145.584-1.528 3.639.47-.593 1.937 3.126.503.341-1.596 7.142 1.05.818-1.818.71.12.584-1.519 2.928.196.863-1.937 2.506.59 1.033-2.68.827.12.395-.965.341.043.288-.486 2.363.742.772-.418 2.605.307 7.834-.102.386-.367 1.051-.111.504-.939L49.25.316l.655 1.553-1.221 2.96.009.99.43 2.833.818 1.519-.009 1.98-.62 2.414-1.221 2.748.072 1.194-1.015 3.294-1.887 1.604-.943 1.416-.908 2.952.719.59.898 1.433.683.392.916.094 1.087 1.34-.143 1.092.52.862-.682.964-.009 1.04.431.137.225.683.449.324.98-.162.152.213-.27.683.405 1.536-.306.554-1.23.794-.306.913-.368.239-.872-.154-1.203.947-.36.845-1.015 1.126.08 1.118.495.683 1.033.23.243.401-.063 1.092-1.24.862-.925 1.058-.431-1.314-1.123.085-.908-.35-.575.59-.009.562-.61.76.179.734-.656 1.399.072.452.871.666-.296 1.092.593.793-.234.256.252.478-.252.162-.314-.426-.332-.026-1.69 1.834-.628.282-1.492-.572-.494.393-.17.956 1.177 1.808-.387.948.225 2.755z" stroke="#31313B" stroke-width=".4" mask="url(#a)"/></svg>