<svg width="33" height="19" fill="none" xmlns="http://www.w3.org/2000/svg"><path d="M1.222 3.452l-.065-.055L2.439 3.2l1.052.908.206.179-.042-.27-.109-.69.29-.269.297.537.05.088.087-.05.862-.487 1.19.116.025.002.024-.01.663-.278.37.221.03.019.037-.006.539-.085.05-.008.023-.046.27-.538.023-.046-.024-.046-.377-.7.426-.663 1.188.512.042.018.04-.02.741-.35.263.063.117.349.02.061.065.007.7.066 1.157.607.12.963.004.034.024.024.557.555.019.018.025.007 1.653.47.02.006.021-.004 1.348-.197.324.37.04.046.06-.016.988-.256.038-.01.021-.033.19-.299.038-.061-.047-.056-.753-.908-.07-.561 1.487-.84 1.334.126.015.001.015-.003.947-.194.14.597.01.042.037.022.314.18.038.02.042-.012 1.433-.449 1.406-.05.047-.002.029-.037.365-.467.216.096.034.016.036-.012.935-.293.685.436.404.472.175.988.005.027.017.02 1.547 1.814-.044 1.275-.001.05.04.032.332.264.033.027.043-.006 1.065-.149.063.309.008.04.033.023 1.16.793.2.515-.292.775-.016.042.02.04.364.705-.329 2.366-.003.027.01.025.446 1.087-.1.396-.872.678-.026.02-.009.031-.133.465-.585-.185-.252-.63-.04-.102-.098.05-.897.455-.67-.09-.06-.008-.035.05-.535.758-.683-.024-.052-.002-.031.042-.433.576-.758.33-.087.039.034.089.314.821-.137.2-2.113-1.094-.068-.036-.052.057-.92 1.015-2.029-.092h-.022l-.02.007-.422.171-.03.012-.017.027-.372.59-1.106-1.185-.028-.03-.04-.001-1.015-.042-.615-.403-.026-.017h-.032l-.27.01-.073.002-.02.07-.278 1-1.432 1.062-.821-.589-.02-.014-.025-.004-1.296-.175-.95-.685-.038-.028-.046.012-1.644.435-.02.005-.016.013-.53.412-1.123-.922-.03-.025-.04.002-.431.026-.032.002-.025.02-.487.393.02-.753 1.026-1.116.028-.031-.002-.042-.036-.64-.002-.033-.02-.025-1.905-2.296-.006-.006-.007-.006L4.1 10.14l.05-.657.003-.038-.023-.03-1.016-1.331-.028-.037-.046-.002-.692-.033-.204-.187.136-.929.01-.066-.057-.034-1.151-.694.175-2.567.004-.05-.04-.033z" stroke="#31313B" stroke-width=".2"/></svg>