<svg width="41" height="40" fill="none" xmlns="http://www.w3.org/2000/svg"><mask id="a" fill="#fff"><path d="M21.594.972l.503.256.171.785.988.478-.188.853 1.06.436.52-.103 1.86 1.553.117.742-.88 2.415.314.998-.278.444.054.82 1.796-.01.521.59-.18.571.98.026.539.281.898 1.365-.79 1.451.135.708-.261.316-2.444.7-1.284.861.377 1.246-.71.316.324.674-.431.572.027.614 2.901.41 1.698 1.245.198.922 1.59 2.517.476-.086.216-.4.745.068-.072.75.593.41 2.687-.614.601 1.442.53.247.324.009.251-.982 1.114-.426.225-.922.53.094-.17.35.727.418-.08 2.44-.441 1.28-.054 1.195-.728.64-.395-.026-1.707 2.21.746.256-.279.708.476 1.084-.143.23-.692.342-.027-.64-.458-.359-.907 2.108-1.42.025-2.803-2.133-1.734.453-1.042-.453-.7-.682-2.273-.913-.153.145.296.708.755 1.05-.314.281-.782-.188-.62.316.081.81-.656.461-.638-.375-.539.188-.233.315.494.922-.117.35-1.644-.069-.422.58-1.41-.28-.611-1.119-.701-.443-.18-1.144-1.204.435-.673-.486h-2.426l-.593-.691.225-.46-.387-.837-1.347-.572.44-1.476-.638-.46-3.018-.3-.485-.349-1.25.674-.071.572-.647.58-1.347-.102-.45.503v-.589l.575-1.245-1.365.025-.099-.358 1.132-.299.386-.529 1.348-.682 1.213.196.098-.35-.332-.213-.278-.965.188-.648-.36-.213-1.49.145-.018.623-2.48.52-.027.247-.386-.298.35-.82.935-.28.503.11-.027-.384-1.384.17-1.078.743-.988.222.027-.478.566-.222-.054-.426-.656-.111.503-.623-.054-1.365.503-.7 1.564-.247.34-.512.63.102.18-1.1.556-.64 1.537.34 1.617-.35.296.308.297-.162.43.299 1.501.034.548-1.528-.323-.4.584-.086.377-1.664.314.043.135-.256-.207-.589-.377.154-.494-.222.62-.435-.61-.939-.01-.904-1.042-.188-.198-.307.899-2.09 1.248.451.683-.767-.242-.282-.396.341-.53-.324-.485.008-.08.214-.522-.964-.539-.094.036-.427 1.707-.145.566-1.04 1.132-.64-.252-1.81.369-.665-.063-.52.485-.58 1.976.409.8-.47 1.725-.46.952-2.1 1.76-1.544.28-1.169z"/></mask><path d="M21.594.972l.503.256.171.785.988.478-.188.853 1.06.436.52-.103 1.86 1.553.117.742-.88 2.415.314.998-.278.444.054.82 1.796-.01.521.59-.18.571.98.026.539.281.898 1.365-.79 1.451.135.708-.261.316-2.444.7-1.284.861.377 1.246-.71.316.324.674-.431.572.027.614 2.901.41 1.698 1.245.198.922 1.59 2.517.476-.086.216-.4.745.068-.072.75.593.41 2.687-.614.601 1.442.53.247.324.009.251-.982 1.114-.426.225-.922.53.094-.17.35.727.418-.08 2.44-.441 1.28-.054 1.195-.728.64-.395-.026-1.707 2.21.746.256-.279.708.476 1.084-.143.23-.692.342-.027-.64-.458-.359-.907 2.108-1.42.025-2.803-2.133-1.734.453-1.042-.453-.7-.682-2.273-.913-.153.145.296.708.755 1.05-.314.281-.782-.188-.62.316.081.81-.656.461-.638-.375-.539.188-.233.315.494.922-.117.35-1.644-.069-.422.58-1.41-.28-.611-1.119-.701-.443-.18-1.144-1.204.435-.673-.486h-2.426l-.593-.691.225-.46-.387-.837-1.347-.572.44-1.476-.638-.46-3.018-.3-.485-.349-1.25.674-.071.572-.647.58-1.347-.102-.45.503v-.589l.575-1.245-1.365.025-.099-.358 1.132-.299.386-.529 1.348-.682 1.213.196.098-.35-.332-.213-.278-.965.188-.648-.36-.213-1.49.145-.018.623-2.48.52-.027.247-.386-.298.35-.82.935-.28.503.11-.027-.384-1.384.17-1.078.743-.988.222.027-.478.566-.222-.054-.426-.656-.111.503-.623-.054-1.365.503-.7 1.564-.247.34-.512.63.102.18-1.1.556-.64 1.537.34 1.617-.35.296.308.297-.162.43.299 1.501.034.548-1.528-.323-.4.584-.086.377-1.664.314.043.135-.256-.207-.589-.377.154-.494-.222.62-.435-.61-.939-.01-.904-1.042-.188-.198-.307.899-2.09 1.248.451.683-.767-.242-.282-.396.341-.53-.324-.485.008-.08.214-.522-.964-.539-.094.036-.427 1.707-.145.566-1.04 1.132-.64-.252-1.81.369-.665-.063-.52.485-.58 1.976.409.8-.47 1.725-.46.952-2.1 1.76-1.544.28-1.169z" fill="#none" stroke="#31313B" stroke-width=".4" mask="url(#a)"/></svg>