<svg width="27" height="22" fill="none" xmlns="http://www.w3.org/2000/svg"><mask id="a" fill="#fff"><path d="M10.896.206l.826-.137.135.256-.44.137.188.34.521-.016.422-.538.378.111-.108.632.377.674.97-.034.19-.316.592.256.162-.649.61.069.549 1.271.296.051-.009-.52.512-.478.395.051 1.195 1.032 1.096-.375.36.444.224-.23.584.085-.09.41.512.554.98-.546-.144 1.1 1.455.333.88-.554.261.204.333-.264.413.316-.405.315.037 1.152.053.248-.413-.06-.36.35.36.648.674.589.198-.222.134.367.566-.128.081.87.476.299-.539.333v.623l-.404-.222-.234.734.432.145.278.52-.88.154-.108.52-1.348.802-.637-.247.637.93.71-.307-.162-.273.638-.29.35.503 1.016-.06.26.58-.853-.034-.431.24.26.383-.135.213-.593-.384-.494.342-.35-.615-.323.495 1.554 1.366-.8.69-.305.658-1.537.23-1.185-.06-.755.273-.153-.247-1.069.299-.134-.376-.225.53-.89.025-.314 2.244-.431.094.153.418-.342.179-.323-.162-.189.75-.413-.05-.279-.598-.952-.392-.386.418-.216-.085-.359-.751-.512-.026-.17.555-.495.093.036.53-.503-.606-.431.273.215.682-.853.461-.35-.367-.225.785-.647-.11-.52-.59-.729-.145-.52-.554.26-.06v-.742l-.746-.427-.35.24-.153-.342-1.159.674-.18.947-1.015.205-.458-.197-.826.325-.79-1.621-.306-.24-.45.188-.314-.17.189-1.476.413-.47-.755.026-.17-.333.215-.367-.539-.06.315-.221-.117-.546.575-.393-.62.111-.251-.196.044-.461-.359-.154.189-.221-.521-.205.009-.563.52.008.225-.512-.673-.256-.162-.623.314-.153.054-.862.458.128.198-.478.539.367.126-.418.332-.094-.045-.384-1.132-.444.36-.614-.333-.12.18-.69.647-.222.368.273.198-.299.647.017.269-.281.467.17.018-.7.863-.435-.315-.076.521-.7-.072-.401.485-.435-.071-.333.53-.538.413-.017.126-.495.422.23.566-.204.224.162.35-1.118L8.2 2.27l-.548.188.44-.76 1.267-.153 1.033-.631.207-.666.296-.042z"/></mask><path d="M10.896.206l.826-.137.135.256-.44.137.188.34.521-.016.422-.538.378.111-.108.632.377.674.97-.034.19-.316.592.256.162-.649.61.069.549 1.271.296.051-.009-.52.512-.478.395.051 1.195 1.032 1.096-.375.36.444.224-.23.584.085-.09.41.512.554.98-.546-.144 1.1 1.455.333.88-.554.261.204.333-.264.413.316-.405.315.037 1.152.053.248-.413-.06-.36.35.36.648.674.589.198-.222.134.367.566-.128.081.87.476.299-.539.333v.623l-.404-.222-.234.734.432.145.278.52-.88.154-.108.52-1.348.802-.637-.247.637.93.71-.307-.162-.273.638-.29.35.503 1.016-.06.26.58-.853-.034-.431.24.26.383-.135.213-.593-.384-.494.342-.35-.615-.323.495 1.554 1.366-.8.69-.305.658-1.537.23-1.185-.06-.755.273-.153-.247-1.069.299-.134-.376-.225.53-.89.025-.314 2.244-.431.094.153.418-.342.179-.323-.162-.189.75-.413-.05-.279-.598-.952-.392-.386.418-.216-.085-.359-.751-.512-.026-.17.555-.495.093.036.53-.503-.606-.431.273.215.682-.853.461-.35-.367-.225.785-.647-.11-.52-.59-.729-.145-.52-.554.26-.06v-.742l-.746-.427-.35.24-.153-.342-1.159.674-.18.947-1.015.205-.458-.197-.826.325-.79-1.621-.306-.24-.45.188-.314-.17.189-1.476.413-.47-.755.026-.17-.333.215-.367-.539-.06.315-.221-.117-.546.575-.393-.62.111-.251-.196.044-.461-.359-.154.189-.221-.521-.205.009-.563.52.008.225-.512-.673-.256-.162-.623.314-.153.054-.862.458.128.198-.478.539.367.126-.418.332-.094-.045-.384-1.132-.444.36-.614-.333-.12.18-.69.647-.222.368.273.198-.299.647.017.269-.281.467.17.018-.7.863-.435-.315-.076.521-.7-.072-.401.485-.435-.071-.333.53-.538.413-.017.126-.495.422.23.566-.204.224.162.35-1.118L8.2 2.27l-.548.188.44-.76 1.267-.153 1.033-.631.207-.666.296-.042z" stroke="#31313B" stroke-width=".4" mask="url(#a)"/></svg>