<svg width="55" height="30" fill="none" xmlns="http://www.w3.org/2000/svg"><mask id="a" fill="#fff"><path d="M38.324.281l.099.316-.647.99.18.443.916-.674.61.145.369.427.44-.043.512.742 1.24.939 2.165-.18.665.36-.126.46.566.538.458.093.126-.512.323-.034.387.401.09 1.007 1.15.768.987.026.432.4.871.171-.17.256.718.751.458-.153 1.806.58 1.339 1.877-.171.478-.656-.043.018.623.36.264-.252.82-.575.06.332-.564-.602-.128-.359-.008-.341.41-.018 1.236h-.315l-.018.35-.71.06.108.904-2.785 1.041-1.275 1.16-1.5.06-.54-.204-.62 1.28.558 1.348-2.049.725-1.724 1.766-1.231-.606-.485.145.593.726.323 2.705.512 1.05-.162.665.63.23.16.597-.916.913-1.949.845-.054.29-.728-.58-.52.008-.863-2.124-.683-.546-1.123-1.74-1.707-1.255-.754.631-.908.077-.467-.896-.907.205-.943-.802-.485-.93-1.186-.495-.342.17-.17.777-.647.52-.898-.264-1.195.546-.27-.299.09-1.05-1.6-1.1-.53-.051-.592.427.467 1.117-.224.325-1.968-.163-1.015.376-.422-1.254.7-.58.153-1.417-1.617-2.218-.764-.06-.61-.563-1.16-.026-.457.418-.566-.563-1.438.12-.89.802-.745.196-.188-.213.215-.58-.216-.146-.889.563-.575-.128-2.04 1.178-.736-.265-2.839-2.03-.09-1.34-.314-.538-.296-.358-1.24-.367-.458-.529-.225-.546.126-.554 1.096-1.562.009-.657.773-1.51-.027-.589.826-1.314.216-.947.656-.486.655-.53.432-.025 1.185.973.593-.461 1.644-.435.97.7 1.321.179.88.631 1.52-1.126.287-1.033.27-.008.638.418 1.042.043L17.006 5l.44-.7.422-.17 2.075.093.952-1.05 2.192 1.135.216-.315-.332-.87.781-.342.45-.597.736.025.566-.802.7.094.926-.47.27.675.727.23.405.29 1.006-.332.377.674.728-.282.323.316 1.186.162 1.096-.708 1.15.503.332-.247-.341-.81.476-.692.61.452.522-.128.395-.768.593.12.746-.478.593.273z"/></mask><path d="M38.324.281l.099.316-.647.99.18.443.916-.674.61.145.369.427.44-.043.512.742 1.24.939 2.165-.18.665.36-.126.46.566.538.458.093.126-.512.323-.034.387.401.09 1.007 1.15.768.987.026.432.4.871.171-.17.256.718.751.458-.153 1.806.58 1.339 1.877-.171.478-.656-.043.018.623.36.264-.252.82-.575.06.332-.564-.602-.128-.359-.008-.341.41-.018 1.236h-.315l-.018.35-.71.06.108.904-2.785 1.041-1.275 1.16-1.5.06-.54-.204-.62 1.28.558 1.348-2.049.725-1.724 1.766-1.231-.606-.485.145.593.726.323 2.705.512 1.05-.162.665.63.23.16.597-.916.913-1.949.845-.054.29-.728-.58-.52.008-.863-2.124-.683-.546-1.123-1.74-1.707-1.255-.754.631-.908.077-.467-.896-.907.205-.943-.802-.485-.93-1.186-.495-.342.17-.17.777-.647.52-.898-.264-1.195.546-.27-.299.09-1.05-1.6-1.1-.53-.051-.592.427.467 1.117-.224.325-1.968-.163-1.015.376-.422-1.254.7-.58.153-1.417-1.617-2.218-.764-.06-.61-.563-1.16-.026-.457.418-.566-.563-1.438.12-.89.802-.745.196-.188-.213.215-.58-.216-.146-.889.563-.575-.128-2.04 1.178-.736-.265-2.839-2.03-.09-1.34-.314-.538-.296-.358-1.24-.367-.458-.529-.225-.546.126-.554 1.096-1.562.009-.657.773-1.51-.027-.589.826-1.314.216-.947.656-.486.655-.53.432-.025 1.185.973.593-.461 1.644-.435.97.7 1.321.179.88.631 1.52-1.126.287-1.033.27-.008.638.418 1.042.043L17.006 5l.44-.7.422-.17 2.075.093.952-1.05 2.192 1.135.216-.315-.332-.87.781-.342.45-.597.736.025.566-.802.7.094.926-.47.27.675.727.23.405.29 1.006-.332.377.674.728-.282.323.316 1.186.162 1.096-.708 1.15.503.332-.247-.341-.81.476-.692.61.452.522-.128.395-.768.593.12.746-.478.593.273z" stroke="#31313B" stroke-width=".4" mask="url(#a)"/></svg>