<svg width="9" height="9" fill="none" xmlns="http://www.w3.org/2000/svg"><path d="M4.698 1.79l1.536.33-.185.849-.014.064.054.039 1.07.762-.043 1.594-.002.059.052.03 1.515.882.062.306-.51.536-.692-.008h-.065l-.027.058-.333.713-.906.319-.758-.12-1.097-.876-1.342-1.39v-.345l-.11.01-.395.04-.61-.414.104-.697h.437l1.577.842.026.014.03-.003.96-.085.108-.01-.017-.106-.026-.157.224-.144.046-.03v-.055l-.01-.913v-.077l-.074-.019-1.491-.385-.26-1.574-.01-.06-.057-.018-2.021-.666-.031-.01-.032.01-1.032.338.636-.86.56-.115L4.68 1.785l.01.004.009.002z" stroke="#31313B" stroke-width=".2"/></svg>