<svg width="11" height="11" fill="none" xmlns="http://www.w3.org/2000/svg"><path d="M6.894.934l.16.101.037.024.043-.012 1.533-.43.822.128.662.778-.166.731-.524-.266-.107-.055-.034.116-.218.743-.213-.036-.143-.405-.026-.076-.08.01-.728.094-.08.01-.007.08-.09 1.084-.004.051.038.033.465.402-.113 1.323-.009.105.105.004.653.024 1.102 1.08.312 1.238-.756.725-.55-.116-.211-.386-.12-.219-.065.241-.222.828-1.016-.032h-.015l-.015.004-1.186.324-.025.007-.018.018-.714.694-1.092.175-.022.003-.019.013-.521.36-1.063-.223-.195-.258.366-.964.034-.089-.087-.038-.926-.41-.525-.533-.02-.02-.026-.006-.736-.197.234-.19.452.27.044.026.046-.02.584-.247.029-.012.017-.026L3.65 4.86l.265.388.049.071.077-.038.352-.17.076.09-.143.02-.158.02.087.133.135.205.024.036.042.008.332.06.055.01.037-.042.341-.375.033-.036-.008-.048-.136-.839.17-.184.581.26.05.023.046-.03.603-.398.544.22.057.022.046-.04.189-.162.03-.026.004-.04.17-1.904.005-.05-.037-.033-.717-.64.042-.437z" stroke="#31313B" stroke-width=".2"/></svg>