<svg width="31" height="31" fill="none" xmlns="http://www.w3.org/2000/svg"><mask id="a" fill="#fff"><path d="M14.238 2.482l.953.324.548.76.512-.478.305.154.467.725-.143.478.332.128 1.42-1.23L19.88 4.42l.386-.973-.063-.998 1.07-.93-.027-.435.835.333.61-.504-.107.947.279.128.727-.845.422.658 1.582.878.754.145-.036.666.665.46.117.547 1.527-1.16.566.29.467-.367.27.076.287.692-1.015.563-.189 1.45-.314.111.063.478.755.75-.027.555-.387 1.383-.871 1.288-.252 1.468-.727 1.024.413.93.898.281-.934.376.099.452-.557 1.271.422.53-.314 1.023-.989.53-1.347 1.21.108.692-.468 1.16-.449-.162-.458.444-.404 1.118.575.58v.384l-1.186 1.297.413 1.843-.296.495-1.429 1.373-2.057 1.45-1.338-1.876-1.806-.58-.458.153-.719-.75.17-.257-.87-.17-.432-.401-.988-.026-1.15-.768-.09-1.007-.386-.4-.324.033-.125.512-.459-.093-.565-.538.125-.46-.665-.36-2.165.18-1.24-.939-.511-.742-.44.043-.369-.427-.61-.145-.917.674-.18-.444.647-.99-.099-.315.494-.196.602-1.16-.548-.607-.898-.102.117-.367-.324-.162-.61.299-.162-.265.242-.879-.395-.452.099-.81-.494-.222-.692-1.007.422-.444.01-.418.897-.401 1.204.393.234-.632-.144-.683-.431-.332.063-.316.395-.256 1.213.299.251-.18-.098-.273-.962-.418.342-.358 2.129.75L7.465 9.54l1.257.145-.323-.47.584.197 1.123-.222.952.64 1.375-.734 1.087.418.296-.307-.548-.64 1.581-1.263.09-1.143.494-.726-.35-.716.072-.828-.917-1.408z"/></mask><path d="M14.238 2.482l.953.324.548.76.512-.478.305.154.467.725-.143.478.332.128 1.42-1.23L19.88 4.42l.386-.973-.063-.998 1.07-.93-.027-.435.835.333.61-.504-.107.947.279.128.727-.845.422.658 1.582.878.754.145-.036.666.665.46.117.547 1.527-1.16.566.29.467-.367.27.076.287.692-1.015.563-.189 1.45-.314.111.063.478.755.75-.027.555-.387 1.383-.871 1.288-.252 1.468-.727 1.024.413.93.898.281-.934.376.099.452-.557 1.271.422.53-.314 1.023-.989.53-1.347 1.21.108.692-.468 1.16-.449-.162-.458.444-.404 1.118.575.58v.384l-1.186 1.297.413 1.843-.296.495-1.429 1.373-2.057 1.45-1.338-1.876-1.806-.58-.458.153-.719-.75.17-.257-.87-.17-.432-.401-.988-.026-1.15-.768-.09-1.007-.386-.4-.324.033-.125.512-.459-.093-.565-.538.125-.46-.665-.36-2.165.18-1.24-.939-.511-.742-.44.043-.369-.427-.61-.145-.917.674-.18-.444.647-.99-.099-.315.494-.196.602-1.16-.548-.607-.898-.102.117-.367-.324-.162-.61.299-.162-.265.242-.879-.395-.452.099-.81-.494-.222-.692-1.007.422-.444.01-.418.897-.401 1.204.393.234-.632-.144-.683-.431-.332.063-.316.395-.256 1.213.299.251-.18-.098-.273-.962-.418.342-.358 2.129.75L7.465 9.54l1.257.145-.323-.47.584.197 1.123-.222.952.64 1.375-.734 1.087.418.296-.307-.548-.64 1.581-1.263.09-1.143.494-.726-.35-.716.072-.828-.917-1.408z" stroke="#31313B" stroke-width=".4" mask="url(#a)"/></svg>