<svg width="370" height="331" fill="none" xmlns="http://www.w3.org/2000/svg"><mask id="a" fill="#fff"><path d="M193.495 48.03l-.242-.733 1.123.367 2.919 3.302.468 1.126.952.913.162 1.425-.764.853-.71-.666.027-.614-.772-1.118-1.321-1.05-.323-1.381-.683-.691-.117-.888-.296.17.224.59-.683-.256.036-1.349zm12.452 56.477l-.009.222-.431-.538-.261.077-.108.58-.844-.315-1.105-.896.143-.632.477-.119.7.845-.314-.453 1.446-.691 1.42.086.107.332.234-.256.323.248.351-.231 1.096.026.638.905-.036.605-1.015 1.562-.674.247-.782-.631-.153-.632-1.051-.128-.152-.213zm16.862-39.565l2.075-.12 1.941-2.005.934-2.039.35-1.561.351-.256-.306.034.135-.691.431-.419.539-1.476.728-.802.781.487.638-.052 1.249-.793 3.288-.785 1.33 1.212 1.868.657 4.411 4.488 1.231 1.74.871 1.971-.063.512-.476.495-.108 1.28.441 2.33.305.366-2.309.896-3.108-1.109-1.797.12-1.15-.623-4.384-.837-1.644-.682-3.135-1.988-1.06-.222-1.905.299-2.856 1.578-.593-.11-.602-1.238.359-.64 1.24-.017zm6.846-15.743l-.333.751.279 1.118-.216 1.152-.485.708-.8.205-.835.495-.62.785-.35-.026.107.307.62-.11-.116.17-1.043-.077-.736-.606-1.069-2.081-.297-1.263.18-2.645.368-.7.836-.512 3.045-.333 1.168.649.368.913-.071 1.1zm-36.088-30.017l.315-.239.476-1.792.161-1.98-.215-2.073.647-2.61.036-.717-.351-.384.324-.88 1.437 4.54.925 1.092.926.572-.827 1.152-.736 1.86-.108.529.584.913-1.204 1.63-1.95.213-.242-.205-.198-1.621zm148.572 173.56l-.755 1.416 1.015 1.886-.377.401-.791-.179-.512.187-.458-.819-.889-.222-1.465.632-1.257.162-.746 1.16-.773.478-.018.845-.287.367-1.968-.103-1.194-.904.503-.418-.072-.631-1.617-.999-.216-1.211-.287-.111-.899.981-.143.853-.665.418-.647-.315-1.5.068-.854-.657-.332-1.033-1.105.683-1.384-.41-1.437.214-.395-.726-.728.146-.44.785-.863.221-.287-.785-.674-.042-.404-.444-.584-.162-.997.589-.027.708-1.123.674.18.674.835.717-.063 1.109-1.168 1.681-.826.034.135-.836-.351-.401-.844.205-1.177-.111-.467.486-.97.29-.189 1.297.458.162-.269 1.195.233.512-.979 1.16-.18.811.737.631-.126.708-.539.708h-.746l-.404.401-.009.547-.53.179-1.069-.333-.826.64-.944.239.009.478-.539.665-.072 1.579-.826.435.835 3.165.998.495.116.41-.296.665-1.285.709-.629 1.134-.871.154-.189.367.728 1.075-.296.691-1.582.376-.44-.248.378-.887-1.222-.512-1.42.614-.62.009-.7 1.476-.485.162-.71-.879-.674.512-.296-.358-.665.52-1.051.12-1.402-.325-.368.572.081 1.937-.701-.026-.979-.58-.934.12-.234-.709-.997-.793.108-.785-.261-.529.638-.529.045-.521-1.033-.546.009-.554-.908-.137-.314.623-2.237 1.578-.746-.315.144.623-.871-.086-.71-.725-.916-.256-.288.649-.754-.615-.737.487-.952-.47-.117-.785-.737-.358-1.32 1.416-.737.359.234 1.126 1.383 1.681-1.482 2.176-.27.716.081.845-.638.205-1.123-.188.234-.503-1.087-.811.449-1.186-.386-.375-1.132.699-.665-.179-.189.845-.718-.043-2.156-1.578-1.977.29-1.078-.495-.377.282-.638 2.167-.782 1.024-3.117 1.237-.18.589.297 1.663-.449 1.442-.97 1.246.134.708-.548 1.169.081.606-.835 1.033-.261.785.584.759.009.606-.44.495 1.258.964.116 1.638-.557.828.072.546.557.358-.413 1.417.458.529-.233.341-.719.205-.243-.239-.718.657.395.623-.512.981.162 1.024-.27.717-.602.085-.548.947-.35-.154-.458.606-.477.145.081.794-.772.734-.476 1.885-1.025.342-.691.887-.97.034-.423.29-.7-.358-.117-.538.395-.614-.216-.606.279-.802-.368-.153-.989.494-.521.999-.772-1.323.233-.316-.296-.657-.593-.119-.773.444.036-.325-.611-.409-.036-.683-.826.333.045 1.05-.71.81-.072.708-.566.188-.233-.64-1.608-.444-.827.896-.692.086-.997-.666-.404-1.604-.647.017-.377.503-.907.299-.468-.887-.781-.196-.126-.427-.593-.29-.422-.598.027-.878-.764-.453-.665-.955-.152-.734-.602.282-.737-.052.036-.861-.808.042-.387-.665-.907.008-.638 1.152-1.303.043-.592.435-.62 3.84.386.554-.62.649-.081.46-1.213-.068-.592.282.323.972-1.105 3.106-.575.256-.916 1.528-1.24.256-.863.597-.835-.265-.413.41.018.725-.342.384-1.23.009-.432.315-.323-.469-.386.649.296.742-.278.478-1.537 1.28-.592-.137-.198.273.233.631-.943 2.048 1.968 2.21-1.267 2.859.404.93-.961 1.689-.009 1.126-.243.384.288.726-.144 1.169.512.614-.674.998.162 1.024.467.239.027.273-.512.589-.736.025.134-.682-.26-.563-.431.349-2.345-.034-1.051 1.007.125.785-.269.401-1.788 1.562-1.383.221-1.168 1.041-.449.035-1.006-.589-1.42-.094-1.608-.478-.081-.333-1.293-.699-.899-.145-.719.196-2.021 2.628.009.768-.638.648v.308l-.584.298-1.572-.572-.386.137-.791-.896-.368-.026-.764.606-.691-.008-.683-.581-.584.18-1.563-.777-2.219.461-.773-.418-1.734.683-.853-.146-.575.273-.216.888-.548.23-.494-.128-.395.982.611.597-.287.657-1.447.281-.665 2.04.342.827-.611.709-.225.819-1.626-.197.413 2.842-.476.162-.332.657.404 1.587-.934.051-.503-.572-1.078-.426-.476-.708-1.195.273.144.981.628.145-.161.717.494.571 1.015.393-.332.571 2.003 2.014-.234.427-.368.068-.126.52-.512.043-.719.614-.089.461-1.007 1.178-.026.904-.405.742-.35.214-.97-.461.009-.333-.351.051-.188.803-.476.102.233.811.638.068.97.87 2.336 3.413-.126.469-.889.589-.081 1.263.494.819-.243.41-.521.136-.611-.827-.512.759-.413.085-.53-.554-.512.17-.53.76-.162 1.928-1.168 1.962-.53 1.673.054.657.539.785.009.955-1.689-.784-2.695.204-.521.461-.763-.239-.629.256-.431-.537-.423-.069-.368.265-1.204-.307-.413.221-.674-.136-.458.333-.593-.128-.377.358-.548-.068-.773.384.692 1.066-1.006.862-.629-.239-.62.179-.773-.537-.871-.026-.44-.554-1.464-.862-.638-.154-.396.307-.727-.153-.674.29-.62-.614-.53.076-.566.973-1.168.256-.566-1.092-1.635-.043-.754.248-.45.751-1.275-.282-.216-.333-1.213.785-1.212-.264-.737.128-.566-.137-.117-1.135-.449-.281-1.393-.444-1.051.29-1.383-1.194-1.689-.111-.925.426-1.653-.529-.036-.324-1.168.06-.467-.316-.297-1.271-.988-.615-1.788-2.798-.835-.504-2.641.094-1.069-.29-1.213-.537-1.258-1.28-.368.836-.512.299-.602-.035-3.216-2.867-1.213-.076-.71.264-1.509-.281-.036-.965-.395-.213-.234-.981-.35-.333-3.522-.648-1.32.136-.387-.179-1.868.324-1.85 1.186-2.031.171-.934-.836-.225-1.57.386-.487-1.743-2.875.35-1.835-.862-.418-.43.171-.037.717-.36.281-.358-.623.116-.921-.206-.555-.683-.341.458-2.944.35-.742-.287-2.031.216-.597-.566-1.365.35-.495-.08-.606-2.004-1.254.332-2.441-.45-1.322.405-.819-.431-.265-.341-2.286.88-1.161-.566-1.416-2.399-.794-.251-.853-.611-.683-.907.222-.135-.418-.315.845-.43.222-.207 1.126-.692.316-.341-.282-.333-1.143-.943.708-.638-.256-1.249.136-.79-.563-.234-.58.207-.623-.09-2.278-.584-.529.422-.537.593-.222.503-1.383-1.392.316-.324-.324-.036-.93-.314-.495-.503-.529-.943-.299-.081-.648-.773-.154-.665-.827-1.266.111-.26-.453-.728-.008-.037-.41-.682-.333-1.078-.008.045-.469-.79-.538-.495.009-1.743.981h-.691l-.459-.376-.916 1.263-.234 1.306-.494.827-.503.273-1.267-.042-1.131 1.536.305.674-.135.614-.7.128-1.294.998-.54.709.01.716-.458.171-.458-.213-.342.273.063.512-.61.051-.315.443-.018.487-.7.068-.729.683-.251.964-.907.674.34 1.22-.134.623-1.294 1.126-.718-.077-1.869.666-.844 1.322-.692-.469-.009-.657-.45.333v2.235l-.44.291-.458-.017-.242-1.212.278-1.024-.17-1.169.656-.691.808-.367.009-1.015-1.312.008-.871.367.287-1.613-.538-.853-1.725 2.287-1.806.427-.638.639-.98-.665-1.221.29-.305.512-.54-.051-.386-.487-.8.231-1.697-.265-.413.504-.45 1.442-.539.554-.637.052-.782.452-2.426-.111-.808.281-.288-1.092-.7.299-.288-.265.081-.904-.782-.896-.188-.742-1.23-.555.116-.623.431-.435-.377-.273.17-.606 1.114-1.254.243-.819-.288-.743 1.258-1.8.01-.828.763-1.109-.467-.938.395-1.613.53-.648.233-.982.611-.392-.09-.888.692-.563.09-.537.602-.256.036-.367-.503-.359.08-.349 1.205-.197.386-.861-.332-.589 1.509-1.988.278-1.843-.71-.495-1.095.153-.764-.52-.422-.998-.423-.299-.584.247-.422-.136-.296-.572.27-2.833-1.474-2.201-.332-1.425.485-1.382.566-.674 1.248-.597-.08-.717.539-1.024-.369-1.109.279-.435-.638-1.613-1.914.034-.754.486-.97-1.339v-1.109l.485-.41.027-.512.476-.324.233-1.016 1.105-.989.063-.418-.943-1.024-.279-.683-.458-5.435-.817.239-1.32-2.509-1.322.179-1.67-.802-1.024.034-1.537.487-.26-.589 1.042-1.809v-.921l2.605-.171.566-.538-.027-.494-.36-.239.297-1.238-.431-.588-1.07-.171-.269-.546-.296-1.229.341-.819-.467-.367-.054-.964-.341-.094-.755.726-.907-.367-.71.384-.08.52h-.8l-2.012-1.288-.665-.094-.476.384H11.9l-.206-1.272-1.698-.145-.369-.759-1.14.085-.611-1.664-.548.299.107.555-.296.307-1.689.196-.925.401-.405-.486.279-.469-.099-.657-.862-.231-.827.811-.89-1.289.28-.341-.28-1.143.917.034.225-.35-.252-.691.683-1.161-.225-.571.216-.691.341-.069.396.589.7-.23-.638-.504-.009-.631-.494-.401-.062-.717.26-.426.782-.069.224-.648.719-.231.674-1.049h.71l-.522-.853.548-1.195.692-.478.737-.102.539.23.224-1.305 1.105-.777-.242-.324-.988.017-1.025-1.467-1.275-.7.045-5.461-.342-.887-1.698-1.024.09-3.729.827-1.433-.369-1.954.26-1.127-.52-.614-.126-.785-.665.171-.278-.282.494-.785.018-.81-1.258.213-.135-.785-.727-.145-.692.358L.41 181.88l.153-.495 2.443.017.548-.316.44-2.056 1.366-.188 1.16-1.092 1.167.384.629-.614.296-1.34.1-4.189.772-8.797.17-7.799-.359-3.857-2.336-4.676-2.48-4.155.234-1.152.611-.332.512-1.024.926-.709 1.132.683 2.308-.213 2.956-1.946 1.797-.588 1.176.102.378-.265.557-1.339 1.437-1.152 3.315-.205.53.128-.054.888.315.443 1.266.205 1.177-.393.764-1.902.17-1.673.486-.512.045-.469-.872-.444.18-1.442-.458-.503.107-1.032 1.231-.47.342-1.024-.252-.853.288-.461 4.339-.665-.306-.785-1.168-.853.045-1.093.458-.341-.242-.674.341-.648.79-.623 1.016-.179.782-.913 2.38-.726 1.896-1.348 1.32-.153.638-1.127 2.704-.742 1.123-1.502.413.017.512.802.36-.179.332-.921.935-.103.314-.802-.242-.606.188-1.023.925-.205.01-.939-.567-.384-1.006-.128-1.132-1.459-1.347-.623-.216-.64.18-1.868-.602-5.128.198-2.654-.279-3.84-1.23-.41-.423-.801-.71-.196.27-1.971-.7-.854-.971.034-.521-.725-1.303.06-.539-.879.324-.802.647-.657.017-1.203-.664-.76-1.276-.29.162-1.032-.45-.299-.583.086-.396-3.234.279-1.69.763-1.996-1.087-.205.468-.836.844-.17.072-.88-.557-.913.413-.768-.26-.52-1.177-.316-1.384.512-.674-1.015 1.33-1.365-.135-1.178-2.668-1.271.395-.666 3.136-.042 1.383-3.849.647-.042.728.46.359-.273-.593-1.587-1.123-.238.234-1.895.512-.725 1.689-1.212 1.635 1.98 2.21 1.203 2.964.58 2.965-.333.7-.469.567-1.305-1.213-3.737.18-.572.898 1.698 1.267 1.177.503 1.784 1.069 2.252.278 1.86-.97 1.033-.665 2.133.584.69.243.803 1.33.76.116 1.493-.35.682.53.111.296-.247.925-1.707 1.06.213.638-.332.378-.572-.467-.18-.8.521-.296-.17-1.734-1.81-.324-.588.072-.75-.287-.308 2.883-.896 1.034-.836.889-.248 1.77.401 2.362-.41 1.213-.989.45.06-.414-.358 1.051-.658.575-.255.728.426-.27-.35.207-.162.808-.077.54.35.062-.17 2.147.23 1.86.802 1.51-.341.763.17 4.761 1.903 3.037.196 1.123-.358 4.527.589.566.392-.009.845.432.06.62.819-.647.512-.62.085-.62-.862-.117.205-.602-.239-.099.427-.88.836-.009.904.44.188.018.265-.691 1.169.26.426-.036.964.764 1.024 2.767 1.11 1.257.844 2.049.615 1.446 1.169 1.213-.427.512.085 1.266.495 3.18.282 2.768 1.058 2.291-.76 1.437-.136 1.464.708.045-.375h.683l.144.375 1.644-.887.548.827.305-.307.916.725.899.077-.243-.947.351.307.619-.025-1.536-1.314.072-.273.431-.06 1.213 1.365 1.914.649.197.674h.494l.494-.359.369-1.024.44-.085-.252-1.587.665-1.46-.09.905.324-.068.108-.75.593.477.134-.29.414-.026-.602-.281-.521-.794-.611-.008 1.114-.853.458.332.233-.546-.709-.034-.108-.333-.225.487-.116-.751-.432-.12.351-.179.116-.606-.332.35-.054-.35-.602-.145.566-.358-.656-.367-.179-.665.135-.257.871-.196v-.264l-.53.196-.252-.137.117-.273-.35.205-.647-.35.26-.213.126.316.288-.06-.342-.768.288-.46.224.298-.143.367.691.717.207-.077-.404-.58.144-.939-.216.29-.44-.58-.252.051.342-.64-.351-.887.566.239.243-.205-.324-.111-.215-.7.638.717.269-.247-.584-.854.324-.12-.252-.989.287.214.225-.205-.207.682.279.325.216-1.067.197-.085.054.605.054-.503.305-.077-.305.964.09.163.224-.615.306.162-.171.495.386.299.117.537.557-1.262.333.674.278-.171-.242-.35.269-.179.413.555.36-.64-.045-.785.674-.265v-.452l-.144.12.287-.521.36-.137-.324.325.162.273.332-.435-.548-.999.342-.085.233.631.216-.256.144.222.404-1.365.377.043-.224.785.485-.154-.036.683.197-.495.072.537.755-.256.171.64.583-.554-.296.887.279.307-.027.879.296-.879-.18-.162.764-.708.287.23-.377.325-.036.469.521-.341-.161.622.269.418.503-1.143-.036 2.227.135-.589.44-.341-.251-.546.431-.324.278.69-.224-.178-.126.588.602-.128-.512 1.886.727-1.425-.449 2.244.27-.094.197-.776.117.537.117-.315.449.273.09-1.297.198.46-.27.367.53.47.063-1.212-.054.393.315.358-.144.401.557-.11.081.4.314-.41-.126.436.225.136.225-.4-.189.69.162.563.332.146.018.785.207-.205-.099-.589.206-.025-.045.853.162-.188.126.452.045-.597.233-.043.243.461.126-.648-.53-.154-.153.196.054-.426.889.213.153-.273-.521-.222.26-.939.414.47-.324.273.342.239.548-.453.027.658.269-.88.189.026-.153.461.764-1.186.081.384.332-.478.332 1.05.243-.299.233.077-.35.631.315.111-.414 1.638.387 1.11.871-.59 1.096.035-.036-.887.611-.751.018 1.006.359.649h.387l-.315-.964.144-.154.485.23-.207-.272.342-1.468-.153-.273.296-.333 1.393-.008.611.273.566.793-.243.598.216.324.242-.88.423.419.817-.299 1.545.111.027.282-.835.76.171.272.7-.367.189.333 1.078-.162-.665 1.186.934-.964-.997 1.237.297.256.88-.46.746.033.503-.273.745.59-.359.23.386.11-.009.555-.934.546.243.222-.458.18.485-.086.341.426 2.057-.247.755.58-.252.009.297.23-.755.794.539-.359.27.214-.962 1.245.504-.256-.027.342.422-.453.377.547.027.665.791-.82.593.146.359.52.198-.136.386.384-.153.145.342.665-.171.376.287-.222.315.631.413-.332-.108.29.333-.094.018.597.485.333-.414.367.387.145-1.501.068-.916-.239-.251-.657-.243-.102-.063.213.144.725 1.437.999.189.614.341.154-.629.239-.197.478.296.69h.818l-.234.29-.808-.059-.009.614-1.096.137.602.546.485-.154-.009.222-.45-.034.288.282.934.042.449.504-.098.793-.45.58-1.32-.529.512.478-1.123-.444-.135.18.279.23-.252.154.413.341-2.003-.034.09.529-.413-.017.359.674-.377.043.036.443.368-.042.62.563-.189.443 1.312-.367 1.922.717-.179.043.332.282-.117.273-.476.255.818.29-.351.325.539.153-.188.282.224.162-.269.034.305.12.018.392-.943.128.314.307-.467.401.548-.162.153.734-.216-.384-.233.29.143.213.989.35-.728.171-.629.913.09.444.934-.401.216.358-.378-.043.279.273-.234.333-.287-.179.09.256-.422.427-.773-.555.566.563-1.051.572-.737-.128-.26.35-.557.085-.575-.75-.189.025.117.41-1.321-.026-.09.486.225.128-.279-.034-.251.555 1.482 1.484-.772.205-.459-.307-.395-.504-.17-.964-.315.086-.189.81.468 1.314.718.589.378 1.945.269.333.863.188.368.503.063-.341 1.257-.615.575-.887-.575-1.467-.476-2.603 1.357 2.56.314.87-.063.751 1.581 1.928-.772-.418-.934-.094-2.66.888-.476.751.333.094.179.477-.134.683.602.111.287-.35 1.186-.111.647 1.434v1.075l-.306-.137.279.299-.27.119.539-.205.674 3.2 1.788 1.527.242 1.297.548.615-.215.341.377-.145.791.264-.018.299.386-.324.35.461.225-.052.79 1.818-.233.486.683.896.584.128.673-.264.135.998.485.264.827-.273.305-.512-.126-1.143.279-.367-.09.743.791 2.67-.162.324.763 1.067.872-.222 1.267-1.16 1.904-2.662.575-1.878-.036-2.013.449-.342 1.096-2.628.36-2.525 1.194-4.377 2.058-4.565.754-1.041.566-.299.701.068.943-.469.737.077 1.213 1.587.045.742-.503-1.058-1.043-.938-.664-.034-.701.452.251.213-.278.333-.638-.299.225 1.545-.395.75.224.734 1.087.478 1.213 2.449.961 1.288 1.572 1.476 1.384.862 3.306 1.092 1.464.009 1.384-.538.844-1.288 1.321-1.126.943-.282 2.012-1.467-.081.187 1.007-.537.763.213.925-.324 3.989 1.263-.144.119.396.495.629.307.359-.23.835.068 1.698 2.125 1.375.264.961.631-.252.47.629-.367-.17.546.485-.384-.44 1.101.296-.043-.117.631.369-.085.071.452.369.094.197-.435.441-.145-.144.375.808.035.009.273.89.529.44.042.674-.529-.063-.708-.872-.222-.017-1.229-.432.069.027-.342-.359.265-.009-.401-.288.205-.197-.239.593-.086.422-.529 1.015-3.293 1.114-.239.764.137.17 1.066.252.009.305-.401.548.111-.027-.291.306.017-.539-.784.126-.214 1.437-.461.907.871.917.145.107 2.508.557.922.845-.231.198.197.548-1.673 1.446.273.503.768.135-.401.305-.025.036.29.503-1.203.324.478.08-.325.153.171.279-.265-.144-.221.305.017-.637-.248-.153-.469-.144.128-1.15-2.858-.018-2.014.234-.017-.243-.111v-.674l.485-.23-.036-.222-.503-.222-.305-1.007-2.129-.649 1.41.273.638-.196.503-1.066.036-.93.871-.939.324-1.22.287-.248.8.64 1.006-.733-.305-.777-.899-.256-1.725.17-.754-.213-.665.171-1.258 1.476-1.383-.614-.216-2.048.656-1.596 2.192-2.645 1.707-.17 1.581.495.386.503.692-.52 1.994-.086 1.626-.887.836.264-.234-.41.476-.665 1.357-.546.278.051-.071.23.296-.161.063-.248-.961-.256.099-.239-.315-.153.171-.52-.943-1.246-.153.093-.908-1.817-.494-.188.171-.281-.323-.325-.117-.947.952-.06 1.725.53 1.042.008.692.359.287.64 1.132.878 2.129.862 4.6.487 5.606.162 1.437.571 3.189.282 3.594 1.126 5.04 1.016 3.126 1.22 4.627 2.303.52.367-.017.623.772.478 3.908-.674 2.399.282.916-.197 2.129.17 5.705 2.382 2.066 1.535 1.797 2.116.781 1.716.216 1.382-.279.597-2.812 1.672-.404-1.74-.179.674-.279-.026.323-.588-.305-.965-.35-.239-.683.197.413.298-.404.265-.036.392-.279-.204-.179.162-.539 1.194-.611.299-.261.47-.134.4.404.768.305-.512.692.469.584-.367.871.922.818.094 1.698-.188.494-.367.961.615.117.392.539.179-.09.572.404.299.036.767.746.222 1.824-.119-.458.299.889.196-.054 1.817.539.777 2.129-.691.332.486 2.669.99 1.671 2.329-.369-.043.602 1.374.638.708-.045.342 1.141 1.373-.18.376-.278-.222-.881.239-1.311-.196-.036.247.674.461 1.024.094 1.806 1.518 1.931.785 2.776-.068 1.608-.384.269.231.261-.359 1.734-.384.386.077.054.393.44-.393.611.171.863-.734 2.542-1.058 3.953-.973 1.033-.486h1.401l1.375-.597.512.162 2.623-.538 3.45.162.422-.324.305.196 1.384-.196 2.776.392 5.228 1.314 3.567 1.434 2.74 1.655 2.902 2.5 1.967 2.893.997 2.773.476 2.415-.934 2.167.045 1.041-.548 1.083.009.657-1.312 1.963 1.132 1.741 2.12 1.552-.269-.469.575.051 2.524 1.212.279-.307 1.877.623.279 1.484-.288 1.604.36 3.61.494.256.467-1.246-.593-1.672.027-.862 2.452-2.167.414-.111.485.247.251-.35-.215 1.203.251.691-1.06 1.016-.754.358-.234-.478.198.964.799-.017.027-.247.692-.171.566-1.024.88-.87 1.393-.384.126-.725 1.051-.614-.027-.649.314.188.548-.137.081.717-.476 1.305-.638.299.674.947-.243.879.827.393.081 1.314 1.913 2.329.036.503-1.294.282-.431 2.551.386.691 1.105.41.656 1.339-.629 1.058-.799.495.081.956.727.538-.314.785.099.716-.791.461.081 1.604-.377.657.045 1.391-.521.836-2.426-1.075-3.971-1.152-.916.196-2.03 1.758-1.384.529-4.797-.469-.665.162-.494.503-.431.99-.997-.435-.369.256-.647-.026-.548-.588-2.497 2.047-2.381-.136-1.177.819-.566 2.133-.961 1.186.36.836.817.41.063.316-.368.571-.89.367-.808-.136-1.033.239-.333 2.175.135 1.459.755 1.306-.18 1.834.189.453 1.194.358 1.24 1.596 1.123.17 1.959.93.224.964-.269 1.442 1.024 1.238.135.537-.98.529-.422.819.063.751-1.132 1.587-.243.999-.763.512.26 1.006.477.649zM228.954 3.09l-.279-.197.881.205-.153.273-.449-.281zm34.398 22.739l-1.078-1.186.907-1.425-.503-2.79.863-1.348.341-1.255-.171-1.169.557-1.169 1.303.965.458 1.04-.683 1.716.566.998.117.793 1.707 1.067.916-.026.971-.733-.333-.222-.395.35-.476-.077 1.051-.87.485-.657-.162-.137.692-.265.449.222.701-.537 2.524 1.211 2.426-.273 1.15.76.108.486-.53 1.229.296.947-.126.546.279.12.26.853 1.15.05 3.63-1.637 2.452.878.09.376.216-.248 2.308.393.917.87.152.461-.467.23.072.214.485-.111 1.339 1.007 1.859-1.212.998.35-1.851 3.191.252.922-.441 2.15-3.701 1.194-1.141.649-.979.145-.71.478-2.668.7-1.518.085-1.563-.478-.198.29-3.216-.922-.988-.793-2.597-3.464-2.003-.546-1.653-.794-2.273-2.244-1.563-1.007-1.06-.341zm-58.861-5.077l-.188-1.263.682-.546.162-.657-.521-1.024.422-.145-.404-.154-.198-.435.701-.674-.323-.563.108-.452-.539-.102-.998.793.926.964-.207.359-.71-.717-.197-.606.934-.64.53-.853-.458-1.715.458-.905.8-.23.826.384.871-1.058-.763-1.519-.189.512-.233-1.425.287-1.22 1.123-1.322.62-.24.638.222.53-.332 1.213.025.583-1.476-.089-.742.404-.606.584-.282.467 1.323.323.034.351-2.107 2.021-1.144.333.017.161.444.324-.341 1.212-.128-.637.324.098 1.459.495.392-.549.521.557-.333.71.947 1.168.487 1.213 1.74 2.479.922-.512 1.118-.09-.308-.413.069-.117.921.638.316.108.486.952.572.557.717.171-.325.62-.136 1.249.682.314.794-.045.708-.386.401.305.964.27.094.287-.332-.314-.786.979.103.755.793.098.726.414.367.952-.214-.979-1.655-.135-1.69.476-2.21-.296-.793.089-1.348.764-2.867 1.617.12 2.668 1.39-.745-.955-1.114-2.987-.521-.077.134-.46h.225l1.347 1.194 1.222.427 1.716 2.432 1.159.844.925 1.101.36 1.067 1.437 1.177 2.911 1.229 1.24-.478.233.17.386-.69 1.105-.359 3.064 1.237 1.779 2.074.844.443 1.527.248.584 1.032.62.52 2.156 1.246 1.096 1.545.072.495-1.473-.128-2.013 1.749-.512 1.34.432 1.945.826.47-1.177.793-.413 2.184-2.165 2.347-1.33.298-.952.734-.557-.188-.117-.844-.332-.282-1.716-.188-.674.29-.242 1.314.619-.076.89 1.126-.099.537-.934.837-.773.273-1.096-.188-1.347.47-.135-.368-.288-.042-.386.537-.296-.145.027.23-.387-.494-.512-.163-.683 1.57.548-.46.054.23-1.114.845-.871-.077-2.974-2.73.279-.145.224-.811.665-.23.773.58.341.708h.351l-.063-.563-.782-.87.027-.913-.952.469-1.411-.137-.601.666-1.043.478-.215.495-4.869 1.16-3.917 1.706-1.572.35.907-.324-.431-1.732-1.123-.879.099-.341-.378.06-.26-.52-.422-.171-.243.196-.072-.393-.745 1.238-.423-.026.315.273-.027 1.305.368.325.683-.666v.282l-.701.69-.889 2.808-.89 1.04-1.006.573-.665-.077-2.272-1.758-3.369-1.007-1.186-1.843-.737-2.124.297.025.188-.341-.53.137-1.123-1.263.144-.41-.189-.136.459-.47-.872.623-1.752-1.28-2.273-4.138.809.46-.099-.195-.997-.666-.171-2.244.854-.631.79-.154z"/></mask><path d="M193.495 48.03l-.242-.733 1.123.367 2.919 3.302.468 1.126.952.913.162 1.425-.764.853-.71-.666.027-.614-.772-1.118-1.321-1.05-.323-1.381-.683-.691-.117-.888-.296.17.224.59-.683-.256.036-1.349zm12.452 56.477l-.009.222-.431-.538-.261.077-.108.58-.844-.315-1.105-.896.143-.632.477-.119.7.845-.314-.453 1.446-.691 1.42.086.107.332.234-.256.323.248.351-.231 1.096.026.638.905-.036.605-1.015 1.562-.674.247-.782-.631-.153-.632-1.051-.128-.152-.213zm16.862-39.565l2.075-.12 1.941-2.005.934-2.039.35-1.561.351-.256-.306.034.135-.691.431-.419.539-1.476.728-.802.781.487.638-.052 1.249-.793 3.288-.785 1.33 1.212 1.868.657 4.411 4.488 1.231 1.74.871 1.971-.063.512-.476.495-.108 1.28.441 2.33.305.366-2.309.896-3.108-1.109-1.797.12-1.15-.623-4.384-.837-1.644-.682-3.135-1.988-1.06-.222-1.905.299-2.856 1.578-.593-.11-.602-1.238.359-.64 1.24-.017zm6.846-15.743l-.333.751.279 1.118-.216 1.152-.485.708-.8.205-.835.495-.62.785-.35-.026.107.307.62-.11-.116.17-1.043-.077-.736-.606-1.069-2.081-.297-1.263.18-2.645.368-.7.836-.512 3.045-.333 1.168.649.368.913-.071 1.1zm-36.088-30.017l.315-.239.476-1.792.161-1.98-.215-2.073.647-2.61.036-.717-.351-.384.324-.88 1.437 4.54.925 1.092.926.572-.827 1.152-.736 1.86-.108.529.584.913-1.204 1.63-1.95.213-.242-.205-.198-1.621zm148.572 173.56l-.755 1.416 1.015 1.886-.377.401-.791-.179-.512.187-.458-.819-.889-.222-1.465.632-1.257.162-.746 1.16-.773.478-.018.845-.287.367-1.968-.103-1.194-.904.503-.418-.072-.631-1.617-.999-.216-1.211-.287-.111-.899.981-.143.853-.665.418-.647-.315-1.5.068-.854-.657-.332-1.033-1.105.683-1.384-.41-1.437.214-.395-.726-.728.146-.44.785-.863.221-.287-.785-.674-.042-.404-.444-.584-.162-.997.589-.027.708-1.123.674.18.674.835.717-.063 1.109-1.168 1.681-.826.034.135-.836-.351-.401-.844.205-1.177-.111-.467.486-.97.29-.189 1.297.458.162-.269 1.195.233.512-.979 1.16-.18.811.737.631-.126.708-.539.708h-.746l-.404.401-.009.547-.53.179-1.069-.333-.826.64-.944.239.009.478-.539.665-.072 1.579-.826.435.835 3.165.998.495.116.41-.296.665-1.285.709-.629 1.134-.871.154-.189.367.728 1.075-.296.691-1.582.376-.44-.248.378-.887-1.222-.512-1.42.614-.62.009-.7 1.476-.485.162-.71-.879-.674.512-.296-.358-.665.52-1.051.12-1.402-.325-.368.572.081 1.937-.701-.026-.979-.58-.934.12-.234-.709-.997-.793.108-.785-.261-.529.638-.529.045-.521-1.033-.546.009-.554-.908-.137-.314.623-2.237 1.578-.746-.315.144.623-.871-.086-.71-.725-.916-.256-.288.649-.754-.615-.737.487-.952-.47-.117-.785-.737-.358-1.32 1.416-.737.359.234 1.126 1.383 1.681-1.482 2.176-.27.716.081.845-.638.205-1.123-.188.234-.503-1.087-.811.449-1.186-.386-.375-1.132.699-.665-.179-.189.845-.718-.043-2.156-1.578-1.977.29-1.078-.495-.377.282-.638 2.167-.782 1.024-3.117 1.237-.18.589.297 1.663-.449 1.442-.97 1.246.134.708-.548 1.169.081.606-.835 1.033-.261.785.584.759.009.606-.44.495 1.258.964.116 1.638-.557.828.072.546.557.358-.413 1.417.458.529-.233.341-.719.205-.243-.239-.718.657.395.623-.512.981.162 1.024-.27.717-.602.085-.548.947-.35-.154-.458.606-.477.145.081.794-.772.734-.476 1.885-1.025.342-.691.887-.97.034-.423.29-.7-.358-.117-.538.395-.614-.216-.606.279-.802-.368-.153-.989.494-.521.999-.772-1.323.233-.316-.296-.657-.593-.119-.773.444.036-.325-.611-.409-.036-.683-.826.333.045 1.05-.71.81-.072.708-.566.188-.233-.64-1.608-.444-.827.896-.692.086-.997-.666-.404-1.604-.647.017-.377.503-.907.299-.468-.887-.781-.196-.126-.427-.593-.29-.422-.598.027-.878-.764-.453-.665-.955-.152-.734-.602.282-.737-.052.036-.861-.808.042-.387-.665-.907.008-.638 1.152-1.303.043-.592.435-.62 3.84.386.554-.62.649-.081.46-1.213-.068-.592.282.323.972-1.105 3.106-.575.256-.916 1.528-1.24.256-.863.597-.835-.265-.413.41.018.725-.342.384-1.23.009-.432.315-.323-.469-.386.649.296.742-.278.478-1.537 1.28-.592-.137-.198.273.233.631-.943 2.048 1.968 2.21-1.267 2.859.404.93-.961 1.689-.009 1.126-.243.384.288.726-.144 1.169.512.614-.674.998.162 1.024.467.239.027.273-.512.589-.736.025.134-.682-.26-.563-.431.349-2.345-.034-1.051 1.007.125.785-.269.401-1.788 1.562-1.383.221-1.168 1.041-.449.035-1.006-.589-1.42-.094-1.608-.478-.081-.333-1.293-.699-.899-.145-.719.196-2.021 2.628.009.768-.638.648v.308l-.584.298-1.572-.572-.386.137-.791-.896-.368-.026-.764.606-.691-.008-.683-.581-.584.18-1.563-.777-2.219.461-.773-.418-1.734.683-.853-.146-.575.273-.216.888-.548.23-.494-.128-.395.982.611.597-.287.657-1.447.281-.665 2.04.342.827-.611.709-.225.819-1.626-.197.413 2.842-.476.162-.332.657.404 1.587-.934.051-.503-.572-1.078-.426-.476-.708-1.195.273.144.981.628.145-.161.717.494.571 1.015.393-.332.571 2.003 2.014-.234.427-.368.068-.126.52-.512.043-.719.614-.089.461-1.007 1.178-.026.904-.405.742-.35.214-.97-.461.009-.333-.351.051-.188.803-.476.102.233.811.638.068.97.87 2.336 3.413-.126.469-.889.589-.081 1.263.494.819-.243.41-.521.136-.611-.827-.512.759-.413.085-.53-.554-.512.17-.53.76-.162 1.928-1.168 1.962-.53 1.673.054.657.539.785.009.955-1.689-.784-2.695.204-.521.461-.763-.239-.629.256-.431-.537-.423-.069-.368.265-1.204-.307-.413.221-.674-.136-.458.333-.593-.128-.377.358-.548-.068-.773.384.692 1.066-1.006.862-.629-.239-.62.179-.773-.537-.871-.026-.44-.554-1.464-.862-.638-.154-.396.307-.727-.153-.674.29-.62-.614-.53.076-.566.973-1.168.256-.566-1.092-1.635-.043-.754.248-.45.751-1.275-.282-.216-.333-1.213.785-1.212-.264-.737.128-.566-.137-.117-1.135-.449-.281-1.393-.444-1.051.29-1.383-1.194-1.689-.111-.925.426-1.653-.529-.036-.324-1.168.06-.467-.316-.297-1.271-.988-.615-1.788-2.798-.835-.504-2.641.094-1.069-.29-1.213-.537-1.258-1.28-.368.836-.512.299-.602-.035-3.216-2.867-1.213-.076-.71.264-1.509-.281-.036-.965-.395-.213-.234-.981-.35-.333-3.522-.648-1.32.136-.387-.179-1.868.324-1.85 1.186-2.031.171-.934-.836-.225-1.57.386-.487-1.743-2.875.35-1.835-.862-.418-.43.171-.037.717-.36.281-.358-.623.116-.921-.206-.555-.683-.341.458-2.944.35-.742-.287-2.031.216-.597-.566-1.365.35-.495-.08-.606-2.004-1.254.332-2.441-.45-1.322.405-.819-.431-.265-.341-2.286.88-1.161-.566-1.416-2.399-.794-.251-.853-.611-.683-.907.222-.135-.418-.315.845-.43.222-.207 1.126-.692.316-.341-.282-.333-1.143-.943.708-.638-.256-1.249.136-.79-.563-.234-.58.207-.623-.09-2.278-.584-.529.422-.537.593-.222.503-1.383-1.392.316-.324-.324-.036-.93-.314-.495-.503-.529-.943-.299-.081-.648-.773-.154-.665-.827-1.266.111-.26-.453-.728-.008-.037-.41-.682-.333-1.078-.008.045-.469-.79-.538-.495.009-1.743.981h-.691l-.459-.376-.916 1.263-.234 1.306-.494.827-.503.273-1.267-.042-1.131 1.536.305.674-.135.614-.7.128-1.294.998-.54.709.01.716-.458.171-.458-.213-.342.273.063.512-.61.051-.315.443-.018.487-.7.068-.729.683-.251.964-.907.674.34 1.22-.134.623-1.294 1.126-.718-.077-1.869.666-.844 1.322-.692-.469-.009-.657-.45.333v2.235l-.44.291-.458-.017-.242-1.212.278-1.024-.17-1.169.656-.691.808-.367.009-1.015-1.312.008-.871.367.287-1.613-.538-.853-1.725 2.287-1.806.427-.638.639-.98-.665-1.221.29-.305.512-.54-.051-.386-.487-.8.231-1.697-.265-.413.504-.45 1.442-.539.554-.637.052-.782.452-2.426-.111-.808.281-.288-1.092-.7.299-.288-.265.081-.904-.782-.896-.188-.742-1.23-.555.116-.623.431-.435-.377-.273.17-.606 1.114-1.254.243-.819-.288-.743 1.258-1.8.01-.828.763-1.109-.467-.938.395-1.613.53-.648.233-.982.611-.392-.09-.888.692-.563.09-.537.602-.256.036-.367-.503-.359.08-.349 1.205-.197.386-.861-.332-.589 1.509-1.988.278-1.843-.71-.495-1.095.153-.764-.52-.422-.998-.423-.299-.584.247-.422-.136-.296-.572.27-2.833-1.474-2.201-.332-1.425.485-1.382.566-.674 1.248-.597-.08-.717.539-1.024-.369-1.109.279-.435-.638-1.613-1.914.034-.754.486-.97-1.339v-1.109l.485-.41.027-.512.476-.324.233-1.016 1.105-.989.063-.418-.943-1.024-.279-.683-.458-5.435-.817.239-1.32-2.509-1.322.179-1.67-.802-1.024.034-1.537.487-.26-.589 1.042-1.809v-.921l2.605-.171.566-.538-.027-.494-.36-.239.297-1.238-.431-.588-1.07-.171-.269-.546-.296-1.229.341-.819-.467-.367-.054-.964-.341-.094-.755.726-.907-.367-.71.384-.08.52h-.8l-2.012-1.288-.665-.094-.476.384H11.9l-.206-1.272-1.698-.145-.369-.759-1.14.085-.611-1.664-.548.299.107.555-.296.307-1.689.196-.925.401-.405-.486.279-.469-.099-.657-.862-.231-.827.811-.89-1.289.28-.341-.28-1.143.917.034.225-.35-.252-.691.683-1.161-.225-.571.216-.691.341-.069.396.589.7-.23-.638-.504-.009-.631-.494-.401-.062-.717.26-.426.782-.069.224-.648.719-.231.674-1.049h.71l-.522-.853.548-1.195.692-.478.737-.102.539.23.224-1.305 1.105-.777-.242-.324-.988.017-1.025-1.467-1.275-.7.045-5.461-.342-.887-1.698-1.024.09-3.729.827-1.433-.369-1.954.26-1.127-.52-.614-.126-.785-.665.171-.278-.282.494-.785.018-.81-1.258.213-.135-.785-.727-.145-.692.358L.41 181.88l.153-.495 2.443.017.548-.316.44-2.056 1.366-.188 1.16-1.092 1.167.384.629-.614.296-1.34.1-4.189.772-8.797.17-7.799-.359-3.857-2.336-4.676-2.48-4.155.234-1.152.611-.332.512-1.024.926-.709 1.132.683 2.308-.213 2.956-1.946 1.797-.588 1.176.102.378-.265.557-1.339 1.437-1.152 3.315-.205.53.128-.054.888.315.443 1.266.205 1.177-.393.764-1.902.17-1.673.486-.512.045-.469-.872-.444.18-1.442-.458-.503.107-1.032 1.231-.47.342-1.024-.252-.853.288-.461 4.339-.665-.306-.785-1.168-.853.045-1.093.458-.341-.242-.674.341-.648.79-.623 1.016-.179.782-.913 2.38-.726 1.896-1.348 1.32-.153.638-1.127 2.704-.742 1.123-1.502.413.017.512.802.36-.179.332-.921.935-.103.314-.802-.242-.606.188-1.023.925-.205.01-.939-.567-.384-1.006-.128-1.132-1.459-1.347-.623-.216-.64.18-1.868-.602-5.128.198-2.654-.279-3.84-1.23-.41-.423-.801-.71-.196.27-1.971-.7-.854-.971.034-.521-.725-1.303.06-.539-.879.324-.802.647-.657.017-1.203-.664-.76-1.276-.29.162-1.032-.45-.299-.583.086-.396-3.234.279-1.69.763-1.996-1.087-.205.468-.836.844-.17.072-.88-.557-.913.413-.768-.26-.52-1.177-.316-1.384.512-.674-1.015 1.33-1.365-.135-1.178-2.668-1.271.395-.666 3.136-.042 1.383-3.849.647-.042.728.46.359-.273-.593-1.587-1.123-.238.234-1.895.512-.725 1.689-1.212 1.635 1.98 2.21 1.203 2.964.58 2.965-.333.7-.469.567-1.305-1.213-3.737.18-.572.898 1.698 1.267 1.177.503 1.784 1.069 2.252.278 1.86-.97 1.033-.665 2.133.584.69.243.803 1.33.76.116 1.493-.35.682.53.111.296-.247.925-1.707 1.06.213.638-.332.378-.572-.467-.18-.8.521-.296-.17-1.734-1.81-.324-.588.072-.75-.287-.308 2.883-.896 1.034-.836.889-.248 1.77.401 2.362-.41 1.213-.989.45.06-.414-.358 1.051-.658.575-.255.728.426-.27-.35.207-.162.808-.077.54.35.062-.17 2.147.23 1.86.802 1.51-.341.763.17 4.761 1.903 3.037.196 1.123-.358 4.527.589.566.392-.009.845.432.06.62.819-.647.512-.62.085-.62-.862-.117.205-.602-.239-.099.427-.88.836-.009.904.44.188.018.265-.691 1.169.26.426-.036.964.764 1.024 2.767 1.11 1.257.844 2.049.615 1.446 1.169 1.213-.427.512.085 1.266.495 3.18.282 2.768 1.058 2.291-.76 1.437-.136 1.464.708.045-.375h.683l.144.375 1.644-.887.548.827.305-.307.916.725.899.077-.243-.947.351.307.619-.025-1.536-1.314.072-.273.431-.06 1.213 1.365 1.914.649.197.674h.494l.494-.359.369-1.024.44-.085-.252-1.587.665-1.46-.09.905.324-.068.108-.75.593.477.134-.29.414-.026-.602-.281-.521-.794-.611-.008 1.114-.853.458.332.233-.546-.709-.034-.108-.333-.225.487-.116-.751-.432-.12.351-.179.116-.606-.332.35-.054-.35-.602-.145.566-.358-.656-.367-.179-.665.135-.257.871-.196v-.264l-.53.196-.252-.137.117-.273-.35.205-.647-.35.26-.213.126.316.288-.06-.342-.768.288-.46.224.298-.143.367.691.717.207-.077-.404-.58.144-.939-.216.29-.44-.58-.252.051.342-.64-.351-.887.566.239.243-.205-.324-.111-.215-.7.638.717.269-.247-.584-.854.324-.12-.252-.989.287.214.225-.205-.207.682.279.325.216-1.067.197-.085.054.605.054-.503.305-.077-.305.964.09.163.224-.615.306.162-.171.495.386.299.117.537.557-1.262.333.674.278-.171-.242-.35.269-.179.413.555.36-.64-.045-.785.674-.265v-.452l-.144.12.287-.521.36-.137-.324.325.162.273.332-.435-.548-.999.342-.085.233.631.216-.256.144.222.404-1.365.377.043-.224.785.485-.154-.036.683.197-.495.072.537.755-.256.171.64.583-.554-.296.887.279.307-.027.879.296-.879-.18-.162.764-.708.287.23-.377.325-.036.469.521-.341-.161.622.269.418.503-1.143-.036 2.227.135-.589.44-.341-.251-.546.431-.324.278.69-.224-.178-.126.588.602-.128-.512 1.886.727-1.425-.449 2.244.27-.094.197-.776.117.537.117-.315.449.273.09-1.297.198.46-.27.367.53.47.063-1.212-.054.393.315.358-.144.401.557-.11.081.4.314-.41-.126.436.225.136.225-.4-.189.69.162.563.332.146.018.785.207-.205-.099-.589.206-.025-.045.853.162-.188.126.452.045-.597.233-.043.243.461.126-.648-.53-.154-.153.196.054-.426.889.213.153-.273-.521-.222.26-.939.414.47-.324.273.342.239.548-.453.027.658.269-.88.189.026-.153.461.764-1.186.081.384.332-.478.332 1.05.243-.299.233.077-.35.631.315.111-.414 1.638.387 1.11.871-.59 1.096.035-.036-.887.611-.751.018 1.006.359.649h.387l-.315-.964.144-.154.485.23-.207-.272.342-1.468-.153-.273.296-.333 1.393-.008.611.273.566.793-.243.598.216.324.242-.88.423.419.817-.299 1.545.111.027.282-.835.76.171.272.7-.367.189.333 1.078-.162-.665 1.186.934-.964-.997 1.237.297.256.88-.46.746.033.503-.273.745.59-.359.23.386.11-.009.555-.934.546.243.222-.458.18.485-.086.341.426 2.057-.247.755.58-.252.009.297.23-.755.794.539-.359.27.214-.962 1.245.504-.256-.027.342.422-.453.377.547.027.665.791-.82.593.146.359.52.198-.136.386.384-.153.145.342.665-.171.376.287-.222.315.631.413-.332-.108.29.333-.094.018.597.485.333-.414.367.387.145-1.501.068-.916-.239-.251-.657-.243-.102-.063.213.144.725 1.437.999.189.614.341.154-.629.239-.197.478.296.69h.818l-.234.29-.808-.059-.009.614-1.096.137.602.546.485-.154-.009.222-.45-.034.288.282.934.042.449.504-.098.793-.45.58-1.32-.529.512.478-1.123-.444-.135.18.279.23-.252.154.413.341-2.003-.034.09.529-.413-.017.359.674-.377.043.036.443.368-.042.62.563-.189.443 1.312-.367 1.922.717-.179.043.332.282-.117.273-.476.255.818.29-.351.325.539.153-.188.282.224.162-.269.034.305.12.018.392-.943.128.314.307-.467.401.548-.162.153.734-.216-.384-.233.29.143.213.989.35-.728.171-.629.913.09.444.934-.401.216.358-.378-.043.279.273-.234.333-.287-.179.09.256-.422.427-.773-.555.566.563-1.051.572-.737-.128-.26.35-.557.085-.575-.75-.189.025.117.41-1.321-.026-.09.486.225.128-.279-.034-.251.555 1.482 1.484-.772.205-.459-.307-.395-.504-.17-.964-.315.086-.189.81.468 1.314.718.589.378 1.945.269.333.863.188.368.503.063-.341 1.257-.615.575-.887-.575-1.467-.476-2.603 1.357 2.56.314.87-.063.751 1.581 1.928-.772-.418-.934-.094-2.66.888-.476.751.333.094.179.477-.134.683.602.111.287-.35 1.186-.111.647 1.434v1.075l-.306-.137.279.299-.27.119.539-.205.674 3.2 1.788 1.527.242 1.297.548.615-.215.341.377-.145.791.264-.018.299.386-.324.35.461.225-.052.79 1.818-.233.486.683.896.584.128.673-.264.135.998.485.264.827-.273.305-.512-.126-1.143.279-.367-.09.743.791 2.67-.162.324.763 1.067.872-.222 1.267-1.16 1.904-2.662.575-1.878-.036-2.013.449-.342 1.096-2.628.36-2.525 1.194-4.377 2.058-4.565.754-1.041.566-.299.701.068.943-.469.737.077 1.213 1.587.045.742-.503-1.058-1.043-.938-.664-.034-.701.452.251.213-.278.333-.638-.299.225 1.545-.395.75.224.734 1.087.478 1.213 2.449.961 1.288 1.572 1.476 1.384.862 3.306 1.092 1.464.009 1.384-.538.844-1.288 1.321-1.126.943-.282 2.012-1.467-.081.187 1.007-.537.763.213.925-.324 3.989 1.263-.144.119.396.495.629.307.359-.23.835.068 1.698 2.125 1.375.264.961.631-.252.47.629-.367-.17.546.485-.384-.44 1.101.296-.043-.117.631.369-.085.071.452.369.094.197-.435.441-.145-.144.375.808.035.009.273.89.529.44.042.674-.529-.063-.708-.872-.222-.017-1.229-.432.069.027-.342-.359.265-.009-.401-.288.205-.197-.239.593-.086.422-.529 1.015-3.293 1.114-.239.764.137.17 1.066.252.009.305-.401.548.111-.027-.291.306.017-.539-.784.126-.214 1.437-.461.907.871.917.145.107 2.508.557.922.845-.231.198.197.548-1.673 1.446.273.503.768.135-.401.305-.025.036.29.503-1.203.324.478.08-.325.153.171.279-.265-.144-.221.305.017-.637-.248-.153-.469-.144.128-1.15-2.858-.018-2.014.234-.017-.243-.111v-.674l.485-.23-.036-.222-.503-.222-.305-1.007-2.129-.649 1.41.273.638-.196.503-1.066.036-.93.871-.939.324-1.22.287-.248.8.64 1.006-.733-.305-.777-.899-.256-1.725.17-.754-.213-.665.171-1.258 1.476-1.383-.614-.216-2.048.656-1.596 2.192-2.645 1.707-.17 1.581.495.386.503.692-.52 1.994-.086 1.626-.887.836.264-.234-.41.476-.665 1.357-.546.278.051-.071.23.296-.161.063-.248-.961-.256.099-.239-.315-.153.171-.52-.943-1.246-.153.093-.908-1.817-.494-.188.171-.281-.323-.325-.117-.947.952-.06 1.725.53 1.042.008.692.359.287.64 1.132.878 2.129.862 4.6.487 5.606.162 1.437.571 3.189.282 3.594 1.126 5.04 1.016 3.126 1.22 4.627 2.303.52.367-.017.623.772.478 3.908-.674 2.399.282.916-.197 2.129.17 5.705 2.382 2.066 1.535 1.797 2.116.781 1.716.216 1.382-.279.597-2.812 1.672-.404-1.74-.179.674-.279-.026.323-.588-.305-.965-.35-.239-.683.197.413.298-.404.265-.036.392-.279-.204-.179.162-.539 1.194-.611.299-.261.47-.134.4.404.768.305-.512.692.469.584-.367.871.922.818.094 1.698-.188.494-.367.961.615.117.392.539.179-.09.572.404.299.036.767.746.222 1.824-.119-.458.299.889.196-.054 1.817.539.777 2.129-.691.332.486 2.669.99 1.671 2.329-.369-.043.602 1.374.638.708-.045.342 1.141 1.373-.18.376-.278-.222-.881.239-1.311-.196-.036.247.674.461 1.024.094 1.806 1.518 1.931.785 2.776-.068 1.608-.384.269.231.261-.359 1.734-.384.386.077.054.393.44-.393.611.171.863-.734 2.542-1.058 3.953-.973 1.033-.486h1.401l1.375-.597.512.162 2.623-.538 3.45.162.422-.324.305.196 1.384-.196 2.776.392 5.228 1.314 3.567 1.434 2.74 1.655 2.902 2.5 1.967 2.893.997 2.773.476 2.415-.934 2.167.045 1.041-.548 1.083.009.657-1.312 1.963 1.132 1.741 2.12 1.552-.269-.469.575.051 2.524 1.212.279-.307 1.877.623.279 1.484-.288 1.604.36 3.61.494.256.467-1.246-.593-1.672.027-.862 2.452-2.167.414-.111.485.247.251-.35-.215 1.203.251.691-1.06 1.016-.754.358-.234-.478.198.964.799-.017.027-.247.692-.171.566-1.024.88-.87 1.393-.384.126-.725 1.051-.614-.027-.649.314.188.548-.137.081.717-.476 1.305-.638.299.674.947-.243.879.827.393.081 1.314 1.913 2.329.036.503-1.294.282-.431 2.551.386.691 1.105.41.656 1.339-.629 1.058-.799.495.081.956.727.538-.314.785.099.716-.791.461.081 1.604-.377.657.045 1.391-.521.836-2.426-1.075-3.971-1.152-.916.196-2.03 1.758-1.384.529-4.797-.469-.665.162-.494.503-.431.99-.997-.435-.369.256-.647-.026-.548-.588-2.497 2.047-2.381-.136-1.177.819-.566 2.133-.961 1.186.36.836.817.41.063.316-.368.571-.89.367-.808-.136-1.033.239-.333 2.175.135 1.459.755 1.306-.18 1.834.189.453 1.194.358 1.24 1.596 1.123.17 1.959.93.224.964-.269 1.442 1.024 1.238.135.537-.98.529-.422.819.063.751-1.132 1.587-.243.999-.763.512.26 1.006.477.649zM228.954 3.09l-.279-.197.881.205-.153.273-.449-.281zm34.398 22.739l-1.078-1.186.907-1.425-.503-2.79.863-1.348.341-1.255-.171-1.169.557-1.169 1.303.965.458 1.04-.683 1.716.566.998.117.793 1.707 1.067.916-.026.971-.733-.333-.222-.395.35-.476-.077 1.051-.87.485-.657-.162-.137.692-.265.449.222.701-.537 2.524 1.211 2.426-.273 1.15.76.108.486-.53 1.229.296.947-.126.546.279.12.26.853 1.15.05 3.63-1.637 2.452.878.09.376.216-.248 2.308.393.917.87.152.461-.467.23.072.214.485-.111 1.339 1.007 1.859-1.212.998.35-1.851 3.191.252.922-.441 2.15-3.701 1.194-1.141.649-.979.145-.71.478-2.668.7-1.518.085-1.563-.478-.198.29-3.216-.922-.988-.793-2.597-3.464-2.003-.546-1.653-.794-2.273-2.244-1.563-1.007-1.06-.341zm-58.861-5.077l-.188-1.263.682-.546.162-.657-.521-1.024.422-.145-.404-.154-.198-.435.701-.674-.323-.563.108-.452-.539-.102-.998.793.926.964-.207.359-.71-.717-.197-.606.934-.64.53-.853-.458-1.715.458-.905.8-.23.826.384.871-1.058-.763-1.519-.189.512-.233-1.425.287-1.22 1.123-1.322.62-.24.638.222.53-.332 1.213.025.583-1.476-.089-.742.404-.606.584-.282.467 1.323.323.034.351-2.107 2.021-1.144.333.017.161.444.324-.341 1.212-.128-.637.324.098 1.459.495.392-.549.521.557-.333.71.947 1.168.487 1.213 1.74 2.479.922-.512 1.118-.09-.308-.413.069-.117.921.638.316.108.486.952.572.557.717.171-.325.62-.136 1.249.682.314.794-.045.708-.386.401.305.964.27.094.287-.332-.314-.786.979.103.755.793.098.726.414.367.952-.214-.979-1.655-.135-1.69.476-2.21-.296-.793.089-1.348.764-2.867 1.617.12 2.668 1.39-.745-.955-1.114-2.987-.521-.077.134-.46h.225l1.347 1.194 1.222.427 1.716 2.432 1.159.844.925 1.101.36 1.067 1.437 1.177 2.911 1.229 1.24-.478.233.17.386-.69 1.105-.359 3.064 1.237 1.779 2.074.844.443 1.527.248.584 1.032.62.52 2.156 1.246 1.096 1.545.072.495-1.473-.128-2.013 1.749-.512 1.34.432 1.945.826.47-1.177.793-.413 2.184-2.165 2.347-1.33.298-.952.734-.557-.188-.117-.844-.332-.282-1.716-.188-.674.29-.242 1.314.619-.076.89 1.126-.099.537-.934.837-.773.273-1.096-.188-1.347.47-.135-.368-.288-.042-.386.537-.296-.145.027.23-.387-.494-.512-.163-.683 1.57.548-.46.054.23-1.114.845-.871-.077-2.974-2.73.279-.145.224-.811.665-.23.773.58.341.708h.351l-.063-.563-.782-.87.027-.913-.952.469-1.411-.137-.601.666-1.043.478-.215.495-4.869 1.16-3.917 1.706-1.572.35.907-.324-.431-1.732-1.123-.879.099-.341-.378.06-.26-.52-.422-.171-.243.196-.072-.393-.745 1.238-.423-.026.315.273-.027 1.305.368.325.683-.666v.282l-.701.69-.889 2.808-.89 1.04-1.006.573-.665-.077-2.272-1.758-3.369-1.007-1.186-1.843-.737-2.124.297.025.188-.341-.53.137-1.123-1.263.144-.41-.189-.136.459-.47-.872.623-1.752-1.28-2.273-4.138.809.46-.099-.195-.997-.666-.171-2.244.854-.631.79-.154z" stroke="#31313B" stroke-width=".4" mask="url(#a)"/></svg>