<svg width="59" height="71" fill="none" xmlns="http://www.w3.org/2000/svg"><mask id="a" fill="#fff"><path d="M14.698 1.09l.369-.35 2.758 1.153.251.35-.018 1.305.53.572 2.291-.461 4.851.827 9.927 6.16 1.141 1.64.126.724-.521 1.63.683 2.253 2.255 3.84.233.964-.431.964 2.866 1.126.44.785.512 2.824-.009 3.345.476.947.737.75.781.317 2.013.05 2.56.811 1.5-.06.279 1.084.656-.05.197.247 1.68 5.085 1.222 1.305 1.347.461.243 1.067.395 3.447 1.07 2.406-2.049 1.1-.341.555-.683.214-.413.69-.79.555-.827-.563-3.351 1.775.772.87-.871 1.408 1.392 5.82.189.315.862-.128.144.248-.449 1.254-1.545.256-.782-.743-1.689-.025-.898.887-.44-.085-.26.23.053.99-.952.794.153.98-.692.231-2.102-.239-1.878-1.382-.7.299-.333.503-.225-.29-1.14.077-1.141-.563-1.285.716-.629.726-.584-.922-.305-.017-.719.503-1.536 2.33-.764.486-.072 1.348-.943-.384-.35-.776-.701-.239-.08-.427-1.115.052-.629-.657-.736.238-.773-.332-.862.648.449 1.05-2.336.23-.539-.281-.755.213-1.069-.615-1.832.47-1.042-.35-1.564.358-.61-.938-1.573-.154-.727-.392-.719.358.144 1.058-.467.341-.369-.093-.134.887-.683.81-.692-.12-1.644-1.023-1.581.836-.27-.298-.907-.12-.773.47-.404-.069-.952-.657-.593-.034-.97.41-.404-.401.251-.555-.638-.725-.135-.58-.224-2.757.386-.947-1.177-1.809.171-.955.494-.393 1.491.572.63-.282 1.688-1.834.333.026.314.426.252-.162-.252-.478.234-.256-.593-.793.296-1.092-.871-.666-.072-.452.656-1.4-.18-.733.61-.76.01-.563.575-.589.907.35 1.123-.085.431 1.314.926-1.058 1.24-.862.062-1.092-.242-.401-1.033-.23-.495-.683-.08-1.118 1.015-1.126.36-.845 1.203-.947.871.154.369-.24.305-.912 1.23-.794.306-.554-.404-1.536.27-.683-.153-.213-.98.162-.449-.324-.224-.683-.431-.136.009-1.041.682-.965-.52-.861.143-1.092-1.087-1.34-.916-.094-.683-.392-.898-1.434-.72-.589.908-2.952.944-1.416 1.886-1.604 1.015-3.294-.072-1.194 1.222-2.748.62-2.415.009-1.98-.818-1.518-.43-2.833-.01-.99 1.222-2.96-.656-1.553-.17-2.04.62-1.185z"/></mask><path d="M14.698 1.09l.369-.35 2.758 1.153.251.35-.018 1.305.53.572 2.291-.461 4.851.827 9.927 6.16 1.141 1.64.126.724-.521 1.63.683 2.253 2.255 3.84.233.964-.431.964 2.866 1.126.44.785.512 2.824-.009 3.345.476.947.737.75.781.317 2.013.05 2.56.811 1.5-.06.279 1.084.656-.05.197.247 1.68 5.085 1.222 1.305 1.347.461.243 1.067.395 3.447 1.07 2.406-2.049 1.1-.341.555-.683.214-.413.69-.79.555-.827-.563-3.351 1.775.772.87-.871 1.408 1.392 5.82.189.315.862-.128.144.248-.449 1.254-1.545.256-.782-.743-1.689-.025-.898.887-.44-.085-.26.23.053.99-.952.794.153.98-.692.231-2.102-.239-1.878-1.382-.7.299-.333.503-.225-.29-1.14.077-1.141-.563-1.285.716-.629.726-.584-.922-.305-.017-.719.503-1.536 2.33-.764.486-.072 1.348-.943-.384-.35-.776-.701-.239-.08-.427-1.115.052-.629-.657-.736.238-.773-.332-.862.648.449 1.05-2.336.23-.539-.281-.755.213-1.069-.615-1.832.47-1.042-.35-1.564.358-.61-.938-1.573-.154-.727-.392-.719.358.144 1.058-.467.341-.369-.093-.134.887-.683.81-.692-.12-1.644-1.023-1.581.836-.27-.298-.907-.12-.773.47-.404-.069-.952-.657-.593-.034-.97.41-.404-.401.251-.555-.638-.725-.135-.58-.224-2.757.386-.947-1.177-1.809.171-.955.494-.393 1.491.572.63-.282 1.688-1.834.333.026.314.426.252-.162-.252-.478.234-.256-.593-.793.296-1.092-.871-.666-.072-.452.656-1.4-.18-.733.61-.76.01-.563.575-.589.907.35 1.123-.085.431 1.314.926-1.058 1.24-.862.062-1.092-.242-.401-1.033-.23-.495-.683-.08-1.118 1.015-1.126.36-.845 1.203-.947.871.154.369-.24.305-.912 1.23-.794.306-.554-.404-1.536.27-.683-.153-.213-.98.162-.449-.324-.224-.683-.431-.136.009-1.041.682-.965-.52-.861.143-1.092-1.087-1.34-.916-.094-.683-.392-.898-1.434-.72-.589.908-2.952.944-1.416 1.886-1.604 1.015-3.294-.072-1.194 1.222-2.748.62-2.415.009-1.98-.818-1.518-.43-2.833-.01-.99 1.222-2.96-.656-1.553-.17-2.04.62-1.185z" stroke="#31313B" stroke-width=".4" mask="url(#a)"/></svg>