<svg width="97" height="101" fill="none" xmlns="http://www.w3.org/2000/svg"><mask id="a" fill="#fff"><path d="M30.229 94.082l1.096.853 1.482-.281-.52.836-.396-.196-.863.853-1.176.094-.423.682-.808.401-.288.982-.368-.026-.26.776-1.231.555-.198 1.178-.808.068-.19-1.024 2.175-1.783.018-.461 1.581-1.852.575-1.288.602-.367zm16.871-8.96l.674.385-.44.572.332.443-.224.495-1.438.034-.8.666-1.176.324-1.375.913-1.258 1.323-.772.119-.404-.495-.45.094-.26.444.26.205-.359.58-1.68 1.177-.826 1.254-.8.06-.79 1.126-.63-.119.073-.478.503-.426-.036-.692.305.461.26-.367-.161-.375.566.196.584-.529.054-.495-.54-.179-.035-.384.808.154.198-.546 1.554-1.041.18-.7-.189-.401.97.341.504-.998.88-.273-.144-1.229.341-.546.414.085.575 1.4 1.132-.06 1.482-.82.153-.502 1.105-1.059.88-.136zm11.337-5.776L56.3 81.104l-.152.666-.423.435-.673.563-.638.094-1.644 1.655-.899.46-.844-.05 1.725-2.347.8-.12 1.536-1.902 1.006-.239-.063-.495.287-.247.782-.341.773.23.727-.248-.162.128zm10.817-8.464l.377.316-.764.657-.098.554-2.148 1.98-.395-.008-.27-.683.98-.034.377-.777.836-.478 1.105-1.527zm1.428-1.903l.566.23-.153.479h-.548l-.125-.453.26-.256zm3.845-3.83l-.027.801-.485.333V65.6l.512-.452zm.97-2.927l.477.341.026.452-.727-.324.224-.47zm6.36-7.193l.28.188-.19.418-1.275 1.109-.162-.282.683-.46.135-.828.53-.145zm1.896-2.466l.773.384-.054.341-.584.137-.314-.691.18-.171zm2.363-4.369l.467.248-.683 1.356.207 1.314-.341.41-.782.145-.323-.196-.063-.7 1.518-2.577zm7.681-10.81l.764.255-.198.88.296.469-.009.913-.862.435-.08.606-.872 1.45-.44.137-.171.4-1.15.052-.683.426-.763 1.332-.26-.52-.8.033.224-1.502-.314-.836.862.111.404-.648.899-.111.215-.248.432.103.7-.726.674-1.945 1.132-1.067zm2.875-.913l.189.955-.647 1.237-.88.026-.612-.486.108-.811 1.842-.922zM7.922.633L9.72 3.868l-.045.81-.566.888v.827l2.058 5.845.673 3.917-.009 3.396-.215 1.305-.719 1.263-.395 2.79.27.7-.28-.077-.017.529.314.188-.027.384.414.204.107-.187.503 1.211-.601 1.314.188.333-.251.691.889.043.099-1.271.745 2.85-.197-.274-.458.17.79.615.189.546 1.527 8.243 1.527 3.438.01.649.817 1.97.045 1.195.674 1.033-.117.75.395 1.699.692 1.885 1.958 1.698-.117 1.255.486.742-.495.026-.116-1.23-.557-1.049-1.483-1.356-1.275-1.733-2.669-.819.18-.05-.27-.205-.97-.205-.404.145-.593-.615-1.087.24.63.34-.234.248.916.026-1.698.623-1.33 1.305-.143.708.233 1.237-1.14 2.236-1.375 4.292-.512 2.679.072.87 1.024 2.654 1.653 1.374.53.947v1.57l.476 1.467.386.308-.045.34-.368-.187-.135.418.405.17.224.752.557-.077.638.316.215-.316-.251-.324-.97-.24-.216-.323 1.5.221.234-.478.233.103.486 3.148.494.965-.997 1.638.018.776-.333.683.054-1.638-.773-2.688-1.033-.862-.494.111-1.105-.333-.763.24-.288-1.187-.278-.153-.036.23-1.033.299-.683.827-1.07 2.876-.457 2.218-.54.384-.107.785-1.06-1.34-.71-4.871 1.15-2.671.476-1.86-.126-.947-.503-.768.216-.64-.243-2.27.809-2.201.745-1.101-.386-3.114-1.635-2.953-.278-1.134.853-1.016-.135-.426.297-.222.17-1.877.35.102-.206-.239.26-.58-.161-1.084.485-1.68.153-2.688-.225-1.391.279-.939-.306-2.338.162-.682-.7-1.784.269-2.593.943-1.733.144-1.109-.54-1.996-.574-.751v-.7L2.83 29.534l.224-.299-.161-.222-.252.239-1.392-1.382.682.307.315-.7-.431-.58-.863-.435.377-.64-.332-1.502.395-.571-.422-1.63.153-.7.656-.588.467-1.041-.063-1.656.647-3.123-.584-1.356-.413-2.202.8-.64 2.353-1.015-.243.136.17 1.442.199.214.494-.248.602.086.96-1.468.53.145-.089-.47-.189.086-.422-.555-.314.555-.234-1.177 1.042-.29.225.767.745-.955-.206-1.11-.342-.255-.215 1.169-.521.358.638-1.69.045-.912-1.635-1.92-.45-1.144-.736-.682.808.256.935-.222.781-.478.072-.683.287-.119z"/></mask><path d="M30.229 94.082l1.096.853 1.482-.281-.52.836-.396-.196-.863.853-1.176.094-.423.682-.808.401-.288.982-.368-.026-.26.776-1.231.555-.198 1.178-.808.068-.19-1.024 2.175-1.783.018-.461 1.581-1.852.575-1.288.602-.367zm16.871-8.96l.674.385-.44.572.332.443-.224.495-1.438.034-.8.666-1.176.324-1.375.913-1.258 1.323-.772.119-.404-.495-.45.094-.26.444.26.205-.359.58-1.68 1.177-.826 1.254-.8.06-.79 1.126-.63-.119.073-.478.503-.426-.036-.692.305.461.26-.367-.161-.375.566.196.584-.529.054-.495-.54-.179-.035-.384.808.154.198-.546 1.554-1.041.18-.7-.189-.401.97.341.504-.998.88-.273-.144-1.229.341-.546.414.085.575 1.4 1.132-.06 1.482-.82.153-.502 1.105-1.059.88-.136zm11.337-5.776L56.3 81.104l-.152.666-.423.435-.673.563-.638.094-1.644 1.655-.899.46-.844-.05 1.725-2.347.8-.12 1.536-1.902 1.006-.239-.063-.495.287-.247.782-.341.773.23.727-.248-.162.128zm10.817-8.464l.377.316-.764.657-.098.554-2.148 1.98-.395-.008-.27-.683.98-.034.377-.777.836-.478 1.105-1.527zm1.428-1.903l.566.23-.153.479h-.548l-.125-.453.26-.256zm3.845-3.83l-.027.801-.485.333V65.6l.512-.452zm.97-2.927l.477.341.026.452-.727-.324.224-.47zm6.36-7.193l.28.188-.19.418-1.275 1.109-.162-.282.683-.46.135-.828.53-.145zm1.896-2.466l.773.384-.054.341-.584.137-.314-.691.18-.171zm2.363-4.369l.467.248-.683 1.356.207 1.314-.341.41-.782.145-.323-.196-.063-.7 1.518-2.577zm7.681-10.81l.764.255-.198.88.296.469-.009.913-.862.435-.08.606-.872 1.45-.44.137-.171.4-1.15.052-.683.426-.763 1.332-.26-.52-.8.033.224-1.502-.314-.836.862.111.404-.648.899-.111.215-.248.432.103.7-.726.674-1.945 1.132-1.067zm2.875-.913l.189.955-.647 1.237-.88.026-.612-.486.108-.811 1.842-.922zM7.922.633L9.72 3.868l-.045.81-.566.888v.827l2.058 5.845.673 3.917-.009 3.396-.215 1.305-.719 1.263-.395 2.79.27.7-.28-.077-.017.529.314.188-.027.384.414.204.107-.187.503 1.211-.601 1.314.188.333-.251.691.889.043.099-1.271.745 2.85-.197-.274-.458.17.79.615.189.546 1.527 8.243 1.527 3.438.01.649.817 1.97.045 1.195.674 1.033-.117.75.395 1.699.692 1.885 1.958 1.698-.117 1.255.486.742-.495.026-.116-1.23-.557-1.049-1.483-1.356-1.275-1.733-2.669-.819.18-.05-.27-.205-.97-.205-.404.145-.593-.615-1.087.24.63.34-.234.248.916.026-1.698.623-1.33 1.305-.143.708.233 1.237-1.14 2.236-1.375 4.292-.512 2.679.072.87 1.024 2.654 1.653 1.374.53.947v1.57l.476 1.467.386.308-.045.34-.368-.187-.135.418.405.17.224.752.557-.077.638.316.215-.316-.251-.324-.97-.24-.216-.323 1.5.221.234-.478.233.103.486 3.148.494.965-.997 1.638.018.776-.333.683.054-1.638-.773-2.688-1.033-.862-.494.111-1.105-.333-.763.24-.288-1.187-.278-.153-.036.23-1.033.299-.683.827-1.07 2.876-.457 2.218-.54.384-.107.785-1.06-1.34-.71-4.871 1.15-2.671.476-1.86-.126-.947-.503-.768.216-.64-.243-2.27.809-2.201.745-1.101-.386-3.114-1.635-2.953-.278-1.134.853-1.016-.135-.426.297-.222.17-1.877.35.102-.206-.239.26-.58-.161-1.084.485-1.68.153-2.688-.225-1.391.279-.939-.306-2.338.162-.682-.7-1.784.269-2.593.943-1.733.144-1.109-.54-1.996-.574-.751v-.7L2.83 29.534l.224-.299-.161-.222-.252.239-1.392-1.382.682.307.315-.7-.431-.58-.863-.435.377-.64-.332-1.502.395-.571-.422-1.63.153-.7.656-.588.467-1.041-.063-1.656.647-3.123-.584-1.356-.413-2.202.8-.64 2.353-1.015-.243.136.17 1.442.199.214.494-.248.602.086.96-1.468.53.145-.089-.47-.189.086-.422-.555-.314.555-.234-1.177 1.042-.29.225.767.745-.955-.206-1.11-.342-.255-.215 1.169-.521.358.638-1.69.045-.912-1.635-1.92-.45-1.144-.736-.682.808.256.935-.222.781-.478.072-.683.287-.119z" stroke="#31313B" stroke-width=".4" mask="url(#a)"/></svg>