<svg width="33" height="23" fill="none" xmlns="http://www.w3.org/2000/svg"><mask id="a" fill="#fff"><path d="M6.409 2.147l1.554.102 1.168.555.251-.103-.125-.657.386-.358-.18-.623.324-.042.646.179-.125 1.28 1.518-.188.835-.708.764-.154.853-1.177.63.588 2.083.811.827.768 1.518.145 2.048.75 1.078 1.895 1.393 1.408 2.839.742.503.52 3.279 1.443.745.503.863 1.203-.764.913.35.93-.296.64-.61.879-1.258.623.143.537-.215.265 1.123.239.072.853-.27.418-1.383.393-.18.34 1.024.462.835-.333.504.18.027 1.33-.35.282.035.793-.476.316-.943-.026-.252-.7-.763.18-.144 1.613-.737.46-.296-.12-.719-.844-.88-.137-1.555.436-.296-.188.018-.597.638-.802-.036-.453-.809.965-2.075-.751-.674.478-.539 1.083-1.365-.375-1.267.358-.656-1.169-.494.41-2.695.69-.35-.212-.099-.862-.494-.785-.467-.111.08.46-.323.163-1.069-.589.26-.896 2.139-1.11-.674-.989-.278.068-.063.512-.638-.042-.036.426-.71-.7-2.093-.383-.656-1.024-.7-.069-.333.274-1.833-1.23-.485-.801.7-.248.827-.972-.062-.854-1.258-.648-.8-1.041.018-.76-2.21-.255-.251-1.587-.611-.896-.638-.384.207-1.084 1.006-.196.674.298.44-.785h.503l-.18-.836L2.79 3l.143-.631 1.41.281.423-.571 1.644.068z"/></mask><path d="M6.409 2.147l1.554.102 1.168.555.251-.103-.125-.657.386-.358-.18-.623.324-.042.646.179-.125 1.28 1.518-.188.835-.708.764-.154.853-1.177.63.588 2.083.811.827.768 1.518.145 2.048.75 1.078 1.895 1.393 1.408 2.839.742.503.52 3.279 1.443.745.503.863 1.203-.764.913.35.93-.296.64-.61.879-1.258.623.143.537-.215.265 1.123.239.072.853-.27.418-1.383.393-.18.34 1.024.462.835-.333.504.18.027 1.33-.35.282.035.793-.476.316-.943-.026-.252-.7-.763.18-.144 1.613-.737.46-.296-.12-.719-.844-.88-.137-1.555.436-.296-.188.018-.597.638-.802-.036-.453-.809.965-2.075-.751-.674.478-.539 1.083-1.365-.375-1.267.358-.656-1.169-.494.41-2.695.69-.35-.212-.099-.862-.494-.785-.467-.111.08.46-.323.163-1.069-.589.26-.896 2.139-1.11-.674-.989-.278.068-.063.512-.638-.042-.036.426-.71-.7-2.093-.383-.656-1.024-.7-.069-.333.274-1.833-1.23-.485-.801.7-.248.827-.972-.062-.854-1.258-.648-.8-1.041.018-.76-2.21-.255-.251-1.587-.611-.896-.638-.384.207-1.084 1.006-.196.674.298.44-.785h.503l-.18-.836L2.79 3l.143-.631 1.41.281.423-.571 1.644.068z" stroke="#31313B" stroke-width=".4" mask="url(#a)"/></svg>