<svg width="31" height="29" fill="none" xmlns="http://www.w3.org/2000/svg"><mask id="a" fill="#fff"><path d="M5.28 3.479l.808.375.88-.043 1.214.828.063-.657 1.15-.196.17.606.647.034-.584.29.404.281.611-.418.674.214.314-.316.602.23.1.316.242-.725.467.213-.369.666.297.085.162-.452h.539l1.626.443.359-.588.377.384.342-.401.332.469.431-.853.674-.325.818.069.593-.401-.054-.59.467.06.458-.63-.279-.521.252-.47.135.308.26-.18.279.214.027.4.233-.05.279-.837-.494-.341.44-.563.548-.068.323.324L23.49.44l.539 1.118.431-.623.862.725 1.114.384.494-.665 2.183.162.908 1.792.314.076-.045 1.383.423.443.035.359-.601.187.152 1.553-.359 1.144.593.631.018.717-.584.981-.216-.008-.44 1.16-.153.11-.278-.494-1.491 1.45.072.512.503.427-.171.239-1.788.964-1.383-.341.637.827-.43 1.23-1.043-.137-.422.256-.288-.512-.503.102-.8-.367-.53.034-.215.273-.18-.281-.718.648-.395-.06-.279.58.341.222-.34.777.583.41-.61.844.233.418-.459.214-.224.998-.647.094.386.589-.566.247.18.29-.305.29-.503-.426-.485 1.015.476.572-.306.332-.36-.239-.134.948-.395-.103-.467.802-.98.768.135.393-.314.4-.027.743-.368-.23-.63.332.028-.554-.62.043-.162-.367-.162.307-.125-.41-.962-.802.072-.546-.278-.17.593-.41-.288-.435-.602.12-.188-.282-.495-.052.19-.145-.46.086-.053-.265-.593-.205-1.222.308-1.078-.18-.072-.332.63-.717-.127-.401.27-.162-.243-.478.297-.154.009-.375-.674-.145.027-.444-.584.026-.189-.384-.952-.265-.763-.964-.432-.026-.036-1.006-.539-1.118-1.006-.495.8-1.527-1.366-.214.045-.418-1.572-.921.503-1.553.683-.111-.09-.734.611-.222-.26-1.467-.998-1.229.018-.427.683-.682-.207-.836.333-.205-.279-.384.279-.316-.27-.64.656-.58-.198-.222.53-.341.423-.128.62.273 1.455-.358z"/></mask><path d="M5.28 3.479l.808.375.88-.043 1.214.828.063-.657 1.15-.196.17.606.647.034-.584.29.404.281.611-.418.674.214.314-.316.602.23.1.316.242-.725.467.213-.369.666.297.085.162-.452h.539l1.626.443.359-.588.377.384.342-.401.332.469.431-.853.674-.325.818.069.593-.401-.054-.59.467.06.458-.63-.279-.521.252-.47.135.308.26-.18.279.214.027.4.233-.05.279-.837-.494-.341.44-.563.548-.068.323.324L23.49.44l.539 1.118.431-.623.862.725 1.114.384.494-.665 2.183.162.908 1.792.314.076-.045 1.383.423.443.035.359-.601.187.152 1.553-.359 1.144.593.631.018.717-.584.981-.216-.008-.44 1.16-.153.11-.278-.494-1.491 1.45.072.512.503.427-.171.239-1.788.964-1.383-.341.637.827-.43 1.23-1.043-.137-.422.256-.288-.512-.503.102-.8-.367-.53.034-.215.273-.18-.281-.718.648-.395-.06-.279.58.341.222-.34.777.583.41-.61.844.233.418-.459.214-.224.998-.647.094.386.589-.566.247.18.29-.305.29-.503-.426-.485 1.015.476.572-.306.332-.36-.239-.134.948-.395-.103-.467.802-.98.768.135.393-.314.4-.027.743-.368-.23-.63.332.028-.554-.62.043-.162-.367-.162.307-.125-.41-.962-.802.072-.546-.278-.17.593-.41-.288-.435-.602.12-.188-.282-.495-.052.19-.145-.46.086-.053-.265-.593-.205-1.222.308-1.078-.18-.072-.332.63-.717-.127-.401.27-.162-.243-.478.297-.154.009-.375-.674-.145.027-.444-.584.026-.189-.384-.952-.265-.763-.964-.432-.026-.036-1.006-.539-1.118-1.006-.495.8-1.527-1.366-.214.045-.418-1.572-.921.503-1.553.683-.111-.09-.734.611-.222-.26-1.467-.998-1.229.018-.427.683-.682-.207-.836.333-.205-.279-.384.279-.316-.27-.64.656-.58-.198-.222.53-.341.423-.128.62.273 1.455-.358z" stroke="#31313B" stroke-width=".4" mask="url(#a)"/></svg>