<svg width="93" height="63" fill="none" xmlns="http://www.w3.org/2000/svg"><mask id="a" fill="#fff"><path d="M.684 28.79l.242-.58 3.207-2.918.162-.76-.566-2.047 1.366-1.177.718-1.528.72-.128.79-1.22 3.207-.529.61-4.966-.287-1.246.944-1.8-.234-1.45.18-1.383L13 6.298l.126-.323-.458-1.186.413-.956-.072-.981.234-.461.404-.145 1.312.486 2.668.069 1.644.571.548-.52 2.704.264.952-.708.297.58.96.461.881-.862.566.043.953.213.359 1.655.952.214 1.635-.35 2.938-.009.997-.665 1.797-.299.835-.529.611.043 1.464.657.225 1.365 2.542.248.737-.308 1.76.043 1.86 1.468.602-.077 1.007-1.015.098-1.255.728-.734L52.564.19 54.64.045l2.758 2.244 1.977-.12.17.7.764.537 2.758 5.103-.512 1.143-.593.495.01 1.783-.513.913.44 1.314 5.786-.145 2.12-.546 2.937-.188 4.097.751.737.29.296.572.126 1.732 2.183.069 1.356 3.344 1.105 1.724 3.468-.478.943-.043.162.273.108.999 1.23 1.254.117.725-1.796.896-1.393 2.03-2.488 2.74.224 3.054.692 1.075.09.794 3.584.725.683.802 1.366.615 1.356-.214.575.154.755.717.108.861-.135 2.065-2.022.615.27.938-1.356.623-1.204 2.611-1.024.939-.126.46 1.078-.119.296.623-.736 1.647-.45.98-.862-.255-2.453 1.493-1.14.998-1.465.59-.305-1.272-1.429.785.063-.751-1.221.008-.207.845-.782.316-1.356.06-.198-.222.207-.691-1.32-.017-1.16.708-.395-.06-.862-.862-.261.197-.225 1.185-.503.052-.53.588-1.24.623-.323.828-1.365.418.197.58.36.128-2.39.188-1.94.793-.98-.068-2.228 1.246-.638.538-.547.06-.845-.624-1.123.35-1.105 1.289-1.249 2.175-2.093-.025-.458-.58.431-.171.503-1.067-.593-1.69.063-.878-.655-.4.09-.837-.683-.546.988-1.724-.782-1.408-1.752.444.018.572-.386.452-2.551.247-4.941 1.323-.476-.137-2.174-2.756-.387-.145-3.584.896-2.093.256-3.423-4.616-1.635-.75-1.204-.888-5.184-1.084-.808-.844-2.219.17-7.25-.196-1.356-.52-1.644.17-2.076-.486-.952-1.783-.71.196-.161-1.152-1.024-1.835-.746-.05.278-.871-.458-2.62-1.527-.69-1.213-.982-.045-.47.953-.912L0 32.793l.512-.666 1.446-.87L.8 29.704l.296-.419-.413-.494z"/></mask><path d="M.684 28.79l.242-.58 3.207-2.918.162-.76-.566-2.047 1.366-1.177.718-1.528.72-.128.79-1.22 3.207-.529.61-4.966-.287-1.246.944-1.8-.234-1.45.18-1.383L13 6.298l.126-.323-.458-1.186.413-.956-.072-.981.234-.461.404-.145 1.312.486 2.668.069 1.644.571.548-.52 2.704.264.952-.708.297.58.96.461.881-.862.566.043.953.213.359 1.655.952.214 1.635-.35 2.938-.009.997-.665 1.797-.299.835-.529.611.043 1.464.657.225 1.365 2.542.248.737-.308 1.76.043 1.86 1.468.602-.077 1.007-1.015.098-1.255.728-.734L52.564.19 54.64.045l2.758 2.244 1.977-.12.17.7.764.537 2.758 5.103-.512 1.143-.593.495.01 1.783-.513.913.44 1.314 5.786-.145 2.12-.546 2.937-.188 4.097.751.737.29.296.572.126 1.732 2.183.069 1.356 3.344 1.105 1.724 3.468-.478.943-.043.162.273.108.999 1.23 1.254.117.725-1.796.896-1.393 2.03-2.488 2.74.224 3.054.692 1.075.09.794 3.584.725.683.802 1.366.615 1.356-.214.575.154.755.717.108.861-.135 2.065-2.022.615.27.938-1.356.623-1.204 2.611-1.024.939-.126.46 1.078-.119.296.623-.736 1.647-.45.98-.862-.255-2.453 1.493-1.14.998-1.465.59-.305-1.272-1.429.785.063-.751-1.221.008-.207.845-.782.316-1.356.06-.198-.222.207-.691-1.32-.017-1.16.708-.395-.06-.862-.862-.261.197-.225 1.185-.503.052-.53.588-1.24.623-.323.828-1.365.418.197.58.36.128-2.39.188-1.94.793-.98-.068-2.228 1.246-.638.538-.547.06-.845-.624-1.123.35-1.105 1.289-1.249 2.175-2.093-.025-.458-.58.431-.171.503-1.067-.593-1.69.063-.878-.655-.4.09-.837-.683-.546.988-1.724-.782-1.408-1.752.444.018.572-.386.452-2.551.247-4.941 1.323-.476-.137-2.174-2.756-.387-.145-3.584.896-2.093.256-3.423-4.616-1.635-.75-1.204-.888-5.184-1.084-.808-.844-2.219.17-7.25-.196-1.356-.52-1.644.17-2.076-.486-.952-1.783-.71.196-.161-1.152-1.024-1.835-.746-.05.278-.871-.458-2.62-1.527-.69-1.213-.982-.045-.47.953-.912L0 32.793l.512-.666 1.446-.87L.8 29.704l.296-.419-.413-.494z" stroke="#31313B" stroke-width=".4" mask="url(#a)"/></svg>