<svg width="22" height="23" fill="none" xmlns="http://www.w3.org/2000/svg"><path d="M2.305 5.24l.176-.615.23.246.053.057.067-.037.854-.46.073-.04-.025-.079-.193-.609.293-.185.447.53.197.235-.021-.306-.03-.433.409-.085.057-.012.018-.057.147-.478.375.025.334.69.017.035.037.014.215.085.065.026.046-.052.33-.366.851.351.262.562.024.05.054.007.405.051.087.011.022-.085.159-.623.222.108.046.022.045-.024.332-.18.075-.04-.028-.08-.107-.312.313-.07.068-.015.01-.068.302-2.152.805-.023.066-.002.024-.061.117-.293.046.127.032.088.09-.025.994-.278.105.18.042.073.078-.029.736-.266 1.132.057.169.142-.176 2.577-.004.061.052.032 1.147.69-.134.916-.008.053.039.035.27.248.026.024.037.002.68.032.964 1.264-.05.67-.005.051.04.033 2.508 2.119 1.878 2.263.032.565-1.023 1.112-.025.028-.001.037-.026.958-.616.458-.03.022-.008.036-.212.93-.818 1.3-.016.026.001.032.026.562-.76 1.487-.011.02v.024l-.01.626-1.078 1.536-.01.016-.005.02-.126.554-.007.03.012.03.126.307-.377-.18-.048-.022-.046.027-.43.254-.454-.871-.026-.05-.056-.004-.62-.042-.08-.006-.023.077-.16.546-.363-.235-.025-.015h-.028l-.72-.009-.591-.642-.044-.047-.06.02-.568.182-.887-.531-.016-.01-.019-.003-1.671-.273-.054-.01-.037.042-.522.585-1.559.146-.34-.24.16-.954.006-.035-.018-.031-.233-.41-.021-.036-.04-.01-2.425-.656.559-1.822.598-.28.053-.025.004-.059.036-.554.003-.052-.04-.032-1.311-1.067-.017-.013-.02-.006-1.173-.324-.238-.287.183-.43.036-.086-.082-.043-1.79-.921-.671-1.699.273-.554.496.052.053.006.034-.04.233-.273.043-.05-.029-.06-.412-.845.597-.71.076-.091-.103-.06-.34-.196.132-.356.01-.026-.005-.028-.3-1.603.411-1.166.555.096.088.016.025-.087z" stroke="#31313B" stroke-width=".2"/></svg>