<svg width="68" height="41" fill="none" xmlns="http://www.w3.org/2000/svg"><mask id="a" fill="#fff"><path d="M51.283 1.441l.09-.76.916-.067.7.921.504.12.305.426h1.033l.584.546.216.623.943.504.215.674 1.186-.171.494.316.962.085.009.717.449.554 1.276.197.098 1.126 2.067-.162.548-.427.62.367.556-.316.44.094.558.384-.477.538 2.139 1.228-.081.598-.638-.145-.584-.512-.719.443-.206.802.17.222.485-.076-.206 1.211-.656.614-.099.845-1.078 1.05v1.57l1.096-.145-.117.648.216.205.89-.085.116.921-.314-.282-.386.12-.18.981-1.006 2.184-2.462 1.007-.52 2.517-1.196.24-.665 1.117.054.887-.808 2.219.251.529.98.793-.414.828.602 1.246.63.597 1.14.41-.431 1.314-.01 1.484-.53.487-.421 1.075-1.5 1.322-.513-.341-1.356.375.125.632-1.85 1.177-.872-.205-1.15-1.28-1.284-.298-.79.392v-.52l-.297-.213-1.339.793-.862-.887-1.41-.265-.647.376-.899-.58-.476.273-.144.452-1.545.418-2.596-.341-.836-.999-2.227.265-.701-1.289-.665-.426-.377-2.398-.468-1.058-4.86-.06-.332-.196-2.354.333-.781-.606.323-1.28-.153-.205-1.23-.05-.44.332-.018.444-.845.042-.009-.512-.925-.179-.638-1.143-.324.154-.296 1.57-.854.34-.781-.025-1.078-.503-.629.145-.656.588-.063.803-1.32.281-.072.853-1.114-.255-.755.255-2.129-.06-.458-.23-.45 1.45.495.137.117.717-.512.324-.135.478-.773-.136-1.123.315-.61 1.203-1.204-.187-1.007.495-1.069-.137-.808.196-.216.308-.143-1.408-.602-.794-1.016-.196-.035-.358.485-.709.808-.452-.27-.973.36.086.323.742.764.222.557-.23.45-.82-.153-.41-1.824-1.39-.117-.734-.737-.606-.395-.759-.476.034-.584-.537-.08-.623-.98-.743.054-.81-.7-1.417.367-1.032-1.32-1.46.835-.093.674-.495 1.141-.273-.189.879.405.162 1.347-.512 1.16.546.664-.4 1.006-1.323.89-.18.269-.298-.665-1.468.17-.76.567-.528-.153-1.024.225-.17.593.29.52-.188.234-.393 1.024.077 1.276 1.032.925 1.792 1.213-.495.503.12.386.495 1.698-.248 1.447.563.907-.221.638.802.656.162 1.967-.546.854.187 1.653-.605 1.168.05 3.216-2.9.584-.393 1.159-.213.26-1.28.692-.495.018-1.04.988-.914.045-.75.52-.282.953-2.04.737-.375 1.401-.162.665-2.858.503-.359v-.358l-.53-.478.647-.538 1.94-.213.063.188.97-.743 1.222.649 2.192-1.143.216.315.683-.239 1.275.325.387-.53.602-.136.161-.537 1.168.529 1.743-.598.207-.802z"/></mask><path d="M51.283 1.441l.09-.76.916-.067.7.921.504.12.305.426h1.033l.584.546.216.623.943.504.215.674 1.186-.171.494.316.962.085.009.717.449.554 1.276.197.098 1.126 2.067-.162.548-.427.62.367.556-.316.44.094.558.384-.477.538 2.139 1.228-.081.598-.638-.145-.584-.512-.719.443-.206.802.17.222.485-.076-.206 1.211-.656.614-.099.845-1.078 1.05v1.57l1.096-.145-.117.648.216.205.89-.085.116.921-.314-.282-.386.12-.18.981-1.006 2.184-2.462 1.007-.52 2.517-1.196.24-.665 1.117.054.887-.808 2.219.251.529.98.793-.414.828.602 1.246.63.597 1.14.41-.431 1.314-.01 1.484-.53.487-.421 1.075-1.5 1.322-.513-.341-1.356.375.125.632-1.85 1.177-.872-.205-1.15-1.28-1.284-.298-.79.392v-.52l-.297-.213-1.339.793-.862-.887-1.41-.265-.647.376-.899-.58-.476.273-.144.452-1.545.418-2.596-.341-.836-.999-2.227.265-.701-1.289-.665-.426-.377-2.398-.468-1.058-4.86-.06-.332-.196-2.354.333-.781-.606.323-1.28-.153-.205-1.23-.05-.44.332-.018.444-.845.042-.009-.512-.925-.179-.638-1.143-.324.154-.296 1.57-.854.34-.781-.025-1.078-.503-.629.145-.656.588-.063.803-1.32.281-.072.853-1.114-.255-.755.255-2.129-.06-.458-.23-.45 1.45.495.137.117.717-.512.324-.135.478-.773-.136-1.123.315-.61 1.203-1.204-.187-1.007.495-1.069-.137-.808.196-.216.308-.143-1.408-.602-.794-1.016-.196-.035-.358.485-.709.808-.452-.27-.973.36.086.323.742.764.222.557-.23.45-.82-.153-.41-1.824-1.39-.117-.734-.737-.606-.395-.759-.476.034-.584-.537-.08-.623-.98-.743.054-.81-.7-1.417.367-1.032-1.32-1.46.835-.093.674-.495 1.141-.273-.189.879.405.162 1.347-.512 1.16.546.664-.4 1.006-1.323.89-.18.269-.298-.665-1.468.17-.76.567-.528-.153-1.024.225-.17.593.29.52-.188.234-.393 1.024.077 1.276 1.032.925 1.792 1.213-.495.503.12.386.495 1.698-.248 1.447.563.907-.221.638.802.656.162 1.967-.546.854.187 1.653-.605 1.168.05 3.216-2.9.584-.393 1.159-.213.26-1.28.692-.495.018-1.04.988-.914.045-.75.52-.282.953-2.04.737-.375 1.401-.162.665-2.858.503-.359v-.358l-.53-.478.647-.538 1.94-.213.063.188.97-.743 1.222.649 2.192-1.143.216.315.683-.239 1.275.325.387-.53.602-.136.161-.537 1.168.529 1.743-.598.207-.802z" stroke="#31313B" stroke-width=".4" mask="url(#a)"/></svg>