<svg width="49" height="38" fill="none" xmlns="http://www.w3.org/2000/svg"><mask id="a" fill="#fff"><path d="M36.585 4.275l.52.077.558-1.288.35-.026.198-.913 1.222-.282-.468-.802.737-.477.629.29.243-.342 3.45 4.139.25.708-.143.341-.341-.051-.26.358-.37-.11-.421.58.413.435-.845.802.494.12.252.58.8.025.826 1.195-.736.093-.261.76-1.222.435-.063.418.863-.077.386.333-.916.009.009.384.386.008-.503.649 1.258.426.494.538.386.947.827.614.152 1.63 1.15 1.229.467.136.521-.145.189-.375.512-.009.26.922-.476.64-.485-.086-.018.649.198.41.386.119-.305.418.395.802-.251.333-.88.273.547.264-.323.81.242.769.306-.043.332.478-1.482.17-.458-1.151-.602-.128-1.195-.896-1.051.52.045.82-.476.614-.36-.162-.575.392-.952-.341-.8.444.342.315.054.538-.234.341.063 1.11-.647.033-1.311-.563.036.222-1.734.836-.135.299-.602-.137-1.267.913-.61-.11-.35.853-.261-.401-1.465-.342-.368.197-.099-.76-.53-.307-.314.384-.072-.239-.36.256-.161-.18-.207.453-.476-.299-.08.828.646-.043-.323.862.242.555-1.222.35.297.554-.494.649.368.273-1.213 1.425-2.183-.162-.494.665-1.114-.384-.862-.725-.431.623-.54-1.118-1.392.222-.323-.324-.548.068-.44.563.494.341-.279.837-.234.05-.026-.4-.279-.214-.26.18-.135-.308-.252.47.279.52-.458.632-.468-.06.054.589-.593.4-.817-.068-.674.325-.431.853-.333-.47-.34.402-.378-.384-.36.588-1.626-.443h-.539l-.161.452-.297-.085.369-.666-.468-.213-.242.725-.099-.316-.602-.23-.314.316-.674-.214-.61.418-.405-.281.584-.29-.647-.034-.17-.606-1.15.196-.064.657-1.212-.828-.88.043-.81-.375-.413-1.314.207-.487-.189-.682.773-.478.153-.401-.422-1.1.476-.436-.45-.375.036-.546.495-.077-.35-.299H3.488l-.602-.41.297-.34-.234-.564-1.347-.307.188-1.664-1.14-.555-.405-.537.413-.376-.503-.042.584-.546.431-1.51.243-.069 1.51.657.403-.418 2.228.341.36-.793.44-.111-.279-.307.504-.691.35.179.224-.367.468-.094.26.606.27-.103-.153-.4.323-.052-.045-.375.71-.188.189-.324.61.12.082-.905.808.085.045-.316.584.017.377-.537.701.026.907-1.442.315-.128.431.256.296-.342.486.427.808-.53.674.769.188-.58-.503-.333.018-.435.171-.436.54-.153-.199-.486.252-.512-.26-.308.826-.281.548.213.44-.392-.296-.589.18-.606.727-.495.162-1.007-1.015-.802 1.06-1.356 1.186.179 1.042-1.084.063.29.763-.11.602.528h.548l.279.401.467-.136 1.347.76.413-.41-.278-.452.036-.623.53-.512.665.341.296-.154.611.461.26-.298.665-.12.88-1.04-.278-.547.252-.29 1.554-.742 2.372.418.161-.743.575.222.468-.52.34.196.405-.41.782.188.44-.384z"/></mask><path d="M36.585 4.275l.52.077.558-1.288.35-.026.198-.913 1.222-.282-.468-.802.737-.477.629.29.243-.342 3.45 4.139.25.708-.143.341-.341-.051-.26.358-.37-.11-.421.58.413.435-.845.802.494.12.252.58.8.025.826 1.195-.736.093-.261.76-1.222.435-.063.418.863-.077.386.333-.916.009.009.384.386.008-.503.649 1.258.426.494.538.386.947.827.614.152 1.63 1.15 1.229.467.136.521-.145.189-.375.512-.009.26.922-.476.64-.485-.086-.018.649.198.41.386.119-.305.418.395.802-.251.333-.88.273.547.264-.323.81.242.769.306-.043.332.478-1.482.17-.458-1.151-.602-.128-1.195-.896-1.051.52.045.82-.476.614-.36-.162-.575.392-.952-.341-.8.444.342.315.054.538-.234.341.063 1.11-.647.033-1.311-.563.036.222-1.734.836-.135.299-.602-.137-1.267.913-.61-.11-.35.853-.261-.401-1.465-.342-.368.197-.099-.76-.53-.307-.314.384-.072-.239-.36.256-.161-.18-.207.453-.476-.299-.08.828.646-.043-.323.862.242.555-1.222.35.297.554-.494.649.368.273-1.213 1.425-2.183-.162-.494.665-1.114-.384-.862-.725-.431.623-.54-1.118-1.392.222-.323-.324-.548.068-.44.563.494.341-.279.837-.234.05-.026-.4-.279-.214-.26.18-.135-.308-.252.47.279.52-.458.632-.468-.06.054.589-.593.4-.817-.068-.674.325-.431.853-.333-.47-.34.402-.378-.384-.36.588-1.626-.443h-.539l-.161.452-.297-.085.369-.666-.468-.213-.242.725-.099-.316-.602-.23-.314.316-.674-.214-.61.418-.405-.281.584-.29-.647-.034-.17-.606-1.15.196-.064.657-1.212-.828-.88.043-.81-.375-.413-1.314.207-.487-.189-.682.773-.478.153-.401-.422-1.1.476-.436-.45-.375.036-.546.495-.077-.35-.299H3.488l-.602-.41.297-.34-.234-.564-1.347-.307.188-1.664-1.14-.555-.405-.537.413-.376-.503-.042.584-.546.431-1.51.243-.069 1.51.657.403-.418 2.228.341.36-.793.44-.111-.279-.307.504-.691.35.179.224-.367.468-.094.26.606.27-.103-.153-.4.323-.052-.045-.375.71-.188.189-.324.61.12.082-.905.808.085.045-.316.584.017.377-.537.701.026.907-1.442.315-.128.431.256.296-.342.486.427.808-.53.674.769.188-.58-.503-.333.018-.435.171-.436.54-.153-.199-.486.252-.512-.26-.308.826-.281.548.213.44-.392-.296-.589.18-.606.727-.495.162-1.007-1.015-.802 1.06-1.356 1.186.179 1.042-1.084.063.29.763-.11.602.528h.548l.279.401.467-.136 1.347.76.413-.41-.278-.452.036-.623.53-.512.665.341.296-.154.611.461.26-.298.665-.12.88-1.04-.278-.547.252-.29 1.554-.742 2.372.418.161-.743.575.222.468-.52.34.196.405-.41.782.188.44-.384z" stroke="#31313B" stroke-width=".4" mask="url(#a)"/></svg>