<svg width="68" height="56" fill="none" xmlns="http://www.w3.org/2000/svg"><mask id="a" fill="#fff"><path d="M7.643 16.755l.413-.376 1.716.307 3.36-1.006-.045-2.663 1.356-1.066.584.162.279.537 3.018-1.552.854-1.306 2.066-.299 2.165-.784.835-1.502.378-2.057 1.68.009 3.414-2.645L28.7.918l.827-.648 1.186-.111.898.4.036.829L34.46.432l1.14.853 1.753.708 1.922-.494.611.648 1.348-.606 1.176 1.237 2.327 1.536.908.956 1.32.153 2.309 2.663.117 1.254 1.266 1.135 1.123-.632.863.256.143.47-.547.716 1.284 1.135-.862.947.844.376 1.581.435 2.201-.666.8.683.898-.222 1.168 1.195 3.27-.052 1.51.316.889-.188.862.546.413.495-.296.418-1.383 1.238-.198.836-1.159.358-1.006 1.118-.863.222-1.895 1.553-6.46-.24-1.203 1.195.242.273-1.114.555-1.293-.435-2.92.068-.629-.845-.494-.239-4.474.709-.35-.76-.054-1.433.323-1.775-1.167-.392L40.65 18l-.809-.128-.656-.58-.53 1.937-1.563 3.626-.314 2.825-.027.622.584.495.934 2.074-1.967 1.68-.027.282.43.632.773.281.333.666.835-.043.18-1.169.287-.196 1.204.068.63 1.707 2.577 2.73.468 1.613-.072.478-.378.204.081.342-.413.281-.368-.085-.432.631-.979-.187-.341.153-.647-.358.44 1.621-1.078.904-.503-.136-.45.375.154.29.637.103.468.955-1.474.743.593.486.26 1.152-.484 1.724-.459.426-1.24-.06-.25.342.206.367 1.608-.171.117.18-1.662.852.368 1.357.818.17.026.257-.404.955-.503.333-.458-.085-.494.853.242 1.032-.395-.008-.413.828-1.15.7-.431-.01-.638-.57-.71-.172-.512-.93-1.248-.563-1.16.026-.745-.273-1.123.333-.719-.811-.88-.23-.189.793.396.034.152.657-1.545-.7-.7 1.067-.046-1.229-2.838-2.645-.333-1.237-1.824.435-.673-.725-1.078.341-1.348-.307-.907-2.338-1.482-.025-.387-.615-.7.444-.63-.094-.502-.819-1.285 1.007-1.428-1.434-1.654.709-2.048-2.159-.314-.785-3.153-.367-.198-.35.242-.495-.997-1.63.144-1.407-.323-1.075 1.545-.256.449-1.255-.144-.247-.862.128-.189-.316-1.392-5.819.871-1.408-.772-.87 3.35-1.775.827.563.79-.554.414-.691.682-.214.342-.554 2.048-1.101-1.069-2.406-.395-3.447z"/></mask><path d="M7.643 16.755l.413-.376 1.716.307 3.36-1.006-.045-2.663 1.356-1.066.584.162.279.537 3.018-1.552.854-1.306 2.066-.299 2.165-.784.835-1.502.378-2.057 1.68.009 3.414-2.645L28.7.918l.827-.648 1.186-.111.898.4.036.829L34.46.432l1.14.853 1.753.708 1.922-.494.611.648 1.348-.606 1.176 1.237 2.327 1.536.908.956 1.32.153 2.309 2.663.117 1.254 1.266 1.135 1.123-.632.863.256.143.47-.547.716 1.284 1.135-.862.947.844.376 1.581.435 2.201-.666.8.683.898-.222 1.168 1.195 3.27-.052 1.51.316.889-.188.862.546.413.495-.296.418-1.383 1.238-.198.836-1.159.358-1.006 1.118-.863.222-1.895 1.553-6.46-.24-1.203 1.195.242.273-1.114.555-1.293-.435-2.92.068-.629-.845-.494-.239-4.474.709-.35-.76-.054-1.433.323-1.775-1.167-.392L40.65 18l-.809-.128-.656-.58-.53 1.937-1.563 3.626-.314 2.825-.027.622.584.495.934 2.074-1.967 1.68-.027.282.43.632.773.281.333.666.835-.043.18-1.169.287-.196 1.204.068.63 1.707 2.577 2.73.468 1.613-.072.478-.378.204.081.342-.413.281-.368-.085-.432.631-.979-.187-.341.153-.647-.358.44 1.621-1.078.904-.503-.136-.45.375.154.29.637.103.468.955-1.474.743.593.486.26 1.152-.484 1.724-.459.426-1.24-.06-.25.342.206.367 1.608-.171.117.18-1.662.852.368 1.357.818.17.026.257-.404.955-.503.333-.458-.085-.494.853.242 1.032-.395-.008-.413.828-1.15.7-.431-.01-.638-.57-.71-.172-.512-.93-1.248-.563-1.16.026-.745-.273-1.123.333-.719-.811-.88-.23-.189.793.396.034.152.657-1.545-.7-.7 1.067-.046-1.229-2.838-2.645-.333-1.237-1.824.435-.673-.725-1.078.341-1.348-.307-.907-2.338-1.482-.025-.387-.615-.7.444-.63-.094-.502-.819-1.285 1.007-1.428-1.434-1.654.709-2.048-2.159-.314-.785-3.153-.367-.198-.35.242-.495-.997-1.63.144-1.407-.323-1.075 1.545-.256.449-1.255-.144-.247-.862.128-.189-.316-1.392-5.819.871-1.408-.772-.87 3.35-1.775.827.563.79-.554.414-.691.682-.214.342-.554 2.048-1.101-1.069-2.406-.395-3.447z" stroke="#31313B" stroke-width=".4" mask="url(#a)"/></svg>