<svg width="45" height="29" fill="none" xmlns="http://www.w3.org/2000/svg"><mask id="a" fill="#fff"><path d="M18.193.402l.575.222.378-.35.494.256.53-.53 1.284 1.793-.107.486.602 1.126 1.06.299-.18-.725.467-.24.404.419.225.7-.243.998.692.98.674.453.476-.145.728.546.449-.017.215-.503 1.375-.376.323.17-.988.743-.638.939-.053.307.592.418.962-.41 1.221.333.737-.222.44.069.737.768.332-.06.342-.478-.18-1.425.844-.41.764.87.89-.545.494.7.467-.359-.431-1.05.197-.204.746.341.162-.435-.512-.58-1.438-.512-.018-.205 1.087-.947.916-.205.468-.785-.225-.444.943-.682.288.4-.71 1.247.189 1.988 1.302 1.015.593.12.342-.419-.45-1.1.216-.316 1.473.53-.045 1.21-.87.564-.019.734-.934.605-.126.359.809.7 2.659-1.144.952.427.467.998.476.282-.144.196.809.4.036.871-1.23 1.067.062.7-.404.4-.342 1.033-1.428.742-.952 1.17-.7-.018-1.546.589-.26.554.772.23.97.769.629.921.826-.034.27.384-.548.947.216 1.058-1.06 1.681-.26.973-.351 1.937.35 1.493-.224.7-.198.076-.79-.878-1.232.529.108-.709-.682-.375.098-.418 1.07-.307.09-.256-.423-.555-.593.46-1.276-.656-1.221.025-.315-.367-.287-.69-.27-.077-.467.366-.566-.29-1.527 1.16-.117-.545-.665-.461.036-.666-.754-.145-1.582-.878-.422-.658-.727.845-.279-.128.108-.947-.61.504-.836-.333.027.435-1.07.93.063.998-.386.973-1.249-1.075-1.42 1.229-.331-.128.143-.478-.467-.725-.305-.154-.512.478-.548-.76-.953-.324-1.311.034-.683-.708-1.222.017.135-.427-1.087-1.979-1.033-.836-.36.367-.134-.256-.243.153-.27.452-.7.077.8.367-.854.051-1.033 1.45-.79.265-1.321.009-.584-.589-.89-.213-.009-.632-.574.146-.513-.342-.422.649-.656-.103-.215 1.058-.404-.23-.072-.896-.396-.282-.458.154.081.46-.88.965.143.623-.26.128-.773-.367-.26.512-.279-.981.234-.265-.746-.828 1.123-.443-.476-.691.431-.35-.08-.359.889.649 1.033.128-.108-.597.898.042-.323-1.1 2.021-.333.01-.324-.845.332-.377-.477.125-.598.854-.452-.7-1.698-.495-.153.054.614-.386-.043-.468.546-.404-.136.099-.879.126-.324.7-.197 1.07-1.501.97-.743-.71-.35-.036-.571 1.078-.384.476-.734.917-.18-.027-.622-.108-.7 1.365-.998.387-1.169.8.23.511-.955.647.017.512-.691.072-.341-.997-.018-.162-.46.476-.802.917-.538 1.644.367.43-.836.738.094.368-.777.943-.333.521.29-.305.444.27.393.799-.52.395.392.458-.768.737-.273.045-.256-.243-.384-.548-.068-.117-.495z"/></mask><path d="M18.193.402l.575.222.378-.35.494.256.53-.53 1.284 1.793-.107.486.602 1.126 1.06.299-.18-.725.467-.24.404.419.225.7-.243.998.692.98.674.453.476-.145.728.546.449-.017.215-.503 1.375-.376.323.17-.988.743-.638.939-.053.307.592.418.962-.41 1.221.333.737-.222.44.069.737.768.332-.06.342-.478-.18-1.425.844-.41.764.87.89-.545.494.7.467-.359-.431-1.05.197-.204.746.341.162-.435-.512-.58-1.438-.512-.018-.205 1.087-.947.916-.205.468-.785-.225-.444.943-.682.288.4-.71 1.247.189 1.988 1.302 1.015.593.12.342-.419-.45-1.1.216-.316 1.473.53-.045 1.21-.87.564-.019.734-.934.605-.126.359.809.7 2.659-1.144.952.427.467.998.476.282-.144.196.809.4.036.871-1.23 1.067.062.7-.404.4-.342 1.033-1.428.742-.952 1.17-.7-.018-1.546.589-.26.554.772.23.97.769.629.921.826-.034.27.384-.548.947.216 1.058-1.06 1.681-.26.973-.351 1.937.35 1.493-.224.7-.198.076-.79-.878-1.232.529.108-.709-.682-.375.098-.418 1.07-.307.09-.256-.423-.555-.593.46-1.276-.656-1.221.025-.315-.367-.287-.69-.27-.077-.467.366-.566-.29-1.527 1.16-.117-.545-.665-.461.036-.666-.754-.145-1.582-.878-.422-.658-.727.845-.279-.128.108-.947-.61.504-.836-.333.027.435-1.07.93.063.998-.386.973-1.249-1.075-1.42 1.229-.331-.128.143-.478-.467-.725-.305-.154-.512.478-.548-.76-.953-.324-1.311.034-.683-.708-1.222.017.135-.427-1.087-1.979-1.033-.836-.36.367-.134-.256-.243.153-.27.452-.7.077.8.367-.854.051-1.033 1.45-.79.265-1.321.009-.584-.589-.89-.213-.009-.632-.574.146-.513-.342-.422.649-.656-.103-.215 1.058-.404-.23-.072-.896-.396-.282-.458.154.081.46-.88.965.143.623-.26.128-.773-.367-.26.512-.279-.981.234-.265-.746-.828 1.123-.443-.476-.691.431-.35-.08-.359.889.649 1.033.128-.108-.597.898.042-.323-1.1 2.021-.333.01-.324-.845.332-.377-.477.125-.598.854-.452-.7-1.698-.495-.153.054.614-.386-.043-.468.546-.404-.136.099-.879.126-.324.7-.197 1.07-1.501.97-.743-.71-.35-.036-.571 1.078-.384.476-.734.917-.18-.027-.622-.108-.7 1.365-.998.387-1.169.8.23.511-.955.647.017.512-.691.072-.341-.997-.018-.162-.46.476-.802.917-.538 1.644.367.43-.836.738.094.368-.777.943-.333.521.29-.305.444.27.393.799-.52.395.392.458-.768.737-.273.045-.256-.243-.384-.548-.068-.117-.495z" stroke="#31313B" stroke-width=".4" mask="url(#a)"/></svg>