<svg width="20" height="20" fill="none" xmlns="http://www.w3.org/2000/svg"><mask id="a" fill="#fff"><path d="M8.517.376L9.11.65l.027-.196.934.111.44.486.144.666.36-.162.592.247.504-.332.008-.922 1.079-.205.7.964-.072.41.486.12.817.776.315-.299.664.307.458-.136.18.367-.233.69-.593.112.359 1.263.53.537-.315.316.126.41 1.213.511.162.623.674.256-.234.512-.521-.008-.009.563.521.205-.189.221.369.163-.045.452.242.196.62-.11-.575.392.117.546-.314.213.548.06-.216.367.17.332.755-.025-.413.469-.189 1.476-.027.393-.386-.248-.781.563.44.23-.243.112.413.913-1.841.512.817 1.288-.476.128.79.717-.296.554-.242-.068.027.435-.459.051-.08-.571-.26.025-.315.777-.306-.12-.018.325-.539.196-.305-1.033-1.707.12-.09-.24-.584-.008.054.495-.386.009-.89-1.263-.359.35-.53-.358-.009-1.383-1.815-.273-.036.47-.601.204-1.429-.614-.287.256-1.177-.324-.557-.88.144-.187-1.195.196-1.024-.725-.36-.725-1.222-.52-.359.102-.278-.674.485-.512-.935-.734.315-.376-.324-.418.611-.332-.233-.342.512-.41.53.112-.01-.913.639-.64L.854 8.09l.566-.069.126-.247-.728-.392 1.06.153.647-.828.719.163.566-.64.916-.248.377.282 1.752-.128-.233-.324.188-1.144-.647-.094-.188-.614.566-.367-.225-.495.728-.179.656.563.476-.845.341-2.26z"/></mask><path d="M8.517.376L9.11.65l.027-.196.934.111.44.486.144.666.36-.162.592.247.504-.332.008-.922 1.079-.205.7.964-.072.41.486.12.817.776.315-.299.664.307.458-.136.18.367-.233.69-.593.112.359 1.263.53.537-.315.316.126.41 1.213.511.162.623.674.256-.234.512-.521-.008-.009.563.521.205-.189.221.369.163-.045.452.242.196.62-.11-.575.392.117.546-.314.213.548.06-.216.367.17.332.755-.025-.413.469-.189 1.476-.027.393-.386-.248-.781.563.44.23-.243.112.413.913-1.841.512.817 1.288-.476.128.79.717-.296.554-.242-.068.027.435-.459.051-.08-.571-.26.025-.315.777-.306-.12-.018.325-.539.196-.305-1.033-1.707.12-.09-.24-.584-.008.054.495-.386.009-.89-1.263-.359.35-.53-.358-.009-1.383-1.815-.273-.036.47-.601.204-1.429-.614-.287.256-1.177-.324-.557-.88.144-.187-1.195.196-1.024-.725-.36-.725-1.222-.52-.359.102-.278-.674.485-.512-.935-.734.315-.376-.324-.418.611-.332-.233-.342.512-.41.53.112-.01-.913.639-.64L.854 8.09l.566-.069.126-.247-.728-.392 1.06.153.647-.828.719.163.566-.64.916-.248.377.282 1.752-.128-.233-.324.188-1.144-.647-.094-.188-.614.566-.367-.225-.495.728-.179.656.563.476-.845.341-2.26z" stroke="#31313B" stroke-width=".4" mask="url(#a)"/></svg>