<svg width="30" height="25" fill="none" xmlns="http://www.w3.org/2000/svg"><mask id="a" fill="#fff"><path d="M10.2 2.486l.745.827-.233.265.278.981.26-.512.773.367.26-.128-.143-.623.88-.964-.08-.46.458-.154.395.281.072.896.404.23.216-1.058.656.103.422-.649.512.342.575-.145.009.63.89.214.583.589 1.32-.009.791-.264 1.033-1.45.854-.052-.8-.367.701-.076.27-.453.242-.153.135.256.36-.367 1.032.836 1.087 1.98-.134.426 1.221-.017.683.708 1.312-.034.916 1.408-.072.828.35.716-.494.726-.09 1.143-1.58 1.263.548.64-.297.307-1.087-.418-1.374.734-.953-.64-1.123.222-.584-.197.324.47-1.258-.145-1.186 1.544-2.129-.75-.341.357.961.418.099.274-.252.179-1.213-.299-.395.256-.063.316.431.332.144.683-.233.632-1.204-.393-.899.401-.008.418-.423.444.692 1.007.494.221-.099.811.396.452-.243.88.162.264.61-.299.324.162-.117.367.899.102.548.606-.602 1.16-.494.197-.593-.273-.746.478-.593-.12-.395.768-.521.128-.611-.452-.476.691.341.81-.332.248-1.15-.503-1.096.708-1.186-.162-.323-.316-.728.282-.377-.674-1.007.332-.404-.29.162-.563.898-.7.117-.46-.458-1.118.332-2.398-.377-.733.305-.811-.224-.58-1.186-.81-.08-.402-1.16.162-.332-.264.045-1.314-1.572-1.843-.18-1.016-.431-.503-.737-.47-.98.308-.287-.128 1.025-1.655 2.335-.658 1.492-1.1.584-.145.017-.836-.682-.017-.153-.214.521-.776-.98.042.522-.52-.27-.358-.503-.026.638-.503-.476-1.477 1.357.905.7-.034.467.512.773-.743.593-.06.539.436.719-.58z"/></mask><path d="M10.2 2.486l.745.827-.233.265.278.981.26-.512.773.367.26-.128-.143-.623.88-.964-.08-.46.458-.154.395.281.072.896.404.23.216-1.058.656.103.422-.649.512.342.575-.145.009.63.89.214.583.589 1.32-.009.791-.264 1.033-1.45.854-.052-.8-.367.701-.076.27-.453.242-.153.135.256.36-.367 1.032.836 1.087 1.98-.134.426 1.221-.017.683.708 1.312-.034.916 1.408-.072.828.35.716-.494.726-.09 1.143-1.58 1.263.548.64-.297.307-1.087-.418-1.374.734-.953-.64-1.123.222-.584-.197.324.47-1.258-.145-1.186 1.544-2.129-.75-.341.357.961.418.099.274-.252.179-1.213-.299-.395.256-.063.316.431.332.144.683-.233.632-1.204-.393-.899.401-.008.418-.423.444.692 1.007.494.221-.099.811.396.452-.243.88.162.264.61-.299.324.162-.117.367.899.102.548.606-.602 1.16-.494.197-.593-.273-.746.478-.593-.12-.395.768-.521.128-.611-.452-.476.691.341.81-.332.248-1.15-.503-1.096.708-1.186-.162-.323-.316-.728.282-.377-.674-1.007.332-.404-.29.162-.563.898-.7.117-.46-.458-1.118.332-2.398-.377-.733.305-.811-.224-.58-1.186-.81-.08-.402-1.16.162-.332-.264.045-1.314-1.572-1.843-.18-1.016-.431-.503-.737-.47-.98.308-.287-.128 1.025-1.655 2.335-.658 1.492-1.1.584-.145.017-.836-.682-.017-.153-.214.521-.776-.98.042.522-.52-.27-.358-.503-.026.638-.503-.476-1.477 1.357.905.7-.034.467.512.773-.743.593-.06.539.436.719-.58z" stroke="#31313B" stroke-width=".4" mask="url(#a)"/></svg>