<svg width="23" height="31" fill="none" xmlns="http://www.w3.org/2000/svg"><mask id="a" fill="#fff"><path d="M2.917 27.17l.467-.623-.647-.46.629-.7-1.07-.7-.16-.623-.98-.905.234-.512-.198-.742.225-.589 1.096.043.305-1.032.683-.555.09-.546-.8-.794-1.895-4.044.664-1.527.521-.359.97-.11.486.221.575-.196-.027-.47.871-.494.099-.52.71-.683.359-.999-.243-2.116.405-.776-.728-.35-.045-.742-1.033-.939.817-2.005.872-.981L7.256.855 7.83.838l1.572.64 2.632.197.315-.308.143-.887 1.294-.452.755 1.39.988.069.072-.444.27-.094.224.265.512-.282.431.162.323-.358.683-.085.728 1.791-.458 1.007.835 1.639 1.105 1.373.476 1.835-.43 1.015.017.947-.422.691 1.24 1.067.161.52-.53.495-.18.768.18.282.683-.043.26 1.485-.242.444.162.452.548.06.116.273-1.49.964-.89 1.809-1.294.153-.108.649.288.4-.063.82.395.469.108-.64.647-.333.368.18-.162.64 1.052 1.254.575.17.368 1.4-.099.725-1.204.606-.638 1.288-1.617 1.067-.341.614-2.66 1.144-.808-.7.126-.359.934-.605.018-.734.872-.563.045-1.212-1.474-.529-.215.316.449 1.1-.341.419-.593-.12-1.303-1.015-.189-1.988.71-1.246-.287-.401-.944.683.225.443-.467.785-.917.205-1.087.947.018.205 1.438.512.512.58-.162.435-.745-.341-.198.205.431 1.05-.467.358-.494-.7-.89.546-.763-.87-.845.41.18 1.424-.341.478-.333.06-.736-.768-.44-.069-.737.222-1.222-.332-.961.41-.593-.419.054-.307.638-.939.988-.742-.324-.17-1.374.375z"/></mask><path d="M2.917 27.17l.467-.623-.647-.46.629-.7-1.07-.7-.16-.623-.98-.905.234-.512-.198-.742.225-.589 1.096.043.305-1.032.683-.555.09-.546-.8-.794-1.895-4.044.664-1.527.521-.359.97-.11.486.221.575-.196-.027-.47.871-.494.099-.52.71-.683.359-.999-.243-2.116.405-.776-.728-.35-.045-.742-1.033-.939.817-2.005.872-.981L7.256.855 7.83.838l1.572.64 2.632.197.315-.308.143-.887 1.294-.452.755 1.39.988.069.072-.444.27-.094.224.265.512-.282.431.162.323-.358.683-.085.728 1.791-.458 1.007.835 1.639 1.105 1.373.476 1.835-.43 1.015.017.947-.422.691 1.24 1.067.161.52-.53.495-.18.768.18.282.683-.043.26 1.485-.242.444.162.452.548.06.116.273-1.49.964-.89 1.809-1.294.153-.108.649.288.4-.063.82.395.469.108-.64.647-.333.368.18-.162.64 1.052 1.254.575.17.368 1.4-.099.725-1.204.606-.638 1.288-1.617 1.067-.341.614-2.66 1.144-.808-.7.126-.359.934-.605.018-.734.872-.563.045-1.212-1.474-.529-.215.316.449 1.1-.341.419-.593-.12-1.303-1.015-.189-1.988.71-1.246-.287-.401-.944.683.225.443-.467.785-.917.205-1.087.947.018.205 1.438.512.512.58-.162.435-.745-.341-.198.205.431 1.05-.467.358-.494-.7-.89.546-.763-.87-.845.41.18 1.424-.341.478-.333.06-.736-.768-.44-.069-.737.222-1.222-.332-.961.41-.593-.419.054-.307.638-.939.988-.742-.324-.17-1.374.375z" stroke="#31313B" stroke-width=".4" mask="url(#a)"/></svg>