<svg width="41" height="37" fill="none" xmlns="http://www.w3.org/2000/svg"><mask id="a" fill="#fff"><path d="M11.324.69l2.839 2.031.736.265 2.04-1.178.574.128.89-.563.215.145-.215.58.189.214.745-.196.89-.802 1.437-.12.566.563.458-.418 1.159.026.61.563.764.06 1.617 2.218-.152 1.416-.701.58.422 1.255 1.015-.375 1.968.162.224-.325-.467-1.117.593-.427.53.051 1.6 1.1-.09 1.05.269.3 1.195-.547.898.264.647-.52.17-.776.342-.171 1.186.495.485.93.943.802.908-.205.467.896.907-.077-.17.538-.683.281.161.649-.422.418.503.896-.467.921-.674.777-1.572.546-.161.273-.71 4.77 1.536 1.16.207.41-.521 1.262-1.25.845-1.104 2.62-.17-.53-1.286-.844-.808-.41-1.222-.05-1.276 1.492-1.805 1.135-2.075.205v.324l.745.17.054.376-1.312-.23-1.05 1.595.35.546.826.248.809.793-.458.214-1.294-.546-.584.008-.162.307.243.453-.413.213-.503.034-.324-.341-.943.41-.225-.248.18-.913-1.195-.316-.485.555-.162.708 1.276.614-.216.436-.718.793-.611.026-.961-.461-.656.307.009.717-1.959 1.109-.251.785.108 1.143-2.687.615-.593-.41.081-.75-.745-.069-.216.401-.476.077-1.6-2.517-.197-.922-1.698-1.245-2.901-.41-.027-.606.44-.572-.323-.674.71-.324-.378-1.237 1.285-.87 2.443-.7.26-.316-.134-.708.79-1.442-.898-1.365-.539-.29-.98-.026.18-.572-.53-.588-1.796.008-.054-.827.278-.436-.305-.998.871-2.423-.107-.742-1.86-1.553-.521.102-1.06-.435.197-.853-.988-.478-.17-.777-.504-.256.782-1.314-.144-1.843.575-.281L1.442 5.98.57 5.51l.19-.27 1.177-.256.09-.615.494-.443.494.06 1.015-.615.243-.794.781-.913 2.686.24.674-.308 1.23-.025.405-.572L11.324.69z"/></mask><path d="M11.324.69l2.839 2.031.736.265 2.04-1.178.574.128.89-.563.215.145-.215.58.189.214.745-.196.89-.802 1.437-.12.566.563.458-.418 1.159.026.61.563.764.06 1.617 2.218-.152 1.416-.701.58.422 1.255 1.015-.375 1.968.162.224-.325-.467-1.117.593-.427.53.051 1.6 1.1-.09 1.05.269.3 1.195-.547.898.264.647-.52.17-.776.342-.171 1.186.495.485.93.943.802.908-.205.467.896.907-.077-.17.538-.683.281.161.649-.422.418.503.896-.467.921-.674.777-1.572.546-.161.273-.71 4.77 1.536 1.16.207.41-.521 1.262-1.25.845-1.104 2.62-.17-.53-1.286-.844-.808-.41-1.222-.05-1.276 1.492-1.805 1.135-2.075.205v.324l.745.17.054.376-1.312-.23-1.05 1.595.35.546.826.248.809.793-.458.214-1.294-.546-.584.008-.162.307.243.453-.413.213-.503.034-.324-.341-.943.41-.225-.248.18-.913-1.195-.316-.485.555-.162.708 1.276.614-.216.436-.718.793-.611.026-.961-.461-.656.307.009.717-1.959 1.109-.251.785.108 1.143-2.687.615-.593-.41.081-.75-.745-.069-.216.401-.476.077-1.6-2.517-.197-.922-1.698-1.245-2.901-.41-.027-.606.44-.572-.323-.674.71-.324-.378-1.237 1.285-.87 2.443-.7.26-.316-.134-.708.79-1.442-.898-1.365-.539-.29-.98-.026.18-.572-.53-.588-1.796.008-.054-.827.278-.436-.305-.998.871-2.423-.107-.742-1.86-1.553-.521.102-1.06-.435.197-.853-.988-.478-.17-.777-.504-.256.782-1.314-.144-1.843.575-.281L1.442 5.98.57 5.51l.19-.27 1.177-.256.09-.615.494-.443.494.06 1.015-.615.243-.794.781-.913 2.686.24.674-.308 1.23-.025.405-.572L11.324.69z" stroke="#31313B" stroke-width=".4" mask="url(#a)"/></svg>