<svg width="31" height="20" fill="none" xmlns="http://www.w3.org/2000/svg"><mask id="a" fill="#fff"><path d="M7.693 1.378l.36.06.907-.58 1.608.477.054.734-.458.973.575.05.61 1.58.818.161.584.453.584-1.118.314.085.126-.315.629-.043.153-.316 1.41-.358.593.179.225.836 1.176.282.423.384.17-.35.656-.256.216.299 1.347.076.405.538.494-.384 1.877-.52.216 1.416.808.324.79-.648.037-.478.602-.162.934.196.153.444 1.096-.069.61.563.19 1.212 1.221.47-.045.452-.593.64-.754.162-.324.375.234.273-.081.546-.692.623-.718.111-.306 1.271-1.042.538-1.123 1.459-.036 1.194.341.956-.691.802h-.315l-.278 1.425-.395.742-.459.171-.584-.085-.215.222-.36-.444-1.104.375-1.186-1.032-.396-.051-.512.478.01.52-.306-.051-.548-1.271-.611-.069-.153.649-.602-.256-.188.315-.97.035-.369-.666.099-.631-.377-.111-.423.546-.52.017-.19-.341.432-.137-.126-.256-.835.137-.503-.947.341-.845-.207-.316-.71.017.234-1.45-1.087-.845-.143-1.05-.98-.093-.539.511-.835.052-.252.469-.108-.333-.898.026-.216-.666.234-.316-.458.24-.961-.111-.468-.632.171-.307-.305.068.17-.17-1.383.204-.674-.614-.826-.009-.117-.187.27-.162-.432-.563-.314-1.22.161-.35-.323.06-.476-.658.305-1.39-.305-.069v-.648l-.36.017-.242-.435.225-.205-.396-.18.566-.494-.368-1.306.53-.12.7.624.09.819.423.128 1.033-.657.52.077.53.563.926-.009.333-.4.88.622.458-.154-.099-.358.432-.614-.216-.026-.063-.606.53-.81z"/></mask><path d="M7.693 1.378l.36.06.907-.58 1.608.477.054.734-.458.973.575.05.61 1.58.818.161.584.453.584-1.118.314.085.126-.315.629-.043.153-.316 1.41-.358.593.179.225.836 1.176.282.423.384.17-.35.656-.256.216.299 1.347.076.405.538.494-.384 1.877-.52.216 1.416.808.324.79-.648.037-.478.602-.162.934.196.153.444 1.096-.069.61.563.19 1.212 1.221.47-.045.452-.593.64-.754.162-.324.375.234.273-.081.546-.692.623-.718.111-.306 1.271-1.042.538-1.123 1.459-.036 1.194.341.956-.691.802h-.315l-.278 1.425-.395.742-.459.171-.584-.085-.215.222-.36-.444-1.104.375-1.186-1.032-.396-.051-.512.478.01.52-.306-.051-.548-1.271-.611-.069-.153.649-.602-.256-.188.315-.97.035-.369-.666.099-.631-.377-.111-.423.546-.52.017-.19-.341.432-.137-.126-.256-.835.137-.503-.947.341-.845-.207-.316-.71.017.234-1.45-1.087-.845-.143-1.05-.98-.093-.539.511-.835.052-.252.469-.108-.333-.898.026-.216-.666.234-.316-.458.24-.961-.111-.468-.632.171-.307-.305.068.17-.17-1.383.204-.674-.614-.826-.009-.117-.187.27-.162-.432-.563-.314-1.22.161-.35-.323.06-.476-.658.305-1.39-.305-.069v-.648l-.36.017-.242-.435.225-.205-.396-.18.566-.494-.368-1.306.53-.12.7.624.09.819.423.128 1.033-.657.52.077.53.563.926-.009.333-.4.88.622.458-.154-.099-.358.432-.614-.216-.026-.063-.606.53-.81z" stroke="#31313B" stroke-width=".4" mask="url(#a)"/></svg>