<svg width="32" height="25" fill="none" xmlns="http://www.w3.org/2000/svg"><mask id="a" fill="#fff"><path d="M1.615 1.754l1.383-.81.746.212.386-.81.557.256.332-.248.503.171.387.708.629.367.413-.17.153-.896L8.945.61l.593.282.153.939 1.275.452.989-.009.395-.47 3.863.18 2.524.683.234.41-.17 1.015.422.298 1.635-.153.547-.615 1.671.273.926.555.61-.196.62.674.764.008.476.308.198-.675.62.043.503.964.52-.307.612.29.458.53 1.24.366.296.358.315.538.09 1.34-1.276.307-.404.572-1.231.025-.674.307-2.686-.239-.782.913-.242.794-1.015.614-.494-.06-.495.444-.09.614-1.176.257-.189.272.872.47 1.365 1.553-.575.281.144 1.843-.782 1.314-.251 1.152-1.761 1.545-.952 2.099-1.725.46-.8.478-1.976-.41-.485.58-.485-.537-1.132.205-.279.35-.763-.085-.935-.598-.242-1.024-1.024-.221-.548.238-.656-.273-.243-.503.404-.265.54-1.356-.063-.495-.755-.666L7.068 18l.206-.47-.52-.853.475-.589-.26-.588.602.025.108-.307-.98-.35-.413-.597-.476.025-.521-.64.099-.443-.674-.35.18-.802.655.213.225-.264-.476-.478.153-.691-.593-.504-.845.7-1.42-.452-.08-.674.575-.333.036-.478-.18-.367-1.14-.298.233-.751-.252-1.186-.997-1.724 1.644-.392.512.333.638-.59-.871-.434.134-.7-.27-.64-.96-.597z"/></mask><path d="M1.615 1.754l1.383-.81.746.212.386-.81.557.256.332-.248.503.171.387.708.629.367.413-.17.153-.896L8.945.61l.593.282.153.939 1.275.452.989-.009.395-.47 3.863.18 2.524.683.234.41-.17 1.015.422.298 1.635-.153.547-.615 1.671.273.926.555.61-.196.62.674.764.008.476.308.198-.675.62.043.503.964.52-.307.612.29.458.53 1.24.366.296.358.315.538.09 1.34-1.276.307-.404.572-1.231.025-.674.307-2.686-.239-.782.913-.242.794-1.015.614-.494-.06-.495.444-.09.614-1.176.257-.189.272.872.47 1.365 1.553-.575.281.144 1.843-.782 1.314-.251 1.152-1.761 1.545-.952 2.099-1.725.46-.8.478-1.976-.41-.485.58-.485-.537-1.132.205-.279.35-.763-.085-.935-.598-.242-1.024-1.024-.221-.548.238-.656-.273-.243-.503.404-.265.54-1.356-.063-.495-.755-.666L7.068 18l.206-.47-.52-.853.475-.589-.26-.588.602.025.108-.307-.98-.35-.413-.597-.476.025-.521-.64.099-.443-.674-.35.18-.802.655.213.225-.264-.476-.478.153-.691-.593-.504-.845.7-1.42-.452-.08-.674.575-.333.036-.478-.18-.367-1.14-.298.233-.751-.252-1.186-.997-1.724 1.644-.392.512.333.638-.59-.871-.434.134-.7-.27-.64-.96-.597z" stroke="#31313B" stroke-width=".4" mask="url(#a)"/></svg>