<svg width="81" height="39" fill="none" xmlns="http://www.w3.org/2000/svg"><mask id="a" fill="#fff"><path d="M6.428 5.681l5.103-2.722L12.97.792l1.266.452.44-.734.782-.324.746.512.377-.026.377.606.566.273 2.543-.333-.135 1.502 1.464 2.466-.144.546.396.41.736.153.35.794-.359 1.433.944.487.557-.751.215.41-.125 1.245 1.158.367.674 1.169 1.042-.068.692.486 1.42.282.35-.546 1.814.255.764-.81.854.025.637.76.872.281 1.105-.537.988.153.431-.912.369-.06 1.122.503.746-.341 1.689 1.28 1.249.077 1.042-.58.557-.743-.297-.862 1.357-.921.242.571.845.41.368-1.032 1.285.972.476-.512.377.7 1.537.828.646-.546.378.017.43-.734.603-.154.88.58 1.006 1.246.827-1.126 1.303.537.87-.23.118-.648.808-.896.71-.188.117-.717 1.716-.665.889.042.207.325-.162.23.494.572 6.262.605.512-3.703 3.36.436-.44 1.655 1.742.938 1.977-.128.925-.802.98.88.852-.086.342.196-.35.768.467.393 1.662.06-.45 1.262.432 2.082-1.16 1.16-.565 2.774-.324.264-.593-.145-2.12.333.566 1.476 2.004.947.745-.188 1.276-1.203-.252 2.321-.754 2.065 1.428.555.198.443-.099 1.263-2.084-.077-.368.435-.54.103-.125-.367-1.357.102-.296 1.144.278.358-.215 1.169-1.393.154-.251.418-.513-.086-.781 1.724-1.042-.085-.458-.367-.171.34-2.255-.332-.296.435-1.384-.034-.44.82-3.153-.47-1.24.282-.036-.35-.755-.17-.143-.521-1.015.315-.728-.358-.629.06-.018-.691-1.186.554.09.35-.503.247-.234-1.442-1.024.41.036.623-.27.102-.215-.324-.18.145-.62-.52-.556.392.027.282-.926.256-.27-.222-.026.623-.342.11-.637-1.075-.315-.008-.458-1.058-1.518.316-.396.418-.494-.598-.188-1.092-.908-.23-.655 1.698.889.572-.108 1.493-.36.102-.206-.222-.305.512-.89-.136-1.042.315-1.446.913-.35.52-.261-.682-.315.18.01.324-.513.469.432.29.018.649-.27-.146-.395.743.691.776-.494.896-.476.086-.637.614.161.512-.242-.128-.315.29-.871.154v-.393l-.333-.128-1.15.009-.296.221-.287-.247-.369.452-.674-.375-.224.298-1.312-.725-.197-.41.386-.093-.072-.359-1.644-1.237-.27-.725-.727.17-.431-.878-.854.205-2.407-.973-.35.35-.53-.418-.333.383.305 1.05-.377.657.117.35-.35.281-.549-.281-.817.153.036-.239-.297-.076-.512.025-.036.436-.745.221-2.695-.298-.288.384-.216-.256.027.443.414.41-.521.136.18.205-.225.47-.333-.214.081-.222-1.06-.273-.26 1.767-.27-.23-.234.247-3.45-4.139-.242.342-.629-.29-.736.477.467.802-1.222.282-.198.913-.35.026-.557 1.288-.521-.077-.853-.102-.333-.29-.054-.512-.43-.299-.064-.58-.44-.52-1.95-.717-.458-.58-.35.179-1.14-.632-.558-.008-.853 1.16-.126-.879-.584.342.243-1.681-1.609-.461-.278-.23.377-.282-1.311-.614-.189-.384.243-.103-.027-.495.97-1.16.53.572.305-.495.548.162.647-.632.719.009.206-.879.557-.742-.53-.58.908-1.058-.036-1.16.745.52-.116-1.067-1.231-.247-.17-.393.062-2.142.44-.512-2.174-.776.369-.35.018-.486-.584-.452.125-1.4.494-.657.665-3.054-.296-1.545-.602-1.305.737-.896.395-.128.737.341.404-.46.278-.675-.485-.366-.027-.427.88-.691.342-.905-.243-.87z"/></mask><path d="M6.428 5.681l5.103-2.722L12.97.792l1.266.452.44-.734.782-.324.746.512.377-.026.377.606.566.273 2.543-.333-.135 1.502 1.464 2.466-.144.546.396.41.736.153.35.794-.359 1.433.944.487.557-.751.215.41-.125 1.245 1.158.367.674 1.169 1.042-.068.692.486 1.42.282.35-.546 1.814.255.764-.81.854.025.637.76.872.281 1.105-.537.988.153.431-.912.369-.06 1.122.503.746-.341 1.689 1.28 1.249.077 1.042-.58.557-.743-.297-.862 1.357-.921.242.571.845.41.368-1.032 1.285.972.476-.512.377.7 1.537.828.646-.546.378.017.43-.734.603-.154.88.58 1.006 1.246.827-1.126 1.303.537.87-.23.118-.648.808-.896.71-.188.117-.717 1.716-.665.889.042.207.325-.162.23.494.572 6.262.605.512-3.703 3.36.436-.44 1.655 1.742.938 1.977-.128.925-.802.98.88.852-.086.342.196-.35.768.467.393 1.662.06-.45 1.262.432 2.082-1.16 1.16-.565 2.774-.324.264-.593-.145-2.12.333.566 1.476 2.004.947.745-.188 1.276-1.203-.252 2.321-.754 2.065 1.428.555.198.443-.099 1.263-2.084-.077-.368.435-.54.103-.125-.367-1.357.102-.296 1.144.278.358-.215 1.169-1.393.154-.251.418-.513-.086-.781 1.724-1.042-.085-.458-.367-.171.34-2.255-.332-.296.435-1.384-.034-.44.82-3.153-.47-1.24.282-.036-.35-.755-.17-.143-.521-1.015.315-.728-.358-.629.06-.018-.691-1.186.554.09.35-.503.247-.234-1.442-1.024.41.036.623-.27.102-.215-.324-.18.145-.62-.52-.556.392.027.282-.926.256-.27-.222-.026.623-.342.11-.637-1.075-.315-.008-.458-1.058-1.518.316-.396.418-.494-.598-.188-1.092-.908-.23-.655 1.698.889.572-.108 1.493-.36.102-.206-.222-.305.512-.89-.136-1.042.315-1.446.913-.35.52-.261-.682-.315.18.01.324-.513.469.432.29.018.649-.27-.146-.395.743.691.776-.494.896-.476.086-.637.614.161.512-.242-.128-.315.29-.871.154v-.393l-.333-.128-1.15.009-.296.221-.287-.247-.369.452-.674-.375-.224.298-1.312-.725-.197-.41.386-.093-.072-.359-1.644-1.237-.27-.725-.727.17-.431-.878-.854.205-2.407-.973-.35.35-.53-.418-.333.383.305 1.05-.377.657.117.35-.35.281-.549-.281-.817.153.036-.239-.297-.076-.512.025-.036.436-.745.221-2.695-.298-.288.384-.216-.256.027.443.414.41-.521.136.18.205-.225.47-.333-.214.081-.222-1.06-.273-.26 1.767-.27-.23-.234.247-3.45-4.139-.242.342-.629-.29-.736.477.467.802-1.222.282-.198.913-.35.026-.557 1.288-.521-.077-.853-.102-.333-.29-.054-.512-.43-.299-.064-.58-.44-.52-1.95-.717-.458-.58-.35.179-1.14-.632-.558-.008-.853 1.16-.126-.879-.584.342.243-1.681-1.609-.461-.278-.23.377-.282-1.311-.614-.189-.384.243-.103-.027-.495.97-1.16.53.572.305-.495.548.162.647-.632.719.009.206-.879.557-.742-.53-.58.908-1.058-.036-1.16.745.52-.116-1.067-1.231-.247-.17-.393.062-2.142.44-.512-2.174-.776.369-.35.018-.486-.584-.452.125-1.4.494-.657.665-3.054-.296-1.545-.602-1.305.737-.896.395-.128.737.341.404-.46.278-.675-.485-.366-.027-.427.88-.691.342-.905-.243-.87z" stroke="#31313B" stroke-width=".4" mask="url(#a)"/></svg>