<svg width="155" height="189" fill="none" xmlns="http://www.w3.org/2000/svg"><mask id="a" fill="#fff"><path d="M34.16 89.716l.53.375.134.64-.45-.017-.835-.862-.34.077.314-.247.646.034zm71.689-65.726l.242.273-.386.41.036.443h-.368l-.486-.648.306-.478h.656zm-.557-1.698l-.845.367-.736 1.083-.638.128-.503.649-.216-.043-.539 1.348-.835-.187-.396.008.054.205-2.416-.102-1.905.4-.602-.46.566-1.34 1.68-1.288.89-2.074 1.76-1.595 3.549.887.772.922.36 1.092zM34.68 56.976l.072-.836-.242-.128-.108-1.211-.386-.726-.827-.128-.853.436-.35.486-1.187.213-.467.35.18-1.118-.548-.938.746-.7.943-1.97-.207-.573.395.111-.278-.179.153-.367.485-.05-1.456-.863 1.231-2.969 2.704-1.579.908-.674.548-.878 2.246-1.52 1.994-2.55.764-1.622.817-2.056.871-5.102.548-.333-.404-.341.566-3.43.405-.12-.342-.102.306-2.833.539-1.852.188-1.996.54-.009-.019-.264-.413.06-.036-.316 1.455-2.168 1.141-3.6 1.537-.299 1.105.188.098.588-.278-.093-1.23.631.017.589.404.179 1.68-.316.081-.256 1.141.265.97-.307 1.564.094.413-.248 1.545.46 1.958-.443 1.653.239 1.608-.222 1.869 1.075.862.188-.036.393-.35.179.404.153.198-.179.126.265.161-.512-.323-.18.45-.034 4.841 2.645-.97-.008.234.785.494.512-.719.76.117 1.091.503.905-.413.213-.719-.18.809.317.35-.137-.17.691.457 3.72-.889 1.562.108 1.314-.844 1.254-.423 3.166-.8.776-.197-.077-.09 3.03-.8.904-.287 1.485-.674.23-.485.64-.386.025-.61 1.11.224 1.203.89 1.373.224 1.127 1.213 1.502 1.742.947-.063.196.566.017.297.47.188.904-.404 1.45 1.554 2.569-.287 3.276-.521 1.971.404 1.305-.054 2.15-.79.29-1.087 1.298-.324.972 1.024 1.835-.575 2.705.782 1.535.467 1.903.01.709-1.06 2.26 1.14 2.919-.45.921-.736-.341.854 2.543-.845 1.373-.153 1.937.62 2.867.44.87 1.025 1.28 2.066 1.536 2.219 2.167.835 1.997-.17.887-.018-1.109-.54.145-.413 1.596-2.138 2.543.144.938-.467 1.263 1.114 2.875-.144 1.135-.7.606.296 1.51-.198.342.01-.572-1.447.555.072.87-1.842.793-.26 1.289-.89.768.243 1.126-.396 1.143-.898.162-.314-.315-.44.478.53.964v1.493l-.171.06-.054-.41-.584.017-1.159.606.431-.043.35.342-.197.426.305.41-.512.145-1.05 1.246-.171.657.251.358-.665-.188.108.324-.35.12.099-.947-.764-.137-.341.529-.845-1.007-.467.444.952.683-.52-.094-.486.452-.782.077-.898.947-1.23-.136-.53.725-1.815.614-1.258-.495-.36.376-.907.025-1.087-1.885-.278.076-.036.657-1.339.043-1.222-.589-1.105-.128-.736-.435-.09-.392-.422.102-.081-.213-.728.708-.727.008-.387-.52-.395.478 2.075.23-.188.657-.908.41.018.264 1.384.017.206.231-.296 2.133.458.64 1.554 1.322 2.462.555.79.973 2.848 1.041 3.98-.461 2.65.222 1.958.657.584.87 1.087-.162.207.392 1.536-.435.081-.529.404-.042.665-.905-.395-1.723-.315-.35.45.213.062-.239-.512-.171.719-.597.413-.879.297.214.135-.359.08.179.09-.23 1.68-.222.476-.324.755-1.288 2.983-1.553.799-.888.045-.751 1.518-.93.611-3.123-.216-1.612 1.41-2.483 3.702-3.584.332-1.203.126-4.633-.97-3.02-2.156-2.612.961-2.099-.143-2.781.296-.845.808-.879.962-.563 3.683-1.587 1.985-.273 2.884-1.374 2.525-.239.485.265.548 1.724.072.81-.387 1.041.144.401 2.453 2.261.314 1.092.305-.017-.009-.375.378.11 1.069 1.349-.117.324-.566-.017.278 1.587-.835 1.408.297.589.592-.026.35.273-.826 2.185.018 2.704.548.947-.485 1.212-.665-.153-.323.537.674.913 1.401.973 1.033.384.997 1.092-.503 3.993.216.077.135-1.306.386-.529 1.267 1.203-.36-1.791.8-.615 1.491-.733.764.605 1.15-.162-.342-.213.288-.085 1.419.895.692 1.297.674.615.907.341.88 1.16.486.18.601-.162-.035.563 2.093 1.612.7-.187 1.204.537-.844-.563.449-.154.485.197-.359-.273-1.527.221-.674-.324-1.348-1.041-.018-.614-1.087-.06-.943-1.28-1.195-.529-.997-1.706.207-.93 1.644.537 1.41 1.041.755 1.493.88.248.117 1.186v-1.331l-.881-.248-1.365-2.133-1.455-1.203-.863-.298.189-.401-.863-.026-.296.606-.611.17-.656-.349.899-.103.089-.452-.278-.282-.737.239-.332-.52-.171.776-.377-.426-1.518.349-.665-.691-.916.205.745-.563-.979-.247-.297-.726-.26.555-.512.247-1.204-.648-.063-1.783.35-.82.54-.136-.234-.316-.171.179-.233-.682-.054-2.381.719-1.16.826-.614 1.77-.018 1.024-.622-.737-1.647-.458-.256-.692-1.331.503-.205-.017-.41-.935-.4-.126-.29-.314-1.127.207-1.946-.539-1.441-.099-1.383-.288-.367-1.734-.554-.772-.708-1.752-.7-.638-.495-1.123-1.63-1.455-.06-2.147-1.527-.961-.358-3.19-.026-1.778 1.57-.189.828-2.39.316-1.85-.87-1.635.153-1.644 1.015-.764-.315-.647-1.792.683-1.98.17-1.834-.493-1.647-1.456-2.014-.404-2.286.746-.922.62-2.312-.171-.384L76.05 68l-.18-.504-.494-.316 3.288-5.34.512-1.494.18-2.04-.539-1.638-2.075-3.08.134-1.775-1.212-1.51-.962-3.114-1.778-2.45-1.59-.955-.504-.597.549-1.152 2.165-2.33.539-1.143.359-1.322-.44-1.11.305-.614 1.626-1.271 4.816-2.509 2.039-2.116.961-1.535.512-2.313-.054-3.012-.638-4.095-.548-1.886-.736-1.348.96-1.408.45-.12 3.019 2.569.116.298-.476.342-.108-.461-.404.136-.18.709 2.228 3.472-.655-.068-.369.862.422 2.218.89 2.296-.234.494-.7.401-.432 1.178-.107 1.493-.522 1.314.342.64-.324.947-.592.103v-.419l-.225.555.162.853-.36 2.09.306 1.067 1.248 1.476-.34 1.255.565 1.1-.629.845-.054.88-.53-.206-.655.563.503 1.545.718.853 1.213.358 2.021 1.374 1.321.341.61-.162.782.359 2.13-.043 3.854.666 1.123-.205 2.308.682.791 1.45.144 1.434 2.605.896.224.393.216-.094.261-1.971-1.034-.922-.341-1.04.368-2.569-1.68-.426-.556.597-.216-.632.413-1.314-.503-.119-.278.128.341.375-1.177.367v.666l-.746-.324-.404-.564-.278-.093-.117.204.422.282-1.06-.359-1.14-.964-.342-1.109-.144.196-.17-.4-.54.255-2.057-1.015-.674-.964-1.653-.981-.233-.564.072-1.297-.872-1.561-.584-2.526-.548-.221.404-.47.674-.196 2.013-2.193 2.659-.657.44.145-.117.427.395.529 1.168.776 1.16 1.093.942 1.373.62.359 1.465.093 1.805-.972.863-1.63-.162-1.1-1.141-1.767-.467-.282-1.491.103-1.366.845-.736-.197-.1-.785.746-1.484-.368-.589.512-.06.638.546.341-.06 1.195-2.337 1.24-.589.099-.384.683.316.224-.24.377.07.18.392 1.662.81.135.47.054-.59-.62-.119-.512-.69.754-.812 1.222 2.15-.108 1.136 1.941 1.91 1.877 1.34 1.465.214 1.94-.316.638.75 1.258.385 2.048 1.416.404 1.007-.179.452-1.402.444-.53 2.568-.862 1.229-1.222.563-2.569.068.125 1.877-.206.649-.53.222-.153.717.458 1.988.575.486.755.06 2.219 2.9 2.237 1.033 2.192.64.494.887.188 2.39.692 1.407-.557 1.87 1.123 1.194-1.069 2.807.979 1.066.108.359-.296.486-.737-.068-1.06-.794-1.402-.025-.772.367-.045.605-3.189 3.013-.97 1.8-.108-.504-.503-.187-.45-.103-.287.418-.063 1.23-1.267 1.962-1.374 1.288.233 1.007.755 1.365-.224 1.493 2.551.53 1.213 3.847.494.103.7 1.169.764.4 1.976-.161 1.68.665.845-.094 2.102 1.536.791.068 1.518-.887.862.222.656-.145.548-.546.207-.81-.135-1.067.458-.734 1.833 1.28v.938l-.97 1.289.125.631 2.103.742 1.284.12.449.819-.709.845.88 1.604.458 2.295 1.554 1.493.297.845.108.939-1.438.921.387 2.227-.135 2.594-1.069.725-.207 1.399-.907 1.05-.09 2.329-1.078.342-.88-.376-1.159.444-.638-.026-.27.29 1.087 2.168.908.64.269 1.638 1.788 1.732.045.589-.521 1.024.152 1.757-1.212 1.374 5.713 4.992.117.887 1.033.631.728 2.048-.243.751-.62.469-.709 1.11.063.691 1.662 1.902 1.473 2.842-.889.597-.018.751-.602.597.215.708.872 1.075.215 1.622.396.503.79.23 1.312-.298 2.264 1.484.305.692-1.15.648 1.509.478.863.725.683 3.174-1.537 1.374-.485 1.015.71 1.604-.431.888.26.367 1.878.179 2.327-.418.161.461-.539.605.926.308.61.682.629.103 1.348-.922.817.324.18.35.611.06.692 3.054-.665 1.135.62 1.263-.162.529.485 1.399-.027 3.004-1.77 1.237-1.185 1.229-.944.503-.269 2.355-1.24 1.22.189.64 1.257.674.71 1.553.611-.102.386.222-.296 1.527.144.614-.342.453.53 1.279-.161.675-.36.273-.17 1.109-1.007.819-.476 1.135-1.518 1.442-.53 1.194-.27 1.749-2.138 2.39-.458 1.143-1.213-1.178-.116-.87-.566-.606-.71.069-1.195-1.869-.781-.307-1.159.836-.09-.7-.988.964-1.483-.418-.781-.58-.171-.964-1.797-.538-.036-1.476-2.524.069-1.752-.939-.566.102-.359.47-.341 1.117-.513.137-.61-.341-.899-1.28-.665.264-1.069-.657-.305-.384.224-.716-1.742-1.733-.503-1.177-.234-.051-1.94.717-.297 1.296-.674.077.027.256-1.778 1.587-1.716.418-.8 2.995-4.348.188-2.336-.452-3.414.529-1.419.623-1.365-.606-2.893-2.142-1.518-1.544-.71-1.673-.494-.46-1.447-.47-1.05.043-1.106.862h-.44l-.61-.794-2.848-1.237-3.306.401-1.573.563-3.297.231-1.446-1.536-.871-.427-4.133-.008-.683-.376-.862-1.382-.485-.248-.404-1.16-1.052-.085-.359.094-1.195 1.629-1.15.214-2.255-.273-.844.708-2.641.631-.728-2.909-.063-2.159-.79-1.323-.485-.324-2.731-.077-.297-1.544-1.536-2.773.548-.333.494-.836-.08-.785-.297-.529-1.617-.853-1.078-1.263-2.956.435-.305-.811-2.336.094-.818-.862-1.42-.162-1.086.333.61 1.186-.574.862-.063 1.229-2.803-1.442-2.372 2.056-2.174 1.357-.449-.794-2.938.393-.34-1.016-1.636-.418-.62-.614-.251-.751.754-2.219-.395-.981-.458-.358-2.722.81-1.438-1.092-3.997.453-2.004.733-2.2.273-1.411.666-.683-.154-.602.478-2.497-.017-1.536 1.178-1.16.247-1.131-.947-.476-1.707-2.363-1.024-1.168.572-1.895-1.186-.198-.734 1.428-.947.584-1.391-.853-1.919.485-1.101.36-4.48-1.178-.486-1.509-1.152-.144-1.246-.871-1.715-1.536-1.459 4.59-2.295.09-.811.683-.819-.395-.861.494-.273.18-.675.485-.392.305-1.126 1.024-.947.647.29-.539-1.434.458-.495.53-1.518 1.393-.367 1.284-.879 1.384-1.638 1.689.008.52-.725 1.268-.597.251-.965 1.015-.46.79-.026 1.519-1.229-.413-2.636.844-.427.863-1.476 1.715-1.195 1.07-1.518 1.904-.751.584-.683.099-.699-.566-1.033-1.545-.546.575-.947.43-.213 1.43.349.404-.392-.405-1.254-1.15-.956.566-.742.1-.708-.378-.811-1.213.068-.898.521-1.078.076-1.25-1.109-.305-5.094.98-1.305.009-.751 1.212-1.16.234-.87-.898-2.006.296-.904-1.123-.598.01-.759-.872-.52-1.231.145-1.51-1.374-.493-.23-.234.614-.8-.632.243-.477-.539-1.323 1.015-.674.243-.478-.17-1.459.403-.981.728-.683 1.222.128.97 1.041 1.24.606 4.671 1.382 1.339 1.229.997 1.579-.988-1.349-1.572-1.297-1.213.026-.189-.435-.458-.051-.17.256-.369-.35-.162.17.072-.384h-.736l-.611-.392 1.536 1.433.61-.145.639.316-.216.034.818.145.916.82.404-.154.09.572.476.418 1.716.87 3.297 1.066-.629.427.117.674.332.077.602 1.143 1.033.359-.314.162.53.025 1.752 1.758.188.563.674.444.09.153-.782-.29.503.649-.017.375.116-.273.485-.05 1.59.844.575.588.306.794-.324.546-.305.026.09 1.032.44-.008.279.46-.306.837.207-.043-.063-.393 1.5-1.399.611-.068-.458-.273.53-.598-.207-.119.09-.802 2.075-4.104.746-2.876.602-.546-.117-.836-.898-.367.494-.213.144-.683-.432-.06-.808.538-.782.051-.907-.392-1.087-1.084-.368-1.169-1.78-2.824-.574-1.92.61-.7.234-2.534-.745.06-.1.376.27.204-.548.214-1.114-.598-.97-1.245-.835-.393-.036-.239-.854.18-2.228-1.596-.422.341.297.657-.8.384.413-.717-.575.666.081.7.458.887.26-.017-.098.205-.341.153-.647-1.143-.027-4.813.826-3.174.189-.162.305.367-.485.282.072.606.953.332 1.14-.367.917-1.066-.45-1.45-.43-.333-.306-1.587-.8-.009.63-2.901.88-1.365-.989-1.493.333-1.425.763-1.075zm47.012-47.73l1.365 1.134-.925-.776-.306.154-.601 2.841.43 1.28-.475.563-.414-.154.243-.443-.512.213-.782-.537-.18-.598-.242-.043-.036.265-.233-.17-1.222-1.52.692-1.91.781-.64.719-.112 1.698.453zM59.933 4.928l.432-.205.377-.716 1.285 2.551.098 1.135-1.805.042-.899.87-.88.36-1.213-.197-1.994 1.11-1.06.955-1.563-.086-.243-.256.054-.52-.458-.427.063.41-.513.162.62.956-1.096-.103-.08-1.33.7-4.6-.206-2.21 2.632-1.476L56.627.74l.791.034 2.372 1.4-.126.264.7.768.135.878-.566.845z"/></mask><path d="M34.16 89.716l.53.375.134.64-.45-.017-.835-.862-.34.077.314-.247.646.034zm71.689-65.726l.242.273-.386.41.036.443h-.368l-.486-.648.306-.478h.656zm-.557-1.698l-.845.367-.736 1.083-.638.128-.503.649-.216-.043-.539 1.348-.835-.187-.396.008.054.205-2.416-.102-1.905.4-.602-.46.566-1.34 1.68-1.288.89-2.074 1.76-1.595 3.549.887.772.922.36 1.092zM34.68 56.976l.072-.836-.242-.128-.108-1.211-.386-.726-.827-.128-.853.436-.35.486-1.187.213-.467.35.18-1.118-.548-.938.746-.7.943-1.97-.207-.573.395.111-.278-.179.153-.367.485-.05-1.456-.863 1.231-2.969 2.704-1.579.908-.674.548-.878 2.246-1.52 1.994-2.55.764-1.622.817-2.056.871-5.102.548-.333-.404-.341.566-3.43.405-.12-.342-.102.306-2.833.539-1.852.188-1.996.54-.009-.019-.264-.413.06-.036-.316 1.455-2.168 1.141-3.6 1.537-.299 1.105.188.098.588-.278-.093-1.23.631.017.589.404.179 1.68-.316.081-.256 1.141.265.97-.307 1.564.094.413-.248 1.545.46 1.958-.443 1.653.239 1.608-.222 1.869 1.075.862.188-.036.393-.35.179.404.153.198-.179.126.265.161-.512-.323-.18.45-.034 4.841 2.645-.97-.008.234.785.494.512-.719.76.117 1.091.503.905-.413.213-.719-.18.809.317.35-.137-.17.691.457 3.72-.889 1.562.108 1.314-.844 1.254-.423 3.166-.8.776-.197-.077-.09 3.03-.8.904-.287 1.485-.674.23-.485.64-.386.025-.61 1.11.224 1.203.89 1.373.224 1.127 1.213 1.502 1.742.947-.063.196.566.017.297.47.188.904-.404 1.45 1.554 2.569-.287 3.276-.521 1.971.404 1.305-.054 2.15-.79.29-1.087 1.298-.324.972 1.024 1.835-.575 2.705.782 1.535.467 1.903.01.709-1.06 2.26 1.14 2.919-.45.921-.736-.341.854 2.543-.845 1.373-.153 1.937.62 2.867.44.87 1.025 1.28 2.066 1.536 2.219 2.167.835 1.997-.17.887-.018-1.109-.54.145-.413 1.596-2.138 2.543.144.938-.467 1.263 1.114 2.875-.144 1.135-.7.606.296 1.51-.198.342.01-.572-1.447.555.072.87-1.842.793-.26 1.289-.89.768.243 1.126-.396 1.143-.898.162-.314-.315-.44.478.53.964v1.493l-.171.06-.054-.41-.584.017-1.159.606.431-.043.35.342-.197.426.305.41-.512.145-1.05 1.246-.171.657.251.358-.665-.188.108.324-.35.12.099-.947-.764-.137-.341.529-.845-1.007-.467.444.952.683-.52-.094-.486.452-.782.077-.898.947-1.23-.136-.53.725-1.815.614-1.258-.495-.36.376-.907.025-1.087-1.885-.278.076-.036.657-1.339.043-1.222-.589-1.105-.128-.736-.435-.09-.392-.422.102-.081-.213-.728.708-.727.008-.387-.52-.395.478 2.075.23-.188.657-.908.41.018.264 1.384.017.206.231-.296 2.133.458.64 1.554 1.322 2.462.555.79.973 2.848 1.041 3.98-.461 2.65.222 1.958.657.584.87 1.087-.162.207.392 1.536-.435.081-.529.404-.042.665-.905-.395-1.723-.315-.35.45.213.062-.239-.512-.171.719-.597.413-.879.297.214.135-.359.08.179.09-.23 1.68-.222.476-.324.755-1.288 2.983-1.553.799-.888.045-.751 1.518-.93.611-3.123-.216-1.612 1.41-2.483 3.702-3.584.332-1.203.126-4.633-.97-3.02-2.156-2.612.961-2.099-.143-2.781.296-.845.808-.879.962-.563 3.683-1.587 1.985-.273 2.884-1.374 2.525-.239.485.265.548 1.724.072.81-.387 1.041.144.401 2.453 2.261.314 1.092.305-.017-.009-.375.378.11 1.069 1.349-.117.324-.566-.017.278 1.587-.835 1.408.297.589.592-.026.35.273-.826 2.185.018 2.704.548.947-.485 1.212-.665-.153-.323.537.674.913 1.401.973 1.033.384.997 1.092-.503 3.993.216.077.135-1.306.386-.529 1.267 1.203-.36-1.791.8-.615 1.491-.733.764.605 1.15-.162-.342-.213.288-.085 1.419.895.692 1.297.674.615.907.341.88 1.16.486.18.601-.162-.035.563 2.093 1.612.7-.187 1.204.537-.844-.563.449-.154.485.197-.359-.273-1.527.221-.674-.324-1.348-1.041-.018-.614-1.087-.06-.943-1.28-1.195-.529-.997-1.706.207-.93 1.644.537 1.41 1.041.755 1.493.88.248.117 1.186v-1.331l-.881-.248-1.365-2.133-1.455-1.203-.863-.298.189-.401-.863-.026-.296.606-.611.17-.656-.349.899-.103.089-.452-.278-.282-.737.239-.332-.52-.171.776-.377-.426-1.518.349-.665-.691-.916.205.745-.563-.979-.247-.297-.726-.26.555-.512.247-1.204-.648-.063-1.783.35-.82.54-.136-.234-.316-.171.179-.233-.682-.054-2.381.719-1.16.826-.614 1.77-.018 1.024-.622-.737-1.647-.458-.256-.692-1.331.503-.205-.017-.41-.935-.4-.126-.29-.314-1.127.207-1.946-.539-1.441-.099-1.383-.288-.367-1.734-.554-.772-.708-1.752-.7-.638-.495-1.123-1.63-1.455-.06-2.147-1.527-.961-.358-3.19-.026-1.778 1.57-.189.828-2.39.316-1.85-.87-1.635.153-1.644 1.015-.764-.315-.647-1.792.683-1.98.17-1.834-.493-1.647-1.456-2.014-.404-2.286.746-.922.62-2.312-.171-.384L76.05 68l-.18-.504-.494-.316 3.288-5.34.512-1.494.18-2.04-.539-1.638-2.075-3.08.134-1.775-1.212-1.51-.962-3.114-1.778-2.45-1.59-.955-.504-.597.549-1.152 2.165-2.33.539-1.143.359-1.322-.44-1.11.305-.614 1.626-1.271 4.816-2.509 2.039-2.116.961-1.535.512-2.313-.054-3.012-.638-4.095-.548-1.886-.736-1.348.96-1.408.45-.12 3.019 2.569.116.298-.476.342-.108-.461-.404.136-.18.709 2.228 3.472-.655-.068-.369.862.422 2.218.89 2.296-.234.494-.7.401-.432 1.178-.107 1.493-.522 1.314.342.64-.324.947-.592.103v-.419l-.225.555.162.853-.36 2.09.306 1.067 1.248 1.476-.34 1.255.565 1.1-.629.845-.054.88-.53-.206-.655.563.503 1.545.718.853 1.213.358 2.021 1.374 1.321.341.61-.162.782.359 2.13-.043 3.854.666 1.123-.205 2.308.682.791 1.45.144 1.434 2.605.896.224.393.216-.094.261-1.971-1.034-.922-.341-1.04.368-2.569-1.68-.426-.556.597-.216-.632.413-1.314-.503-.119-.278.128.341.375-1.177.367v.666l-.746-.324-.404-.564-.278-.093-.117.204.422.282-1.06-.359-1.14-.964-.342-1.109-.144.196-.17-.4-.54.255-2.057-1.015-.674-.964-1.653-.981-.233-.564.072-1.297-.872-1.561-.584-2.526-.548-.221.404-.47.674-.196 2.013-2.193 2.659-.657.44.145-.117.427.395.529 1.168.776 1.16 1.093.942 1.373.62.359 1.465.093 1.805-.972.863-1.63-.162-1.1-1.141-1.767-.467-.282-1.491.103-1.366.845-.736-.197-.1-.785.746-1.484-.368-.589.512-.06.638.546.341-.06 1.195-2.337 1.24-.589.099-.384.683.316.224-.24.377.07.18.392 1.662.81.135.47.054-.59-.62-.119-.512-.69.754-.812 1.222 2.15-.108 1.136 1.941 1.91 1.877 1.34 1.465.214 1.94-.316.638.75 1.258.385 2.048 1.416.404 1.007-.179.452-1.402.444-.53 2.568-.862 1.229-1.222.563-2.569.068.125 1.877-.206.649-.53.222-.153.717.458 1.988.575.486.755.06 2.219 2.9 2.237 1.033 2.192.64.494.887.188 2.39.692 1.407-.557 1.87 1.123 1.194-1.069 2.807.979 1.066.108.359-.296.486-.737-.068-1.06-.794-1.402-.025-.772.367-.045.605-3.189 3.013-.97 1.8-.108-.504-.503-.187-.45-.103-.287.418-.063 1.23-1.267 1.962-1.374 1.288.233 1.007.755 1.365-.224 1.493 2.551.53 1.213 3.847.494.103.7 1.169.764.4 1.976-.161 1.68.665.845-.094 2.102 1.536.791.068 1.518-.887.862.222.656-.145.548-.546.207-.81-.135-1.067.458-.734 1.833 1.28v.938l-.97 1.289.125.631 2.103.742 1.284.12.449.819-.709.845.88 1.604.458 2.295 1.554 1.493.297.845.108.939-1.438.921.387 2.227-.135 2.594-1.069.725-.207 1.399-.907 1.05-.09 2.329-1.078.342-.88-.376-1.159.444-.638-.026-.27.29 1.087 2.168.908.64.269 1.638 1.788 1.732.045.589-.521 1.024.152 1.757-1.212 1.374 5.713 4.992.117.887 1.033.631.728 2.048-.243.751-.62.469-.709 1.11.063.691 1.662 1.902 1.473 2.842-.889.597-.018.751-.602.597.215.708.872 1.075.215 1.622.396.503.79.23 1.312-.298 2.264 1.484.305.692-1.15.648 1.509.478.863.725.683 3.174-1.537 1.374-.485 1.015.71 1.604-.431.888.26.367 1.878.179 2.327-.418.161.461-.539.605.926.308.61.682.629.103 1.348-.922.817.324.18.35.611.06.692 3.054-.665 1.135.62 1.263-.162.529.485 1.399-.027 3.004-1.77 1.237-1.185 1.229-.944.503-.269 2.355-1.24 1.22.189.64 1.257.674.71 1.553.611-.102.386.222-.296 1.527.144.614-.342.453.53 1.279-.161.675-.36.273-.17 1.109-1.007.819-.476 1.135-1.518 1.442-.53 1.194-.27 1.749-2.138 2.39-.458 1.143-1.213-1.178-.116-.87-.566-.606-.71.069-1.195-1.869-.781-.307-1.159.836-.09-.7-.988.964-1.483-.418-.781-.58-.171-.964-1.797-.538-.036-1.476-2.524.069-1.752-.939-.566.102-.359.47-.341 1.117-.513.137-.61-.341-.899-1.28-.665.264-1.069-.657-.305-.384.224-.716-1.742-1.733-.503-1.177-.234-.051-1.94.717-.297 1.296-.674.077.027.256-1.778 1.587-1.716.418-.8 2.995-4.348.188-2.336-.452-3.414.529-1.419.623-1.365-.606-2.893-2.142-1.518-1.544-.71-1.673-.494-.46-1.447-.47-1.05.043-1.106.862h-.44l-.61-.794-2.848-1.237-3.306.401-1.573.563-3.297.231-1.446-1.536-.871-.427-4.133-.008-.683-.376-.862-1.382-.485-.248-.404-1.16-1.052-.085-.359.094-1.195 1.629-1.15.214-2.255-.273-.844.708-2.641.631-.728-2.909-.063-2.159-.79-1.323-.485-.324-2.731-.077-.297-1.544-1.536-2.773.548-.333.494-.836-.08-.785-.297-.529-1.617-.853-1.078-1.263-2.956.435-.305-.811-2.336.094-.818-.862-1.42-.162-1.086.333.61 1.186-.574.862-.063 1.229-2.803-1.442-2.372 2.056-2.174 1.357-.449-.794-2.938.393-.34-1.016-1.636-.418-.62-.614-.251-.751.754-2.219-.395-.981-.458-.358-2.722.81-1.438-1.092-3.997.453-2.004.733-2.2.273-1.411.666-.683-.154-.602.478-2.497-.017-1.536 1.178-1.16.247-1.131-.947-.476-1.707-2.363-1.024-1.168.572-1.895-1.186-.198-.734 1.428-.947.584-1.391-.853-1.919.485-1.101.36-4.48-1.178-.486-1.509-1.152-.144-1.246-.871-1.715-1.536-1.459 4.59-2.295.09-.811.683-.819-.395-.861.494-.273.18-.675.485-.392.305-1.126 1.024-.947.647.29-.539-1.434.458-.495.53-1.518 1.393-.367 1.284-.879 1.384-1.638 1.689.008.52-.725 1.268-.597.251-.965 1.015-.46.79-.026 1.519-1.229-.413-2.636.844-.427.863-1.476 1.715-1.195 1.07-1.518 1.904-.751.584-.683.099-.699-.566-1.033-1.545-.546.575-.947.43-.213 1.43.349.404-.392-.405-1.254-1.15-.956.566-.742.1-.708-.378-.811-1.213.068-.898.521-1.078.076-1.25-1.109-.305-5.094.98-1.305.009-.751 1.212-1.16.234-.87-.898-2.006.296-.904-1.123-.598.01-.759-.872-.52-1.231.145-1.51-1.374-.493-.23-.234.614-.8-.632.243-.477-.539-1.323 1.015-.674.243-.478-.17-1.459.403-.981.728-.683 1.222.128.97 1.041 1.24.606 4.671 1.382 1.339 1.229.997 1.579-.988-1.349-1.572-1.297-1.213.026-.189-.435-.458-.051-.17.256-.369-.35-.162.17.072-.384h-.736l-.611-.392 1.536 1.433.61-.145.639.316-.216.034.818.145.916.82.404-.154.09.572.476.418 1.716.87 3.297 1.066-.629.427.117.674.332.077.602 1.143 1.033.359-.314.162.53.025 1.752 1.758.188.563.674.444.09.153-.782-.29.503.649-.017.375.116-.273.485-.05 1.59.844.575.588.306.794-.324.546-.305.026.09 1.032.44-.008.279.46-.306.837.207-.043-.063-.393 1.5-1.399.611-.068-.458-.273.53-.598-.207-.119.09-.802 2.075-4.104.746-2.876.602-.546-.117-.836-.898-.367.494-.213.144-.683-.432-.06-.808.538-.782.051-.907-.392-1.087-1.084-.368-1.169-1.78-2.824-.574-1.92.61-.7.234-2.534-.745.06-.1.376.27.204-.548.214-1.114-.598-.97-1.245-.835-.393-.036-.239-.854.18-2.228-1.596-.422.341.297.657-.8.384.413-.717-.575.666.081.7.458.887.26-.017-.098.205-.341.153-.647-1.143-.027-4.813.826-3.174.189-.162.305.367-.485.282.072.606.953.332 1.14-.367.917-1.066-.45-1.45-.43-.333-.306-1.587-.8-.009.63-2.901.88-1.365-.989-1.493.333-1.425.763-1.075zm47.012-47.73l1.365 1.134-.925-.776-.306.154-.601 2.841.43 1.28-.475.563-.414-.154.243-.443-.512.213-.782-.537-.18-.598-.242-.043-.036.265-.233-.17-1.222-1.52.692-1.91.781-.64.719-.112 1.698.453zM59.933 4.928l.432-.205.377-.716 1.285 2.551.098 1.135-1.805.042-.899.87-.88.36-1.213-.197-1.994 1.11-1.06.955-1.563-.086-.243-.256.054-.52-.458-.427.063.41-.513.162.62.956-1.096-.103-.08-1.33.7-4.6-.206-2.21 2.632-1.476L56.627.74l.791.034 2.372 1.4-.126.264.7.768.135.878-.566.845z" stroke="#31313B" stroke-width=".4" mask="url(#a)"/></svg>