<svg width="26" height="28" fill="none" xmlns="http://www.w3.org/2000/svg"><mask id="a" fill="#fff"><path d="M2.023 5.65l.234-.247.27.23.26-1.766 1.06.273-.08.222.332.214.224-.47-.18-.205.522-.136-.414-.41-.027-.443.216.256.288-.384 2.695.298.745-.222.036-.435.512-.025.297.077-.036.238.817-.153.548.281.35-.281-.116-.35.377-.657-.305-1.05.332-.383.53.418.35-.35 2.408.973.854-.205.43.879.729-.171.269.725 1.644 1.237.072.359-.386.094.197.41 1.312.724.224-.298.674.375.369-.452.287.247.296-.221 1.15-.009.333.128v.393l.871-.154.719.333.17.947.665.81-.467.58-.647.205-.602.948-.458.239.27.63-1.042.718.072 1.245-.962.691.494 1.16-.566 1.067.54.93-.19.342-.457-.23-.162.35-.287-.265.071.546-.52.128.134.495-.386.213.108 1.698.44.512-.53.29-1.563-.145.655.375-.449.282.01.35-.324.051-.45-.418-.278.11-.485.496-.368.017-.611.785-.162-.154-.934.53.036.34-.36-.008-.377.384.45.674-.764.299-.153.76-.341-.01.161.854-.53.81.063.606.216.026-.431.614.098.358-.458.154-.88-.623-.333.401-.925.009-.53-.563-.521-.077-1.033.657-.422-.128-.09-.82-.701-.622-.71-.785-.332-.478-.306.043-.242-.768.323-.81-.548-.265.88-.273.252-.333-.395-.802.305-.418-.386-.12-.198-.41.018-.648.486.086.476-.64-.26-.922-.513.009-.189.375-.52.145-.468-.136-1.15-1.23-.152-1.629-.827-.614-.386-.947-.494-.538-1.258-.426.503-.649-.386-.008-.01-.384.917-.009-.386-.333-.863.077.063-.418 1.222-.435.26-.76.737-.093-.826-1.195-.8-.026-.251-.58-.494-.12.844-.801-.413-.435.422-.58.368.11.26-.358.342.051.144-.341-.252-.708z"/></mask><path d="M2.023 5.65l.234-.247.27.23.26-1.766 1.06.273-.08.222.332.214.224-.47-.18-.205.522-.136-.414-.41-.027-.443.216.256.288-.384 2.695.298.745-.222.036-.435.512-.025.297.077-.036.238.817-.153.548.281.35-.281-.116-.35.377-.657-.305-1.05.332-.383.53.418.35-.35 2.408.973.854-.205.43.879.729-.171.269.725 1.644 1.237.072.359-.386.094.197.41 1.312.724.224-.298.674.375.369-.452.287.247.296-.221 1.15-.009.333.128v.393l.871-.154.719.333.17.947.665.81-.467.58-.647.205-.602.948-.458.239.27.63-1.042.718.072 1.245-.962.691.494 1.16-.566 1.067.54.93-.19.342-.457-.23-.162.35-.287-.265.071.546-.52.128.134.495-.386.213.108 1.698.44.512-.53.29-1.563-.145.655.375-.449.282.01.35-.324.051-.45-.418-.278.11-.485.496-.368.017-.611.785-.162-.154-.934.53.036.34-.36-.008-.377.384.45.674-.764.299-.153.76-.341-.01.161.854-.53.81.063.606.216.026-.431.614.098.358-.458.154-.88-.623-.333.401-.925.009-.53-.563-.521-.077-1.033.657-.422-.128-.09-.82-.701-.622-.71-.785-.332-.478-.306.043-.242-.768.323-.81-.548-.265.88-.273.252-.333-.395-.802.305-.418-.386-.12-.198-.41.018-.648.486.086.476-.64-.26-.922-.513.009-.189.375-.52.145-.468-.136-1.15-1.23-.152-1.629-.827-.614-.386-.947-.494-.538-1.258-.426.503-.649-.386-.008-.01-.384.917-.009-.386-.333-.863.077.063-.418 1.222-.435.26-.76.737-.093-.826-1.195-.8-.026-.251-.58-.494-.12.844-.801-.413-.435.422-.58.368.11.26-.358.342.051.144-.341-.252-.708z" stroke="#31313B" stroke-width=".4" mask="url(#a)"/></svg>