<svg width="29" height="18" fill="none" xmlns="http://www.w3.org/2000/svg"><path d="M14.186 2.5l.47-.233.264.66.024.057.062.005 1.497.1.723.38.6 2.582.007.028.02.02 1.05 1.058.014.014.018.008 2.13.913.011.005.013.002 2.776.426.048.008.036-.034.948-.909.333.02.368.469.024.03.038.006.346.06.345.673.07.134.096-.116.177-.213.527.344.05.032.052-.028.474-.253.657.223-.19.98-.563.347-1.512-.432-.044-.013-.039.026-1.431.954-1.546.372-.045.01-.021.042-.23.452-.69.152-.061.013-.015.06-.148.591-.482-.093-.039-.007-.033.02-1.775 1.117-2.157-.277-.032-.005-.028.016-.826.443-.03.017-.015.031-.131.303-.794.16-.04.008-.023.033-.42.611-.816-.166-.087-.017-.028.084-.664 2.014-1.484-.306-.05-.01-.037.034-.439.392h-1.6l-.03.05-.184.315-.97-.04-.664-.331-.05-.026-.048.03-.614.39-.897-.7-.036-.027-.044.008-2.638.505-.406-.265-.009-.842v-.026l-.012-.022-.575-1.032-.01-.016-.013-.012-1.173-.988-.148-.466 1.099-1.779.03-.049-.027-.05-.584-1.085.144-.62.031-.133-.136.01-.787.061-.112-.77-.007-.044-.038-.025-.413-.269.944-2.106.026-.059-.043-.048-.242-.273-.045-.05-.063.022-.182.064.097-.151 1.112-.635 1.086-.151.062-.009.02-.06.291-.899.894-1.29.43-.223 1.024.066.586.249.048.02.044-.027 1.717-1.07.592.128.301.366.04.047.059-.013.422-.094.083-.018-.005-.085-.032-.613.288-.165.039-.023.009-.044.124-.613.61-.245 1.381.664.059.821.003.046.037.028.513.375.05.037.056-.03.521-.279.59.168.037.01.035-.016z" stroke="#31313B" stroke-width=".2"/></svg>