<svg width="94" height="97" fill="none" xmlns="http://www.w3.org/2000/svg"><mask id="a" fill="#fff"><path d="M91.626 55.01l-2.713 1.023-.773.009-.646.418-.62.085-.333-.29-1.284.154-1.222 1.152-.35.7-.63.34-1.598 2.074-1.635.956.18.674-.198.742.233.478.782.068.566-.426 1.177-.222 1.724.99-.71 1.953.064.35.88.683-.126.375.26.478-.233.794-.395.358.18.444-.396.69-.575.163-.116.324-.423-.042-.125.392-1.797 1.596-.53.042-.324 1.229-.458.606.099.375-.557.657.18.299-.79.7.026.614-.323.017-.09 1.246-1.491 1.783-.216 1.613-1.33 1.305-.215 1.468-.8.631.395.376 1.124.05.098.274-.332.333.305.972-.27.666-.87.913-4.016.785-.503.87-.63.094-.053.452-.907.41-.513.682-.305-.008-1.653 1.467-2.425-1.151-1.312-.035-2.192-.878-1.464-1.024-.647-1.016-2.399-.87-1.14.23-1.914 1.144-2.318-.145-1.042-.726-1.761-2.039-1.653-.563-1.635.077-.683-.367-2.021.93-1.07.964-.574-.051-1.842 1.092-1.904 1.536-.63 1.868-2.227 1.152-1.554-.512-3.729 1.417-1.545-.085-1.24.571-.79-.281-1.59.819-1.14.955-1.088.342-1.222-.137-1.276-.904-.467.631-.673.248-2.156-.418-.279.17-.566-.333-1.392.009-.36-.58-1.707-.683-1.14.23-.495-.213-2.713.213-1.67-1.8-.944-.29-.728-.529-.08-.563-.432-.017.234-.632-.225-1.058.18-.614-.773-.009-.727-.58-.144-.802 1.195-.75.503-1.144.53.077.826-.7.72-.12.987-.64.953.24.314-.7-.925-.094-.521-.691-1.537-.495-.655-.64.152-.444.854-.426.305-2.509.953-.23.691-.597-1.14-.854.538-.947.189-1.109.341.162.297-.188.072-.87.754.495 2.21-.12.081.367 1.15.564 2.48-.751 1.105-1.127 1.042-.511 2.497.076.386.7 1.572.17.989-.708.197-.913.836-.563.458-.785 3.737-1.39 2.803-3.37.602-.154.27.35 1.383.28.719-1.014.539-.222 2.084.11 1.276-1.023 2.847-.29 1.339-1.52 1.877-.511 1.088-1.45.098-1.059.279-.136.206-1.28-1.006-.154-.242-.256.422-.4-.126-.624-.476.052-1.024-.751-.009-.81-.62-.572-.009-2.1.89-1.015 2.182-.708.19-.333h.934l.781-1.382 1.536-.555 2.372-2.005 1.51-.793.7-1.263 4.6-1.288 1.383.128.278-.256 1.114-.128.647-.802-.009-.615.36-.247.539-1.895-.809-2.184-1.32-.87-1.339-1.886-1.473.094-1.438-.47-.215-3.054-.458-1.297.18-1.416-.549-1.144.378-1.655-.926-2.073.01-.683.538-.145-.08-.375-.315-.214-.306-.981-1.464-.75 1.051-1.016-.188-1.587 1.042-.913.287-.086 1.428.751.728.649.719-.47.368.06 1.024.862 1.617.094.315.273.683-.47.682.086-.107-.444.61.197.261-.154.341-.828.728-.682.907 1.237.44-.213.423.264.287-.538-.161-.563.34-.162.351-1.314-.557-.964.692-.29.27-.82.43-.212-1.095-.538-.414.051-.098.487-.746.494-.404-.332.36-.512-.118-.418-.52.042v-1.211l-.54-.35-.224-.52.53-1.101-.764-.06-.341-.53.35-.648-.224-.742-.396-.256.315-.341 1.114.051.188-.495.324-.085-.189-.452.404-1.536-.143-.683.341-.503.476.495.404-.154-.278-1.203-.665-.47.225-.486 1.024-.4.512-.666.548-.026 1.401.589.521-.23.665.162.7.486.953 1.288 1.24.572 2.91-.546.288 2.04-.35.742-.459 2.943.674.342.216.554-.117.922.36.623.359-.282.036-.717.431-.17.862.418-.35 1.826 1.752 2.884-.395.486.224 1.562.934.844.063.333-1.087 1.007.072.358 1.204.614.117.282-.368.247-.063.495 1.006.734.108.487 2.165.426-.162.742.647.23-.01.59.872.435-.198.324-1.805.265-.782.725.1 2.688.224.213 1.15-.444.44.452.566-.076.503-.384.593.008.494-.529.512-.017.404-.478 2.399.069.296.4-.018 1.255.35.426-.188.905.458 1.485-.216.554.396.52 1.159.248.494-.35.341-.99.45-.034.996.76.387.793.135.828-.468 1.92.827.187-.575.53v1.314l-1.563 1.578-.252.956.063.477.413-.41.764-.153.207.461-.216.828.431.98.35.547.701.367-.09.41-1.185.537-.432-.008-.233-.547-.584.359-.27.478.468 1.817-.62.794-.063.819.656.93.17-.342.279.145.952 1.596.045 2.748.341.204.306 1.152-1.24-.025z"/></mask><path d="M91.626 55.01l-2.713 1.023-.773.009-.646.418-.62.085-.333-.29-1.284.154-1.222 1.152-.35.7-.63.34-1.598 2.074-1.635.956.18.674-.198.742.233.478.782.068.566-.426 1.177-.222 1.724.99-.71 1.953.064.35.88.683-.126.375.26.478-.233.794-.395.358.18.444-.396.69-.575.163-.116.324-.423-.042-.125.392-1.797 1.596-.53.042-.324 1.229-.458.606.099.375-.557.657.18.299-.79.7.026.614-.323.017-.09 1.246-1.491 1.783-.216 1.613-1.33 1.305-.215 1.468-.8.631.395.376 1.124.05.098.274-.332.333.305.972-.27.666-.87.913-4.016.785-.503.87-.63.094-.053.452-.907.41-.513.682-.305-.008-1.653 1.467-2.425-1.151-1.312-.035-2.192-.878-1.464-1.024-.647-1.016-2.399-.87-1.14.23-1.914 1.144-2.318-.145-1.042-.726-1.761-2.039-1.653-.563-1.635.077-.683-.367-2.021.93-1.07.964-.574-.051-1.842 1.092-1.904 1.536-.63 1.868-2.227 1.152-1.554-.512-3.729 1.417-1.545-.085-1.24.571-.79-.281-1.59.819-1.14.955-1.088.342-1.222-.137-1.276-.904-.467.631-.673.248-2.156-.418-.279.17-.566-.333-1.392.009-.36-.58-1.707-.683-1.14.23-.495-.213-2.713.213-1.67-1.8-.944-.29-.728-.529-.08-.563-.432-.017.234-.632-.225-1.058.18-.614-.773-.009-.727-.58-.144-.802 1.195-.75.503-1.144.53.077.826-.7.72-.12.987-.64.953.24.314-.7-.925-.094-.521-.691-1.537-.495-.655-.64.152-.444.854-.426.305-2.509.953-.23.691-.597-1.14-.854.538-.947.189-1.109.341.162.297-.188.072-.87.754.495 2.21-.12.081.367 1.15.564 2.48-.751 1.105-1.127 1.042-.511 2.497.076.386.7 1.572.17.989-.708.197-.913.836-.563.458-.785 3.737-1.39 2.803-3.37.602-.154.27.35 1.383.28.719-1.014.539-.222 2.084.11 1.276-1.023 2.847-.29 1.339-1.52 1.877-.511 1.088-1.45.098-1.059.279-.136.206-1.28-1.006-.154-.242-.256.422-.4-.126-.624-.476.052-1.024-.751-.009-.81-.62-.572-.009-2.1.89-1.015 2.182-.708.19-.333h.934l.781-1.382 1.536-.555 2.372-2.005 1.51-.793.7-1.263 4.6-1.288 1.383.128.278-.256 1.114-.128.647-.802-.009-.615.36-.247.539-1.895-.809-2.184-1.32-.87-1.339-1.886-1.473.094-1.438-.47-.215-3.054-.458-1.297.18-1.416-.549-1.144.378-1.655-.926-2.073.01-.683.538-.145-.08-.375-.315-.214-.306-.981-1.464-.75 1.051-1.016-.188-1.587 1.042-.913.287-.086 1.428.751.728.649.719-.47.368.06 1.024.862 1.617.094.315.273.683-.47.682.086-.107-.444.61.197.261-.154.341-.828.728-.682.907 1.237.44-.213.423.264.287-.538-.161-.563.34-.162.351-1.314-.557-.964.692-.29.27-.82.43-.212-1.095-.538-.414.051-.098.487-.746.494-.404-.332.36-.512-.118-.418-.52.042v-1.211l-.54-.35-.224-.52.53-1.101-.764-.06-.341-.53.35-.648-.224-.742-.396-.256.315-.341 1.114.051.188-.495.324-.085-.189-.452.404-1.536-.143-.683.341-.503.476.495.404-.154-.278-1.203-.665-.47.225-.486 1.024-.4.512-.666.548-.026 1.401.589.521-.23.665.162.7.486.953 1.288 1.24.572 2.91-.546.288 2.04-.35.742-.459 2.943.674.342.216.554-.117.922.36.623.359-.282.036-.717.431-.17.862.418-.35 1.826 1.752 2.884-.395.486.224 1.562.934.844.063.333-1.087 1.007.072.358 1.204.614.117.282-.368.247-.063.495 1.006.734.108.487 2.165.426-.162.742.647.23-.01.59.872.435-.198.324-1.805.265-.782.725.1 2.688.224.213 1.15-.444.44.452.566-.076.503-.384.593.008.494-.529.512-.017.404-.478 2.399.069.296.4-.018 1.255.35.426-.188.905.458 1.485-.216.554.396.52 1.159.248.494-.35.341-.99.45-.034.996.76.387.793.135.828-.468 1.92.827.187-.575.53v1.314l-1.563 1.578-.252.956.063.477.413-.41.764-.153.207.461-.216.828.431.98.35.547.701.367-.09.41-1.185.537-.432-.008-.233-.547-.584.359-.27.478.468 1.817-.62.794-.063.819.656.93.17-.342.279.145.952 1.596.045 2.748.341.204.306 1.152-1.24-.025z" stroke="#31313B" stroke-width=".4" mask="url(#a)"/></svg>