<svg width="1073" height="566" fill="none" xmlns="http://www.w3.org/2000/svg"><g opacity=".3" filter="url(#filter0_d)"><mask id="a" maskUnits="userSpaceOnUse" x="0" y="0" width="1071" height="564"><path fill="url(#paint0_radial)" d="M0 0h1071v563.684H0z"/></mask><g mask="url(#a)" stroke-opacity=".15" stroke-width="1.127"><path d="M1048.48 510.66l55.02-92.545-36.58-215.369-18.44 307.914z" stroke="url(#paint1_linear)"/><path d="M568.873 294.267l-8.775-63.231-96.67-86.212 105.445 149.443z" stroke="url(#paint2_linear)"/><path d="M233.282 326.083L69.234 469.156 81.89 733.741l151.391-407.658z" stroke="url(#paint3_linear)"/><path d="M483.653-230.06L-35.889 72.678l12.79-278.065 506.752-24.673z" stroke="url(#paint4_linear)"/><path d="M498.296 223.012H310.181L73.331.49l424.965 222.522z" stroke="url(#paint5_linear)"/><path d="M523.38 436.277l160.963-176.661 13.025-476.346L523.38 436.277z" stroke="url(#paint6_linear)"/><path d="M-39.403 228.94l151.459 79.916 462.701-13.317-614.16-66.599z" stroke="url(#paint7_linear)"/><path d="M809.302-122.262L701.084 29.805 242.987 247.306l566.315-369.568z" stroke="url(#paint8_linear)"/><path d="M337.762 219.012l-185.443 21.137-467.958-195.384 653.401 174.247z" stroke="url(#paint9_linear)"/><path d="M526.201-93.06L445.43-10.617 246.211-2.362l279.99-90.698z" stroke="url(#paint10_linear)"/><path d="M298.095 273.597l-106.037-18.646L3.638 365.495l294.457-91.898z" stroke="url(#paint11_linear)"/><path d="M89.581 210.216l-55.018-92.545L71.148-97.698 89.58 210.216z" stroke="url(#paint12_linear)"/><path d="M904.783 25.64l164.047 143.072-12.66 264.586L904.783 25.639z" stroke="url(#paint13_linear)"/><path d="M587.761 301.813l423.589-66.129 109.3-144.735-532.889 210.864z" stroke="url(#paint14_linear)"/><path d="M906.64 70.804L800.603 89.45 612.182-21.094 906.64 70.804z" stroke="url(#paint15_linear)"/><path d="M1156.92 63.477l-106.04 18.645L862.458-28.422l294.462 91.898z" stroke="url(#paint16_linear)"/><path d="M1048.48 510.66l55.02-92.545-36.58-215.369-18.44 307.914z" stroke="url(#paint17_linear)"/><path d="M568.873 294.267l-8.775-63.231-96.67-86.211 105.445 149.442z" stroke="url(#paint18_linear)"/><path d="M233.282 326.083L69.234 469.156 81.89 733.741l151.391-407.658z" stroke="url(#paint19_linear)"/><path d="M-23.1-205.387l506.753-24.673L-35.889 72.678l12.79-278.065z" stroke="url(#paint20_linear)"/><path d="M498.296 223.012H310.181L73.331.49l424.965 222.522z" stroke="url(#paint21_linear)"/><path d="M523.38 436.278l160.963-176.661 13.025-476.346L523.38 436.278z" stroke="url(#paint22_linear)"/><path d="M-39.403 228.94l151.459 79.916 462.701-13.317-614.16-66.599z" stroke="url(#paint23_linear)"/><path d="M809.302-122.261L701.084 29.805 242.987 247.306l566.315-369.567z" stroke="url(#paint24_linear)"/><path d="M337.762 219.012l-185.443 21.137-467.958-195.383 653.401 174.246z" stroke="url(#paint25_linear)"/><path d="M526.201-93.059L445.43-10.617 246.211-2.362l279.99-90.697z" stroke="url(#paint26_linear)"/><path d="M298.095 273.597l-106.037-18.646L3.638 365.496l294.457-91.899z" stroke="url(#paint27_linear)"/><path d="M89.583 210.216l-55.018-92.545L71.15-97.698l18.433 307.914z" stroke="url(#paint28_linear)"/><path d="M904.783 25.64l164.047 143.072-12.66 264.586L904.783 25.639z" stroke="url(#paint29_linear)"/><path d="M587.761 301.813l423.589-66.128 109.3-144.736-532.889 210.864z" stroke="url(#paint30_linear)"/><path d="M906.64 70.805L800.603 89.45 612.182-21.094 906.64 70.805z" stroke="url(#paint31_linear)"/><path d="M1156.92 63.477l-106.04 18.645L862.458-28.422l294.462 91.899z" stroke="url(#paint32_linear)"/></g></g><defs><linearGradient id="paint1_linear" x1="1001.44" y1="225.888" x2="1112.99" y2="484.853" gradientUnits="userSpaceOnUse"><stop stop-color="#4694D2"/><stop offset="1" stop-color="#0075D1"/></linearGradient><linearGradient id="paint2_linear" x1="440.012" y1="178.862" x2="589.867" y2="258.754" gradientUnits="userSpaceOnUse"><stop stop-color="#4694D2"/><stop offset="1" stop-color="#0075D1"/></linearGradient><linearGradient id="paint3_linear" x1="187.758" y1="719.839" x2="128.283" y2="340.884" gradientUnits="userSpaceOnUse"><stop stop-color="#4694D2"/><stop offset="1" stop-color="#0075D1"/></linearGradient><linearGradient id="paint4_linear" x1="-18.055" y1="-215.801" x2="357.429" y2="-3.481" gradientUnits="userSpaceOnUse"><stop stop-color="#4694D2"/><stop offset="1" stop-color="#0075D1"/></linearGradient><linearGradient id="paint5_linear" x1="185.096" y1="-66.844" x2="385.432" y2="288.498" gradientUnits="userSpaceOnUse"><stop stop-color="#4694D2"/><stop offset="1" stop-color="#0075D1"/></linearGradient><linearGradient id="paint6_linear" x1="544.63" y1="-187.562" x2="675.674" y2="404.399" gradientUnits="userSpaceOnUse"><stop stop-color="#4694D2"/><stop offset="1" stop-color="#0075D1"/></linearGradient><linearGradient id="paint7_linear" x1="569.579" y1="213.32" x2="-28.857" y2="310.607" gradientUnits="userSpaceOnUse"><stop stop-color="#4694D2"/><stop offset="1" stop-color="#0075D1"/></linearGradient><linearGradient id="paint8_linear" x1="207.945" y1="165.618" x2="839.235" y2="-38.586" gradientUnits="userSpaceOnUse"><stop stop-color="#4694D2"/><stop offset="1" stop-color="#0075D1"/></linearGradient><linearGradient id="paint9_linear" x1="-278.296" y1="-35.897" x2="295.525" y2="297.202" gradientUnits="userSpaceOnUse"><stop stop-color="#4694D2"/><stop offset="1" stop-color="#0075D1"/></linearGradient><linearGradient id="paint10_linear" x1="263.283" y1="-80.623" x2="507.041" y2="-15.308" gradientUnits="userSpaceOnUse"><stop stop-color="#4694D2"/><stop offset="1" stop-color="#0075D1"/></linearGradient><linearGradient id="paint11_linear" x1="48.484" y1="418.519" x2="251.1" y2="222.424" gradientUnits="userSpaceOnUse"><stop stop-color="#4694D2"/><stop offset="1" stop-color="#0075D1"/></linearGradient><linearGradient id="paint12_linear" x1="136.625" y1="-74.555" x2="25.074" y2="184.41" gradientUnits="userSpaceOnUse"><stop stop-color="#4694D2"/><stop offset="1" stop-color="#0075D1"/></linearGradient><linearGradient id="paint13_linear" x1="950.306" y1="419.395" x2="1009.78" y2="40.44" gradientUnits="userSpaceOnUse"><stop stop-color="#4694D2"/><stop offset="1" stop-color="#0075D1"/></linearGradient><linearGradient id="paint14_linear" x1="1120.68" y1="86.796" x2="620.454" y2="369.653" gradientUnits="userSpaceOnUse"><stop stop-color="#4694D2"/><stop offset="1" stop-color="#0075D1"/></linearGradient><linearGradient id="paint15_linear" x1="657.029" y1="-74.118" x2="859.645" y2="121.977" gradientUnits="userSpaceOnUse"><stop stop-color="#4694D2"/><stop offset="1" stop-color="#0075D1"/></linearGradient><linearGradient id="paint16_linear" x1="907.305" y1="-81.446" x2="1109.92" y2="114.649" gradientUnits="userSpaceOnUse"><stop stop-color="#4694D2"/><stop offset="1" stop-color="#0075D1"/></linearGradient><linearGradient id="paint17_linear" x1="1001.44" y1="225.889" x2="1112.99" y2="484.854" gradientUnits="userSpaceOnUse"><stop stop-color="#4694D2"/><stop offset="1" stop-color="#0075D1"/></linearGradient><linearGradient id="paint18_linear" x1="440.012" y1="178.862" x2="589.867" y2="258.754" gradientUnits="userSpaceOnUse"><stop stop-color="#4694D2"/><stop offset="1" stop-color="#0075D1"/></linearGradient><linearGradient id="paint19_linear" x1="187.758" y1="719.839" x2="128.283" y2="340.884" gradientUnits="userSpaceOnUse"><stop stop-color="#4694D2"/><stop offset="1" stop-color="#0075D1"/></linearGradient><linearGradient id="paint20_linear" x1="-18.055" y1="-215.801" x2="357.429" y2="-3.481" gradientUnits="userSpaceOnUse"><stop stop-color="#4694D2"/><stop offset="1" stop-color="#0075D1"/></linearGradient><linearGradient id="paint21_linear" x1="185.096" y1="-66.843" x2="385.432" y2="288.498" gradientUnits="userSpaceOnUse"><stop stop-color="#4694D2"/><stop offset="1" stop-color="#0075D1"/></linearGradient><linearGradient id="paint22_linear" x1="544.63" y1="-187.562" x2="675.674" y2="404.399" gradientUnits="userSpaceOnUse"><stop stop-color="#4694D2"/><stop offset="1" stop-color="#0075D1"/></linearGradient><linearGradient id="paint23_linear" x1="569.579" y1="213.32" x2="-28.857" y2="310.607" gradientUnits="userSpaceOnUse"><stop stop-color="#4694D2"/><stop offset="1" stop-color="#0075D1"/></linearGradient><linearGradient id="paint24_linear" x1="207.945" y1="165.618" x2="839.235" y2="-38.585" gradientUnits="userSpaceOnUse"><stop stop-color="#4694D2"/><stop offset="1" stop-color="#0075D1"/></linearGradient><linearGradient id="paint25_linear" x1="-278.296" y1="-35.896" x2="295.525" y2="297.202" gradientUnits="userSpaceOnUse"><stop stop-color="#4694D2"/><stop offset="1" stop-color="#0075D1"/></linearGradient><linearGradient id="paint26_linear" x1="263.283" y1="-80.622" x2="507.041" y2="-15.307" gradientUnits="userSpaceOnUse"><stop stop-color="#4694D2"/><stop offset="1" stop-color="#0075D1"/></linearGradient><linearGradient id="paint27_linear" x1="48.484" y1="418.52" x2="251.1" y2="222.424" gradientUnits="userSpaceOnUse"><stop stop-color="#4694D2"/><stop offset="1" stop-color="#0075D1"/></linearGradient><linearGradient id="paint28_linear" x1="136.627" y1="-74.555" x2="25.076" y2="184.41" gradientUnits="userSpaceOnUse"><stop stop-color="#4694D2"/><stop offset="1" stop-color="#0075D1"/></linearGradient><linearGradient id="paint29_linear" x1="950.306" y1="419.395" x2="1009.78" y2="40.441" gradientUnits="userSpaceOnUse"><stop stop-color="#4694D2"/><stop offset="1" stop-color="#0075D1"/></linearGradient><linearGradient id="paint30_linear" x1="1120.68" y1="86.796" x2="620.454" y2="369.653" gradientUnits="userSpaceOnUse"><stop stop-color="#4694D2"/><stop offset="1" stop-color="#0075D1"/></linearGradient><linearGradient id="paint31_linear" x1="657.029" y1="-74.118" x2="859.645" y2="121.978" gradientUnits="userSpaceOnUse"><stop stop-color="#4694D2"/><stop offset="1" stop-color="#0075D1"/></linearGradient><linearGradient id="paint32_linear" x1="907.305" y1="-81.446" x2="1109.92" y2="114.65" gradientUnits="userSpaceOnUse"><stop stop-color="#4694D2"/><stop offset="1" stop-color="#0075D1"/></linearGradient><radialGradient id="paint0_radial" cx="0" cy="0" r="1" gradientUnits="userSpaceOnUse" gradientTransform="matrix(1071 0 0 2034.9 0 281.842)"><stop offset=".115" stop-color="#C4C4C4" stop-opacity=".33"/><stop offset=".5" stop-color="#C4C4C4"/><stop offset=".88" stop-color="#C4C4C4" stop-opacity=".33"/></radialGradient><filter id="filter0_d" x="0" y="0" width="1072.13" height="565.939" filterUnits="userSpaceOnUse" color-interpolation-filters="sRGB"><feFlood flood-opacity="0" result="BackgroundImageFix"/><feColorMatrix in="SourceAlpha" values="0 0 0 0 0 0 0 0 0 0 0 0 0 0 0 0 0 0 127 0"/><feOffset dx=".564" dy="1.691"/><feGaussianBlur stdDeviation=".282"/><feColorMatrix values="0 0 0 0 1 0 0 0 0 1 0 0 0 0 1 0 0 0 0.5 0"/><feBlend in2="BackgroundImageFix" result="effect1_dropShadow"/><feBlend in="SourceGraphic" in2="effect1_dropShadow" result="shape"/></filter></defs></svg>