<svg width="1902" height="2879" fill="none" xmlns="http://www.w3.org/2000/svg"><g filter="url(#filter0_d)"><path fill="#363640" d="M0 0h1900v2875H0z"/><mask id="a" maskUnits="userSpaceOnUse" x="0" y="0" width="1900" height="2875"><path fill="url(#paint0_radial)" d="M0 0h1900v2875H0z"/></mask><g mask="url(#a)" stroke-opacity=".2"><path d="M907.935 1129.72l924.255-538.565-22.75 494.675-901.505 43.89z" stroke="url(#paint1_linear)"/><path d="M1008.95 299.851h335.95l422.99 397.401-758.94-397.401z" stroke="url(#paint2_linear)"/><path d="M211.694 295.271L542.568-42.446l816.082-33.817L211.694 295.271z" stroke="url(#paint3_linear)"/><path d="M375.718 24.398L225.841 308.382l57.594 829.258L375.718 24.398z" stroke="url(#paint4_linear)"/><path d="M1529.09-73.602l149.88 283.984-57.6 829.258-92.28-1113.242z" stroke="url(#paint5_linear)"/><path d="M219.298 972.743L412.89 700.712l819.49-389.086L219.298 972.743z" stroke="url(#paint6_linear)"/><path d="M665.622 1118l230.513-313.208 514.675-84.144L665.622 1118z" stroke="url(#paint7_linear)"/><path d="M1237.03 235.746l190.32 33.466L1765.54 70.8l-528.51 164.946z" stroke="url(#paint8_linear)"/><path d="M1160.43 301.025l98.75 166.106-65.66 386.559-33.09-552.665z" stroke="url(#paint9_linear)"/><path d="M758.984 729.97l-15.875 114.396-174.892 155.974 190.767-270.37z" stroke="url(#paint10_linear)"/><path d="M164.004 677.167l-292.692-255.269 22.581-472.07 270.111 727.339z" stroke="url(#paint11_linear)"/><path d="M1148.85 108.264l924.25 538.563-22.75-494.67-901.5-43.893z" stroke="url(#paint12_linear)"/><path d="M383.807 313.542l411.339 117.417 379.014-170.687-790.353 53.27z" stroke="url(#paint13_linear)"/><path d="M-78.193 662.281l411.339-117.417L712.157 715.55l-790.35-53.269z" stroke="url(#paint14_linear)"/><path d="M692.608 881.711l330.872 337.719 816.08 33.82L692.608 881.711z" stroke="url(#paint15_linear)"/><path d="M644.718 1155.82L494.841 871.84l57.594-829.257 92.283 1113.237z" stroke="url(#paint16_linear)"/><path d="M571.212 298.239L764.804 570.27l819.486 389.086L571.212 298.239z" stroke="url(#paint17_linear)"/><path d="M1011.69 119.973l144.86 147.85 357.27 14.804-502.13-162.654z" stroke="url(#paint18_linear)"/><path d="M1477.94 1002.24l190.33-33.47 338.19 198.41-528.52-164.94z" stroke="url(#paint19_linear)"/><path d="M1823.59 390.188l-330.88 337.717-816.079 33.817L1823.59 390.188z" stroke="url(#paint20_linear)"/><path d="M1860.05 905.932l97.61-164.178-64.9-382.074-32.71 546.252z" stroke="url(#paint21_linear)" stroke-width="2"/><path d="M1009.21 522.042l-15.571-112.175-171.497-152.943 187.068 265.118z" stroke="url(#paint22_linear)" stroke-width="2"/><path d="M413.851 578.484L122.823 832.302l22.453 469.388 268.575-723.206z" stroke="url(#paint23_linear)" stroke-width="2"/><path d="M858.02-408.137L-63.67 128.932l22.689-493.298 899.001-43.771z" stroke="url(#paint24_linear)" stroke-width="2"/><path d="M883.996 395.631H550.273L130.091.869 883.996 395.63z" stroke="url(#paint25_linear)" stroke-width="2"/><path d="M928.499 773.974L1214.05 460.57l23.11-845.058L928.499 773.974z" stroke="url(#paint26_linear)" stroke-width="2"/><path d="M-69.904 406.149l268.695 141.774 820.849-23.624-1089.544-118.15z" stroke="url(#paint27_linear)" stroke-width="2"/><path d="M1435.74-216.899L1243.75 52.875 431.07 438.73l1004.67-655.629z" stroke="url(#paint28_linear)" stroke-width="2"/><path d="M599.205 388.536l-328.982 37.499-830.178-346.62 1159.16 309.121z" stroke="url(#paint29_linear)" stroke-width="2"/><path d="M933.503-165.092L790.21-18.836 436.789-4.191l496.714-160.901z" stroke="url(#paint30_linear)" stroke-width="2"/><path d="M528.834 485.372l-188.115-33.078L6.453 648.404l522.381-163.032z" stroke="url(#paint31_linear)" stroke-width="2"/><path d="M158.921 372.932L61.316 208.754 126.22-173.32l32.701 546.252z" stroke="url(#paint32_linear)" stroke-width="2"/><path d="M1605.12 45.484l291.03 253.818-22.45 469.386-268.58-723.204z" stroke="url(#paint33_linear)" stroke-width="2"/><path d="M1042.71 535.429l751.47-117.315 193.91-256.768-945.38 374.083z" stroke="url(#paint34_linear)" stroke-width="2"/><path d="M1608.42 125.61l-188.12 33.078-334.26-196.11 522.38 163.032z" stroke="url(#paint35_linear)" stroke-width="2"/><path d="M2052.42 112.61l-188.12 33.078-334.26-196.11 522.38 163.032z" stroke="url(#paint36_linear)" stroke-width="2"/><path d="M690.935 2356.72l924.255-538.56-22.75 494.67-901.505 43.89z" stroke="url(#paint37_linear)"/><path d="M791.946 1526.85H1127.9l422.99 397.4-758.944-397.4z" stroke="url(#paint38_linear)"/><path d="M-5.306 1522.27l330.874-337.72 816.082-33.81L-5.306 1522.27z" stroke="url(#paint39_linear)"/><path d="M158.718 1251.4L8.841 1535.38l57.594 829.26 92.283-1113.24z" stroke="url(#paint40_linear)"/><path d="M1312.09 1153.4l149.88 283.98-57.6 829.26-92.28-1113.24z" stroke="url(#paint41_linear)"/><path d="M2.298 2199.74l193.592-272.03 819.49-389.08L2.298 2199.74z" stroke="url(#paint42_linear)"/><path d="M448.622 2345l230.513-313.21 514.675-84.14L448.622 2345z" stroke="url(#paint43_linear)"/><path d="M1020.03 1462.75l190.32 33.46 338.19-198.41-528.51 164.95z" stroke="url(#paint44_linear)"/><path d="M943.432 1528.02l98.748 166.11-65.663 386.56-33.085-552.67z" stroke="url(#paint45_linear)"/><path d="M541.984 1956.97l-15.875 114.4-174.892 155.97 190.767-270.37z" stroke="url(#paint46_linear)"/><path d="M-52.996 1904.17l-292.692-255.27 22.581-472.07 270.111 727.34z" stroke="url(#paint47_linear)"/><path d="M931.849 1335.26l924.251 538.57-22.75-494.67-901.501-43.9z" stroke="url(#paint48_linear)"/><path d="M166.807 1540.54l411.339 117.42 379.011-170.69-790.35 53.27z" stroke="url(#paint49_linear)"/><path d="M-295.193 1889.28l411.339-117.42 379.011 170.69-790.35-53.27z" stroke="url(#paint50_linear)"/><path d="M475.608 2108.71l330.874 337.72 816.078 33.81-1146.952-371.53z" stroke="url(#paint51_linear)"/><path d="M427.718 2382.82l-149.877-283.98 57.594-829.26 92.283 1113.24z" stroke="url(#paint52_linear)"/><path d="M354.212 1525.24l193.592 272.03 819.486 389.09-1013.078-661.12z" stroke="url(#paint53_linear)"/><path d="M794.693 1346.97l144.854 147.85 357.273 14.81-502.127-162.66z" stroke="url(#paint54_linear)"/><path d="M1260.94 2229.24l190.33-33.47 338.19 198.41-528.52-164.94z" stroke="url(#paint55_linear)"/><path d="M1606.59 1617.19l-330.88 337.72-816.079 33.81 1146.959-371.53z" stroke="url(#paint56_linear)"/><path d="M1643.05 2132.93l97.61-164.18-64.9-382.07-32.71 546.25z" stroke="url(#paint57_linear)" stroke-width="2"/><path d="M792.206 1749.04l-15.567-112.17-171.497-152.95 187.064 265.12z" stroke="url(#paint58_linear)" stroke-width="2"/><path d="M196.851 1805.48L-94.177 2059.3l22.453 469.39 268.575-723.21z" stroke="url(#paint59_linear)" stroke-width="2"/><path d="M641.02 818.863l-921.69 537.067 22.689-493.296 899.001-43.771z" stroke="url(#paint60_linear)" stroke-width="2"/><path d="M666.996 1622.63H333.273l-420.182-394.76 753.905 394.76z" stroke="url(#paint61_linear)" stroke-width="2"/><path d="M682.576 846.139l-72.314 417.771 434.788 725L682.576 846.139z" stroke="url(#paint62_linear)" stroke-width="2"/><path d="M-286.904 1633.15l268.695 141.77 820.852-23.62-1089.547-118.15z" stroke="url(#paint63_linear)" stroke-width="2"/><path d="M1218.74 1010.1l-191.99 269.77-812.68 385.86 1004.67-655.63z" stroke="url(#paint64_linear)" stroke-width="2"/><path d="M382.205 1615.54l-328.982 37.49-830.178-346.61 1159.16 309.12z" stroke="url(#paint65_linear)" stroke-width="2"/><path d="M716.503 1061.91L573.21 1208.16l-353.421 14.65 496.714-160.9z" stroke="url(#paint66_linear)" stroke-width="2"/><path d="M311.834 1712.37l-188.115-33.08-334.266 196.11 522.381-163.03z" stroke="url(#paint67_linear)" stroke-width="2"/><path d="M-58.079 1599.93l-97.605-164.18 64.904-382.07 32.701 546.25z" stroke="url(#paint68_linear)" stroke-width="2"/><path d="M792.77 1216.04l15.566-112.17 171.498-152.946L792.77 1216.04z" stroke="url(#paint69_linear)" stroke-width="2"/><path d="M1388.12 1272.48l291.03 253.82-22.45 469.39-268.58-723.21z" stroke="url(#paint70_linear)" stroke-width="2"/><path d="M825.713 1762.43l751.467-117.32 193.91-256.76-945.377 374.08z" stroke="url(#paint71_linear)" stroke-width="2"/><path d="M1391.42 1352.61l-188.12 33.08-334.263-196.11 522.383 163.03z" stroke="url(#paint72_linear)" stroke-width="2"/><path d="M1835.42 1339.61l-188.12 33.08-334.26-196.11 522.38 163.03z" stroke="url(#paint73_linear)" stroke-width="2"/><path d="M992.712 2336.69l337.718 330.88 33.82 816.08-371.538-1146.96z" stroke="url(#paint74_linear)"/><path d="M1263.58 2500.72L979.6 2350.84l-829.256 57.6 1113.236 92.28z" stroke="url(#paint75_linear)"/><path d="M315.239 2344.3l272.032 193.59 389.085 819.49L315.239 2344.3z" stroke="url(#paint76_linear)"/><path d="M169.978 2790.62l313.213 230.52 84.143 514.67-397.356-745.19z" stroke="url(#paint77_linear)"/><path d="M558.012 2883.98l-114.396-15.87-155.971-174.89 270.367 190.76z" stroke="url(#paint78_linear)"/><path d="M610.815 2289l255.269-292.69 472.066 22.58L610.815 2289z" stroke="url(#paint79_linear)"/><path d="M974.441 2508.81l-117.417 411.34 170.686 379.01-53.269-790.35z" stroke="url(#paint80_linear)"/><path d="M625.702 2046.81l117.416 411.34-170.686 379.01 53.27-790.35z" stroke="url(#paint81_linear)"/><path d="M406.271 2817.61L68.554 3148.48l-33.817 816.08 371.534-1146.95z" stroke="url(#paint82_linear)"/><path d="M132.159 2769.72l283.984-149.88 829.257 57.6-1113.241 92.28z" stroke="url(#paint83_linear)"/><path d="M989.743 2696.21L717.712 2889.8l-389.086 819.49 661.117-1013.08z" stroke="url(#paint84_linear)"/><path d="M897.794 3948.59l-337.717-330.88-33.816-816.08 371.533 1146.96z" stroke="url(#paint85_linear)"/><path d="M689.136 2618.85l-253.817-291.03-469.386 22.46 723.203 268.57z" stroke="url(#paint86_linear)" stroke-width="2"/><path d="M1675.76 3063.02l-537.07-921.69 493.3 22.69 43.77 899z" stroke="url(#paint87_linear)" stroke-width="2"/><path d="M879.085 2804.2l-37.498-328.98 346.623-830.18L879.085 2804.2z" stroke="url(#paint88_linear)" stroke-width="2"/><path d="M782.249 2733.83l33.078-188.11-196.11-334.27 163.032 522.38z" stroke="url(#paint89_linear)" stroke-width="2"/><path d="M894.689 2363.92l164.181-97.6 382.07 64.9-546.251 32.7z" stroke="url(#paint90_linear)" stroke-width="2"/></g></g><defs><linearGradient id="paint1_linear" x1="1800.01" y1="1103.82" x2="1133.88" y2="727.158" gradientUnits="userSpaceOnUse"><stop stop-color="#4694D2"/><stop offset="1" stop-color="#0075D1"/></linearGradient><linearGradient id="paint2_linear" x1="1566.61" y1="814.567" x2="1211.2" y2="184.175" gradientUnits="userSpaceOnUse"><stop stop-color="#4694D2"/><stop offset="1" stop-color="#0075D1"/></linearGradient><linearGradient id="paint3_linear" x1="1277.02" y1="241.273" x2="295.172" y2="-21.814" gradientUnits="userSpaceOnUse"><stop stop-color="#4694D2"/><stop offset="1" stop-color="#0075D1"/></linearGradient><linearGradient id="paint4_linear" x1="446.144" y1="1108.19" x2="213.666" y2="58.029" gradientUnits="userSpaceOnUse"><stop stop-color="#4694D2"/><stop offset="1" stop-color="#0075D1"/></linearGradient><linearGradient id="paint5_linear" x1="1458.67" y1="1010.19" x2="1691.14" y2="-39.971" gradientUnits="userSpaceOnUse"><stop stop-color="#4694D2"/><stop offset="1" stop-color="#0075D1"/></linearGradient><linearGradient id="paint6_linear" x1="1288.07" y1="460.17" x2="168.136" y2="822.435" gradientUnits="userSpaceOnUse"><stop stop-color="#4694D2"/><stop offset="1" stop-color="#0075D1"/></linearGradient><linearGradient id="paint7_linear" x1="1338.62" y1="999.908" x2="739.004" y2="839.241" gradientUnits="userSpaceOnUse"><stop stop-color="#4694D2"/><stop offset="1" stop-color="#0075D1"/></linearGradient><linearGradient id="paint8_linear" x1="1681.96" y1="-21.489" x2="1322.51" y2="326.393" gradientUnits="userSpaceOnUse"><stop stop-color="#4694D2"/><stop offset="1" stop-color="#0075D1"/></linearGradient><linearGradient id="paint9_linear" x1="1077.6" y1="808.247" x2="1275.49" y2="348.831" gradientUnits="userSpaceOnUse"><stop stop-color="#4694D2"/><stop offset="1" stop-color="#0075D1"/></linearGradient><linearGradient id="paint10_linear" x1="529.602" y1="936.674" x2="795.451" y2="794.942" gradientUnits="userSpaceOnUse"><stop stop-color="#4694D2"/><stop offset="1" stop-color="#0075D1"/></linearGradient><linearGradient id="paint11_linear" x1="82.09" y1="-23.042" x2="-23.421" y2="649.24" gradientUnits="userSpaceOnUse"><stop stop-color="#4694D2"/><stop offset="1" stop-color="#0075D1"/></linearGradient><linearGradient id="paint12_linear" x1="2040.92" y1="134.159" x2="1374.8" y2="510.824" gradientUnits="userSpaceOnUse"><stop stop-color="#4694D2"/><stop offset="1" stop-color="#0075D1"/></linearGradient><linearGradient id="paint13_linear" x1="886.373" y1="95.793" x2="671.438" y2="477.029" gradientUnits="userSpaceOnUse"><stop stop-color="#4694D2"/><stop offset="1" stop-color="#0075D1"/></linearGradient><linearGradient id="paint14_linear" x1="424.373" y1="880.029" x2="209.438" y2="498.793" gradientUnits="userSpaceOnUse"><stop stop-color="#4694D2"/><stop offset="1" stop-color="#0075D1"/></linearGradient><linearGradient id="paint15_linear" x1="1757.94" y1="935.709" x2="776.086" y2="1198.8" gradientUnits="userSpaceOnUse"><stop stop-color="#4694D2"/><stop offset="1" stop-color="#0075D1"/></linearGradient><linearGradient id="paint16_linear" x1="715.144" y1="72.029" x2="482.666" y2="1122.19" gradientUnits="userSpaceOnUse"><stop stop-color="#4694D2"/><stop offset="1" stop-color="#0075D1"/></linearGradient><linearGradient id="paint17_linear" x1="1639.99" y1="810.812" x2="520.051" y2="448.547" gradientUnits="userSpaceOnUse"><stop stop-color="#4694D2"/><stop offset="1" stop-color="#0075D1"/></linearGradient><linearGradient id="paint18_linear" x1="1479.9" y1="143.139" x2="1047.46" y2="259.01" gradientUnits="userSpaceOnUse"><stop stop-color="#4694D2"/><stop offset="1" stop-color="#0075D1"/></linearGradient><linearGradient id="paint19_linear" x1="1922.88" y1="1259.47" x2="1563.43" y2="911.589" gradientUnits="userSpaceOnUse"><stop stop-color="#4694D2"/><stop offset="1" stop-color="#0075D1"/></linearGradient><linearGradient id="paint20_linear" x1="758.257" y1="444.187" x2="1740.11" y2="707.273" gradientUnits="userSpaceOnUse"><stop stop-color="#4694D2"/><stop offset="1" stop-color="#0075D1"/></linearGradient><linearGradient id="paint21_linear" x1="1776.6" y1="400.736" x2="1974.49" y2="860.151" gradientUnits="userSpaceOnUse"><stop stop-color="#4694D2"/><stop offset="1" stop-color="#0075D1"/></linearGradient><linearGradient id="paint22_linear" x1="780.602" y1="317.308" x2="1046.45" y2="459.04" gradientUnits="userSpaceOnUse"><stop stop-color="#4694D2"/><stop offset="1" stop-color="#0075D1"/></linearGradient><linearGradient id="paint23_linear" x1="333.089" y1="1277.02" x2="227.579" y2="604.742" gradientUnits="userSpaceOnUse"><stop stop-color="#4694D2"/><stop offset="1" stop-color="#0075D1"/></linearGradient><linearGradient id="paint24_linear" x1="-32.031" y1="-382.841" x2="634.092" y2="-6.176" gradientUnits="userSpaceOnUse"><stop stop-color="#4694D2"/><stop offset="1" stop-color="#0075D1"/></linearGradient><linearGradient id="paint25_linear" x1="328.367" y1="-118.584" x2="683.772" y2="511.807" gradientUnits="userSpaceOnUse"><stop stop-color="#4694D2"/><stop offset="1" stop-color="#0075D1"/></linearGradient><linearGradient id="paint26_linear" x1="966.198" y1="-332.743" x2="1198.67" y2="717.421" gradientUnits="userSpaceOnUse"><stop stop-color="#4694D2"/><stop offset="1" stop-color="#0075D1"/></linearGradient><linearGradient id="paint27_linear" x1="1010.46" y1="378.44" x2="-51.194" y2="551.03" gradientUnits="userSpaceOnUse"><stop stop-color="#4694D2"/><stop offset="1" stop-color="#0075D1"/></linearGradient><linearGradient id="paint28_linear" x1="368.906" y1="293.812" x2="1488.84" y2="-68.453" gradientUnits="userSpaceOnUse"><stop stop-color="#4694D2"/><stop offset="1" stop-color="#0075D1"/></linearGradient><linearGradient id="paint29_linear" x1="-493.707" y1="-63.683" x2="524.276" y2="527.249" gradientUnits="userSpaceOnUse"><stop stop-color="#4694D2"/><stop offset="1" stop-color="#0075D1"/></linearGradient><linearGradient id="paint30_linear" x1="467.075" y1="-143.028" x2="899.512" y2="-27.157" gradientUnits="userSpaceOnUse"><stop stop-color="#4694D2"/><stop offset="1" stop-color="#0075D1"/></linearGradient><linearGradient id="paint31_linear" x1="86.014" y1="742.471" x2="445.463" y2="394.589" gradientUnits="userSpaceOnUse"><stop stop-color="#4694D2"/><stop offset="1" stop-color="#0075D1"/></linearGradient><linearGradient id="paint32_linear" x1="242.379" y1="-132.264" x2="44.483" y2="327.151" gradientUnits="userSpaceOnUse"><stop stop-color="#4694D2"/><stop offset="1" stop-color="#0075D1"/></linearGradient><linearGradient id="paint33_linear" x1="1685.89" y1="744.024" x2="1791.4" y2="71.742" gradientUnits="userSpaceOnUse"><stop stop-color="#4694D2"/><stop offset="1" stop-color="#0075D1"/></linearGradient><linearGradient id="paint34_linear" x1="1988.14" y1="153.978" x2="1100.71" y2="655.779" gradientUnits="userSpaceOnUse"><stop stop-color="#4694D2"/><stop offset="1" stop-color="#0075D1"/></linearGradient><linearGradient id="paint35_linear" x1="1165.6" y1="-131.489" x2="1525.05" y2="216.393" gradientUnits="userSpaceOnUse"><stop stop-color="#4694D2"/><stop offset="1" stop-color="#0075D1"/></linearGradient><linearGradient id="paint36_linear" x1="1609.6" y1="-144.489" x2="1969.05" y2="203.393" gradientUnits="userSpaceOnUse"><stop stop-color="#4694D2"/><stop offset="1" stop-color="#0075D1"/></linearGradient><linearGradient id="paint37_linear" x1="1583.01" y1="2330.82" x2="916.883" y2="1954.16" gradientUnits="userSpaceOnUse"><stop stop-color="#4694D2"/><stop offset="1" stop-color="#0075D1"/></linearGradient><linearGradient id="paint38_linear" x1="1349.61" y1="2041.57" x2="994.203" y2="1411.18" gradientUnits="userSpaceOnUse"><stop stop-color="#4694D2"/><stop offset="1" stop-color="#0075D1"/></linearGradient><linearGradient id="paint39_linear" x1="1060.02" y1="1468.27" x2="78.172" y2="1205.19" gradientUnits="userSpaceOnUse"><stop stop-color="#4694D2"/><stop offset="1" stop-color="#0075D1"/></linearGradient><linearGradient id="paint40_linear" x1="229.144" y1="2335.19" x2="-3.334" y2="1285.03" gradientUnits="userSpaceOnUse"><stop stop-color="#4694D2"/><stop offset="1" stop-color="#0075D1"/></linearGradient><linearGradient id="paint41_linear" x1="1241.67" y1="2237.19" x2="1474.14" y2="1187.03" gradientUnits="userSpaceOnUse"><stop stop-color="#4694D2"/><stop offset="1" stop-color="#0075D1"/></linearGradient><linearGradient id="paint42_linear" x1="1071.07" y1="1687.17" x2="-48.864" y2="2049.44" gradientUnits="userSpaceOnUse"><stop stop-color="#4694D2"/><stop offset="1" stop-color="#0075D1"/></linearGradient><linearGradient id="paint43_linear" x1="1121.62" y1="2226.91" x2="522.004" y2="2066.24" gradientUnits="userSpaceOnUse"><stop stop-color="#4694D2"/><stop offset="1" stop-color="#0075D1"/></linearGradient><linearGradient id="paint44_linear" x1="1464.96" y1="1205.51" x2="1105.51" y2="1553.39" gradientUnits="userSpaceOnUse"><stop stop-color="#4694D2"/><stop offset="1" stop-color="#0075D1"/></linearGradient><linearGradient id="paint45_linear" x1="860.596" y1="2035.25" x2="1058.49" y2="1575.83" gradientUnits="userSpaceOnUse"><stop stop-color="#4694D2"/><stop offset="1" stop-color="#0075D1"/></linearGradient><linearGradient id="paint46_linear" x1="312.602" y1="2163.67" x2="578.451" y2="2021.94" gradientUnits="userSpaceOnUse"><stop stop-color="#4694D2"/><stop offset="1" stop-color="#0075D1"/></linearGradient><linearGradient id="paint47_linear" x1="-134.911" y1="1203.96" x2="-240.421" y2="1876.24" gradientUnits="userSpaceOnUse"><stop stop-color="#4694D2"/><stop offset="1" stop-color="#0075D1"/></linearGradient><linearGradient id="paint48_linear" x1="1823.92" y1="1361.16" x2="1157.8" y2="1737.82" gradientUnits="userSpaceOnUse"><stop stop-color="#4694D2"/><stop offset="1" stop-color="#0075D1"/></linearGradient><linearGradient id="paint49_linear" x1="669.373" y1="1322.79" x2="454.438" y2="1704.03" gradientUnits="userSpaceOnUse"><stop stop-color="#4694D2"/><stop offset="1" stop-color="#0075D1"/></linearGradient><linearGradient id="paint50_linear" x1="207.373" y1="2107.03" x2="-7.562" y2="1725.79" gradientUnits="userSpaceOnUse"><stop stop-color="#4694D2"/><stop offset="1" stop-color="#0075D1"/></linearGradient><linearGradient id="paint51_linear" x1="1540.94" y1="2162.71" x2="559.086" y2="2425.8" gradientUnits="userSpaceOnUse"><stop stop-color="#4694D2"/><stop offset="1" stop-color="#0075D1"/></linearGradient><linearGradient id="paint52_linear" x1="498.144" y1="1299.03" x2="265.666" y2="2349.19" gradientUnits="userSpaceOnUse"><stop stop-color="#4694D2"/><stop offset="1" stop-color="#0075D1"/></linearGradient><linearGradient id="paint53_linear" x1="1422.99" y1="2037.81" x2="303.051" y2="1675.55" gradientUnits="userSpaceOnUse"><stop stop-color="#4694D2"/><stop offset="1" stop-color="#0075D1"/></linearGradient><linearGradient id="paint54_linear" x1="1262.9" y1="1370.14" x2="830.463" y2="1486.01" gradientUnits="userSpaceOnUse"><stop stop-color="#4694D2"/><stop offset="1" stop-color="#0075D1"/></linearGradient><linearGradient id="paint55_linear" x1="1705.88" y1="2486.47" x2="1346.43" y2="2138.59" gradientUnits="userSpaceOnUse"><stop stop-color="#4694D2"/><stop offset="1" stop-color="#0075D1"/></linearGradient><linearGradient id="paint56_linear" x1="541.257" y1="1671.19" x2="1523.11" y2="1934.27" gradientUnits="userSpaceOnUse"><stop stop-color="#4694D2"/><stop offset="1" stop-color="#0075D1"/></linearGradient><linearGradient id="paint57_linear" x1="1559.6" y1="1627.74" x2="1757.49" y2="2087.15" gradientUnits="userSpaceOnUse"><stop stop-color="#4694D2"/><stop offset="1" stop-color="#0075D1"/></linearGradient><linearGradient id="paint58_linear" x1="563.602" y1="1544.31" x2="829.451" y2="1686.04" gradientUnits="userSpaceOnUse"><stop stop-color="#4694D2"/><stop offset="1" stop-color="#0075D1"/></linearGradient><linearGradient id="paint59_linear" x1="116.089" y1="2504.02" x2="10.579" y2="1831.74" gradientUnits="userSpaceOnUse"><stop stop-color="#4694D2"/><stop offset="1" stop-color="#0075D1"/></linearGradient><linearGradient id="paint60_linear" x1="-249.031" y1="844.159" x2="417.092" y2="1220.82" gradientUnits="userSpaceOnUse"><stop stop-color="#4694D2"/><stop offset="1" stop-color="#0075D1"/></linearGradient><linearGradient id="paint61_linear" x1="111.367" y1="1108.42" x2="466.772" y2="1738.81" gradientUnits="userSpaceOnUse"><stop stop-color="#4694D2"/><stop offset="1" stop-color="#0075D1"/></linearGradient><linearGradient id="paint62_linear" x1="1245.71" y1="1799.62" x2="485.158" y2="1039.06" gradientUnits="userSpaceOnUse"><stop stop-color="#4694D2"/><stop offset="1" stop-color="#0075D1"/></linearGradient><linearGradient id="paint63_linear" x1="793.457" y1="1605.44" x2="-268.194" y2="1778.03" gradientUnits="userSpaceOnUse"><stop stop-color="#4694D2"/><stop offset="1" stop-color="#0075D1"/></linearGradient><linearGradient id="paint64_linear" x1="151.906" y1="1520.81" x2="1271.84" y2="1158.55" gradientUnits="userSpaceOnUse"><stop stop-color="#4694D2"/><stop offset="1" stop-color="#0075D1"/></linearGradient><linearGradient id="paint65_linear" x1="-710.707" y1="1163.32" x2="307.276" y2="1754.25" gradientUnits="userSpaceOnUse"><stop stop-color="#4694D2"/><stop offset="1" stop-color="#0075D1"/></linearGradient><linearGradient id="paint66_linear" x1="250.075" y1="1083.97" x2="682.512" y2="1199.84" gradientUnits="userSpaceOnUse"><stop stop-color="#4694D2"/><stop offset="1" stop-color="#0075D1"/></linearGradient><linearGradient id="paint67_linear" x1="-130.986" y1="1969.47" x2="228.463" y2="1621.59" gradientUnits="userSpaceOnUse"><stop stop-color="#4694D2"/><stop offset="1" stop-color="#0075D1"/></linearGradient><linearGradient id="paint68_linear" x1="25.379" y1="1094.74" x2="-172.517" y2="1554.15" gradientUnits="userSpaceOnUse"><stop stop-color="#4694D2"/><stop offset="1" stop-color="#0075D1"/></linearGradient><linearGradient id="paint69_linear" x1="1021.37" y1="1011.31" x2="755.525" y2="1153.04" gradientUnits="userSpaceOnUse"><stop stop-color="#4694D2"/><stop offset="1" stop-color="#0075D1"/></linearGradient><linearGradient id="paint70_linear" x1="1468.89" y1="1971.02" x2="1574.4" y2="1298.74" gradientUnits="userSpaceOnUse"><stop stop-color="#4694D2"/><stop offset="1" stop-color="#0075D1"/></linearGradient><linearGradient id="paint71_linear" x1="1771.14" y1="1380.98" x2="883.712" y2="1882.78" gradientUnits="userSpaceOnUse"><stop stop-color="#4694D2"/><stop offset="1" stop-color="#0075D1"/></linearGradient><linearGradient id="paint72_linear" x1="948.598" y1="1095.51" x2="1308.05" y2="1443.39" gradientUnits="userSpaceOnUse"><stop stop-color="#4694D2"/><stop offset="1" stop-color="#0075D1"/></linearGradient><linearGradient id="paint73_linear" x1="1392.6" y1="1082.51" x2="1752.05" y2="1430.39" gradientUnits="userSpaceOnUse"><stop stop-color="#4694D2"/><stop offset="1" stop-color="#0075D1"/></linearGradient><linearGradient id="paint74_linear" x1="1046.71" y1="3402.02" x2="1309.8" y2="2420.17" gradientUnits="userSpaceOnUse"><stop stop-color="#4694D2"/><stop offset="1" stop-color="#0075D1"/></linearGradient><linearGradient id="paint75_linear" x1="179.789" y1="2571.14" x2="1229.95" y2="2338.67" gradientUnits="userSpaceOnUse"><stop stop-color="#4694D2"/><stop offset="1" stop-color="#0075D1"/></linearGradient><linearGradient id="paint76_linear" x1="827.812" y1="3413.07" x2="465.547" y2="2293.14" gradientUnits="userSpaceOnUse"><stop stop-color="#4694D2"/><stop offset="1" stop-color="#0075D1"/></linearGradient><linearGradient id="paint77_linear" x1="288.074" y1="3463.62" x2="448.741" y2="2864" gradientUnits="userSpaceOnUse"><stop stop-color="#4694D2"/><stop offset="1" stop-color="#0075D1"/></linearGradient><linearGradient id="paint78_linear" x1="351.308" y1="2654.6" x2="493.04" y2="2920.45" gradientUnits="userSpaceOnUse"><stop stop-color="#4694D2"/><stop offset="1" stop-color="#0075D1"/></linearGradient><linearGradient id="paint79_linear" x1="1311.02" y1="2207.09" x2="638.743" y2="2101.58" gradientUnits="userSpaceOnUse"><stop stop-color="#4694D2"/><stop offset="1" stop-color="#0075D1"/></linearGradient><linearGradient id="paint80_linear" x1="1192.19" y1="3011.37" x2="810.953" y2="2796.44" gradientUnits="userSpaceOnUse"><stop stop-color="#4694D2"/><stop offset="1" stop-color="#0075D1"/></linearGradient><linearGradient id="paint81_linear" x1="407.953" y1="2549.37" x2="789.189" y2="2334.44" gradientUnits="userSpaceOnUse"><stop stop-color="#4694D2"/><stop offset="1" stop-color="#0075D1"/></linearGradient><linearGradient id="paint82_linear" x1="352.273" y1="3882.94" x2="89.186" y2="2901.09" gradientUnits="userSpaceOnUse"><stop stop-color="#4694D2"/><stop offset="1" stop-color="#0075D1"/></linearGradient><linearGradient id="paint83_linear" x1="1215.95" y1="2840.14" x2="165.79" y2="2607.67" gradientUnits="userSpaceOnUse"><stop stop-color="#4694D2"/><stop offset="1" stop-color="#0075D1"/></linearGradient><linearGradient id="paint84_linear" x1="477.17" y1="3764.98" x2="839.435" y2="2645.05" gradientUnits="userSpaceOnUse"><stop stop-color="#4694D2"/><stop offset="1" stop-color="#0075D1"/></linearGradient><linearGradient id="paint85_linear" x1="843.796" y1="2883.26" x2="580.71" y2="3865.11" gradientUnits="userSpaceOnUse"><stop stop-color="#4694D2"/><stop offset="1" stop-color="#0075D1"/></linearGradient><linearGradient id="paint86_linear" x1="-9.404" y1="2538.09" x2="662.879" y2="2432.58" gradientUnits="userSpaceOnUse"><stop stop-color="#4694D2"/><stop offset="1" stop-color="#0075D1"/></linearGradient><linearGradient id="paint87_linear" x1="1650.46" y1="2172.97" x2="1273.8" y2="2839.09" gradientUnits="userSpaceOnUse"><stop stop-color="#4694D2"/><stop offset="1" stop-color="#0075D1"/></linearGradient><linearGradient id="paint88_linear" x1="1331.3" y1="1711.29" x2="740.372" y2="2729.28" gradientUnits="userSpaceOnUse"><stop stop-color="#4694D2"/><stop offset="1" stop-color="#0075D1"/></linearGradient><linearGradient id="paint89_linear" x1="525.15" y1="2291.01" x2="873.032" y2="2650.46" gradientUnits="userSpaceOnUse"><stop stop-color="#4694D2"/><stop offset="1" stop-color="#0075D1"/></linearGradient><linearGradient id="paint90_linear" x1="1399.89" y1="2447.38" x2="940.471" y2="2249.48" gradientUnits="userSpaceOnUse"><stop stop-color="#4694D2"/><stop offset="1" stop-color="#0075D1"/></linearGradient><radialGradient id="paint0_radial" cx="0" cy="0" r="1" gradientUnits="userSpaceOnUse" gradientTransform="matrix(1900 0 0 10378.7 0 1437.5)"><stop offset=".115" stop-color="#C4C4C4" stop-opacity=".33"/><stop offset=".5" stop-color="#C4C4C4"/><stop offset=".88" stop-color="#C4C4C4" stop-opacity=".33"/></radialGradient><filter id="filter0_d" x="0" y="0" width="1902" height="2879" filterUnits="userSpaceOnUse" color-interpolation-filters="sRGB"><feFlood flood-opacity="0" result="BackgroundImageFix"/><feColorMatrix in="SourceAlpha" values="0 0 0 0 0 0 0 0 0 0 0 0 0 0 0 0 0 0 127 0"/><feOffset dx="1" dy="3"/><feGaussianBlur stdDeviation=".5"/><feColorMatrix values="0 0 0 0 1 0 0 0 0 1 0 0 0 0 1 0 0 0 0.5 0"/><feBlend in2="BackgroundImageFix" result="effect1_dropShadow"/><feBlend in="SourceGraphic" in2="effect1_dropShadow" result="shape"/></filter></defs></svg>