<svg xmlns="http://www.w3.org/2000/svg" viewBox="0 0 49 34"><path d="M-.1-.4h49.3v34.1H-.1V-.4z" fill="#fff"/><path d="M-.2 9h49.3V-.1H-.2V9zm0 25h49.3v-9.1H-.2V34z" fill-rule="evenodd" clip-rule="evenodd" fill="#dd172c"/><path d="M-.2 24.9h49.3V9H-.2v15.9z" fill-rule="evenodd" clip-rule="evenodd" fill="#ffd133"/><path d="M12.7 15.8H15V17h-2.3v-1.2z" fill-rule="evenodd" clip-rule="evenodd" fill="#ffedb1"/><path d="M10.5 15h4.4c.2 0 .3.2.3.4l-.3 4.8c0 .5-.5.9-1 .9h-2.2c-.5 0-1-.4-1-.9l-.4-4.9c-.1-.1.1-.3.2-.3z" fill="none" stroke="#a41517" stroke-width=".667"/><path d="M10.4 17H15v1.1h-1.2l-1.2 2.2-1.2-2.2h-1.2V17h.2z" fill-rule="evenodd" clip-rule="evenodd" fill="#a41517"/><path d="M6.8 13.6h2.3v8H6.8v-8zm9.4 0h2.3v8h-2.3v-8zm-5.8-2.4H15v2.2h-4.7v-2.2z" fill="#a41517"/></svg>