<svg xmlns="http://www.w3.org/2000/svg" width="50" height="34" fill="none"><path d="M.1-.1h51V35H.1V-.1z" fill="#fff"/><defs><filter id="a" filterUnits="userSpaceOnUse" x="-7.2" y="-3.9" width="64.9" height="43.4"><feColorMatrix values="1 0 0 0 0 0 1 0 0 0 0 0 1 0 0 0 0 0 1 0"/></filter></defs><mask maskUnits="userSpaceOnUse" x="-7.2" y="-3.9" width="64.9" height="43.4" id="b"><path d="M.1-.1h51V35H.1V-.1z" fill="#fff" filter="url(#a)"/></mask><g mask="url(#b)"><path d="M.1-.1h51V35H.1V-.1z" fill="#0a17a7"/><path d="M-2.2-3.4l21.8 14.2V-2.4h12.2v13.2L53.5-3.4 56.2.5 39 11.6h12.1v11.7H39l17.2 11.2-2.7 3.9-21.8-14.1v13.1H19.6V24.3L-2.2 38.4-5 34.6l17.2-11.2H.1V11.6h12.2L-5 .4l2.8-3.8z" fill-rule="evenodd" clip-rule="evenodd" fill="#fff"/><path class="st5" d="M34.1 11.1L57.2-3.6M36.6 24l20.7 13.4M14.7 11L-6.9-3M17 23.8L-6.9 39.1"/><path d="M.1 21H22v14.1h7.3V21h21.9v-7H29.3V-.1H22V14H.1v7z" fill-rule="evenodd" clip-rule="evenodd" fill="#e6273e"/></g></svg>