<svg width="967" height="968" fill="none" xmlns="http://www.w3.org/2000/svg"><g clip-path="url(#clip0)" stroke="#51525C"><circle cx="487" cy="481.5" r="194.5" transform="rotate(-90 487 481.5)" stroke-dasharray="5 5"/><circle cx="508.309" cy="467.808" r="12.642" transform="rotate(87.13 508.309 467.808)" stroke-width="2" stroke-dasharray="6 4"/><circle cx="455.309" cy="468.808" r="12.642" transform="rotate(87.13 455.309 468.808)" stroke-width="2" stroke-dasharray="6 4"/><circle cx="509.309" cy="498.808" r="12.642" transform="rotate(87.13 509.309 498.808)" stroke-width="2" stroke-dasharray="6 4"/><circle cx="484.309" cy="514.808" r="12.642" transform="rotate(87.13 484.309 514.808)" stroke-width="2" stroke-dasharray="6 4"/><circle cx="457.309" cy="499.808" r="12.642" transform="rotate(87.13 457.309 499.808)" stroke-width="2" stroke-dasharray="6 4"/><circle cx="480.535" cy="453.496" r="12.642" transform="rotate(87.13 480.535 453.496)" stroke-width="2" stroke-dasharray="6 4"/><circle r="112.685" transform="scale(-1 1) rotate(86.697 -459.964 147.213)" stroke-width="2" stroke-dasharray="6 10"/><circle r="112.685" transform="scale(-1 1) rotate(87.107 -534.822 -171.88)" stroke-width="2" stroke-dasharray="6 10"/><circle r="112.685" transform="scale(-1 1) rotate(83.07 -643.038 82.518)" stroke-width="2" stroke-dasharray="6 10"/><circle r="112.685" transform="scale(-1 1) rotate(85.144 -664.642 -71.381)" stroke-width="2" stroke-dasharray="6 10"/><circle r="112.685" transform="scale(1 -1) rotate(-87.123 -51.334 -336.617)" stroke-width="2" stroke-dasharray="6 10"/><circle r="112.685" transform="matrix(0 1 1 0 483.461 256.962)" stroke-width="2" stroke-dasharray="6 10"/><circle cx="483.5" cy="484" r="481.5" transform="rotate(-90 483.5 484)" stroke-width="4" stroke-dasharray="6 22"/></g><defs><clipPath id="clip0"><path transform="rotate(-90 0 967.5)" fill="#fff" d="M0 967.5h967v967H0z"/></clipPath></defs></svg>