<svg width="314" height="109" fill="none" xmlns="http://www.w3.org/2000/svg"><path fill-rule="evenodd" clip-rule="evenodd" d="M32.3 53.2H19.9v-9.9c0-2.6-.1-3.9-.4-4.5-.3-.7-1.7-1.4-3.2-1.4-1.6 0-2.9.8-3.2 1.6-.3.8-.5 2.1-.5 4.8v29.4c0 2.5.2 4 .5 4.8.3.8 1.6 1.4 3.1 1.4 1.6 0 2.9-.6 3.2-1.4.3-.8.5-2.4.5-5.3v-6.8h12.4c0 5.4-.4 9.3-1.1 11.5-.8 2.3-2.5 4.3-5.1 6-2.6 1.7-5.8 2.6-9.7 2.6-4 0-7.3-.7-9.9-2.2-2.6-1.4-4.3-3.4-5.1-6C.6 75.2.1 71.4.1 66.3V50.9c0-3.8.1-6.6.4-8.5.3-1.9 1-3.7 2.3-5.4 1.3-1.7 3.1-3.1 5.3-4.1 2.3-1 4.9-1.5 7.8-1.5 4 0 7.3.8 9.9 2.3 2.6 1.5 4.3 3.5 5.1 5.8.8 2.3 1.2 5.9 1.2 10.8v2.9h.2zm32.1-20.7v8.1h-8.1v44.2H44.4V40.6h-8.1v-8.1h28.1zm78.2 6.6v16.4h3.3c1.2 0 2-.4 2.6-.9.8-.7 1.4-2.7 1.4-4.7v-7c0-2-.6-2.8-1.5-3.5-.6-.3-4-.3-5.8-.3zM131.3 32h11.4c3.7 0 7.6.1 9.6.7s3.8 1.2 4.9 2.5c.9 1.1 1.7 2.7 1.9 4.8.1 2.1.1 3.8.1 7v4.6c0 3.3-.1 4.7-.8 6.3-.7 1.5-2 2.7-3.8 3.5-1.8.8-5.3 1.2-8.3 1.2h-3.7v22.1h-11.3V32zm65.8 52.8h-11.3V40.4H179v32.1c0 3.9-.1 6.7-1.1 8.4-1 1.7-2.5 2.8-4.6 3.2-2 .4-3.8.6-8.3.6h-2.1v-6.9c1.7 0 2.8-.6 3.4-1 .6-.4.9-3.5.9-5.9V32.4H197v52.4h.1zm38 0h-9.3V52.4l-9.7 32.4H206V32.4h9.3v31.8l9.7-31.8h10.1v52.4zm38.8-52.3v52.3h-11.7V61.6h-6.8v23.2h-11.5V32.5h11.5v19.7h6.8V32.5h11.7zm8.5-.1H294l.1 23.1c5.5-.2 6.6-2.5 6.7-5.3l.3-10.2c.1-3.8.2-6.3 1.6-7.6h10.7c-1.2 1.3-1.4 3.9-1.4 7.9l.1 9c0 2.7-1.3 5.1-3.5 6.7-2.2 1.5-11.4 2-14.4 2.4 2.9.4 12 1.2 14.1 2.6 2.4 1.6 3.8 4.1 3.8 7l-.1 8.3c0 4 .2 6.8 1.4 8.5h-10.7c-1.5-1.3-1.6-4.9-1.6-8.7V65.9c0-1.3-.4-2.3-1.2-3.1-.8-.8-4.5-1.6-5.8-1.6l-.1 23.6h-11.6V32.4zM117.4 85h-.1.1zm-46.6 0h.1-.1zM93.9.3l14.6 40.4 1 2.7h-8.3l-6.9-21.2-6.9 21.2h-9l1-2.7L93.9.3z" fill="#ED8528" stroke="#44A1D1" stroke-width=".216" stroke-miterlimit="22.926"/><path fill-rule="evenodd" clip-rule="evenodd" d="M79.4 40.7L93.9.3l14.6 40.4H103l-8.9-27.3-8.9 27.3h-5.8zm45 44.3h-7l-8.9-27.4 4.8-3.4L124.4 85zm-53.5 0h-7.4l11.1-31 5.1 3.6L70.9 85zm46.4 0H70.9l23.2-16.9L117.3 85zM73.7 49.7l-8.6-6.2 10.8-.1-2.2 6.3zm40.9.3l-2.3-6.6 11.2.1-8.9 6.5z" fill="#ED8528" stroke="#44A1D1" stroke-width=".216" stroke-miterlimit="22.926"/><path fill-rule="evenodd" clip-rule="evenodd" d="M94.1 13.4l8.9 27.3h5.5L93.9.3 79.4 40.7h5.8l8.9-27.3zm14.4 44.2l8.9 27.4h7l-11.1-30.8-4.8 3.4zM74.6 54L63.5 85h7.4l8.8-27.4-5.1-3.6zm-3.7 31h46.4L94.1 68.1 70.9 85zm-5.8-41.5l8.6 6.2 2.2-6.3-10.8.1zm58.4 0l-11.2-.1 2.3 6.6 8.9-6.5zM.6 105.7V92.4h1.2v5.4h4.7v-5.4h1.2v13.3H6.5v-6.3H1.8v6.3H.6zm11.1-5.5h3.1l-.9-3.7c-.3-1.1-.5-2-.6-2.8-.1.9-.3 1.7-.5 2.5l-1.1 4zm-2.6 5.5l3.5-13.3h1.3l3.7 13.3h-1.4l-1.1-4h-3.8l-1 4H9.1zM18 92.4h1.2l3 8.1 2.6-8.1H26l-3.4 10.3c-.4 1.3-.8 2.2-1.1 2.6-.3.4-.6.6-1.1.6-.3 0-.7-.1-1.2-.3V104c.3.3.7.4 1 .4.3 0 .5-.1.8-.4.2-.3.4-.9.7-1.9L18 92.4zm15.8 13.3h-1.2v-5.4c-1.1.6-2 .9-2.8.9-.6 0-1.2-.2-1.6-.6-.5-.4-.8-1-1-1.6-.2-.7-.3-1.5-.3-2.7v-3.9h1.2v3.7c0 1.3.2 2.2.5 2.7s.8.8 1.4.8c.8 0 1.7-.3 2.6-.8v-6.5h1.2v13.4zm2.4 0V92.4h1.2v5.4h4.7v-5.4h1.2v13.3h-1.2v-6.3h-4.7v6.3h-1.2zm10.4-6.5c0 1.6.3 2.9.9 3.8.6.9 1.3 1.4 2.2 1.4.9 0 1.6-.5 2.2-1.4.6-.9.9-2.3.9-4 0-1.1-.2-2.2-.5-3.1-.2-.7-.6-1.2-1.1-1.7-.5-.4-1-.6-1.6-.6-.9 0-1.6.5-2.2 1.4-.5.9-.8 2.3-.8 4.2zm-1.2 0c0-2.3.4-4 1.2-5.2.8-1.2 1.9-1.8 3.1-1.8.8 0 1.5.3 2.2.8.7.5 1.2 1.3 1.6 2.4.4 1 .6 2.3.6 3.7 0 2-.4 3.6-1.1 4.8-.8 1.4-1.9 2-3.2 2-1.3 0-2.4-.7-3.2-2.1-.9-1.3-1.2-2.8-1.2-4.6zm15.1 6.5h-1.2V92.4h7.1v13.3h-1.2V93.9h-4.7v11.8zm9.5-7h2.3c.7 0 1.3-.2 1.6-.6.3-.4.5-1 .5-1.8 0-.5-.1-1-.3-1.4-.2-.4-.4-.6-.6-.8-.2-.1-.7-.2-1.3-.2H70v4.8zm-1.2 7V92.4h3.4c.8 0 1.4.1 1.8.3.5.2.9.7 1.2 1.3.3.6.5 1.4.5 2.3 0 1.2-.3 2.2-.8 2.9-.5.8-1.4 1.1-2.6 1.1H70v5.4h-1.2zm9.7-6.5c0 1.6.3 2.9.9 3.8.6.9 1.3 1.4 2.2 1.4.9 0 1.6-.5 2.2-1.4.6-.9.9-2.3.9-4 0-1.1-.2-2.2-.5-3.1-.2-.7-.6-1.2-1.1-1.7-.5-.4-1-.6-1.6-.6-.9 0-1.6.5-2.2 1.4-.5.9-.8 2.3-.8 4.2zm-1.2 0c0-2.3.4-4 1.2-5.2.8-1.2 1.9-1.8 3.1-1.8.8 0 1.5.3 2.2.8.7.5 1.2 1.3 1.6 2.4.4 1 .6 2.3.6 3.7 0 2-.4 3.6-1.1 4.8-.8 1.4-1.9 2-3.2 2-1.3 0-2.4-.7-3.2-2.1-.9-1.3-1.2-2.8-1.2-4.6zm10.6-6.8h1v10.5l4.9-10.5H95v13.3h-1.1V95.1l-4.8 10.6h-1.2V92.4zm8.9 9.5l1.1-.4c.1.6.3 1.3.7 1.9.4.7.9 1 1.5 1s1.1-.2 1.5-.7c.4-.5.6-1 .6-1.8 0-.7-.2-1.3-.6-1.8-.4-.4-.9-.6-1.6-.6h-.6V98c.6 0 1 0 1.3-.1.3-.1.5-.3.8-.7.2-.4.3-.8.3-1.3s-.1-1-.4-1.5c-.3-.4-.7-.7-1.3-.7-.4 0-.8.2-1.1.5-.3.3-.5.7-.7 1.3-.1.5-.2 1-.2 1.4l-1.1-.5c.3-2.8 1.3-4.2 3.2-4.2.9 0 1.6.4 2.1 1.1.5.7.8 1.6.8 2.5 0 1.2-.4 2.2-1.2 2.9.5.2.8.6 1.2 1.1.3.6.5 1.3.5 2.1 0 1.2-.3 2.1-.9 2.9-.6.8-1.4 1.1-2.4 1.1-1.8 0-3-1.3-3.5-4zm9.7 2.2h2.3c.5 0 .9-.1 1.1-.2.3-.2.6-.4.8-.8.2-.4.3-.8.3-1.4 0-.5-.1-.9-.3-1.3-.2-.3-.4-.6-.7-.8-.3-.2-.7-.2-1.4-.2h-2.1v4.7zm0-6.1h2c.5 0 .9 0 1.1-.1.3-.1.6-.3.7-.6.2-.3.3-.7.3-1.2s-.1-.9-.2-1.2c-.2-.3-.4-.5-.6-.7-.3-.1-.7-.2-1.4-.2h-1.8v4h-.1zm-1.2 7.7V92.4h3.4c.7 0 1.2.1 1.6.4.4.3.7.7 1 1.2.3.5.4 1.1.4 1.8 0 .6-.1 1.2-.3 1.6-.2.5-.5.9-.9 1.2.5.2.9.6 1.2 1.2.3.6.5 1.2.5 2s-.1 1.5-.4 2.1c-.3.6-.6 1-1.1 1.3-.5.3-1.1.4-1.9.4h-3.5v.1zm9.8-6.5c0 1.6.3 2.9.9 3.8.6.9 1.3 1.4 2.2 1.4.9 0 1.6-.5 2.2-1.4.6-.9.9-2.3.9-4 0-1.1-.2-2.2-.5-3.1-.2-.7-.6-1.2-1.1-1.7-.5-.4-1-.6-1.6-.6-.9 0-1.6.5-2.2 1.4-.5.9-.8 2.3-.8 4.2zm-1.3 0c0-2.3.4-4 1.2-5.2.8-1.2 1.9-1.8 3.1-1.8.8 0 1.5.3 2.2.8.7.5 1.2 1.3 1.6 2.4.4 1 .6 2.3.6 3.7 0 2-.4 3.6-1.1 4.8-.8 1.4-1.9 2-3.2 2-1.3 0-2.4-.7-3.2-2.1-.8-1.3-1.2-2.8-1.2-4.6zm15.8-5.3h-3.2v.7c0 1.1-.1 2.7-.2 4.6-.1 1.9-.4 3.6-.8 4.9h4.2V93.9zm-4.4-1.5h5.5v11.7h.8v4.7h-1.1v-3.1h-6v3.1h-1.1v-4.7h.7c.7-1.6 1.1-4.9 1.1-9.8v-1.9h.1zm14.6 8.6l1.2.4c-.3 1.5-.7 2.6-1.4 3.3-.7.7-1.5 1.1-2.4 1.1-.8 0-1.6-.2-2.1-.7-.6-.5-1.1-1.3-1.5-2.4-.4-1.1-.6-2.4-.6-3.9s.2-2.7.6-3.7c.4-1 .9-1.8 1.5-2.3.6-.5 1.4-.8 2.2-.8.9 0 1.6.3 2.3 1 .6.7 1.1 1.6 1.3 2.9l-1.2.4c-.4-1.8-1.2-2.8-2.4-2.8-.6 0-1.1.2-1.6.6-.4.4-.8 1-1.1 1.7-.3.8-.4 1.8-.4 3 0 1.8.3 3.2.8 4.1.5.9 1.2 1.4 2.1 1.4.7 0 1.2-.3 1.7-.8s.8-1.4 1-2.5zm5.4 4.7V93.9h-3v-1.5h7.2v1.5h-3v11.8h-1.2zm7-1.6h2.3c.5 0 .9-.1 1.1-.2.3-.2.6-.4.8-.8.2-.4.3-.8.3-1.4 0-.5-.1-.9-.3-1.3-.2-.3-.4-.6-.7-.8-.3-.2-.7-.2-1.4-.2h-2.1v4.7zm0-6.1h2c.5 0 .9 0 1.1-.1.3-.1.6-.3.7-.6.2-.3.3-.7.3-1.2s-.1-.9-.2-1.2c-.2-.3-.4-.5-.6-.7-.3-.1-.7-.2-1.4-.2h-1.8v4h-.1zm-1.2 7.7V92.4h3.4c.7 0 1.2.1 1.6.4.4.3.7.7 1 1.2.3.5.4 1.1.4 1.8 0 .6-.1 1.2-.3 1.6-.2.5-.5.9-.9 1.2.5.2.9.6 1.2 1.2.3.6.5 1.2.5 2s-.1 1.5-.4 2.1c-.3.6-.6 1-1.1 1.3-.5.3-1.1.4-1.9.4H151v.1zm8.9 0V92.4h6.5v1.5h-5.3V98h5v1.6h-5v4.5h5.5v1.6h-6.7zm8.8 0V92.4h1.2v5.4h4.7v-5.4h1.2v13.3h-1.2v-6.3h-4.7v6.3h-1.2zm9.5 0V92.4h1.2v5.4h4.7v-5.4h1.2v13.3h-1.2v-6.3h-4.7v6.3h-1.2zm10.4-6.5c0 1.6.3 2.9.9 3.8.6.9 1.3 1.4 2.2 1.4.9 0 1.6-.5 2.2-1.4.6-.9.9-2.3.9-4 0-1.1-.2-2.2-.5-3.1-.2-.7-.6-1.2-1.1-1.7-.5-.4-1-.6-1.6-.6-.9 0-1.6.5-2.2 1.4-.5.9-.8 2.3-.8 4.2zm-1.2 0c0-2.3.4-4 1.2-5.2.8-1.2 1.9-1.8 3.1-1.8.8 0 1.5.3 2.2.8.7.5 1.2 1.3 1.6 2.4.4 1 .6 2.3.6 3.7 0 2-.4 3.6-1.1 4.8-.8 1.4-1.9 2-3.2 2-1.3 0-2.4-.7-3.2-2.1-.8-1.3-1.2-2.8-1.2-4.6zm10.6 6.5V92.4h6.5v1.5h-5.3V98h5v1.6h-5v4.5h5.6v1.6H198zm14.4 0h-1.2V92.4h7.1v13.3h-1.2V93.9h-4.7v11.8zm9.5-7h2.3c.7 0 1.3-.2 1.6-.6.3-.4.5-1 .5-1.8 0-.5-.1-1-.3-1.4-.2-.4-.4-.6-.6-.8-.2-.1-.7-.2-1.3-.2h-2.3v4.8h.1zm-1.2 7V92.4h3.4c.8 0 1.4.1 1.8.3.5.2.9.7 1.2 1.3.3.6.5 1.4.5 2.3 0 1.2-.3 2.2-.8 2.9-.5.8-1.4 1.1-2.6 1.1h-2.3v5.4h-1.2zm8.8 0V92.4h6.6v1.5h-5.4V98h5v1.6h-5v4.5h5.6v1.6h-6.8zm13.9-11.8h-3.2v.7c0 1.1-.1 2.7-.2 4.6-.1 1.9-.4 3.6-.8 4.9h4.2V93.9zm-4.3-1.5h5.5v11.7h.8v4.7h-1.1v-3.1h-6v3.1h-1.1v-4.7h.7c.7-1.6 1.1-4.9 1.1-9.8v-1.9h.1zm9.4 13.3h-1.2V92.4h7.1v13.3h-1.2V93.9h-4.7v11.8zm9.5-7h2.3c.7 0 1.3-.2 1.6-.6.3-.4.5-1 .5-1.8 0-.5-.1-1-.3-1.4-.2-.4-.4-.6-.6-.8-.2-.1-.7-.2-1.3-.2H258v4.8zm-1.2 7V92.4h3.4c.8 0 1.4.1 1.8.3.5.2.9.7 1.2 1.3.3.6.5 1.4.5 2.3 0 1.2-.3 2.2-.8 2.9-.5.8-1.4 1.1-2.6 1.1H258v5.4h-1.2zm8.8-13.3h1.1v10.5l4.9-10.5h1.2v13.3h-1.1V95.1l-4.9 10.6h-1.2V92.4zm15.5 1.4h-2.9c-.6 0-1.1.2-1.5.6-.3.4-.5.9-.5 1.6 0 .5.1.9.3 1.2.2.4.4.6.7.8.3.2.7.2 1.3.2h2.6v-4.4zm0 11.9v-5.9h-1.4c-.4 0-.7.1-.9.2-.2.1-.5.4-.7.8-.2.4-.6 1.1-1.1 2.2l-1.2 2.8h-1.5l1.6-3.6c.3-.6.6-1.2.9-1.7.2-.2.4-.5.8-.7-.8-.2-1.5-.6-1.9-1.2-.4-.6-.7-1.4-.7-2.4 0-.8.1-1.4.4-2 .3-.6.6-1 1-1.2.4-.2 1-.4 1.9-.4h4v13.3h-1.2v-.2zm5.9 0V93.9h-3v-1.5h7.2v1.5h-3v11.8H287zm5.8-13.3h1.1v10.5l4.8-10.5h1.2v13.3h-1.1V95.1l-4.8 10.6h-1.2V92.4zm9.5 13.3V92.4h6.5v1.5h-5.3V98h5v1.6h-5v4.5h5.5v1.6h-6.7z" fill="#ED8528" stroke="#44A1D1" stroke-width=".216" stroke-miterlimit="22.926"/><path d="M58 98.3h-2.8v1.2H58v-1.2z" fill="#ED8528" stroke="#44A1D1" stroke-width=".216" stroke-miterlimit="22.926"/></svg>